<?xml version="1.0" standalone="no"?>
<!DOCTYPE svg PUBLIC "-//W3C//DTD SVG 1.1//EN" "http://www.w3.org/Graphics/SVG/1.1/DTD/svg11.dtd" >
<svg xmlns="http://www.w3.org/2000/svg">
<metadata></metadata>
<defs>
<font id="neosansblack" horiz-adv-x="1363" >
<font-face units-per-em="2048" ascent="1638" descent="-410" />
<missing-glyph horiz-adv-x="516" />
<glyph horiz-adv-x="2048" />
<glyph horiz-adv-x="2048" />
<glyph unicode="&#xd;" horiz-adv-x="516" />
<glyph unicode=" "  horiz-adv-x="516" />
<glyph unicode="&#x09;" horiz-adv-x="516" />
<glyph unicode="&#xa0;" horiz-adv-x="516" />
<glyph unicode="&#x26;" horiz-adv-x="1527" d="M90 395v13q0 76 19.5 134t54.5 106t84 87t108 76l-18 20q-53 57 -86 102.5t-51.5 82.5t-25.5 70.5t-7 68.5v16q0 76 27.5 142.5t88 118t156 81t232.5 29.5q125 0 218 -27.5t154.5 -76.5t91 -117t29.5 -150v-16q0 -70 -17.5 -121t-49 -93t-75.5 -77t-97 -71l-74 -52 l213 -225q29 86 29 191v26q0 16 11 28.5t28 12.5h231q16 0 27.5 -12t11.5 -29v-26q0 -117 -28.5 -223.5t-86.5 -198.5l219 -232q13 -12 13 -26q0 -27 -29 -27h-350q-12 0 -19.5 4t-17.5 14l-49 50q-76 -41 -168 -63.5t-203 -22.5q-131 0 -239.5 22.5t-187.5 71.5t-123 128 t-44 191zM492 395q0 -63 48 -101t144 -38q92 0 164 31l-270 286q-53 -35 -69.5 -76.5t-16.5 -88.5v-13zM532 1155q0 -41 15.5 -77t68.5 -89l15 -14l49 33q72 49 96.5 76.5t24.5 70.5v16q0 45 -32 74t-97 29q-74 0 -107 -28.5t-33 -74.5v-16z" />
<glyph unicode="," horiz-adv-x="595" d="M29 -170q0 2 1 4t1 4l137 488q4 16 15.5 28.5t27.5 12.5h301q31 0 31 -29q0 -8 -2 -12l-213 -488q-8 -16 -19.5 -28.5t-27.5 -12.5h-213q-16 0 -27.5 9.5t-11.5 23.5z" />
<glyph unicode="-" horiz-adv-x="577" d="M51 512v209q0 16 12.5 27.5t28.5 11.5h395q16 0 28.5 -11.5t12.5 -27.5v-209q0 -16 -12 -27.5t-29 -11.5h-395q-16 0 -28.5 11.5t-12.5 27.5z" />
<glyph unicode="." horiz-adv-x="595" d="M106 41v285q0 16 13.5 28.5t30.5 12.5h296q16 0 29.5 -12.5t13.5 -28.5v-285q0 -16 -13 -28.5t-30 -12.5h-296q-16 0 -30 12.5t-14 28.5z" />
<glyph unicode="0" d="M113 662v198q0 354 147.5 518t421.5 164q272 0 420.5 -164t148.5 -518v-198q0 -178 -37.5 -306.5t-110.5 -211.5t-178.5 -122.5t-242.5 -39.5q-274 0 -421.5 162.5t-147.5 517.5zM530 662q0 -104 11.5 -169t32 -101t48 -48t60.5 -12t60.5 12t48 48t32 100.5t11.5 169.5 v198q0 104 -11.5 169t-32 100.5t-48 48t-60.5 12.5t-60.5 -12.5t-48 -48t-32 -100t-11.5 -169.5v-198z" />
<glyph unicode="1" d="M219 1040v291q0 25 25 35l331 147q18 8 48 9h235q39 0 39 -39v-1442q0 -16 -11.5 -28.5t-27.5 -12.5h-334q-16 0 -28.5 12.5t-12.5 28.5v1067l-219 -86q-16 -6 -24 -6q-20 0 -21 24z" />
<glyph unicode="2" d="M154 41v217q0 170 67.5 297t175.5 207l176 131q82 61 128.5 96t69 56.5t27.5 37t5 37.5q0 25 -7.5 42.5t-29 28.5t-58 16t-98.5 5q-98 0 -200.5 -8t-198.5 -16h-4q-16 0 -26.5 12t-10.5 29v198q0 16 11.5 24.5t27.5 14.5q92 33 212 54.5t249 21.5q147 0 250.5 -25.5 t168 -75.5t94 -127t29.5 -177q0 -121 -55 -214.5t-160 -160.5l-166 -111q-59 -39 -113 -73.5t-96 -69.5t-67 -72t-25 -80v-6h619q16 0 28.5 -12t12.5 -29v-268q0 -16 -12.5 -28.5t-28.5 -12.5h-954q-16 0 -28.5 12.5t-12.5 28.5z" />
<glyph unicode="3" d="M156 92v201q0 16 10 27.5t27 11.5h4q47 -4 102 -7t111.5 -6.5t110.5 -5.5t102 -2q94 0 134 35t40 96v33q0 29 -6.5 55.5t-22.5 46t-48 32t-83 12.5h-340q-16 0 -28.5 12t-12.5 29v219q0 16 12.5 27.5t28.5 11.5h340q49 0 80 13t48 34.5t24.5 49t7.5 54.5v33 q0 61 -40 83.5t-118 22.5q-106 0 -219 -7t-213 -15h-4q-16 0 -27.5 11t-11.5 28v200q0 16 13 25.5t30 15.5q37 14 85 27.5t104.5 24t117.5 16.5t125 6q129 0 233.5 -21.5t178 -69.5t113.5 -127t40 -194v-28q0 -86 -45 -176t-141 -150q86 -45 138 -120.5t52 -180.5v-33 q0 -121 -39 -206.5t-111.5 -143t-176 -84t-232.5 -26.5q-63 0 -127.5 6t-125 15t-112 21.5t-87.5 26.5q-16 6 -28.5 15.5t-12.5 25.5z" />
<glyph unicode="4" d="M88 358v232q0 33 23 61l663 852q10 12 21.5 15.5t27.5 3.5h252q16 0 28.5 -12.5t12.5 -28.5v-848h119q16 0 28.5 -12.5t12.5 -28.5v-234q0 -16 -12.5 -28.5t-28.5 -12.5h-119v-276q0 -16 -12 -28.5t-29 -12.5h-336q-16 0 -27.5 12.5t-11.5 28.5v276h-571 q-16 0 -28.5 12.5t-12.5 28.5zM418 639q0 -6 10 -6h289v389q0 8 -4 8q-2 0 -6 -4l-283 -375q-6 -10 -6 -12z" />
<glyph unicode="5" d="M164 92v203q0 16 11 27.5t28 11.5h4q37 -4 87 -8t100 -7.5t92 -5.5t63 -2q74 0 119 10.5t69.5 32t32.5 54t8 79.5v21q0 76 -45 108.5t-172 32.5h-358q-35 0 -35 33v4l63 797q2 16 13.5 27.5t27.5 11.5h848q16 0 28.5 -11.5t12.5 -27.5v-254q0 -16 -12 -27.5t-29 -11.5 h-557l-20 -225h84q299 0 437 -114t138 -343v-21q0 -127 -41 -222t-115.5 -158.5t-182 -94t-242.5 -30.5q-106 0 -214 17t-200 50q-16 6 -29.5 14.5t-13.5 28.5z" />
<glyph unicode="6" d="M125 553v422q0 154 44 261t122 176t181 99.5t224 30.5q143 0 249 -16.5t179 -36.5q29 -8 37 -19.5t8 -29.5v-215q0 -43 -36 -43h-11q-37 6 -81 11t-93 9t-98 6t-94 2q-68 0 -112 -10t-68.5 -36.5t-34 -73t-9.5 -115.5v-12q14 2 41 6t56.5 7t59.5 5t52 2 q125 0 219.5 -22.5t157 -74.5t93 -139.5t30.5 -216.5v-22q0 -121 -35 -217t-104.5 -166t-174 -106.5t-241.5 -36.5q-268 0 -414.5 145t-146.5 426zM532 553q0 -80 8.5 -130t27 -78t47 -38t71.5 -10q33 0 59.5 8t46 31.5t31 64.5t11.5 107v22q0 53 -10.5 86t-30 51.5 t-49 24.5t-68.5 6q-37 0 -77 -4t-67 -8v-133z" />
<glyph unicode="7" d="M172 1229v254q0 16 13.5 27.5t29.5 11.5h922q23 0 39 -15.5t16 -38.5v-188q0 -25 -9 -47.5t-20 -44.5l-524 -1147q-8 -18 -18.5 -29.5t-28.5 -11.5h-350q-18 0 -29.5 9t-11.5 22q0 6 4 14l534 1133v2q0 4 -7 7t-11 3h-506q-16 0 -29.5 11t-13.5 28z" />
<glyph unicode="8" d="M109 434v33q0 100 44 182t119 139q-72 51 -113.5 122t-41.5 173v37q0 203 137 312.5t416 109.5h24q276 0 414.5 -109.5t138.5 -312.5v-37q0 -102 -42 -172.5t-113 -122.5q76 -57 119.5 -139t43.5 -182v-33q0 -102 -35.5 -185t-106.5 -142.5t-176.5 -92t-242.5 -32.5h-24 q-137 0 -242.5 32.5t-176.5 92t-106.5 142.5t-35.5 185zM510 453q0 -74 41 -121t119 -47h24q78 0 119 47t41 121v22q0 68 -35 118t-114 50h-46q-80 0 -114.5 -49t-34.5 -119v-22zM510 1071q0 -68 39 -106.5t110 -38.5h46q72 0 110.5 39t38.5 106v12q0 59 -35 107.5 t-125 48.5h-24q-90 0 -125 -47t-35 -109v-12z" />
<glyph unicode="9" d="M125 993v23q0 119 35 216t104.5 166.5t174 106.5t241.5 37q268 0 414.5 -145.5t146.5 -425.5v-422q0 -154 -44 -261.5t-122 -176t-182.5 -99t-222.5 -30.5q-143 0 -249 16t-179 37q-29 8 -37 19.5t-8 29.5v215q0 43 36 43h11q37 -6 81 -11t93 -9.5t98 -6.5t94 -2 q68 0 112 10.5t68.5 37t34 71.5t9.5 117v12q-14 -4 -41 -7t-56.5 -6t-59.5 -5t-52 -2q-127 0 -220.5 22.5t-156 74.5t-93 139t-30.5 216zM532 993q0 -53 10.5 -86t30 -51t49 -24.5t68.5 -6.5q37 0 77 4.5t67 8.5v133q0 80 -8.5 130t-27 77.5t-47 38t-71.5 10.5 q-33 0 -59.5 -8.5t-46 -32t-31 -64.5t-11.5 -106v-23z" />
<glyph unicode="A" horiz-adv-x="1417" d="M39 33q0 4 1 5t1 5l274 1253q16 76 53.5 124t88.5 75t114.5 36t137.5 9t137 -9t114.5 -36t88 -75t53.5 -124l274 -1253q0 -4 1 -6t1 -4q0 -33 -32 -33h-357q-16 0 -26.5 11.5t-14.5 27.5l-57 285h-365l-57 -285q-4 -16 -14.5 -27.5t-26.5 -11.5h-354q-35 0 -35 33z M586 651h245l-100 520q-4 14 -6 21.5t-16 7.5t-16.5 -7t-6.5 -22z" />
<glyph unicode="B" horiz-adv-x="1411" d="M133 162v1202q0 82 27.5 112.5t99.5 41.5q33 6 83 10t105.5 7t108.5 5t92 2q152 0 275 -20.5t210 -69.5t134 -134t47 -214v-35q0 -98 -44 -175t-114 -116q70 -41 118 -119.5t48 -177.5v-26q0 -147 -58.5 -240.5t-152.5 -145t-214 -69.5t-243 -18q-39 0 -92 1t-107.5 4 t-105.5 8t-88 11t-61.5 15.5t-40 27t-21.5 45t-6 68.5zM543 319h168q121 0 166 41t45 107v18q0 61 -39 104.5t-142 43.5h-198v-314zM543 911h198q100 0 136 38t36 91v33q0 59 -44 95t-164 36h-30t-51.5 -1t-51 -1h-29.5v-291z" />
<glyph unicode="C" horiz-adv-x="1136" d="M96 655v211q0 176 45 303t128 210t200 122t258 39q98 0 172 -11t115 -26q25 -8 35 -15t10 -30v-262q0 -39 -37 -39h-6q-63 6 -131 12.5t-156 6.5q-41 0 -80 -11.5t-67.5 -45.5t-46 -94t-17.5 -159v-211q0 -96 17.5 -156.5t46 -94t66.5 -46t81 -12.5q88 0 155.5 6 t131.5 13h6q37 0 37 -39v-263q0 -20 -10.5 -28t-34.5 -17q-41 -14 -115 -25t-172 -11q-141 0 -258 38.5t-200 121.5t-128 210t-45 303z" />
<glyph unicode="D" horiz-adv-x="1425" d="M133 96v1331q0 41 15.5 57.5t50.5 22.5q80 14 200.5 24.5t268.5 10.5q152 0 274.5 -40t209.5 -122t134 -207.5t47 -298.5v-225q0 -172 -47 -298t-133 -208t-209 -121.5t-276 -39.5q-147 0 -268 10t-201 24q-35 6 -50.5 22.5t-15.5 57.5zM551 338q6 0 20.5 -1t33 -1h35.5 h28q61 0 107 14.5t77 49t46 96t15 153.5v225q0 92 -15 152.5t-46 95.5t-77 49.5t-107 14.5h-26.5t-35 -1t-34 -1h-21.5v-846z" />
<glyph unicode="E" horiz-adv-x="1198" d="M121 440v643q0 147 45 237.5t118.5 139.5t168 65.5t192.5 16.5q150 0 247 -8t157 -16q41 -6 41 -41v-250q0 -16 -12.5 -28.5t-28.5 -12.5h-414q-55 0 -76.5 -21.5t-21.5 -81.5v-149h503q16 0 28.5 -12.5t12.5 -28.5v-242q0 -16 -12 -28.5t-29 -12.5h-503v-170 q0 -59 21.5 -80.5t76.5 -21.5h414q16 0 28.5 -12.5t12.5 -28.5v-250q0 -35 -41 -41q-59 -8 -156.5 -16t-247.5 -8q-98 0 -192.5 15t-168 64.5t-118.5 139.5t-45 239z" />
<glyph unicode="F" horiz-adv-x="1187" d="M111 41v1040q0 147 45 237.5t118.5 139.5t168 65.5t192.5 16.5q150 0 247 -8t156 -16q41 -6 41 -41v-250q0 -16 -12 -28.5t-29 -12.5h-413q-55 0 -77 -21.5t-22 -81.5v-147h504q16 0 28.5 -12.5t12.5 -28.5v-242q0 -16 -12 -28.5t-29 -12.5h-504v-569q0 -16 -12 -28.5 t-29 -12.5h-333q-16 0 -28.5 12.5t-12.5 28.5z" />
<glyph unicode="G" horiz-adv-x="1345" d="M92 653v215q0 211 61.5 342t155.5 205t209 100.5t221 26.5q160 0 272.5 -19.5t176.5 -35.5q23 -6 31 -12.5t8 -26.5v-258q0 -33 -29 -33h-6q-59 4 -170 11.5t-225 7.5q-74 0 -127.5 -13.5t-88 -47.5t-51 -94t-16.5 -153v-217q0 -102 19.5 -164.5t49 -95.5t63.5 -43 t65 -10q59 0 112 6v420q0 16 11.5 28.5t27.5 12.5h324q16 0 28.5 -12.5t12.5 -28.5v-686q0 -23 -9.5 -33t-33.5 -14q-88 -18 -206 -33.5t-267 -15.5q-61 0 -131 11t-138.5 39.5t-132 77t-111.5 123t-77 178t-29 242.5z" />
<glyph unicode="H" horiz-adv-x="1527" d="M133 41v1442q0 16 13.5 27.5t29.5 11.5h334q16 0 28.5 -11.5t12.5 -27.5v-525h428v525q0 16 12.5 27.5t28.5 11.5h334q16 0 28.5 -11.5t12.5 -27.5v-1442q0 -16 -12.5 -28.5t-28.5 -12.5h-334q-16 0 -28.5 12.5t-12.5 28.5v557h-428v-557q0 -16 -12.5 -28.5t-28.5 -12.5 h-334q-16 0 -29.5 12.5t-13.5 28.5z" />
<glyph unicode="I" horiz-adv-x="684" d="M133 41v1442q0 16 12.5 27.5t28.5 11.5h336q16 0 28.5 -11.5t12.5 -27.5v-1442q0 -16 -12.5 -28.5t-28.5 -12.5h-336q-16 0 -28.5 12.5t-12.5 28.5z" />
<glyph unicode="J" horiz-adv-x="684" d="M-39 -115q0 16 12.5 28.5t28.5 12.5h76q35 0 45 19.5t10 58.5v1477q0 16 13.5 28.5t29.5 12.5h334q16 0 28.5 -12.5t12.5 -28.5v-1477q0 -119 -26.5 -195.5t-74 -121.5t-115 -62.5t-147.5 -17.5q-43 0 -90 3t-96 11q-25 4 -33 14.5t-8 26.5v223z" />
<glyph unicode="K" horiz-adv-x="1460" d="M133 41v1442q0 16 13.5 27.5t29.5 11.5h334q16 0 28.5 -11.5t12.5 -27.5v-649l393 655q8 14 18.5 23.5t26.5 9.5h393q29 0 29 -23q0 -12 -8 -22l-447 -705l449 -729q6 -10 6 -20q0 -23 -27 -23h-430q-18 0 -26 10t-17 25l-360 653v-647q0 -16 -12.5 -28.5t-28.5 -12.5 h-334q-16 0 -29.5 12.5t-13.5 28.5z" />
<glyph unicode="L" horiz-adv-x="1069" d="M133 440v1041q0 16 13.5 28.5t29.5 12.5h334q16 0 28.5 -12.5t12.5 -28.5v-1041q0 -59 21.5 -80.5t76.5 -21.5h332q16 0 28.5 -12.5t12.5 -28.5v-250q0 -35 -41 -41q-29 -6 -66.5 -10t-80.5 -7t-88.5 -5t-86.5 -2q-98 0 -192 15t-169 64.5t-120 139.5t-45 239z" />
<glyph unicode="M" horiz-adv-x="1722" d="M133 25v1421q0 31 22.5 53.5t53.5 22.5h227q39 0 63.5 -16.5t41.5 -45.5l297 -518q14 -25 22 -24q10 0 25 24l297 518q16 29 40.5 45.5t63.5 16.5h227q31 0 53.5 -22.5t22.5 -53.5v-1421q0 -16 -11 -20.5t-24 -4.5h-335q-12 0 -21.5 12.5t-9.5 28.5v752q0 20 -6 20 q-2 0 -6 -4h-2q-4 0 -9.5 -10.5t-9.5 -16.5l-164 -272q-25 -39 -59 -39h-141q-35 0 -60 39l-168 281q-4 6 -7 12t-7 6h-2q-4 4 -6 4q-8 0 -9 -20v-752q0 -16 -8 -28.5t-20 -12.5h-338q-12 0 -22.5 4t-10.5 21z" />
<glyph unicode="N" horiz-adv-x="1527" d="M133 41v1405q0 31 22.5 53.5t53.5 22.5h270q29 0 47.5 -15.5t34.5 -44.5l416 -706q10 -18 18 -19q4 0 7.5 3t3.5 16v725q0 16 12 28.5t29 12.5h307q16 0 28.5 -12.5t12.5 -28.5v-1405q0 -31 -22.5 -53.5t-53.5 -22.5h-275q-53 0 -86 55l-403 686q-10 16 -20 17 q-10 0 -11 -19v-698q0 -16 -12 -28.5t-29 -12.5h-307q-16 0 -29.5 12.5t-13.5 28.5z" />
<glyph unicode="O" horiz-adv-x="1449" d="M96 655v211q0 186 50.5 315.5t136.5 209t200.5 115.5t241.5 36t241.5 -36t200.5 -115.5t136.5 -208.5t50.5 -316v-211q0 -188 -50.5 -316t-136.5 -208t-200.5 -114.5t-241.5 -34.5t-241.5 34.5t-200.5 114.5t-136.5 208t-50.5 316zM518 655q0 -166 49 -236.5t158 -70.5 t158 70.5t49 236.5v211q0 166 -49 238t-158 72t-158 -72t-49 -238v-211z" />
<glyph unicode="P" horiz-adv-x="1386" d="M133 37v1343q0 74 26.5 99.5t92.5 36.5q39 6 90 11t109.5 8t118 5t114.5 2q115 0 228.5 -22.5t204.5 -81t148.5 -157.5t57.5 -253v-16q0 -152 -57.5 -251t-148.5 -158.5t-203.5 -83t-223.5 -23.5q-35 0 -69.5 2t-75.5 4v-461q0 -16 -12.5 -28.5t-28.5 -12.5h-328 q-16 0 -29.5 10t-13.5 27zM545 844q4 0 25.5 -1t46 -1h47h26.5q219 0 219 170v16q0 90 -57 128t-162 38h-27.5t-46 -1t-46 -1h-25.5v-348z" />
<glyph unicode="Q" horiz-adv-x="1447" d="M96 655v211q0 186 50.5 315.5t136.5 209t200.5 114.5t241.5 35t240.5 -35t199.5 -114.5t136.5 -208.5t50.5 -316v-211q0 -147 -33 -258.5t-90.5 -191.5t-136 -129t-170.5 -72v-39q0 -27 8 -33t28 -6h170q23 0 37.5 -8t14.5 -24v-209q0 -35 -50 -47q-53 -14 -117.5 -22.5 t-135.5 -8.5q-68 0 -130.5 16.5t-110.5 57t-77 109.5t-29 173v41q-94 23 -172.5 71t-137 127t-91.5 191.5t-33 261.5zM516 655q0 -166 50 -237.5t159 -71.5t158 71.5t49 237.5v211q0 166 -49 238t-158 72t-159 -72t-50 -238v-211z" />
<glyph unicode="R" horiz-adv-x="1449" d="M133 41v1339q0 74 26.5 99.5t92.5 36.5q31 4 82 9t110.5 9t122 6t117.5 2q143 0 261 -24.5t202 -83t131 -152.5t47 -235v-33q0 -82 -20.5 -147.5t-55.5 -116t-80 -85t-94 -55.5l297 -557q6 -12 6 -22q0 -31 -35 -31h-376q-16 0 -24.5 12.5t-16.5 28.5l-256 491l-15 9 q-16 0 -53 1t-53 1v-502q0 -16 -12.5 -28.5t-28.5 -12.5h-332q-16 0 -29.5 12.5t-13.5 28.5zM549 862q4 0 25.5 -1t48 -1h49h26.5q119 0 166 40t47 112v35q0 145 -204 145q-6 0 -30 -1t-50.5 -1t-50 -1t-27.5 -1v-326z" />
<glyph unicode="S" horiz-adv-x="1243" d="M80 1135q0 84 25.5 157.5t87 129t165 88t258.5 32.5q61 0 129 -4t132.5 -12t119 -17.5t84.5 -17.5q14 -4 25.5 -13.5t11.5 -25.5v-256q0 -16 -10 -27.5t-27 -11.5h-4q-31 2 -87 6t-121.5 9.5t-133 8.5t-123.5 3q-57 0 -79.5 -18.5t-22.5 -51.5q0 -29 20.5 -49.5 t85.5 -54.5l277 -148q150 -80 210 -181t60 -230q0 -86 -31.5 -170t-100 -151t-179.5 -107.5t-268 -40.5q-127 0 -229.5 15t-184.5 38q-16 4 -29.5 14t-13.5 27v252q0 20 11.5 30.5t27.5 10.5h4q33 -4 86 -9.5t113.5 -9.5t118 -8t98.5 -4q76 0 102.5 27.5t26.5 76.5 q0 31 -19.5 52.5t-77.5 56.5l-294 174q-72 43 -119 90t-75 98.5t-39 106.5t-11 115z" />
<glyph unicode="T" horiz-adv-x="1216" d="M51 1221v262q0 16 12.5 27.5t28.5 11.5h1032q16 0 29.5 -11.5t13.5 -27.5v-262q0 -16 -13 -27.5t-30 -11.5h-305v-1141q0 -16 -12 -28.5t-29 -12.5h-334q-16 0 -28.5 12.5t-12.5 28.5v1141h-311q-16 0 -28.5 11t-12.5 28z" />
<glyph unicode="U" horiz-adv-x="1497" d="M129 578v903q0 16 13.5 28.5t29.5 12.5h332q16 0 28.5 -12.5t12.5 -28.5v-903q0 -139 47 -192.5t156 -53.5t156.5 53t47.5 193v903q0 16 12.5 28.5t28.5 12.5h332q16 0 29.5 -12.5t13.5 -28.5v-903q0 -186 -52 -302t-138 -181.5t-198 -89t-232 -23.5q-121 0 -233 23.5 t-198 89t-137 181t-51 302.5z" />
<glyph unicode="V" horiz-adv-x="1466" d="M63 1491q0 31 35 31h355q16 0 27.5 -11.5t15.5 -27.5l215 -1133q4 -14 7 -21t15 -7t16.5 7t8.5 21l215 1133q4 16 14 27.5t27 11.5h356q33 0 33 -31q0 -2 -1 -4t-1 -6l-275 -1254q-16 -76 -52 -124t-87 -74.5t-115.5 -36.5t-138.5 -10t-138.5 10t-115.5 36.5t-87 75 t-52 123.5l-274 1254q0 4 -1.5 5t-1.5 5z" />
<glyph unicode="W" horiz-adv-x="1878" d="M55 1495v4q0 14 11.5 18.5t21.5 4.5h348q27 0 31 -39l100 -908q4 -27 15 -26q10 0 16 26l119 414q14 51 44 69.5t77 18.5h215q47 0 76.5 -18.5t44.5 -69.5l118 -414q6 -27 17 -26q10 0 14 26l100 908q4 39 31 39h348q10 0 21.5 -4.5t11.5 -18.5v-4l-180 -1321 q-8 -53 -21.5 -87t-34 -53.5t-48 -26.5t-60.5 -7h-211q-68 0 -103.5 35t-62.5 123l-151 516q-4 12 -6.5 15t-10.5 3t-11 -3t-7 -15l-152 -516q-27 -88 -62.5 -123t-103.5 -35h-211q-35 0 -61.5 7t-47 26.5t-33.5 53.5t-21 87z" />
<glyph unicode="X" horiz-adv-x="1507" d="M74 25q0 4 4 16l418 754l-414 688q-4 8 -4 14q0 25 26 25h418q16 0 27.5 -12.5t21.5 -26.5l211 -348l181 348q8 14 20 26.5t29 12.5h385q27 0 26 -25q0 -6 -4 -14l-411 -725l430 -717q6 -10 6 -18q0 -23 -27 -23h-416q-18 0 -29 10t-22 27l-221 364l-197 -360 q-10 -16 -21 -28.5t-28 -12.5h-383q-12 0 -19 7t-7 18z" />
<glyph unicode="Y" horiz-adv-x="1396" d="M41 1495q0 27 29 27h370q16 0 25.5 -11.5t15.5 -27.5l197 -543q8 -20 20 -20t21 20l196 543q6 16 15.5 27.5t25.5 11.5h371q29 0 29 -27q0 -4 -4 -16l-301 -707q-33 -76 -69 -118t-77 -58v-555q0 -16 -12 -28.5t-29 -12.5h-334q-16 0 -27 12.5t-11 28.5v555 q-41 16 -77 58t-69 118l-301 707q-4 12 -4 16z" />
<glyph unicode="Z" horiz-adv-x="1294" d="M113 53v215q0 23 8 45.5t29 55.5l489 755q8 14 8 25q0 14 -22 14h-449q-16 0 -28.5 12.5t-12.5 28.5v279q0 16 12.5 27.5t28.5 11.5h934q20 0 36.5 -6.5t16.5 -26.5v-258q0 -16 -11 -50t-54 -100l-447 -684q-8 -10 -8 -22q0 -16 25 -17h473q16 0 28.5 -11t12.5 -28v-278 q0 -16 -12.5 -28.5t-28.5 -12.5h-965q-27 0 -45 13.5t-18 39.5z" />
<glyph unicode="a" horiz-adv-x="1177" d="M66 348v25q0 184 136 259t392 75h88v59q0 37 -11.5 60.5t-29.5 37t-43 17.5t-51 4q-98 0 -191.5 -3t-165.5 -12h-6q-39 0 -39 41v199q0 35 41 49q25 8 69 16.5t95 15.5t106.5 12t104.5 5q111 0 205 -21.5t162.5 -73.5t107.5 -137t39 -210v-725q0 -16 -12 -28.5t-29 -12.5 h-284q-16 0 -28.5 12.5t-12.5 28.5v43q-59 -43 -133 -72.5t-160 -29.5q-61 0 -123 18t-113 61t-82.5 113t-31.5 174zM451 354q0 -53 30.5 -71.5t73.5 -18.5q37 0 75 9.5t64 21.5v199h-100q-78 0 -110.5 -27t-32.5 -92v-21z" />
<glyph unicode="b" horiz-adv-x="1261" d="M113 98v1444q0 16 14 28.5t31 12.5h307q16 0 28.5 -12t12.5 -29v-346q33 4 74 9t65 5q135 0 236.5 -37.5t169 -107.5t100.5 -168t33 -221v-160q0 -260 -142.5 -397t-396.5 -137q-139 0 -259 17t-200 34q-47 10 -60 24.5t-13 40.5zM506 315q29 -4 60.5 -7t78.5 -3 q86 0 116 59.5t30 151.5v160q0 90 -30 149.5t-116 59.5q-37 0 -72.5 -2t-66.5 -6v-562z" />
<glyph unicode="c" horiz-adv-x="970" d="M82 518v154q0 252 127 395t362 143q92 0 165 -11t116 -21q20 -4 30.5 -13.5t10.5 -29.5v-232q0 -16 -11.5 -27.5t-27.5 -11.5h-4q-53 4 -106.5 9.5t-129.5 5.5q-66 0 -102.5 -46.5t-36.5 -160.5v-154q0 -115 37 -160t102 -45q76 0 129.5 4.5t106.5 8.5h4q16 0 27.5 -11.5 t11.5 -27.5v-230q0 -20 -10.5 -29.5t-30.5 -13.5q-53 -12 -120.5 -22t-160.5 -10q-236 0 -362.5 141t-126.5 395z" />
<glyph unicode="d" horiz-adv-x="1261" d="M80 516v160q0 123 32.5 221t100.5 168t169 107.5t236 37.5q25 0 66 -5t74 -9v346q0 16 12 28.5t29 12.5h305q16 0 30.5 -12t14.5 -29v-1444q0 -27 -12.5 -41t-59.5 -24q-80 -16 -199.5 -33.5t-259.5 -17.5q-254 0 -396 136t-142 398zM471 516q0 -92 30.5 -151.5 t116.5 -59.5q45 0 78 3t62 7v562q-31 4 -67 6t-73 2q-86 0 -116.5 -58.5t-30.5 -150.5v-160z" />
<glyph unicode="e" horiz-adv-x="1232" d="M82 518v135q0 270 146.5 413.5t398.5 143.5q135 0 233 -41t162.5 -114.5t96.5 -176t32 -225.5v-123q0 -20 -12.5 -32.5t-30.5 -12.5h-637v-4q0 -82 41 -129t154 -47q41 0 96 1t110.5 4t104.5 5t78 7h8q37 0 37 -35v-185q0 -25 -8.5 -37t-32.5 -20q-98 -33 -207 -48 t-238 -15q-104 0 -200.5 28.5t-170 93t-117.5 166t-44 248.5zM471 702h303v7q0 92 -37 144t-114 52q-74 0 -113 -52t-39 -144v-7z" />
<glyph unicode="f" horiz-adv-x="884" d="M49 975v172q0 16 12.5 30.5t30.5 14.5h135v55q0 115 26 187.5t74 113.5t114.5 56.5t148.5 15.5q43 0 92 -5t90 -13q18 -4 30.5 -14.5t12.5 -26.5v-193q0 -16 -12 -27.5t-31 -11.5h-86q-39 0 -52 -17.5t-13 -64.5v-55h155q16 0 28.5 -12.5t12.5 -28.5v-209 q0 -16 -12 -28.5t-29 -12.5h-155v-860q0 -16 -12.5 -28.5t-28.5 -12.5h-312q-16 0 -28.5 12.5t-12.5 28.5v860l-135 31q-16 4 -29.5 15t-13.5 28z" />
<glyph unicode="g" horiz-adv-x="1257" d="M84 -59q0 45 27.5 108.5t87.5 110.5q-39 29 -68 67.5t-29 112.5q0 72 30 112t67 74q-35 31 -54.5 65t-29 67.5t-12.5 64.5t-3 55v23q0 193 131 292t404 99h543q20 0 33.5 -14.5t13.5 -34.5v-146q0 -35 -41 -45l-58 -16q16 -29 26.5 -68t10.5 -67v-23q0 -207 -140 -299 t-388 -92q-61 0 -115.5 7t-85.5 18q-27 -18 -26 -43q0 -16 9 -27.5t38 -17.5l229 -48q98 -20 189.5 -42.5t161 -58.5t111.5 -92t42 -142v-15q0 -180 -144.5 -263t-427.5 -83q-262 0 -397 93.5t-135 252.5v15zM449 -59v-15q0 -41 37.5 -65.5t129.5 -24.5q51 0 84 7t49.5 19.5 t22.5 29t6 34.5v15q0 14 -5 25t-23.5 22.5t-53 23t-94.5 23.5l-123 26q-14 -18 -22 -51t-8 -69zM487 778q0 -25 6.5 -46t21.5 -37.5t44 -26t76 -9.5q86 0 116.5 33t30.5 86v23q0 53 -30.5 87t-116.5 34t-117 -34t-31 -87v-23z" />
<glyph unicode="h" horiz-adv-x="1294" d="M113 45v1497q0 16 12 28.5t29 12.5h311q16 0 28.5 -12t12.5 -29v-412q66 47 137.5 62.5t165.5 15.5q111 0 183.5 -35.5t114.5 -99t59.5 -147.5t17.5 -178v-707q0 -16 -12.5 -28.5t-28.5 -12.5h-312q-16 0 -28 12.5t-12 28.5v707q0 82 -33 108.5t-96 26.5q-72 0 -156 -45 v-793q0 -16 -11.5 -30.5t-29.5 -14.5h-307q-18 0 -31.5 14.5t-13.5 30.5z" />
<glyph unicode="i" horiz-adv-x="641" d="M113 1346v200q0 16 15 28.5t32 12.5h323q16 0 30.5 -12t14.5 -29v-200q0 -16 -14 -28.5t-31 -12.5h-323q-16 0 -31.5 12t-15.5 29zM123 45v1104q0 16 14.5 29.5t30.5 13.5h305q16 0 30.5 -13.5t14.5 -29.5v-1104q0 -16 -14.5 -30.5t-30.5 -14.5h-305q-16 0 -30.5 14.5 t-14.5 30.5z" />
<glyph unicode="j" horiz-adv-x="638" d="M-61 -170q0 16 12 28.5t31 12.5h88q37 0 45 22.5t8 63.5v1192q0 16 14.5 29.5t30.5 13.5h305q16 0 30.5 -13.5t14.5 -29.5v-1192q0 -111 -25.5 -183.5t-70.5 -116.5t-109.5 -61.5t-140.5 -17.5q-47 0 -93 4t-99 15q-41 6 -41 43v190zM115 1346v200q0 16 14 28.5t31 12.5 h321q16 0 30.5 -12t14.5 -29v-200q0 -16 -14 -28.5t-31 -12.5h-321q-16 0 -30.5 12t-14.5 29z" />
<glyph unicode="k" horiz-adv-x="1284" d="M113 45v1497q0 16 14 28.5t31 12.5h307q16 0 28.5 -12t12.5 -29v-856l280 469q14 25 28.5 31t31.5 6h354q29 0 29 -25q0 -10 -6 -18l-355 -531l363 -573q4 -6 4 -16t-7 -19.5t-20 -9.5h-379q-39 0 -63 45l-260 467v-467q0 -16 -12.5 -30.5t-28.5 -14.5h-307 q-16 0 -30.5 14.5t-14.5 30.5z" />
<glyph unicode="l" horiz-adv-x="620" d="M113 45v1497q0 16 14 28.5t31 12.5h309q16 0 28.5 -12t12.5 -29v-1497q0 -16 -12.5 -30.5t-28.5 -14.5h-309q-16 0 -30.5 14.5t-14.5 30.5z" />
<glyph unicode="m" horiz-adv-x="1845" d="M113 45v1106q0 16 12 28.5t29 12.5h284q16 0 28.5 -12.5t12.5 -28.5v-47q39 29 74 49.5t72 32.5t78.5 17t91.5 5q76 0 137 -24.5t102 -79.5q80 66 161 85t175 19q195 0 279 -120.5t84 -344.5v-698q0 -16 -11.5 -30.5t-29.5 -14.5h-308q-18 0 -31.5 14.5t-13.5 30.5v698 q0 78 -23.5 101.5t-76.5 23.5q-23 0 -56.5 -5t-68.5 -19q4 -27 5 -48.5t1 -52.5v-698q0 -16 -12 -30.5t-31 -14.5h-307q-18 0 -30.5 14.5t-12.5 30.5v698q0 78 -22.5 101.5t-75.5 23.5q-25 0 -57.5 -7t-65.5 -23v-793q0 -16 -11.5 -30.5t-29.5 -14.5h-307q-18 0 -31.5 14.5 t-13.5 30.5z" />
<glyph unicode="n" horiz-adv-x="1292" d="M113 45v1106q0 16 12 28.5t29 12.5h284q16 0 28.5 -12.5t12.5 -28.5v-47q41 31 78 51.5t76 31.5t83 16t101 5q113 0 184.5 -39t110.5 -104.5t53.5 -149.5t14.5 -176v-694q0 -16 -11.5 -30.5t-29.5 -14.5h-308q-18 0 -31.5 14.5t-13.5 30.5v694q0 82 -28.5 113t-98.5 31 q-35 0 -76.5 -12.5t-76.5 -30.5v-795q0 -16 -11.5 -30.5t-29.5 -14.5h-307q-18 0 -31.5 14.5t-13.5 30.5z" />
<glyph unicode="o" horiz-adv-x="1239" d="M82 537v118q0 272 140 413.5t399 141.5q258 0 397 -141t139 -414v-118q0 -272 -139 -413.5t-397 -141.5t-398.5 141t-140.5 414zM473 537q0 -123 38 -175.5t110 -52.5t108.5 52.5t36.5 175.5v118q0 123 -37 174.5t-108 51.5q-72 0 -110 -51.5t-38 -174.5v-118z" />
<glyph unicode="p" horiz-adv-x="1261" d="M113 -350v1444q0 27 13 41t60 24q80 16 200 33.5t259 17.5q254 0 396.5 -136t142.5 -398v-160q0 -123 -33 -221t-100.5 -168t-169 -107.5t-236.5 -37.5q-25 0 -65.5 4t-73.5 8v-344q0 -16 -12.5 -29.5t-28.5 -13.5h-307q-16 0 -30.5 13t-14.5 30zM506 315q31 -4 66.5 -7 t72.5 -3q86 0 116 59.5t30 151.5v160q0 92 -30 150.5t-116 58.5q-45 0 -77.5 -2t-61.5 -6v-562z" />
<glyph unicode="q" horiz-adv-x="1261" d="M80 516v160q0 260 142.5 397t395.5 137q139 0 259 -17t200 -34q47 -10 59.5 -24.5t12.5 -40.5v-1444q0 -16 -14.5 -29.5t-30.5 -13.5h-305q-16 0 -28.5 13t-12.5 30v344q-33 -4 -74 -8t-66 -4q-135 0 -236 37.5t-169 107.5t-100.5 168t-32.5 221zM471 516 q0 -90 30.5 -150.5t116.5 -60.5q37 0 73 3t67 7v562q-29 4 -60.5 6t-79.5 2q-86 0 -116.5 -58.5t-30.5 -150.5v-160z" />
<glyph unicode="r" horiz-adv-x="854" d="M113 45v1106q0 16 12 28.5t29 12.5h295q16 0 28 -12.5t12 -28.5v-49q35 37 67 57.5t62.5 31.5t60.5 14t62 3h23q16 0 28.5 -12t12.5 -29v-239q0 -16 -9.5 -28.5t-25.5 -12.5h-29q-66 0 -127 -10.5t-108 -36.5v-795q0 -16 -11.5 -30.5t-29.5 -14.5h-307q-18 0 -31.5 14.5 t-13.5 30.5z" />
<glyph unicode="s" horiz-adv-x="1058" d="M190.5 1125.5q110.5 84.5 339.5 84.5q117 0 210.5 -15t166.5 -36q41 -10 41 -45v-217q0 -41 -35 -41h-6q-23 2 -67.5 8t-96 11.5t-102.5 9.5t-86 4q-76 0 -76 -45q0 -23 45 -47l240 -129q125 -68 170 -151t45 -169q0 -78 -27.5 -144.5t-86 -115.5t-147.5 -77.5 t-214 -28.5q-111 0 -209 14t-170 35q-39 10 -39 45v211q0 18 10 30.5t33 12.5h8q45 -6 96.5 -12.5t99.5 -10.5t90 -7t66 -3q59 0 78 15.5t19 43.5q0 16 -12.5 31.5t-49.5 36.5l-250 135q-194 103 -194 322q0 160 110.5 244.5z" />
<glyph unicode="t" horiz-adv-x="884" d="M49 977v172q0 16 12.5 29.5t30.5 13.5h135v166q0 16 13.5 27.5t29.5 15.5l305 53h7q16 0 27.5 -11t11.5 -28v-223h155q16 0 28.5 -12.5t12.5 -28.5v-209q0 -16 -12 -28.5t-29 -12.5h-155v-551q0 -47 9 -62.5t48 -15.5h94q18 0 30.5 -11t12.5 -28v-192q0 -16 -12 -26.5 t-31 -14.5q-27 -4 -48.5 -8t-41.5 -6t-42 -3t-50 -1q-82 0 -148.5 15t-114.5 56t-74 114t-26 187v547l-135 31q-16 4 -29.5 16.5t-13.5 28.5z" />
<glyph unicode="u" horiz-adv-x="1292" d="M113 453v694q0 16 11 30.5t30 14.5h307q18 0 31.5 -14.5t13.5 -30.5v-694q0 -82 24.5 -114t102.5 -32q35 0 77 13.5t76 31.5v795q0 16 11.5 30.5t29.5 14.5h308q18 0 31.5 -14.5t13.5 -30.5v-1106q0 -16 -12.5 -28.5t-28.5 -12.5h-285q-16 0 -28.5 12.5t-12.5 28.5v47 q-55 -41 -132 -73.5t-192 -32.5t-187.5 38.5t-114.5 104t-58 150.5t-16 178z" />
<glyph unicode="v" horiz-adv-x="1269" d="M41 1157q0 16 10 25.5t25 9.5h336q16 0 28.5 -12.5t16.5 -30.5l153 -748q6 -37 25 -36q20 0 27 36l153 748q4 18 16.5 30.5t28.5 12.5h336q14 0 25.5 -9.5t11.5 -25.5q0 -4 -1 -5t-1 -5l-258 -930q-23 -80 -58.5 -127t-81 -71.5t-96.5 -30.5t-102 -6t-102.5 6t-95.5 30.5 t-79.5 71.5t-58.5 127l-256 930q0 4 -1 5t-1 5z" />
<glyph unicode="w" horiz-adv-x="1783" d="M53 1155v6q0 12 9.5 21.5t21.5 9.5h328q29 0 34 -35l101 -702q2 -16 14 -17q10 0 17 17l118 419q10 37 33 60.5t82 23.5h164q59 0 81.5 -23.5t33.5 -60.5l118 -419q6 -16 17 -17q12 0 14 17l100 702q6 35 35 35h328q12 0 21.5 -9.5t9.5 -21.5v-6l-181 -973 q-18 -100 -61 -141t-113 -41h-186q-70 0 -110 46t-64 130l-111 375q-2 14 -14 14t-14 -14l-111 -375q-25 -84 -63.5 -130t-110.5 -46h-186q-70 0 -113 41t-62 141z" />
<glyph unicode="x" horiz-adv-x="1325" d="M59 27q0 8 4 16l351 584l-348 522q-4 8 -5 14q0 10 8.5 19.5t18.5 9.5h379q16 0 29.5 -12.5t23.5 -30.5l158 -248l141 248q23 43 51 43h340q25 0 25 -27q0 -8 -4 -16l-336 -557l369 -547q4 -4 4 -14q0 -12 -9.5 -21.5t-19.5 -9.5h-385q-16 0 -26.5 13.5t-22.5 31.5 l-174 274l-160 -276q-23 -43 -51 -43h-336q-25 0 -25 27z" />
<glyph unicode="y" horiz-adv-x="1271" d="M35 1161q0 31 45 31h334q16 0 26.5 -12.5t14.5 -28.5l161 -705q8 -35 23 -34h16l162 741q6 39 43 39h334q16 0 29.5 -10.5t13.5 -26.5q0 -2 -1 -4t-1 -4l-348 -1217q-23 -82 -55.5 -146.5t-86 -108.5t-134.5 -67.5t-201 -23.5q-31 0 -70 3t-78 8.5t-73.5 11.5t-55.5 14 q-16 6 -31.5 14.5t-15.5 24.5v199q0 16 13.5 29.5t31.5 13.5h2q29 -2 64.5 -4t74.5 -5.5t76 -5.5t66 -2q43 0 71.5 16.5t38.5 61.5l17 68h-27q-35 0 -63.5 5t-53 26.5t-46 63.5t-44.5 118l-270 903q-2 4 -2 14z" />
<glyph unicode="z" horiz-adv-x="1110" d="M96 55v172q0 27 6.5 46.5t24.5 43.5l391 531q8 10 8 18q0 12 -18 13h-365q-33 0 -32 32v240q0 16 12 28.5t29 12.5h804q23 0 38.5 -16.5t15.5 -38.5v-187q0 -35 -8.5 -52t-26.5 -42l-373 -506q-8 -12 -8 -18q0 -12 18 -13h365q16 0 26.5 -8t10.5 -24v-246 q0 -16 -12.5 -28.5t-28.5 -12.5h-821q-23 0 -39.5 16.5t-16.5 38.5z" />
<glyph unicode="&#xad;" horiz-adv-x="577" d="M51 512v209q0 16 12.5 27.5t28.5 11.5h395q16 0 28.5 -11.5t12.5 -27.5v-209q0 -16 -12 -27.5t-29 -11.5h-395q-16 0 -28.5 11.5t-12.5 27.5z" />
<glyph unicode="&#x2000;" horiz-adv-x="810" />
<glyph unicode="&#x2001;" horiz-adv-x="1620" />
<glyph unicode="&#x2002;" horiz-adv-x="810" />
<glyph unicode="&#x2003;" horiz-adv-x="1620" />
<glyph unicode="&#x2004;" horiz-adv-x="540" />
<glyph unicode="&#x2005;" horiz-adv-x="405" />
<glyph unicode="&#x2006;" horiz-adv-x="270" />
<glyph unicode="&#x2007;" horiz-adv-x="270" />
<glyph unicode="&#x2008;" horiz-adv-x="202" />
<glyph unicode="&#x2009;" horiz-adv-x="324" />
<glyph unicode="&#x200a;" horiz-adv-x="90" />
<glyph unicode="&#x2010;" horiz-adv-x="577" d="M51 512v209q0 16 12.5 27.5t28.5 11.5h395q16 0 28.5 -11.5t12.5 -27.5v-209q0 -16 -12 -27.5t-29 -11.5h-395q-16 0 -28.5 11.5t-12.5 27.5z" />
<glyph unicode="&#x2011;" horiz-adv-x="577" d="M51 512v209q0 16 12.5 27.5t28.5 11.5h395q16 0 28.5 -11.5t12.5 -27.5v-209q0 -16 -12 -27.5t-29 -11.5h-395q-16 0 -28.5 11.5t-12.5 27.5z" />
<glyph unicode="&#x2012;" horiz-adv-x="577" d="M51 512v209q0 16 12.5 27.5t28.5 11.5h395q16 0 28.5 -11.5t12.5 -27.5v-209q0 -16 -12 -27.5t-29 -11.5h-395q-16 0 -28.5 11.5t-12.5 27.5z" />
<glyph unicode="&#x2013;" horiz-adv-x="1124" d="M51 512v209q0 16 27 27.5t61 11.5h848q34 0 61 -11.5t27 -27.5v-209q0 -16 -26 -27.5t-62 -11.5h-848q-34 0 -61 11.5t-27 27.5z" />
<glyph unicode="&#x2014;" horiz-adv-x="2148" d="M51 512v209q0 16 53.5 27.5t122.5 11.5h1696q69 0 122.5 -11.5t53.5 -27.5v-209q0 -16 -51.5 -27.5t-124.5 -11.5h-1696q-69 0 -122.5 11.5t-53.5 27.5z" />
<glyph unicode="&#x202f;" horiz-adv-x="324" />
<glyph unicode="&#x205f;" horiz-adv-x="405" />
<glyph unicode="&#x25fc;" horiz-adv-x="1187" d="M0 0v1188h1188v-1188h-1188z" />
</font>
</defs>
</svg>
