<?xml version="1.0" encoding="utf-8"?>
<!-- Generator: Adobe Illustrator 16.0.0, SVG Export Plug-In . SVG Version: 6.00 Build 0)  -->
<!DOCTYPE svg PUBLIC "-//W3C//DTD SVG 1.1//EN" "http://www.w3.org/Graphics/SVG/1.1/DTD/svg11.dtd">
<svg version="1.1" id="Layer_1" xmlns="http://www.w3.org/2000/svg" xmlns:xlink="http://www.w3.org/1999/xlink" x="0px" y="0px"
	 width="87.704px" height="79.824px" viewBox="0 0 87.704 79.824" enable-background="new 0 0 87.704 79.824" xml:space="preserve">
<g>
	<path fill-rule="evenodd" clip-rule="evenodd" fill="#FFF3D0" d="M74.957,16.878c-0.039-1.064-0.068-1.982-0.482-3.461
		c-2.604-9.289-12.76-10.461-18.535-4.76c-1.357,1.344-1.918,3.049-2.424,4.01c-0.508,0.959-1.055,1.113-1.346,1.732
		c-1.381,2.938,1.467,6.277,2.486,8.881c0.387,0.982,0.43,1.938,0.475,2.893c0.105,2.246-2.33,0.961-4.066,0.389
		c-1.463-0.48-3.043-1.025-4.342-1.58c-1.301-0.551-2.324-1.107-3.783-1.418s-3.35-0.373-4.955-0.188
		c-0.006,0.001-0.012,0.002-0.018,0.003c-3.016,6.441-10.211,13.797-10.424,13.978c-0.238,0.205-0.863,0.693-2.221,1.477
		c-4.015,2.316-7.769,5.334-10.692,8.211c-3.984,3.918-6.713,8.855-4.643,15.313c0.467,0.95,0.855,1.968,1.205,3.036
		c0,0,3.054,8.684,21.554,8.684c10,0,3.325-9.671,3.325-9.671c-0.766-1.393-0.791-2.59,0.042-4.953
		c0.48-1.357,1.598-2.434,2.539-3.375c3.746-3.752,5.938-1.428,11.021-6.285c0.01,0.256,11.037-7.424,11.045-7.475
		c0.395-2.664-3.461-7.967,3.238-9.576c1.1-0.264,1.496-0.02,3.039,0.426c1.309,0.377,3.168,0.061,4.533-0.971
		c2.742-2.066,3.305-7.883,3.441-11.107C75.051,19.161,75,17.944,74.957,16.878z"/>
	<g>
		<path fill-rule="evenodd" clip-rule="evenodd" fill="#7C2317" d="M54.603,8.155c8.547-8.439,16.303,2.061,28.215-1.592
			c-1.895,8.518-8.362,17.428-18.057,10.387c-0.425,1.109-1.704,3.025-3.276,4.395c-0.145-0.691-0.291-1.381-0.545-1.906
			c-0.844-1.74-2.766-1.313-3.359,0.34c-0.617,1.729-0.207,4.881,2.348,4.385c-1.392,2.717-3.543,3.688-5.037,2.732
			C51.799,19.958,48.191,14.483,54.603,8.155"/>
		<path fill-rule="evenodd" clip-rule="evenodd" fill="#F68A40" d="M77.34,13.96c-3.664,1.791-5.682,2.361-9.768,2.715
			C72.449,17.37,73.442,17.042,77.34,13.96"/>
		<path fill-rule="evenodd" clip-rule="evenodd" fill="#F68A40" d="M76.523,10.968c-3.16,2.58-4.996,3.594-8.894,4.867
			C72.537,15.401,73.429,14.856,76.523,10.968"/>
	</g>
</g>
</svg>
