<?xml version="1.0" encoding="utf-8"?>
<!-- Generator: Adobe Illustrator 16.0.0, SVG Export Plug-In . SVG Version: 6.00 Build 0)  -->
<!DOCTYPE svg PUBLIC "-//W3C//DTD SVG 1.1//EN" "http://www.w3.org/Graphics/SVG/1.1/DTD/svg11.dtd">
<svg version="1.1" id="Layer_1" xmlns="http://www.w3.org/2000/svg" xmlns:xlink="http://www.w3.org/1999/xlink" x="0px" y="0px"
	 width="45.5px" height="96.5px" viewBox="0 0 45.5 96.5" enable-background="new 0 0 45.5 96.5" xml:space="preserve">
<g>
	<path fill-rule="evenodd" clip-rule="evenodd" fill="#FFF3D0" d="M7.369,48.428c0.017,0.013,0.032,0.021,0.048,0.033
		c1.282,6.403,0.276,21.284,0.14,28.43c-0.043,2.346-0.208,3.396-0.476,4.249c0,0.002,0,0.003,0,0.005c0,0-1.641,9.796,11.692,11.13
		c5.547,0.555,9.186-0.911,11.549-2.811c-0.071-0.059-0.141-0.116-0.212-0.175c1.102-4.275,1.086-7.711-0.162-12.173
		c-1.156-6.618-0.359-9.893-0.141-16.604c0.139-4.247,2.301-4.813,3.22-8.839c0.045-0.21,0.087-0.412,0.13-0.617
		c0.112-0.628,0.198-1.328,0.243-2.134c0.055,0.054,0.102,0.1,0.154,0.15c2.466-13.154-0.307-15.418-0.561-15.595
		c-0.83-0.511-1.682-0.857-1.952-1.228c-0.228-0.309,0.237-2.087,0.327-2.613c2.092,0.681,4.594-0.175,5.666-2.169
		c1.554-2.891,1.633-7.206,1.186-10.261c-0.27-1.827-0.537-2.96-0.766-3.955c-0.23-0.993-0.422-1.849-1.075-3.165
		c-4.108-8.264-13.861-7.545-18.267-1.154c-1.035,1.503-1.256,3.208-1.56,4.2c-0.305,0.991-0.793,1.235-0.955,1.87
		c-0.771,3.006,2.501,5.635,3.927,7.898c0.539,0.854,0.75,1.744,0.963,2.633c0.213,0.889,0.425,1.778-0.077,2.519
		c-0.502,0.741-1.716,1.335-3.052,1.955c-1.337,0.621-2.797,1.27-4.066,1.733c-1.269,0.465-2.348,0.744-3.571,1.482
		c-0.804,0.483-2.005,1.413-3.396,2.592C6.329,35.815-2.019,41.247,7.369,48.428z"/>
	<path fill-rule="evenodd" clip-rule="evenodd" fill="#58462F" d="M16.952,8.651c6.265-8.836,19.977-6.464,20.508,4.719
		c-1.693,1.287-7.805,2.475-9.391,1.728c-0.199,1.118-1.056,3.147-2.292,4.716c-0.259-0.623-0.519-1.246-0.852-1.694
		c-1.104-1.485-2.835-0.739-3.096,0.923c-0.272,1.732,0.679,4.621,2.989,3.698c-0.819,2.801-2.667,4.099-4.243,3.468
		C16.429,20.243,12.061,15.745,16.952,8.651"/>
</g>
</svg>
