<?xml version="1.0" encoding="utf-8"?>
<!-- Generator: Adobe Illustrator 16.0.0, SVG Export Plug-In . SVG Version: 6.00 Build 0)  -->
<!DOCTYPE svg PUBLIC "-//W3C//DTD SVG 1.1//EN" "http://www.w3.org/Graphics/SVG/1.1/DTD/svg11.dtd">
<svg version="1.1" id="Layer_1" xmlns="http://www.w3.org/2000/svg" xmlns:xlink="http://www.w3.org/1999/xlink" x="0px" y="0px"
	 width="60px" height="118.5px" viewBox="0 0 60 118.5" enable-background="new 0 0 60 118.5" xml:space="preserve">
<g>
	<path fill-rule="evenodd" clip-rule="evenodd" fill="#FFF3D0" d="M55.875,26.09c-0.192-1.837-0.411-2.979-0.599-3.981
		c-0.188-1.004-0.343-1.867-0.942-3.209c-3.759-8.425-13.533-8.116-18.202-1.916c-1.098,1.459-1.39,3.154-1.734,4.133
		c-0.346,0.978-0.843,1.202-1.032,1.827c-0.895,2.972,2.266,5.735,3.594,8.055c0.503,0.876,0.679,1.774,0.854,2.672
		c0.174,0.897,0.349,1.796-0.184,2.516c-0.531,0.719-1.77,1.261-3.132,1.825c-1.36,0.564-2.845,1.152-4.133,1.562
		c-1.288,0.411-2.378,0.647-3.628,1.331c-1.251,0.684-2.662,1.816-3.711,2.955c-1.048,1.137-1.732,2.278-2.225,3.316
		c-0.495,1.037-0.797,1.97-1.283,2.732c-0.485,0.762-1.154,1.354-2.296,2.611c-4.413,4.857-7.402,14.359-7.523,14.473
		c-0.356,1.043-0.303,1.67,0.064,2.871c1.695,4.002,2.384,7.105,3.698,10.202c1.083,2.553,2.296,5.896,2.925,7.711l0.12,0.346
		c0.668,2.197,1.205,4.383,1.132,6.02c-0.452,0.787-0.38,0.941-0.05,2.176l-0.214,5.492l0.478,3.488
		c0.031,0.711,1.155,0.35,1.284-0.502l-0.046-2.939l1.133-5.941l0.032,0.061l0.313,0.6c-0.181,1.563-0.296,3.232-0.369,4.951
		c-0.414,1.118-0.764,2.226-1.063,3.27c0,0-1.931,8.199,14.306,8.199c13.236,0,12.157-19.165,12.157-19.165
		c-0.203-8.975-0.446-17.997,0.063-24.821c0.377-5.056,3.417-4.736,4.075-11.431c0.115,0.123,0.221,0.235,0.326,0.347
		c0.458-8.284-0.603-16.109-0.604-16.124c-0.622-0.378-1.183-0.679-1.383-0.977c-0.213-0.32,0.327-2.078,0.437-2.6
		c2.062,0.769,4.597,0.018,5.751-1.929C55.938,33.47,56.197,29.16,55.875,26.09z M18.054,74.831
		c-0.19-0.764-0.559-2.334-0.837-3.039c-0.15-0.379-0.369-0.699-0.636-0.969c3.158-4.596,4.74-7.956,6.728-10.192
		c0.798-0.897,1.164-0.839,1.114-0.519c-1.984,7.644-0.888,18.431-2.051,28.728c0.112-1.213-0.127-2.395-1.647-3.24
		C19.209,78.725,18.703,77.313,18.054,74.831z"/>
	<path fill-rule="evenodd" clip-rule="evenodd" fill="#58462F" d="M35.219,16.657c6.628-8.566,20.229-5.623,20.293,5.57
		c-1.744,1.217-7.901,2.147-9.455,1.336c-0.245,1.107-1.187,3.101-2.485,4.613c-0.234-0.632-0.468-1.266-0.781-1.727
		c-1.043-1.529-2.8-0.857-3.131,0.791c-0.344,1.722,0.484,4.648,2.832,3.822c-0.937,2.764-2.837,3.982-4.385,3.287
		C34.212,28.216,30.035,23.541,35.219,16.657"/>
</g>
</svg>
