<?xml version="1.0" encoding="utf-8"?>
<!-- Generator: Adobe Illustrator 16.0.0, SVG Export Plug-In . SVG Version: 6.00 Build 0)  -->
<!DOCTYPE svg PUBLIC "-//W3C//DTD SVG 1.1//EN" "http://www.w3.org/Graphics/SVG/1.1/DTD/svg11.dtd">
<svg version="1.1" id="Layer_1" xmlns="http://www.w3.org/2000/svg" xmlns:xlink="http://www.w3.org/1999/xlink" x="0px" y="0px"
	 width="39.505px" height="88.671px" viewBox="0 0 39.505 88.671" enable-background="new 0 0 39.505 88.671" xml:space="preserve">
<path fill-rule="evenodd" clip-rule="evenodd" fill="#FFF3D0" d="M22.441,2.25c-2.823,0-4.528,3.4-5.554,7.843
	c-0.15,8.188,0.583,17.099,0.796,22.111c0.041,1.006-0.147,1.814-0.286,3.688c-0.138,1.875-0.227,4.816,0.025,8.172
	c0.655,8.725,3.313,15.145,0.935,24.193c-0.504,1.92-1.104,3.068-1.238,3.994c-0.133,0.924,0.204,1.625,0.857,2.246
	c0.656,0.619,1.632,1.16,2.327,1.775c0.694,0.613,1.944,2.105,2.416,3.244c3.087,7.447,11.502,7.93,9.337,3.709
	c-0.817-1.59-2.3-4.213-3.359-6.436c-1.062-2.219-2.533-4.84-2.857-6.779c-0.322-1.941-0.332-4.006-0.266-6.965
	c0.259-11.74,1.129-20.428,3.439-31.941c0.177-0.881,1.164-11.996,1.191-11.939C30.205,19.165,30.587,2.25,22.441,2.25z"/>
</svg>
