<?xml version="1.0" encoding="utf-8"?>
<!-- Generator: Adobe Illustrator 16.0.0, SVG Export Plug-In . SVG Version: 6.00 Build 0)  -->
<!DOCTYPE svg PUBLIC "-//W3C//DTD SVG 1.1//EN" "http://www.w3.org/Graphics/SVG/1.1/DTD/svg11.dtd">
<svg version="1.1" id="Layer_1" xmlns="http://www.w3.org/2000/svg" xmlns:xlink="http://www.w3.org/1999/xlink" x="0px" y="0px"
	 width="400px" height="500px" viewBox="0 0 400 500" enable-background="new 0 0 400 500" xml:space="preserve">
<path fill="#FFFFFF" d="M163.093,306.76c0.363-2.137,0.23-4.299-0.354-6.283c-0.56-1.899-1.533-3.645-2.885-5.057
	c-1.358-1.422-3.095-2.502-5.17-3.064c-2.014-0.547-4.337-0.604-6.931-0.008c-0.311-0.942-0.722-1.828-1.216-2.643
	c-0.36-0.59-0.765-1.143-1.208-1.654c0.513-3.936-0.373-7.352-2.121-10.117c-1.333-2.112-3.165-3.84-5.259-5.129
	c-2.076-1.279-4.416-2.129-6.78-2.498c-3.137-0.488-6.328-0.127-9.032,1.201c-1.438-2.799-3.872-4.928-6.654-6.076
	c-1.378-0.567-2.846-0.897-4.322-0.949c-1.493-0.053-2.994,0.177-4.416,0.726c-2.539,0.979-4.831,2.961-6.411,6.154
	c-1.412-0.479-3.13-0.666-4.816-0.566c-2.136,0.123-4.268,0.707-5.728,1.729c-0.687,0.479-1.274,1.049-1.812,1.66
	c-0.506,0.575-0.965,1.188-1.421,1.803l1.834,1.361c0.423-0.568,0.847-1.136,1.306-1.656c0.425-0.484,0.882-0.93,1.404-1.293
	c1.109-0.777,2.807-1.226,4.544-1.326c1.772-0.105,3.545,0.152,4.731,0.785l1.108,0.59l0.48-1.168
	c1.31-3.172,3.343-5.07,5.602-5.941c1.132-0.438,2.325-0.619,3.511-0.578c1.203,0.043,2.407,0.313,3.541,0.781
	c2.61,1.078,4.849,3.197,5.923,5.98l0.5,1.299l1.175-0.742c2.436-1.537,5.534-1.992,8.599-1.514c2.069,0.32,4.118,1.065,5.94,2.188
	c1.805,1.111,3.383,2.597,4.521,4.398c1.229,1.948,1.954,4.284,1.911,6.95c-0.713-0.506-1.48-0.934-2.287-1.276
	c-2.629-1.109-7.919-0.959-10.674,3.08c1.175-0.72,2.368-1.201,3.547-1.476c2.203-0.516,4.363-0.297,6.244,0.498
	c1.875,0.793,3.478,2.164,4.571,3.961c0.565,0.928,0.996,1.971,1.261,3.105l0.274,1.18l1.157-0.342
	c2.615-0.768,4.895-0.791,6.8-0.273c1.656,0.451,3.044,1.313,4.127,2.447c1.09,1.137,1.881,2.557,2.338,4.111
	c0.458,1.557,0.583,3.246,0.346,4.928c-2.779-0.371-5.12,0.285-6.692,2.049c5.117-1.742,12.568,1.232,12.326,7.879
	c-0.011,0.271-0.033,0.551-0.07,0.84l-0.129,1.013l0.984,0.241c2.135,0.527,3.76,1.597,4.742,3.037
	c0.729,1.072,1.11,2.369,1.097,3.818c-1.727,0.266-4.331,1.037-6.292,2.547c4.246-1.113,9.896-0.701,13.366,3.199
	c1.462,1.645,2.3,3.711,2.394,5.84c0.028,0.637-0.009,1.285-0.118,1.928l-0.091,0.535l0.85-0.002h14.558v-2.779h-12.927
	c-0.163-2.575-1.193-5.061-2.958-7.045c-1.603-1.801-3.806-3.188-6.509-3.852c0.096-2.066-0.427-3.928-1.477-5.473
	c-1.144-1.682-2.896-2.961-5.145-3.701l0.003-0.064c0.096-2.641-0.741-5.012-2.317-6.815
	C165.582,308.203,164.438,307.357,163.093,306.76 M110.859,281.137c-2.429,0.938-4.597,2.932-5.958,6.23l2.11,0.863
	c1.095-2.652,2.789-4.236,4.67-4.963c0.943-0.363,1.934-0.517,2.921-0.48c1.004,0.035,2.008,0.262,2.955,0.652
	c2.18,0.899,4.05,2.668,4.947,4.996C122.611,282.75,116.093,279.119,110.859,281.137"/>
<path fill="#FFFFFF" d="M240.275,306.76c-0.361-2.137-0.229-4.299,0.354-6.283c0.56-1.899,1.534-3.645,2.886-5.057
	c1.359-1.422,3.096-2.502,5.17-3.064c2.015-0.547,4.338-0.604,6.933-0.008c0.312-0.942,0.72-1.828,1.216-2.643
	c0.357-0.59,0.766-1.143,1.208-1.654c-0.515-3.936,0.372-7.352,2.121-10.117c1.331-2.112,3.164-3.84,5.257-5.129
	c2.075-1.279,4.417-2.129,6.782-2.498c3.137-0.488,6.327-0.127,9.03,1.201c1.437-2.799,3.871-4.928,6.654-6.076
	c1.379-0.567,2.848-0.897,4.321-0.949c1.494-0.053,2.994,0.177,4.418,0.726c2.537,0.979,4.83,2.961,6.41,6.154
	c1.411-0.479,3.13-0.666,4.815-0.566c2.137,0.123,4.27,0.707,5.728,1.729c0.688,0.479,1.274,1.049,1.813,1.66
	c0.506,0.575,0.962,1.188,1.421,1.803l-1.835,1.361c-0.423-0.568-0.847-1.136-1.305-1.656c-0.426-0.484-0.884-0.93-1.404-1.293
	c-1.11-0.777-2.808-1.226-4.545-1.326c-1.772-0.105-3.544,0.152-4.731,0.785l-1.105,0.59l-0.482-1.168
	c-1.311-3.172-3.344-5.07-5.602-5.941c-1.133-0.438-2.324-0.619-3.51-0.578c-1.204,0.043-2.409,0.313-3.543,0.781
	c-2.609,1.078-4.848,3.197-5.922,5.98l-0.5,1.299l-1.176-0.742c-2.437-1.537-5.532-1.992-8.598-1.514
	c-2.068,0.32-4.119,1.065-5.941,2.188c-1.805,1.111-3.381,2.597-4.521,4.398c-1.229,1.948-1.954,4.284-1.911,6.95
	c0.715-0.506,1.479-0.934,2.287-1.276c2.629-1.109,7.918-0.959,10.674,3.08c-1.174-0.72-2.369-1.201-3.548-1.476
	c-2.202-0.516-4.362-0.297-6.243,0.498c-1.875,0.793-3.478,2.164-4.572,3.961c-0.564,0.928-0.995,1.971-1.26,3.105l-0.273,1.18
	l-1.158-0.342c-2.613-0.768-4.893-0.791-6.8-0.273c-1.656,0.451-3.042,1.313-4.126,2.447c-1.09,1.137-1.881,2.557-2.337,4.111
	c-0.459,1.557-0.585,3.246-0.347,4.928c2.778-0.371,5.119,0.285,6.692,2.049c-5.117-1.742-12.569,1.232-12.327,7.879
	c0.01,0.271,0.032,0.551,0.071,0.84l0.129,1.013l-0.985,0.241c-2.137,0.527-3.761,1.597-4.742,3.037
	c-0.729,1.072-1.111,2.369-1.097,3.818c1.728,0.266,4.331,1.037,6.291,2.547c-4.245-1.113-9.896-0.701-13.364,3.199
	c-1.463,1.645-2.302,3.711-2.396,5.84c-0.028,0.637,0.011,1.285,0.119,1.928l0.091,0.535l-0.852-0.002h-11.969v-2.779h10.34
	c0.162-2.575,1.194-5.061,2.959-7.045c1.602-1.801,3.805-3.188,6.508-3.852c-0.096-2.066,0.427-3.928,1.478-5.473
	c1.144-1.682,2.897-2.961,5.146-3.701l-0.002-0.064c-0.098-2.641,0.738-5.012,2.314-6.815
	C237.788,308.203,238.932,307.357,240.275,306.76 M292.511,281.137c2.429,0.938,4.597,2.932,5.957,6.23l-2.11,0.863
	c-1.096-2.652-2.789-4.236-4.67-4.963c-0.941-0.363-1.935-0.517-2.92-0.48c-1.004,0.035-2.009,0.262-2.959,0.652
	c-2.177,0.899-4.045,2.668-4.942,4.996C280.759,282.75,287.275,279.119,292.511,281.137"/>
</svg>
