<?xml version="1.0" encoding="utf-8"?>
<!-- Generator: Adobe Illustrator 16.0.0, SVG Export Plug-In . SVG Version: 6.00 Build 0)  -->
<!DOCTYPE svg PUBLIC "-//W3C//DTD SVG 1.1//EN" "http://www.w3.org/Graphics/SVG/1.1/DTD/svg11.dtd">
<svg version="1.1" id="Layer_1" xmlns="http://www.w3.org/2000/svg" xmlns:xlink="http://www.w3.org/1999/xlink" x="0px" y="0px"
	 width="77.103px" height="211.333px" viewBox="0 0 77.103 211.333" enable-background="new 0 0 77.103 211.333"
	 xml:space="preserve">
<path fill-rule="evenodd" clip-rule="evenodd" fill="#FFF3D0" d="M71.777,60.329c-2.667-8.667-11.817-7.777-11.817-7.777
	s-4.009-1.673-6.022,0.95c-1.376-0.072-2.771-0.081-4.237,0.019l-1.023-14.041h-8.79h-8.79l-1.023,14.041
	c-2.452-0.166-4.729-0.096-6.999,0.217c-0.687-0.265-1.375-0.496-2.062-0.709c-0.398-0.309-0.94-0.483-1.67-0.477
	c0,0-9.15-0.89-11.817,7.777s5.065,14.793,5.065,14.793c0.046,0.031,0.093,0.061,0.139,0.092c3.27,15.91,7.154,19.061,7.167,43.771
	c-0.37,11.664-0.957,21.439-0.749,31.52c0.146,7.063,0.657,15.689,1.949,23.787c0.275,2.189-1.472,6.053,0.599,9.469l0.533,8.057
	c0.505,0.855,0.865,1.801,1.048,2.811c0.285,1.566,0.147,3.277-0.53,5.027l0.037,0.57c0.712,0.404,1.347,0.992,1.81,1.689
	c0.49,0.734,0.792,1.596,0.804,2.5c1.257,0.125,2.453,0.414,3.521,0.877c1.116,0.482,2.096,1.156,2.861,2.029
	c0.066-0.34,0.148-0.678,0.245-1.008c0.466-1.58,1.276-3.031,2.401-4.207c0.858-0.898,1.897-1.631,3.104-2.139
	c0.566-4.191,1.119-7.861,1.378-11.697c0.14-2.057-1.665-5.82-1.49-7.859c0.43-5.025,0.384-10.246,0.433-16.607
	c1.307-19.811,1.653-24.131,2.004-24.268c0.354-0.139,0.713,4.186,2.075,24.268c0.046,6.361,0,11.582,0.43,16.607
	c0.175,2.039-1.629,5.803-1.49,7.859c0.244,3.604,0.745,7.061,1.275,10.941c0.751,0.039,1.536,0.148,2.353,0.338
	c0.258-0.787,0.6-1.521,1.012-2.197c0.301-0.492,0.637-0.953,1.005-1.379c-0.427-3.275,0.311-6.117,1.765-8.422
	c1.109-1.756,2.636-3.193,4.378-4.266c1.727-1.066,3.675-1.773,5.643-2.08c0.238-0.037,0.477-0.068,0.715-0.094
	c0.381-2.617-0.54-5.186-0.335-6.82c1.292-8.098,1.803-16.725,1.95-23.787c0.207-10.08-0.38-19.855-0.75-31.52
	c0.013-24.31,3.772-27.763,7.007-43.016c-0.321-0.185-0.622-0.392-0.926-0.594c0.474-0.128,0.754-0.254,0.754-0.254
	S74.443,68.996,71.777,60.329z"/>
<g>
	<path fill-rule="evenodd" clip-rule="evenodd" fill="#FFF3D0" d="M25.741,31.353c0.025,2.504,0.083,5.521,0.157,8.443
		c-3.408-1.223-4.939-5.836-2.113-8.193c0.56-0.467,1.252-0.756,1.947-1.043L25.741,31.353z"/>
	<path fill-rule="evenodd" clip-rule="evenodd" fill="#FFF3D0" d="M54.065,31.353c-0.026,2.504-0.311,5.711-0.385,8.635
		c3.408-1.221,5.165-6.027,2.339-8.385c-0.56-0.467-1.252-0.756-1.947-1.043L54.065,31.353z"/>
	<path fill-rule="evenodd" clip-rule="evenodd" fill="#FFF3D0" d="M39.803,52.157c-7.946,0.146-15.909-8.307-15.909-25.711
		c0-10.303,7.963-15.553,15.909-15.586c7.946,0.033,15.911,5.283,15.911,15.586C55.714,43.851,47.749,52.304,39.803,52.157"/>
	<path fill="#F2E3BD" d="M26.091,184.655c-0.611,0.15-1.283,0.166-1.898,0.084c-0.629-0.084-1.187-0.27-1.548-0.521
		C22.467,186.044,25.879,186.36,26.091,184.655"/>
	<path fill-rule="evenodd" clip-rule="evenodd" fill="#F2E3BD" d="M30.287,49.438c2.769,3.063,6.144,4.549,9.516,4.486
		c3.374,0.063,6.747-1.424,9.516-4.486l-0.119-1.637c-2.746,2.975-6.073,4.418-9.396,4.355c-3.323,0.063-6.65-1.381-9.396-4.355
		L30.287,49.438z"/>
	<path fill-rule="evenodd" clip-rule="evenodd" fill="#F2E3BD" d="M48.101,22.778c-6.999,5.682-15.122,7.66-24.118,6.779
		C29.216,34.521,43.304,29.55,48.101,22.778"/>
	<path fill-rule="evenodd" clip-rule="evenodd" fill="#58462F" d="M23.982,29.558c8.996,0.881,17.121-1.098,24.118-6.779
		c1.467,4.422,3.796,6.65,7.396,8.457C61.736-0.421,17.718,5.696,23.982,29.558"/>
	<path fill-rule="evenodd" clip-rule="evenodd" fill="#F2E3BD" d="M49.573,89.763c3.562,3.162,9.036,2.809,13.137,1.807
		c0.192-0.738,0.392-1.467,0.596-2.195c-1.851,0.609-3.674,0.971-5.472,1.119C55.019,90.726,52.267,90.435,49.573,89.763"/>
	<path fill-rule="evenodd" clip-rule="evenodd" fill="#F2E3BD" d="M16.289,89.331c0.204,0.734,0.404,1.467,0.599,2.209
		c4.114,1.023,9.663,1.416,13.26-1.777c-2.692,0.672-5.445,0.963-8.26,0.73C20.049,90.341,18.183,89.968,16.289,89.331"/>
	<path fill-rule="evenodd" clip-rule="evenodd" fill="#333333" d="M35.229,63.78l-5.222-10.512l-0.019,0.252
		c-1.504-0.102-2.943-0.115-4.353-0.037l5.997,12.072l6.391,12.861l1.798,3.619l1.798-3.619l6.391-12.861l5.997-12.07
		c-1.424-0.08-2.874-0.068-4.392,0.035l-0.013-0.184L44.414,63.78l-4.592,9.246L35.229,63.78z"/>
	<path fill-rule="evenodd" clip-rule="evenodd" fill="#EB642D" d="M39.822,71.235c3.81,0,6.897,3.088,6.897,6.898
		s-3.088,6.9-6.897,6.9s-6.898-3.09-6.898-6.9S36.013,71.235,39.822,71.235"/>
	<path fill-rule="evenodd" clip-rule="evenodd" fill="#FFFFFF" d="M42.644,75.019c0,0.006-0.002,0.012-0.005,0.018
		s-0.005,0.016-0.005,0.025l-1.155,5.279c-0.047,0.213-0.119,0.389-0.222,0.523c-0.1,0.135-0.222,0.238-0.365,0.314
		c-0.145,0.076-0.307,0.125-0.486,0.154c-0.182,0.029-0.375,0.043-0.583,0.043c-0.206,0-0.403-0.014-0.582-0.043
		c-0.181-0.029-0.343-0.078-0.487-0.154c-0.144-0.076-0.266-0.18-0.367-0.314c-0.101-0.135-0.174-0.311-0.22-0.523l-1.155-5.279
		c0-0.01-0.003-0.018-0.006-0.02C37.003,75.038,37,75.03,37,75.019c0-0.086,0.051-0.129,0.147-0.129h1.493
		c0.046,0,0.085,0.016,0.116,0.049c0.032,0.031,0.053,0.07,0.065,0.115l0.905,4.77c0.012,0.041,0.021,0.072,0.029,0.092
		c0.01,0.021,0.031,0.029,0.065,0.029s0.058-0.008,0.069-0.029c0.011-0.02,0.021-0.051,0.034-0.092l0.906-4.77
		c0.01-0.045,0.031-0.084,0.06-0.115c0.029-0.033,0.064-0.049,0.113-0.049h1.5C42.596,74.89,42.644,74.933,42.644,75.019"/>
</g>
</svg>
