<?xml version="1.0" encoding="utf-8"?>
<!-- Generator: Adobe Illustrator 16.0.0, SVG Export Plug-In . SVG Version: 6.00 Build 0)  -->
<!DOCTYPE svg PUBLIC "-//W3C//DTD SVG 1.1//EN" "http://www.w3.org/Graphics/SVG/1.1/DTD/svg11.dtd">
<svg version="1.1" id="Layer_1" xmlns="http://www.w3.org/2000/svg" xmlns:xlink="http://www.w3.org/1999/xlink" x="0px" y="0px"
	 width="650px" height="500px" viewBox="0 0 650 500" enable-background="new 0 0 650 500" xml:space="preserve">
<path fill="#333333" d="M83.823,146.121c0-5.361,4.346-9.707,9.71-9.707c5.36,0,9.708,4.346,9.708,9.707
	c0,5.361-4.348,9.709-9.708,9.709C88.169,155.83,83.823,151.482,83.823,146.121"/>
<path fill="#333333" d="M178.463,231.339c5.362,0,9.708,4.348,9.708,9.709c0,5.363-4.346,9.709-9.708,9.709
	c-5.362,0-9.708-4.346-9.708-9.709C168.755,235.687,173.102,231.339,178.463,231.339"/>
<polygon fill="#333333" points="230.27,300.573 230.27,306.847 235.235,306.847 241.937,302.927 241.937,320.978 235.235,317.058 
	230.27,317.058 230.27,324.608 232.176,324.608 232.176,323.571 234.755,323.571 234.755,329.581 232.176,329.581 232.176,328.544 
	230.27,328.544 230.27,333.757 182.196,333.757 182.196,312.272 176.689,305.073 176.667,300.521 "/>
<path fill="#333333" d="M221.604,270.682c9.28,0,16.805,7.522,16.805,16.805c0,9.281-7.524,16.803-16.805,16.803
	s-16.805-7.521-16.805-16.803c0-4.744,1.966-9.025,5.125-12.08l-18.708,9.137l-0.358-0.717l22.857-11.223
	C216.124,271.393,218.858,270.682,221.604,270.682"/>
<path fill="#FFFFFF" d="M221.604,284.186c1.823,0,3.3,1.479,3.3,3.301s-1.478,3.299-3.3,3.299s-3.3-1.477-3.3-3.299
	S219.782,284.186,221.604,284.186"/>
<rect x="204.894" y="329.759" fill="#333333" width="2.741" height="106.517"/>
<polygon fill="#333333" points="204.894,329.759 207.469,328.821 243.901,428.917 240.986,428.921 "/>
<polygon fill="#333333" points="207.635,329.759 205.058,328.821 168.627,428.917 171.541,428.927 "/>
<path fill="#333333" d="M194.501,283.122c5.387,0,9.755,4.369,9.755,9.758c0,5.388-4.368,9.752-9.755,9.752
	s-9.753-4.364-9.753-9.752c0-4.688,3.301-8.601,7.706-9.541C193.113,283.198,193.799,283.122,194.501,283.122"/>
<path fill="#FFFFFF" d="M194.502,289.579c0.888,0,1.695,0.353,2.287,0.922h0.001l0.013,0.013l0.088,0.092l25.689,25.918
	l-0.578,0.557l-24.209-24.428c0.006,0.076,0.009,0.152,0.009,0.227c0,1.822-1.478,3.299-3.3,3.299c-1.822,0-3.3-1.477-3.3-3.299
	S192.68,289.579,194.502,289.579"/>
<path fill="#FFFFFF" d="M217.809,314.298c3.439,0,6.228,2.787,6.228,6.229c0,3.438-2.789,6.225-6.228,6.225
	c-2.453,0-4.575-1.418-5.588-3.479l-20.403-28.474l0.654-0.469l19.132,26.701c-0.014-0.168-0.021-0.336-0.021-0.504
	C211.582,317.085,214.37,314.298,217.809,314.298"/>
<path fill="#CDCCCC" d="M217.909,318.55c1.049,0,1.898,0.853,1.898,1.898c0,1.051-0.85,1.899-1.898,1.899
	c-1.048,0-1.899-0.85-1.899-1.899C216.01,319.401,216.861,318.55,217.909,318.55"/>
<polygon fill="#333333" points="213.543,182.066 241.861,193.742 231.481,218.916 203.164,207.238 205.147,202.427 202.731,201.431 
	204.513,197.105 206.93,198.101 208.655,193.921 202.648,191.447 206.383,182.394 212.389,184.869 "/>
<polygon fill="#4E4E4E" points="260.814,188.513 241.861,193.744 231.481,218.916 241.437,236.064 "/>
<rect x="222.584" y="227.168" transform="matrix(0.2648 0.9643 -0.9643 0.2648 391.2458 -57.6314)" fill="#333333" width="21.67" height="1.203"/>
<polygon fill="#333333" points="259.282,192.23 241.861,193.742 231.481,218.916 242.969,232.347 "/>
<rect x="238.624" y="188.313" transform="matrix(0.8675 -0.4974 0.4974 0.8675 -60.9193 149.1131)" fill="#333333" width="21.669" height="1.204"/>
<path fill="#CDCCCC" d="M168.193,246.794h-3.851H87.788V156.39v-10.504c0-3.16,2.585-5.744,5.745-5.744
	c3.16,0,5.743,2.584,5.743,5.744v10.504h68.917v78.914h10.506c3.16,0,5.743,2.584,5.743,5.744c0,3.162-2.583,5.746-5.743,5.746
	H168.193z"/>
<rect x="94.212" y="162.236" fill="#676767" width="67.555" height="78.916"/>
<polygon fill="#E6E6E5" points="168.193,156.39 87.788,156.39 94.212,162.238 161.768,162.238 "/>
<path fill="#FFFFFF" d="M111.798,175.308c0,0.01-0.001,0.018-0.007,0.025c-0.004,0.01-0.005,0.023-0.005,0.039l-1.762,8.045
	c-0.071,0.324-0.182,0.59-0.334,0.795c-0.155,0.207-0.341,0.365-0.559,0.48c-0.22,0.113-0.467,0.191-0.743,0.236
	c-0.277,0.045-0.573,0.066-0.888,0.066c-0.314,0-0.611-0.021-0.887-0.066c-0.276-0.045-0.524-0.123-0.743-0.236
	c-0.22-0.115-0.405-0.273-0.559-0.48c-0.153-0.205-0.265-0.471-0.334-0.795l-1.761-8.045c0-0.016-0.003-0.027-0.007-0.031
	c-0.004-0.002-0.006-0.016-0.006-0.033c0-0.131,0.074-0.197,0.223-0.197h2.273c0.071,0,0.129,0.023,0.179,0.072
	c0.046,0.049,0.081,0.107,0.098,0.178l1.38,7.27c0.018,0.061,0.034,0.105,0.046,0.137c0.013,0.031,0.045,0.045,0.098,0.045
	s0.088-0.014,0.106-0.045c0.017-0.031,0.034-0.076,0.053-0.137l1.38-7.27c0.017-0.07,0.046-0.129,0.092-0.178
	c0.042-0.049,0.099-0.072,0.169-0.072h2.288C111.729,175.111,111.798,175.177,111.798,175.308"/>
<path fill="#FFFFFF" d="M115.518,184.587c0,0.07-0.03,0.137-0.091,0.197c-0.061,0.06-0.126,0.092-0.196,0.092h-1.95
	c-0.069,0-0.135-0.031-0.196-0.092s-0.091-0.127-0.091-0.197v-7.084c0-0.07,0.03-0.133,0.091-0.191
	c0.061-0.055,0.127-0.084,0.196-0.084h1.95c0.069,0,0.135,0.029,0.196,0.084c0.061,0.059,0.091,0.121,0.091,0.191V184.587z
	 M115.584,176.242c0,0.07-0.031,0.131-0.092,0.184c-0.061,0.053-0.126,0.08-0.196,0.08h-2.067c-0.068,0-0.136-0.027-0.202-0.08
	c-0.066-0.053-0.098-0.113-0.098-0.184v-1.287c0-0.072,0.031-0.133,0.098-0.186c0.066-0.053,0.134-0.078,0.202-0.078h2.067
	c0.07,0,0.135,0.025,0.196,0.078c0.061,0.053,0.092,0.113,0.092,0.186V176.242z"/>
<path fill="#FFFFFF" d="M121.485,178.923c0,0.07-0.02,0.131-0.06,0.184c-0.04,0.053-0.093,0.08-0.165,0.08h-0.185
	c-0.279,0-0.551,0.021-0.813,0.064c-0.262,0.043-0.497,0.123-0.698,0.236v5.1c0,0.07-0.024,0.137-0.071,0.197
	c-0.048,0.061-0.112,0.092-0.192,0.092h-1.971c-0.078,0-0.147-0.031-0.204-0.092s-0.085-0.127-0.085-0.197v-7.098
	c0-0.07,0.027-0.131,0.079-0.184c0.053-0.053,0.114-0.078,0.184-0.078h1.893c0.071,0,0.131,0.025,0.184,0.078
	c0.053,0.053,0.079,0.113,0.079,0.184v0.313c0.15-0.154,0.292-0.279,0.428-0.365c0.136-0.09,0.268-0.158,0.4-0.205
	c0.131-0.047,0.26-0.078,0.388-0.092c0.127-0.014,0.259-0.02,0.399-0.02h0.145c0.071,0,0.132,0.025,0.184,0.078
	c0.053,0.053,0.08,0.113,0.08,0.186L121.485,178.923L121.485,178.923z"/>
<path fill="#FFFFFF" d="M126.255,181.708h-0.643c-0.334,0-0.571,0.057-0.711,0.17c-0.139,0.115-0.21,0.313-0.21,0.594v0.131
	c0,0.229,0.067,0.381,0.197,0.461c0.132,0.078,0.29,0.117,0.474,0.117c0.157,0,0.318-0.02,0.479-0.059
	c0.164-0.039,0.301-0.086,0.414-0.139V181.708z M128.7,184.615c0,0.068-0.027,0.131-0.08,0.184
	c-0.051,0.051-0.113,0.078-0.185,0.078h-1.827c-0.069,0-0.13-0.027-0.184-0.078c-0.053-0.053-0.078-0.115-0.078-0.184v-0.277
	c-0.253,0.184-0.539,0.34-0.853,0.467c-0.316,0.127-0.659,0.191-1.025,0.191c-0.264,0-0.526-0.041-0.789-0.119
	c-0.264-0.078-0.504-0.209-0.723-0.393c-0.22-0.186-0.397-0.426-0.533-0.723c-0.135-0.297-0.203-0.672-0.203-1.119v-0.158
	c0-0.789,0.291-1.342,0.874-1.662c0.583-0.318,1.422-0.48,2.518-0.48h0.566v-0.381c0-0.156-0.026-0.285-0.074-0.387
	c-0.046-0.102-0.111-0.18-0.19-0.236c-0.08-0.057-0.171-0.096-0.277-0.113c-0.103-0.016-0.214-0.025-0.328-0.025
	c-0.421,0-0.831,0.006-1.229,0.02c-0.399,0.014-0.752,0.039-1.058,0.072h-0.04c-0.167,0-0.25-0.086-0.25-0.262v-1.275
	c0-0.148,0.088-0.254,0.264-0.314c0.105-0.037,0.251-0.072,0.439-0.105c0.188-0.037,0.392-0.068,0.611-0.1
	c0.219-0.032,0.447-0.057,0.684-0.078s0.459-0.033,0.67-0.033c0.472,0,0.911,0.045,1.313,0.139c0.404,0.092,0.751,0.248,1.045,0.473
	c0.293,0.223,0.523,0.518,0.691,0.881c0.166,0.363,0.25,0.813,0.25,1.346L128.7,184.615L128.7,184.615z"/>
<path fill="#FFFFFF" d="M132.604,184.587c0,0.07-0.026,0.137-0.079,0.197c-0.052,0.061-0.113,0.092-0.183,0.092h-1.976
	c-0.069,0-0.134-0.031-0.195-0.092s-0.091-0.127-0.091-0.197v-9.607c0-0.07,0.03-0.131,0.091-0.184
	c0.061-0.053,0.126-0.08,0.195-0.08h1.976c0.07,0,0.131,0.027,0.183,0.08c0.053,0.053,0.079,0.113,0.079,0.184V184.587z"/>
<path fill="#FFFFFF" d="M138.243,180.669c0-0.523-0.08-0.896-0.234-1.115c-0.157-0.219-0.384-0.33-0.687-0.33
	c-0.304,0-0.535,0.111-0.695,0.33c-0.159,0.219-0.24,0.592-0.24,1.115v0.764c0,0.525,0.081,0.9,0.24,1.123
	c0.16,0.225,0.391,0.336,0.695,0.336c0.302,0,0.53-0.111,0.687-0.336c0.154-0.223,0.234-0.598,0.234-1.123V180.669z
	 M140.766,181.433c0,1.164-0.299,2.051-0.893,2.654c-0.597,0.605-1.447,0.908-2.55,0.908c-1.105,0-1.958-0.303-2.557-0.908
	c-0.6-0.604-0.9-1.49-0.9-2.654v-0.764c0-1.164,0.3-2.047,0.9-2.654c0.6-0.604,1.452-0.906,2.557-0.906
	c1.103,0,1.953,0.303,2.55,0.906c0.594,0.607,0.893,1.49,0.893,2.654V181.433z"/>
<path fill="#FFFFFF" d="M144.604,184.587c0,0.07-0.031,0.137-0.092,0.197s-0.126,0.092-0.196,0.092h-1.949
	c-0.069,0-0.134-0.031-0.195-0.092c-0.062-0.061-0.092-0.127-0.092-0.197v-7.084c0-0.07,0.03-0.133,0.092-0.191
	c0.061-0.055,0.126-0.084,0.195-0.084h1.949c0.07,0,0.135,0.029,0.196,0.084c0.061,0.059,0.092,0.121,0.092,0.191V184.587z"/>
<path fill="#FFFFFF" d="M150.255,179.238c-0.131-0.018-0.271-0.029-0.421-0.039c-0.152-0.008-0.305-0.014-0.459-0.014
	c-0.364,0-0.61,0.127-0.739,0.377c-0.131,0.25-0.196,0.574-0.196,0.969v1.029c0,0.395,0.065,0.721,0.196,0.977
	c0.129,0.254,0.375,0.381,0.739,0.381c0.188,0,0.353-0.004,0.49-0.02c0.139-0.014,0.269-0.027,0.39-0.043V179.238z M152.778,184.246
	c0,0.113-0.026,0.201-0.079,0.264c-0.052,0.063-0.18,0.113-0.381,0.158c-0.342,0.068-0.769,0.141-1.282,0.215
	c-0.512,0.076-1.066,0.113-1.662,0.113c-1.086,0-1.935-0.291-2.544-0.875c-0.608-0.582-0.913-1.434-0.913-2.555v-1.027
	c0-0.525,0.069-0.998,0.21-1.42c0.141-0.42,0.354-0.779,0.643-1.076c0.287-0.299,0.648-0.527,1.08-0.689
	c0.433-0.162,0.938-0.244,1.513-0.244c0.105,0,0.246,0.01,0.42,0.033c0.175,0.021,0.332,0.043,0.472,0.059v-2.221
	c0-0.07,0.026-0.131,0.078-0.184c0.054-0.053,0.115-0.08,0.187-0.08h1.968c0.071,0,0.136,0.027,0.199,0.08
	c0.063,0.053,0.092,0.113,0.092,0.184L152.778,184.246L152.778,184.246z"/>
<path fill="#FFFFFF" d="M140.218,172.341c-0.041,0.047,0.001,0.084,0.001,0.127c0.003,0.076-0.012,0.164,0.004,0.238l0.042,0.295
	c0.028,0.039,0.011,0.09,0.023,0.133c0.084,0.27,0.081,0.266,0.197,0.539l0.137,0.309c0.004,0.072,0.166,0.338,0.221,0.41
	c0.018,0.023,0.043,0.039,0.06,0.063c0.106,0.143,0.114,0.18,0.3,0.322c0.107,0.08,0.304,0.295,0.416,0.352l0.447,0.283l0.498,0.223
	l0.401,0.141c0.028,0.006,0.063-0.008,0.085,0.006l0.173,0.035l0.293,0.043l0.067,0.018c0.092,0,0.279,0.016,0.361-0.004
	c0.088-0.023,0.177,0.004,0.264-0.033c0.043-0.018,0.101,0.004,0.149-0.021c0.114-0.059,0.467-0.084,0.817-0.289l0.325-0.164
	c0.038-0.021,0.074-0.055,0.115-0.068c0.079-0.027,0.383-0.271,0.438-0.346c0.023-0.031,0.071-0.033,0.08-0.076l0.043-0.023
	c0.052-0.061,0.122-0.105,0.162-0.178c0.032-0.061,0.115-0.096,0.148-0.156c0.085-0.146,0.119-0.115,0.27-0.387
	c0.166-0.295,0.165-0.252,0.283-0.58l0.057-0.135l0.102-0.324l0.049-0.193l0.07-0.293c0.003-0.023-0.012-0.109,0.004-0.125
	c0.037-0.031,0.01-0.156,0.025-0.209c0.02-0.066,0.024-0.816,0.007-0.883l-0.021-0.184l-0.07-0.33
	c-0.041-0.135-0.056-0.324-0.126-0.514l-0.283-0.648c-0.068-0.135-0.182-0.301-0.271-0.424l-0.217-0.256l-0.681-0.563l-0.666-0.381
	l-0.503-0.213l-0.258-0.088c-0.051-0.031-0.332-0.07-0.336-0.076c-0.033-0.037-0.086-0.01-0.127-0.023
	c-0.176-0.055-0.264-0.045-0.368-0.07c-0.141-0.037-0.425-0.023-0.574-0.021c-0.014,0-0.027,0.006-0.041,0.008l-0.254-0.008
	c-0.212,0.01-0.422,0.064-0.628,0.117l-0.475,0.139c-0.067,0.006-0.444,0.197-0.521,0.246l-0.306,0.207l-0.167,0.127
	c-0.089,0.09-0.108,0.066-0.282,0.242l-0.379,0.381l-0.181,0.242l-0.168,0.244l-0.158,0.258l-0.199,0.371
	c-0.121,0.248-0.283,0.57-0.345,0.836c-0.029,0.129-0.076,0.129-0.12,0.402l-0.019,0.055l-0.019,0.146l-0.021,0.088
	c0,0.006,0.001,0.016-0.001,0.018c-0.037,0.031-0.01,0.084-0.023,0.123c-0.055,0.182-0.053,0.275-0.072,0.354
	c-0.024,0.088-0.027,0.414-0.036,0.52c-0.01,0.111-0.014,0.523,0.018,0.623c0.023,0.066-0.001,0.135,0.03,0.201
	c0.024,0.051,0.02,0.258,0.083,0.355c0.061,0.096,0.109,0.529,0.354,0.619c0.102,0.037,0.15,0.063,0.262,0.053
	c0.067-0.008,0.179-0.063,0.225-0.105c0.056-0.051,0.107-0.098,0.135-0.172c0.035-0.094,0.063-0.229,0.013-0.32l-0.162-0.457
	c-0.015-0.195-0.031-0.193-0.04-0.248s0.017-0.111-0.02-0.16l0.005-0.406c0.03-0.09-0.005-0.188,0.019-0.277l0.015-0.154l0.02-0.09
	c0-0.004,0-0.01,0.001-0.012c0.025-0.025,0.02-0.184,0.041-0.205c0.035-0.031,0.013-0.086,0.023-0.125
	c0.036-0.133,0.044-0.242,0.092-0.375c0.105-0.289,0.151-0.467,0.288-0.75c0.008-0.02,0.012-0.041,0.021-0.061
	c0.184-0.342,0.265-0.496,0.492-0.814c0.151-0.213,0.34-0.428,0.546-0.588c0.02-0.016,0.035-0.039,0.057-0.055l0.33-0.232
	c0.061-0.039,0.192-0.148,0.263-0.154c0.027-0.002,0.147-0.098,0.393-0.143l0.521-0.139c0.026-0.002,0.051,0.002,0.076-0.002
	c0.018,0,0.035-0.006,0.056-0.01c0.045,0.004,0.077,0.025,0.145,0.004c0.065-0.023,0.399-0.025,0.462-0.006l0.127,0.018l0.268,0.039
	c0.024,0.021,0.315,0.063,0.333,0.078c0.041-0.01,0.585,0.207,0.636,0.238l0.234,0.119c0.142,0.088,0.354,0.184,0.475,0.291
	c0.122,0.111,0.451,0.359,0.52,0.475l0.172,0.234c0.119,0.199,0.095,0.189,0.165,0.35c0.026,0.055,0.165,0.309,0.157,0.359
	l0.064,0.279c0.03,0.029-0.003,0.084,0.02,0.104l0.057,0.236c0.008,0.057-0.017,0.117,0.02,0.172
	c0.003,0.004,0.003,0.014,0.001,0.018c-0.03,0.039-0.003,0.078-0.003,0.119c0.003,0.105,0.018,0.51-0.001,0.586l-0.018,0.174
	c0,0.008,0.003,0.021-0.001,0.025c-0.019,0.014-0.068,0.324-0.085,0.367l-0.073,0.225c-0.038,0.082-0.054,0.182-0.099,0.252
	c-0.034,0.055-0.033,0.117-0.083,0.209c-0.103,0.18-0.215,0.381-0.358,0.527c-0.081,0.084-0.366,0.369-0.462,0.428
	c-0.035,0.021-0.043,0.053-0.23,0.148c-0.098,0.051-0.376,0.209-0.452,0.23l-0.23,0.061c-0.024,0-0.177,0.08-0.41,0.082l-0.104,0.02
	c-0.072,0-0.161,0.014-0.229-0.008l-0.225-0.039c-0.089-0.031-0.129,0.008-0.34-0.08l-0.349-0.133l-0.113-0.061
	c-0.046,0.006-0.276-0.17-0.337-0.201c-0.078-0.039-0.308-0.213-0.356-0.281c-0.024-0.029-0.074-0.033-0.085-0.08l-0.041-0.02
	c-0.181-0.176-0.222-0.264-0.335-0.48c-0.056-0.109-0.077-0.238-0.13-0.35l-0.076-0.174c-0.066-0.066-0.077-0.363-0.083-0.387
	l-0.028-0.258c0.044-0.061,0-0.156,0.02-0.227l0.055-0.229c0.092-0.309,0.187-0.451,0.37-0.717c0.075-0.107,0.487-0.531,0.553-0.57
	c0.17-0.098,0.316-0.184,0.509-0.223l0.204-0.061l0.17-0.039l0.364,0.006c0.086,0.023,0.18,0.012,0.264,0.041
	c0.173,0.059,0.18,0.021,0.426,0.154c0.384,0.209,0.256,0.209,0.39,0.334c0.079,0.076,0.18,0.482,0.221,0.607
	c0.02,0.063,0.074,0.137,0.057,0.207l0.019,0.068c0.002,0.033-0.01,0.082,0.008,0.111c0.041,0.061-0.007,0.115-0.007,0.178
	c-0.001,0.029,0.015,0.115-0.004,0.139l-0.05,0.172c-0.08,0.172-0.119,0.297-0.27,0.43c-0.184,0.166-0.215,0.242-0.459,0.379
	l-0.283,0.096c-0.233,0.002-0.225,0.029-0.414-0.057c-0.018-0.008-0.034-0.021-0.051-0.023c-0.129-0.01-0.486-0.299-0.525-0.457
	c-0.068-0.285-0.008-0.188-0.021-0.26c-0.013-0.068,0.074-0.303,0.132-0.354c0.105-0.086,0.188-0.209,0.361-0.238
	c0.088-0.016,0.142,0.092,0.203,0.137c0.058,0.041,0.174,0.109,0.248,0.102c0.144-0.006,0.131,0.018,0.26-0.039
	c0.134-0.057,0.25-0.219,0.249-0.365c-0.001-0.123,0-0.221-0.091-0.32c-0.055-0.057-0.28-0.266-0.346-0.285
	c-0.098-0.029-0.222-0.133-0.322-0.137c-0.334-0.01-0.372-0.006-0.657,0.1c-0.118,0.047-0.147,0.107-0.228,0.139
	c-0.2,0.084-0.356,0.313-0.494,0.479c-0.063,0.076-0.085,0.229-0.128,0.287c-0.06,0.08-0.049,0.195-0.081,0.285
	c-0.028,0.076,0.004,0.16-0.018,0.238c-0.016,0.059-0.015,0.26,0.008,0.275c0.019,0.016,0.048,0.227,0.063,0.264
	c0.109,0.275,0.197,0.375,0.4,0.586c0.023,0.025,0.063,0.037,0.073,0.072c0.01,0.033,0.332,0.229,0.39,0.258l0.167,0.078
	c0.084,0.045,0.25,0.113,0.343,0.123c0.027,0.004,0.061-0.008,0.081,0.004c0.031,0.02,0.269,0.053,0.285,0.033
	c0.033-0.039,0.245,0,0.322-0.041c0.05-0.027,0.2-0.029,0.241-0.061l0.186-0.076c0.257-0.117,0.247-0.158,0.383-0.24
	c0.197-0.123,0.387-0.377,0.406-0.383c0.038-0.014,0.027-0.035,0.05-0.059c0.049-0.053,0.273-0.314,0.273-0.383
	c0.003-0.037,0.156-0.354,0.183-0.471c0.005-0.023-0.005-0.053,0.005-0.068c0.02-0.027,0-0.084,0.019-0.1
	c0.048-0.045-0.011-0.219,0.021-0.244c0.048-0.039-0.002-0.264-0.002-0.275c-0.009-0.09,0.001-0.184-0.026-0.27l-0.042-0.184
	l-0.14-0.422c-0.085-0.217-0.013-0.104-0.135-0.342c-0.041-0.076-0.019-0.066-0.082-0.162c-0.024-0.037-0.162-0.252-0.193-0.25
	c-0.001,0-0.007-0.004-0.006-0.006c0.002-0.031-0.114-0.115-0.148-0.148c-0.164-0.162-0.8-0.498-0.971-0.471l-0.121-0.037
	c-0.026-0.006-0.061,0.008-0.08-0.006l-0.104-0.018c-0.031-0.039-0.157-0.012-0.208-0.025c-0.051-0.016-0.428-0.02-0.438-0.01
	c-0.029,0.035-0.191,0-0.328,0.043l-0.458,0.141l-0.262,0.115l-0.449,0.291c-0.108,0.115-0.485,0.469-0.555,0.592l-0.15,0.176
	l-0.285,0.494l-0.139,0.359c-0.038,0.131-0.081,0.322-0.082,0.455l-0.019,0.08l-0.015,0.129
	C140.208,172.326,140.212,172.332,140.218,172.341"/>
<path fill="#FFFFFF" d="M111.916,194.183c0,0.02-0.003,0.029-0.007,0.033c-0.005,0.004-0.008,0.016-0.008,0.031l-1.606,5.795
	c-0.095,0.332-0.215,0.596-0.364,0.791s-0.316,0.346-0.505,0.447c-0.187,0.102-0.387,0.166-0.6,0.191
	c-0.211,0.025-0.424,0.037-0.636,0.037c-0.215,0-0.427-0.012-0.639-0.037c-0.212-0.025-0.411-0.09-0.594-0.191
	c-0.183-0.102-0.349-0.252-0.498-0.447s-0.27-0.459-0.363-0.791l-1.596-5.795c0-0.016-0.002-0.027-0.007-0.031
	c-0.005-0.004-0.007-0.014-0.007-0.033c0-0.066,0.022-0.119,0.065-0.158s0.094-0.059,0.154-0.059h2.093
	c0.068,0,0.127,0.027,0.176,0.078c0.051,0.051,0.085,0.115,0.104,0.191l0.957,4.658c0.024,0.154,0.077,0.23,0.154,0.23
	c0.083,0,0.138-0.076,0.164-0.23l0.959-4.658c0.015-0.076,0.05-0.141,0.102-0.191c0.052-0.05,0.111-0.078,0.177-0.078h2.095
	c0.06,0,0.112,0.02,0.159,0.059C111.891,194.064,111.916,194.117,111.916,194.183 M115.374,201.115c0,0.068-0.03,0.133-0.089,0.193
	c-0.06,0.057-0.123,0.086-0.193,0.086h-1.9c-0.068,0-0.133-0.029-0.193-0.086c-0.06-0.061-0.089-0.125-0.089-0.193v-6.879
	c0-0.068,0.03-0.131,0.089-0.186c0.059-0.055,0.125-0.084,0.193-0.084h1.9c0.07,0,0.133,0.029,0.193,0.084
	c0.06,0.055,0.089,0.117,0.089,0.186V201.115z M115.438,193.009c0,0.07-0.03,0.129-0.089,0.18c-0.059,0.051-0.124,0.076-0.193,0.076
	h-2.016c-0.067,0-0.133-0.025-0.198-0.076c-0.063-0.051-0.096-0.109-0.096-0.18v-1.25c0-0.068,0.033-0.127,0.096-0.18
	c0.064-0.051,0.131-0.076,0.198-0.076h2.016c0.07,0,0.134,0.025,0.193,0.076c0.06,0.053,0.089,0.111,0.089,0.18V193.009z
	 M120.862,195.935c-0.129-0.02-0.267-0.033-0.416-0.041c-0.149-0.008-0.299-0.012-0.452-0.012c-0.357,0-0.6,0.121-0.727,0.363
	c-0.129,0.242-0.192,0.557-0.192,0.938v0.996c0,0.383,0.063,0.697,0.192,0.945c0.127,0.246,0.37,0.369,0.727,0.369
	c0.188,0,0.349-0.008,0.485-0.018c0.136-0.014,0.264-0.029,0.383-0.047V195.935z M123.298,200.783c0,0.111-0.025,0.195-0.077,0.256
	c-0.049,0.059-0.172,0.109-0.369,0.152c-0.332,0.068-0.747,0.139-1.245,0.211c-0.498,0.072-1.036,0.107-1.614,0.107
	c-1.055,0-1.878-0.281-2.47-0.848c-0.592-0.566-0.887-1.395-0.887-2.482v-0.996c0-0.51,0.068-0.969,0.202-1.377
	c0.138-0.408,0.346-0.758,0.627-1.047c0.279-0.291,0.631-0.514,1.052-0.672c0.422-0.156,0.914-0.234,1.475-0.234
	c0.103,0,0.237,0.01,0.409,0.031c0.17,0.021,0.323,0.043,0.459,0.057v-2.156c0-0.066,0.025-0.127,0.075-0.178
	c0.053-0.051,0.112-0.078,0.18-0.078h1.902c0.068,0,0.131,0.027,0.191,0.078c0.06,0.051,0.088,0.111,0.088,0.178v8.998H123.298z
	 M128.826,196.978c0-0.381-0.076-0.682-0.23-0.898c-0.154-0.217-0.393-0.326-0.716-0.326c-0.305,0-0.539,0.109-0.701,0.326
	c-0.162,0.217-0.243,0.518-0.243,0.898v0.039h1.889L128.826,196.978L128.826,196.978z M131.175,198.089
	c0,0.084-0.025,0.154-0.077,0.205c-0.053,0.051-0.117,0.076-0.191,0.076h-3.97v0.025c0,0.34,0.084,0.609,0.256,0.805
	c0.17,0.195,0.489,0.293,0.956,0.293c0.171,0,0.372-0.002,0.602-0.008c0.229-0.002,0.459-0.01,0.689-0.023
	c0.23-0.013,0.447-0.023,0.651-0.033c0.204-0.008,0.364-0.02,0.483-0.039h0.051c0.153,0,0.231,0.074,0.231,0.219v1.148
	c0,0.102-0.019,0.18-0.051,0.229c-0.034,0.053-0.102,0.096-0.206,0.129c-0.407,0.137-0.836,0.236-1.287,0.299
	c-0.453,0.064-0.944,0.096-1.481,0.096c-0.434,0-0.851-0.059-1.25-0.178s-0.753-0.313-1.061-0.58
	c-0.305-0.27-0.55-0.613-0.733-1.035c-0.183-0.42-0.275-0.938-0.275-1.549v-0.842c0-1.123,0.305-1.984,0.914-2.578
	c0.608-0.598,1.437-0.895,2.483-0.895c0.562,0,1.046,0.084,1.454,0.254c0.41,0.172,0.748,0.41,1.016,0.715
	c0.268,0.307,0.467,0.674,0.6,1.1c0.131,0.426,0.199,0.893,0.199,1.404v0.763H131.175z M136.458,197.31
	c0-0.508-0.076-0.871-0.229-1.082c-0.153-0.215-0.379-0.322-0.677-0.322c-0.297,0-0.526,0.107-0.683,0.322
	c-0.158,0.211-0.235,0.574-0.235,1.082v0.742c0,0.51,0.077,0.873,0.235,1.092c0.157,0.217,0.386,0.324,0.683,0.324
	c0.298,0,0.523-0.107,0.677-0.324c0.153-0.219,0.229-0.582,0.229-1.092V197.31z M138.896,198.052c0,1.131-0.289,1.99-0.868,2.576
	c-0.58,0.588-1.405,0.881-2.476,0.881c-1.072,0-1.9-0.293-2.483-0.881c-0.583-0.586-0.874-1.445-0.874-2.576v-0.742
	c0-1.131,0.291-1.988,0.874-2.578c0.583-0.586,1.411-0.879,2.483-0.879c1.071,0,1.896,0.293,2.476,0.879
	c0.579,0.59,0.868,1.447,0.868,2.578V198.052z M109.056,212.898c0-0.385-0.078-0.684-0.231-0.9c-0.152-0.217-0.39-0.326-0.713-0.326
	c-0.306,0-0.54,0.109-0.704,0.326c-0.16,0.217-0.241,0.516-0.241,0.9v0.039h1.889V212.898z M111.404,214.009
	c0,0.084-0.026,0.152-0.076,0.203c-0.053,0.051-0.115,0.076-0.193,0.076h-3.968v0.025c0,0.342,0.085,0.607,0.255,0.805
	c0.168,0.195,0.487,0.293,0.957,0.293c0.17,0,0.371-0.002,0.598-0.006c0.23-0.004,0.461-0.012,0.691-0.027
	c0.228-0.012,0.447-0.021,0.651-0.031c0.204-0.008,0.364-0.02,0.483-0.035h0.053c0.153,0,0.23,0.07,0.23,0.215v1.148
	c0,0.102-0.019,0.18-0.051,0.232c-0.034,0.049-0.103,0.09-0.204,0.125c-0.41,0.137-0.838,0.236-1.291,0.301
	c-0.451,0.063-0.943,0.096-1.48,0.096c-0.432,0-0.851-0.061-1.249-0.18c-0.401-0.119-0.755-0.313-1.061-0.58
	c-0.305-0.268-0.551-0.613-0.733-1.033c-0.183-0.422-0.273-0.939-0.273-1.551v-0.844c0-1.121,0.303-1.982,0.912-2.578
	c0.608-0.596,1.435-0.893,2.483-0.893c0.562,0,1.045,0.084,1.453,0.254c0.41,0.17,0.747,0.408,1.015,0.715
	c0.268,0.309,0.468,0.674,0.601,1.098c0.131,0.426,0.198,0.895,0.198,1.404L111.404,214.009L111.404,214.009z M116.638,211.851
	c-0.129-0.018-0.267-0.029-0.416-0.037c-0.149-0.01-0.3-0.014-0.453-0.014c-0.357,0-0.6,0.121-0.727,0.363
	c-0.129,0.242-0.192,0.555-0.192,0.938v0.996c0,0.383,0.063,0.697,0.192,0.943c0.127,0.248,0.37,0.371,0.727,0.371
	c0.188,0,0.349-0.006,0.485-0.018c0.136-0.016,0.264-0.029,0.383-0.047L116.638,211.851L116.638,211.851z M119.075,216.701
	c0,0.111-0.027,0.197-0.076,0.256c-0.051,0.061-0.174,0.109-0.371,0.152c-0.332,0.068-0.747,0.139-1.245,0.209
	c-0.498,0.074-1.035,0.111-1.614,0.111c-1.055,0-1.878-0.283-2.47-0.85c-0.592-0.567-0.887-1.393-0.887-2.482v-0.996
	c0-0.508,0.068-0.969,0.205-1.377c0.136-0.41,0.344-0.758,0.625-1.047c0.281-0.291,0.631-0.514,1.052-0.672
	c0.422-0.156,0.914-0.234,1.475-0.234c0.103,0,0.237,0.01,0.409,0.031c0.17,0.021,0.323,0.041,0.459,0.059v-2.158
	c0-0.068,0.025-0.127,0.075-0.178c0.053-0.053,0.112-0.076,0.18-0.076h1.902c0.068,0,0.13,0.023,0.191,0.076
	c0.06,0.051,0.089,0.109,0.089,0.178L119.075,216.701L119.075,216.701z M123.006,217.033c0,0.068-0.03,0.131-0.089,0.191
	c-0.06,0.059-0.124,0.09-0.191,0.09h-1.902c-0.068,0-0.132-0.031-0.191-0.09c-0.06-0.061-0.089-0.123-0.089-0.191v-6.879
	c0-0.068,0.03-0.129,0.089-0.186c0.06-0.055,0.124-0.082,0.191-0.082h1.902c0.068,0,0.132,0.027,0.191,0.082
	c0.06,0.057,0.089,0.117,0.089,0.186V217.033z M123.07,208.929c0,0.066-0.031,0.127-0.091,0.178
	c-0.058,0.051-0.122,0.076-0.189,0.076h-2.017c-0.07,0-0.135-0.025-0.199-0.076c-0.063-0.051-0.095-0.111-0.095-0.178v-1.252
	c0-0.068,0.031-0.129,0.095-0.178c0.064-0.051,0.129-0.078,0.199-0.078h2.017c0.068,0,0.131,0.027,0.189,0.078
	c0.06,0.049,0.091,0.109,0.091,0.178V208.929z M128.864,211.443c0,0.066-0.025,0.127-0.076,0.178
	c-0.051,0.051-0.111,0.078-0.179,0.078h-0.97v3.434c0,0.195,0.019,0.324,0.057,0.389c0.038,0.063,0.14,0.096,0.301,0.096h0.587
	c0.077,0,0.14,0.023,0.191,0.07c0.051,0.045,0.077,0.104,0.077,0.172v1.199c0,0.068-0.025,0.123-0.077,0.166
	c-0.051,0.043-0.114,0.072-0.191,0.09c-0.111,0.018-0.211,0.033-0.301,0.051c-0.09,0.018-0.176,0.029-0.261,0.037
	c-0.085,0.01-0.173,0.016-0.262,0.02c-0.088,0.004-0.192,0.008-0.313,0.008c-0.34,0-0.648-0.033-0.926-0.096
	c-0.276-0.064-0.514-0.182-0.714-0.352c-0.2-0.17-0.352-0.406-0.46-0.709c-0.106-0.303-0.158-0.691-0.158-1.168V211.7l-0.843-0.193
	c-0.069-0.016-0.13-0.049-0.186-0.1c-0.056-0.053-0.083-0.111-0.083-0.18v-1.072c0-0.068,0.025-0.129,0.077-0.186
	c0.051-0.055,0.115-0.082,0.191-0.082h0.843v-1.033c0-0.07,0.027-0.127,0.082-0.174c0.056-0.047,0.118-0.078,0.186-0.096
	l1.901-0.332h0.039c0.068,0,0.125,0.023,0.172,0.07c0.046,0.047,0.07,0.104,0.07,0.172v1.393h0.97c0.068,0,0.127,0.023,0.179,0.076
	c0.051,0.051,0.076,0.109,0.076,0.178L128.864,211.443L128.864,211.443z M132.515,217.033c0,0.068-0.03,0.131-0.089,0.191
	c-0.06,0.059-0.123,0.09-0.192,0.09h-1.901c-0.068,0-0.131-0.031-0.191-0.09c-0.06-0.061-0.089-0.123-0.089-0.191v-6.879
	c0-0.068,0.03-0.129,0.089-0.186c0.06-0.055,0.123-0.082,0.191-0.082h1.901c0.069,0,0.132,0.027,0.192,0.082
	c0.06,0.057,0.089,0.117,0.089,0.186V217.033z M132.579,208.929c0,0.066-0.031,0.127-0.091,0.178
	c-0.058,0.051-0.122,0.076-0.19,0.076h-2.017c-0.069,0-0.134-0.025-0.198-0.076c-0.064-0.051-0.096-0.111-0.096-0.178v-1.252
	c0-0.068,0.031-0.129,0.096-0.178c0.063-0.051,0.128-0.078,0.198-0.078h2.017c0.068,0,0.132,0.027,0.19,0.078
	c0.06,0.049,0.091,0.109,0.091,0.178V208.929z M140.632,217.033c0,0.068-0.023,0.131-0.072,0.191
	c-0.046,0.059-0.107,0.09-0.184,0.09h-1.915c-0.076,0-0.143-0.031-0.198-0.09c-0.056-0.061-0.083-0.123-0.083-0.191v-4.326
	c0-0.34-0.06-0.574-0.179-0.701c-0.119-0.129-0.323-0.191-0.613-0.191c-0.145,0-0.305,0.023-0.479,0.076
	c-0.175,0.053-0.334,0.115-0.478,0.191v4.951c0,0.068-0.024,0.131-0.071,0.191c-0.046,0.059-0.107,0.09-0.184,0.09h-1.915
	c-0.076,0-0.144-0.031-0.199-0.09c-0.055-0.061-0.082-0.123-0.082-0.191v-6.893c0-0.068,0.026-0.127,0.076-0.178
	c0.051-0.053,0.111-0.076,0.179-0.076h1.774c0.068,0,0.128,0.023,0.178,0.076c0.051,0.051,0.077,0.109,0.077,0.178v0.293
	c0.17-0.127,0.332-0.232,0.484-0.318c0.154-0.086,0.311-0.15,0.473-0.197c0.162-0.047,0.333-0.08,0.518-0.102
	c0.183-0.021,0.393-0.033,0.631-0.033c0.467,0,0.851,0.082,1.149,0.242c0.298,0.162,0.527,0.381,0.689,0.652
	c0.162,0.271,0.273,0.582,0.333,0.932c0.06,0.348,0.089,0.715,0.089,1.098v4.326H140.632z M146.184,217.683
	c0-0.059-0.012-0.113-0.033-0.158c-0.021-0.047-0.07-0.094-0.146-0.143c-0.077-0.045-0.188-0.092-0.333-0.139
	c-0.145-0.047-0.34-0.096-0.587-0.146l-0.765-0.166c-0.06,0.076-0.107,0.182-0.141,0.318c-0.034,0.137-0.051,0.281-0.051,0.434v0.09
	c0,0.17,0.078,0.307,0.235,0.408c0.157,0.101,0.429,0.154,0.812,0.154c0.213,0,0.387-0.016,0.523-0.045
	c0.136-0.031,0.238-0.07,0.307-0.121c0.068-0.053,0.115-0.111,0.14-0.18c0.024-0.068,0.039-0.141,0.039-0.217V217.683z
	 M146.209,212.324c0-0.223-0.063-0.402-0.191-0.543c-0.128-0.141-0.37-0.211-0.728-0.211c-0.357,0-0.601,0.07-0.727,0.211
	c-0.128,0.141-0.192,0.32-0.192,0.543v0.141c0,0.102,0.013,0.197,0.039,0.287c0.025,0.09,0.069,0.166,0.133,0.236
	c0.063,0.068,0.154,0.121,0.275,0.158c0.119,0.039,0.277,0.059,0.472,0.059c0.358,0,0.601-0.068,0.728-0.205
	s0.191-0.314,0.191-0.535V212.324L146.209,212.324z M148.966,211.099c0,0.145-0.085,0.236-0.255,0.279l-0.357,0.104
	c0.068,0.117,0.122,0.258,0.166,0.42c0.042,0.164,0.064,0.303,0.064,0.422v0.141c0,0.859-0.292,1.48-0.875,1.863
	c-0.582,0.383-1.388,0.574-2.418,0.574c-0.255,0-0.496-0.016-0.72-0.045c-0.227-0.029-0.403-0.066-0.532-0.109
	c-0.109,0.078-0.165,0.166-0.165,0.27c0,0.066,0.019,0.125,0.057,0.172c0.039,0.047,0.118,0.082,0.237,0.107l1.43,0.295
	c0.409,0.084,0.801,0.174,1.18,0.268c0.379,0.094,0.713,0.215,1.002,0.363c0.289,0.148,0.52,0.34,0.695,0.574
	c0.174,0.234,0.261,0.529,0.261,0.887v0.09c0,0.748-0.299,1.295-0.898,1.641c-0.601,0.346-1.487,0.516-2.661,0.516
	c-1.089,0-1.915-0.193-2.476-0.58s-0.843-0.912-0.843-1.576v-0.09c0-0.188,0.057-0.412,0.172-0.676
	c0.115-0.264,0.295-0.494,0.543-0.688c-0.162-0.119-0.303-0.262-0.421-0.422c-0.119-0.162-0.178-0.396-0.178-0.703
	c0-0.297,0.061-0.529,0.184-0.695c0.124-0.166,0.262-0.32,0.416-0.467c-0.145-0.127-0.258-0.262-0.339-0.4
	c-0.081-0.143-0.141-0.281-0.179-0.422c-0.038-0.141-0.063-0.273-0.077-0.402c-0.011-0.127-0.018-0.242-0.018-0.344v-0.141
	c0-0.801,0.272-1.406,0.816-1.818c0.545-0.414,1.381-0.619,2.514-0.619h3.383c0.085,0,0.154,0.029,0.209,0.09
	c0.056,0.059,0.084,0.131,0.084,0.215L148.966,211.099L148.966,211.099z M152.221,217.058c0,0.068-0.028,0.127-0.084,0.178
	c-0.055,0.053-0.116,0.078-0.184,0.078h-1.851c-0.068,0-0.129-0.025-0.186-0.078c-0.056-0.051-0.083-0.109-0.083-0.178v-1.773
	c0-0.068,0.027-0.129,0.083-0.18c0.057-0.051,0.118-0.076,0.186-0.076h1.851c0.068,0,0.129,0.025,0.184,0.076
	c0.056,0.051,0.084,0.111,0.084,0.18V217.058z"/>
<polygon fill="#333333" points="171.688,247.039 185.521,294.37 185.11,295.523 171.021,247.285 "/>
<polygon fill="#FFFFFF" points="131.021,229.531 127.99,227.779 124.959,226.031 124.959,229.531 124.959,233.031 127.99,231.281 
	"/>
<path fill="#FFFFFF" d="M113.698,233.031h-2.215v-7.016h2.215V233.031z M108.097,233.031h2.215v-7.016h-2.215V233.031z"/>
<path fill="#FFFFFF" d="M144.294,225.933c1.982,0,3.589,1.607,3.589,3.59s-1.606,3.59-3.589,3.59s-3.59-1.607-3.59-3.59
	S142.312,225.933,144.294,225.933"/>
<path fill="#333333" d="M555.667,146.519c0-5.361,4.346-9.709,9.708-9.709c5.361,0,9.708,4.348,9.708,9.709
	c0,5.363-4.347,9.709-9.708,9.709C560.013,156.228,555.667,151.882,555.667,146.519"/>
<path fill="#FFFFFF" d="M178.463,238.439c1.441,0,2.609,1.168,2.609,2.609c0,1.443-1.168,2.609-2.609,2.609
	s-2.609-1.166-2.609-2.609C175.854,239.607,177.022,238.439,178.463,238.439"/>
<path fill="#FFFFFF" d="M90.922,146.121c0-1.441,1.168-2.609,2.609-2.609c1.442,0,2.61,1.168,2.61,2.609s-1.167,2.611-2.61,2.611
	C92.091,148.732,90.922,147.562,90.922,146.121"/>
<path fill="#FFFFFF" d="M562.766,146.519c0-1.441,1.169-2.609,2.608-2.609c1.44,0,2.61,1.168,2.61,2.609s-1.17,2.609-2.61,2.609
	C563.935,149.128,562.766,147.96,562.766,146.519"/>
<rect x="93.533" y="136.814" fill="#333333" width="471.844" height="0.803"/>
<rect x="314.689" y="136.878" transform="matrix(0.5072 0.8618 -0.8618 0.5072 275.7593 -207.1028)" fill="#FFFFFF" width="8.576" height="1.407"/>
<rect x="316.82" y="135.696" transform="matrix(0.5073 0.8618 -0.8618 0.5073 275.7616 -209.5162)" fill="#FFFFFF" width="8.574" height="1.409"/>
<rect x="465.23" y="136.86" transform="matrix(0.507 0.8619 -0.8619 0.507 350.0359 -336.8775)" fill="#FFFFFF" width="8.575" height="1.406"/>
<rect x="467.363" y="135.688" transform="matrix(0.5073 0.8618 -0.8618 0.5073 349.9297 -339.2552)" fill="#FFFFFF" width="8.574" height="1.408"/>
<rect x="223.96" y="136.412" fill="#FFFFFF" width="1.407" height="54.32"/>
<rect x="220.928" y="136.876" transform="matrix(0.5072 0.8618 -0.8618 0.5072 229.5453 -126.2987)" fill="#FFFFFF" width="8.575" height="1.406"/>
<rect x="223.088" y="135.697" transform="matrix(0.5073 0.8618 -0.8618 0.5073 229.579 -128.7396)" fill="#FFFFFF" width="8.574" height="1.408"/>
<path fill="#FFFFFF" d="M222.255,192.894l-0.588,1.561c-0.72,1.852-1.505,3.646-2.36,5.383c-1.995,4.049-4.386,7.766-7.293,11.051
	l1.462,0.602c2.843-3.289,5.197-6.982,7.171-10.99c1.265-2.566,2.375-5.262,3.358-8.059c-0.257,2.768-0.589,5.537-1.01,8.301
	c-0.689,4.514-1.621,9.016-2.859,13.494l1.434,0.592l8.544-25.928l-1.39-0.574l-4.321,13.117l0.072-0.479
	c0.699-4.576,1.153-9.18,1.431-13.801l-1.587-0.654C223.696,188.691,223.013,190.824,222.255,192.894"/>
<rect x="232.727" y="81.509" fill="#E6E6E5" width="193.454" height="32.182"/>
<rect x="250.096" y="81.509" fill="#676767" width="158.714" height="32.182"/>
<path fill="#FFFFFF" d="M264.789,100.607c0,0.061-0.023,0.113-0.068,0.158c-0.046,0.045-0.098,0.068-0.159,0.068h-1.577
	c-0.061,0-0.114-0.023-0.159-0.068c-0.046-0.045-0.069-0.098-0.069-0.158v-0.262c-0.203,0.15-0.448,0.287-0.731,0.408
	c-0.284,0.121-0.639,0.182-1.061,0.182c-0.424,0-0.77-0.072-1.038-0.215c-0.268-0.145-0.481-0.338-0.636-0.58
	c-0.154-0.24-0.263-0.52-0.323-0.832c-0.061-0.314-0.091-0.641-0.091-0.982V94.48c0-0.061,0.021-0.117,0.062-0.17
	c0.042-0.053,0.097-0.08,0.165-0.08h1.701c0.069,0,0.127,0.027,0.176,0.08c0.05,0.053,0.074,0.109,0.074,0.17v3.846
	c0,0.303,0.045,0.514,0.136,0.629c0.091,0.117,0.28,0.178,0.568,0.178c0.127,0,0.271-0.025,0.425-0.074
	c0.154-0.049,0.296-0.107,0.425-0.178v-4.4c0-0.061,0.021-0.117,0.063-0.17c0.041-0.053,0.097-0.08,0.165-0.08h1.702
	c0.068,0,0.126,0.027,0.176,0.08c0.049,0.053,0.074,0.109,0.074,0.17V100.607z M269.792,97.089c0-0.34-0.055-0.617-0.166-0.834
	c-0.109-0.215-0.322-0.324-0.64-0.324c-0.166,0-0.31,0.006-0.431,0.012c-0.122,0.008-0.234,0.02-0.34,0.035v3.107
	c0.113,0.016,0.235,0.029,0.369,0.041c0.132,0.012,0.267,0.018,0.402,0.018c0.318,0,0.531-0.111,0.64-0.33
	c0.111-0.219,0.166-0.5,0.166-0.84V97.089z M271.97,97.974c0,0.455-0.061,0.861-0.182,1.227c-0.12,0.361-0.306,0.672-0.556,0.93
	c-0.25,0.256-0.562,0.455-0.936,0.596c-0.376,0.139-0.812,0.209-1.311,0.209c-0.09,0-0.212-0.008-0.363-0.021
	c-0.151-0.014-0.288-0.031-0.408-0.047v1.906c0,0.061-0.023,0.115-0.068,0.164c-0.046,0.049-0.098,0.074-0.16,0.074h-1.701
	c-0.06,0-0.118-0.025-0.17-0.074c-0.054-0.049-0.08-0.104-0.08-0.164v-7.998c0-0.098,0.024-0.174,0.074-0.227
	c0.05-0.053,0.16-0.098,0.334-0.137c0.295-0.061,0.664-0.123,1.106-0.186c0.442-0.064,0.92-0.098,1.435-0.098
	c0.938,0,1.669,0.25,2.196,0.754c0.525,0.504,0.788,1.238,0.788,2.207v0.885H271.97z M275.214,100.583
	c0,0.061-0.023,0.117-0.068,0.17c-0.045,0.053-0.1,0.08-0.159,0.08h-1.713c-0.061,0-0.118-0.027-0.17-0.08
	c-0.053-0.053-0.08-0.109-0.08-0.17V92.29c0-0.061,0.027-0.113,0.08-0.158c0.052-0.047,0.109-0.068,0.17-0.068h1.713
	c0.06,0,0.114,0.021,0.159,0.068c0.045,0.045,0.068,0.098,0.068,0.158V100.583z M280.082,97.203c0-0.453-0.068-0.775-0.204-0.963
	c-0.137-0.191-0.336-0.285-0.601-0.285s-0.468,0.094-0.609,0.285c-0.139,0.188-0.208,0.51-0.208,0.963v0.658
	c0,0.453,0.069,0.777,0.208,0.971c0.141,0.193,0.344,0.287,0.609,0.287s0.464-0.094,0.601-0.287
	c0.136-0.193,0.204-0.518,0.204-0.971V97.203z M282.247,97.861c0,1.006-0.257,1.77-0.771,2.291
	c-0.513,0.523-1.247,0.783-2.199,0.783c-0.954,0-1.689-0.26-2.207-0.783c-0.519-0.521-0.777-1.285-0.777-2.291v-0.658
	c0-1.006,0.258-1.77,0.777-2.291c0.518-0.523,1.253-0.783,2.207-0.783c0.953,0,1.686,0.26,2.199,0.783
	c0.514,0.521,0.771,1.285,0.771,2.291V97.861z M286.548,98.099h-0.556c-0.288,0-0.492,0.049-0.614,0.146
	c-0.119,0.098-0.18,0.27-0.18,0.512v0.113c0,0.197,0.055,0.33,0.17,0.396c0.114,0.068,0.248,0.102,0.409,0.102
	c0.136,0,0.273-0.016,0.414-0.049c0.139-0.035,0.258-0.076,0.357-0.119V98.099z M288.658,100.607c0,0.061-0.023,0.113-0.068,0.158
	c-0.047,0.045-0.1,0.068-0.159,0.068h-1.577c-0.061,0-0.115-0.023-0.159-0.068c-0.047-0.045-0.069-0.098-0.069-0.158v-0.238
	c-0.219,0.158-0.464,0.293-0.737,0.402s-0.568,0.164-0.885,0.164c-0.227,0-0.455-0.035-0.681-0.102
	c-0.227-0.068-0.435-0.182-0.624-0.342c-0.189-0.158-0.343-0.365-0.459-0.623c-0.118-0.258-0.176-0.578-0.176-0.963v-0.139
	c0-0.68,0.25-1.158,0.754-1.434c0.502-0.275,1.227-0.414,2.173-0.414h0.487V96.59c0-0.137-0.021-0.248-0.062-0.336
	c-0.042-0.088-0.098-0.154-0.164-0.205c-0.069-0.049-0.147-0.08-0.238-0.096c-0.091-0.014-0.187-0.023-0.285-0.023
	c-0.362,0-0.715,0.006-1.06,0.018c-0.344,0.012-0.649,0.033-0.914,0.063h-0.035c-0.144,0-0.214-0.074-0.214-0.227v-1.102
	c0-0.129,0.075-0.219,0.227-0.271c0.091-0.029,0.217-0.061,0.38-0.09c0.162-0.031,0.339-0.059,0.528-0.086
	c0.189-0.027,0.386-0.049,0.59-0.066c0.204-0.02,0.397-0.029,0.579-0.029c0.409,0,0.786,0.039,1.133,0.119
	c0.349,0.08,0.65,0.215,0.904,0.408c0.252,0.191,0.451,0.447,0.596,0.76c0.143,0.313,0.215,0.701,0.215,1.164V100.607z
	 M293.423,95.978c-0.113-0.016-0.237-0.027-0.37-0.035c-0.132-0.006-0.265-0.012-0.401-0.012c-0.317,0-0.533,0.109-0.647,0.324
	c-0.113,0.217-0.169,0.494-0.169,0.834v0.885c0,0.34,0.057,0.621,0.169,0.84c0.114,0.219,0.33,0.33,0.647,0.33
	c0.166,0,0.31-0.006,0.431-0.018s0.234-0.025,0.34-0.041V95.978z M295.59,100.289c0,0.098-0.024,0.174-0.068,0.227
	c-0.045,0.053-0.156,0.1-0.329,0.137c-0.295,0.061-0.663,0.123-1.105,0.188c-0.442,0.065-0.922,0.096-1.436,0.096
	c-0.938,0-1.669-0.252-2.196-0.754c-0.525-0.504-0.788-1.238-0.788-2.207v-0.885c0-0.455,0.06-0.863,0.182-1.227
	c0.121-0.361,0.307-0.672,0.556-0.928c0.25-0.258,0.562-0.457,0.936-0.596c0.375-0.143,0.811-0.211,1.31-0.211
	c0.091,0,0.211,0.01,0.363,0.027c0.15,0.02,0.286,0.037,0.408,0.051v-1.916c0-0.061,0.023-0.113,0.068-0.158
	c0.044-0.047,0.098-0.068,0.159-0.068h1.69c0.06,0,0.117,0.021,0.169,0.068c0.054,0.045,0.081,0.098,0.081,0.158V100.289
	L295.59,100.289z M299.083,100.583c0,0.061-0.025,0.117-0.078,0.17c-0.054,0.053-0.109,0.08-0.169,0.08h-1.691
	c-0.061,0-0.118-0.027-0.17-0.08c-0.053-0.053-0.08-0.109-0.08-0.17v-6.115c0-0.061,0.027-0.115,0.08-0.164
	c0.052-0.049,0.109-0.074,0.17-0.074h1.691c0.061,0,0.115,0.025,0.169,0.074c0.053,0.049,0.078,0.104,0.078,0.164V100.583z
	 M299.141,93.378c0,0.063-0.027,0.115-0.08,0.16c-0.054,0.045-0.111,0.068-0.17,0.068h-1.792c-0.061,0-0.119-0.023-0.176-0.068
	c-0.057-0.045-0.086-0.098-0.086-0.16v-1.111c0-0.059,0.03-0.113,0.086-0.158c0.057-0.045,0.115-0.068,0.176-0.068h1.792
	c0.059,0,0.116,0.023,0.17,0.068c0.053,0.045,0.08,0.1,0.08,0.158V93.378z M306.298,100.583c0,0.061-0.02,0.117-0.063,0.17
	c-0.041,0.053-0.095,0.08-0.164,0.08h-1.702c-0.067,0-0.126-0.027-0.176-0.08c-0.048-0.053-0.074-0.109-0.074-0.17v-3.846
	c0-0.303-0.052-0.512-0.159-0.623c-0.104-0.113-0.287-0.172-0.543-0.172c-0.129,0-0.271,0.023-0.427,0.068
	c-0.154,0.047-0.296,0.104-0.424,0.172v4.4c0,0.061-0.021,0.117-0.062,0.17c-0.043,0.053-0.097,0.08-0.167,0.08h-1.7
	c-0.069,0-0.128-0.027-0.176-0.08c-0.05-0.053-0.076-0.109-0.076-0.17v-6.125c0-0.061,0.023-0.113,0.07-0.16
	c0.044-0.045,0.098-0.068,0.159-0.068h1.577c0.06,0,0.112,0.023,0.159,0.068c0.045,0.047,0.068,0.1,0.068,0.16v0.26
	c0.15-0.113,0.295-0.207,0.431-0.283c0.135-0.076,0.276-0.135,0.42-0.176c0.144-0.043,0.296-0.072,0.459-0.09
	c0.162-0.02,0.349-0.029,0.562-0.029c0.416,0,0.756,0.072,1.021,0.215c0.264,0.145,0.468,0.338,0.613,0.58
	c0.143,0.24,0.241,0.516,0.295,0.828c0.052,0.309,0.078,0.633,0.078,0.975L306.298,100.583L306.298,100.583z M311.233,101.162
	c0-0.053-0.008-0.1-0.028-0.141c-0.018-0.043-0.063-0.084-0.129-0.127c-0.068-0.041-0.167-0.082-0.296-0.123
	c-0.127-0.043-0.302-0.086-0.522-0.131l-0.681-0.148c-0.053,0.07-0.094,0.164-0.125,0.283c-0.03,0.125-0.044,0.252-0.044,0.387v0.08
	c0,0.15,0.07,0.271,0.21,0.361c0.138,0.092,0.378,0.139,0.719,0.139c0.189,0,0.345-0.014,0.467-0.041
	c0.12-0.025,0.211-0.063,0.272-0.107c0.06-0.045,0.101-0.098,0.123-0.156c0.024-0.061,0.034-0.129,0.034-0.195V101.162
	L311.233,101.162z M311.256,96.396c0-0.195-0.057-0.355-0.17-0.48c-0.114-0.125-0.329-0.188-0.646-0.188s-0.535,0.063-0.648,0.188
	c-0.111,0.125-0.168,0.285-0.168,0.48v0.125c0,0.092,0.01,0.176,0.034,0.256c0.023,0.08,0.061,0.148,0.119,0.211
	c0.057,0.061,0.138,0.107,0.242,0.143c0.106,0.033,0.247,0.051,0.421,0.051c0.316,0,0.532-0.061,0.646-0.182
	c0.113-0.123,0.17-0.281,0.17-0.479V96.396L311.256,96.396z M313.706,95.308c0,0.129-0.075,0.213-0.227,0.25l-0.317,0.092
	c0.061,0.104,0.11,0.23,0.149,0.373c0.037,0.145,0.055,0.27,0.055,0.373v0.125c0,0.766-0.258,1.316-0.777,1.656
	c-0.518,0.342-1.234,0.512-2.149,0.512c-0.227,0-0.441-0.014-0.641-0.041c-0.201-0.025-0.358-0.057-0.471-0.096
	c-0.1,0.068-0.147,0.148-0.147,0.238c0,0.061,0.017,0.111,0.051,0.152c0.034,0.043,0.104,0.074,0.209,0.098l1.272,0.262
	c0.363,0.074,0.712,0.154,1.047,0.238c0.338,0.084,0.634,0.189,0.891,0.322c0.258,0.133,0.464,0.303,0.619,0.51
	c0.156,0.209,0.232,0.473,0.232,0.789v0.08c0,0.666-0.267,1.152-0.8,1.457c-0.533,0.307-1.322,0.461-2.365,0.461
	c-0.967,0-1.701-0.174-2.2-0.518c-0.498-0.344-0.75-0.811-0.75-1.4v-0.08c0-0.166,0.052-0.367,0.153-0.6
	c0.104-0.236,0.264-0.439,0.484-0.615c-0.145-0.104-0.27-0.229-0.375-0.373c-0.106-0.145-0.159-0.352-0.159-0.623
	c0-0.266,0.054-0.471,0.163-0.619c0.111-0.146,0.234-0.285,0.37-0.414c-0.129-0.113-0.229-0.232-0.301-0.357
	c-0.072-0.125-0.126-0.25-0.16-0.373c-0.033-0.125-0.057-0.244-0.066-0.357c-0.013-0.115-0.019-0.217-0.019-0.309v-0.125
	c0-0.709,0.243-1.248,0.728-1.615c0.483-0.367,1.228-0.551,2.234-0.551h3.005c0.077,0,0.139,0.027,0.187,0.08
	c0.05,0.053,0.074,0.117,0.074,0.191L313.706,95.308L313.706,95.308z M321.716,100.607c0,0.061-0.021,0.113-0.061,0.158
	c-0.042,0.045-0.094,0.068-0.153,0.068h-1.851c-0.061,0-0.114-0.023-0.157-0.068c-0.047-0.045-0.069-0.098-0.069-0.158v-5.91
	l-1.214,0.477c-0.06,0.021-0.104,0.033-0.134,0.033c-0.077,0-0.114-0.047-0.114-0.137v-1.61c0-0.092,0.044-0.156,0.135-0.195
	l1.837-0.814c0.069-0.031,0.154-0.047,0.261-0.047h1.306c0.144,0,0.214,0.072,0.214,0.215V100.607L321.716,100.607z
	 M336.759,100.583c0,0.061-0.02,0.117-0.063,0.17c-0.04,0.053-0.094,0.08-0.163,0.08h-1.701c-0.067,0-0.127-0.027-0.176-0.08
	c-0.05-0.053-0.075-0.109-0.075-0.17v-3.869c0-0.287-0.042-0.475-0.13-0.561c-0.086-0.088-0.229-0.131-0.425-0.131
	c-0.084,0-0.188,0.01-0.313,0.027c-0.125,0.02-0.251,0.057-0.38,0.107c0.017,0.1,0.026,0.188,0.028,0.268
	c0.004,0.08,0.006,0.176,0.006,0.289v3.869c0,0.061-0.021,0.117-0.068,0.17c-0.045,0.053-0.102,0.08-0.17,0.08h-1.701
	c-0.068,0-0.125-0.027-0.17-0.08c-0.046-0.053-0.066-0.109-0.066-0.17v-3.869c0-0.287-0.043-0.475-0.127-0.561
	c-0.082-0.088-0.222-0.131-0.418-0.131c-0.092,0-0.195,0.012-0.318,0.041c-0.121,0.025-0.241,0.068-0.363,0.129v4.391
	c0,0.061-0.02,0.117-0.063,0.17c-0.041,0.053-0.096,0.08-0.166,0.08h-1.699c-0.068,0-0.127-0.027-0.178-0.08
	c-0.047-0.053-0.073-0.109-0.073-0.17v-6.125c0-0.061,0.022-0.113,0.069-0.16c0.045-0.045,0.099-0.068,0.158-0.068h1.578
	c0.061,0,0.111,0.023,0.157,0.068c0.046,0.047,0.067,0.1,0.067,0.16v0.26c0.144-0.107,0.281-0.195,0.408-0.273
	c0.129-0.074,0.264-0.135,0.397-0.18c0.136-0.047,0.282-0.078,0.437-0.096c0.156-0.02,0.323-0.029,0.504-0.029
	c0.281,0,0.533,0.045,0.762,0.135c0.227,0.092,0.417,0.238,0.566,0.443c0.295-0.242,0.594-0.398,0.892-0.471
	c0.3-0.072,0.622-0.107,0.97-0.107c0.721,0,1.232,0.223,1.543,0.668c0.311,0.447,0.465,1.082,0.465,1.906L336.759,100.583
	L336.759,100.583z M340.253,100.583c0,0.061-0.024,0.117-0.078,0.17c-0.054,0.053-0.11,0.08-0.172,0.08h-1.688
	c-0.062,0-0.119-0.027-0.172-0.08c-0.053-0.053-0.08-0.109-0.08-0.17v-6.115c0-0.061,0.027-0.115,0.08-0.164
	c0.055-0.049,0.111-0.074,0.172-0.074h1.688c0.062,0,0.118,0.025,0.172,0.074c0.054,0.049,0.078,0.104,0.078,0.164V100.583z
	 M340.311,93.378c0,0.063-0.025,0.115-0.078,0.16c-0.055,0.045-0.111,0.068-0.172,0.068h-1.793c-0.06,0-0.119-0.023-0.176-0.068
	s-0.085-0.098-0.085-0.16v-1.111c0-0.059,0.029-0.113,0.085-0.158c0.057-0.045,0.116-0.068,0.176-0.068h1.793
	c0.062,0,0.119,0.023,0.172,0.068s0.078,0.1,0.078,0.158V93.378z M347.469,100.583c0,0.061-0.02,0.117-0.063,0.17
	c-0.042,0.053-0.098,0.08-0.165,0.08h-1.702c-0.068,0-0.126-0.027-0.175-0.08c-0.048-0.053-0.074-0.109-0.074-0.17v-3.846
	c0-0.303-0.052-0.512-0.158-0.623c-0.106-0.113-0.286-0.172-0.545-0.172c-0.127,0-0.271,0.023-0.425,0.068
	c-0.154,0.047-0.296,0.104-0.426,0.172v4.4c0,0.061-0.021,0.117-0.063,0.17c-0.041,0.053-0.095,0.08-0.164,0.08h-1.702
	c-0.067,0-0.125-0.027-0.176-0.08c-0.049-0.053-0.072-0.109-0.072-0.17v-6.125c0-0.061,0.021-0.113,0.067-0.16
	c0.045-0.045,0.099-0.068,0.159-0.068h1.576c0.062,0,0.115,0.023,0.16,0.068c0.045,0.047,0.067,0.1,0.067,0.16v0.26
	c0.151-0.113,0.295-0.207,0.431-0.283c0.138-0.076,0.276-0.135,0.42-0.176c0.144-0.043,0.297-0.072,0.459-0.09
	c0.164-0.02,0.352-0.029,0.563-0.029c0.417,0,0.755,0.072,1.021,0.215c0.265,0.145,0.469,0.338,0.613,0.58
	c0.143,0.24,0.241,0.516,0.295,0.828c0.053,0.309,0.08,0.633,0.08,0.975v3.846H347.469z M354.627,100.607
	c0,0.061-0.023,0.113-0.068,0.158s-0.098,0.068-0.158,0.068h-1.576c-0.061,0-0.114-0.023-0.159-0.068s-0.067-0.098-0.067-0.158
	v-0.262c-0.205,0.15-0.449,0.287-0.731,0.408c-0.284,0.121-0.638,0.182-1.062,0.182s-0.769-0.072-1.039-0.215
	c-0.268-0.145-0.479-0.338-0.635-0.58c-0.154-0.24-0.262-0.52-0.322-0.832c-0.062-0.314-0.092-0.641-0.092-0.982V94.48
	c0-0.061,0.021-0.117,0.063-0.17c0.042-0.053,0.096-0.08,0.165-0.08h1.701c0.068,0,0.127,0.027,0.177,0.08
	c0.05,0.053,0.073,0.109,0.073,0.17v3.846c0,0.303,0.045,0.514,0.137,0.629c0.09,0.117,0.281,0.178,0.566,0.178
	c0.129,0,0.271-0.025,0.426-0.074c0.156-0.049,0.299-0.107,0.426-0.178v-4.4c0-0.061,0.021-0.117,0.063-0.17
	c0.043-0.053,0.096-0.08,0.164-0.08h1.702c0.067,0,0.128,0.027,0.175,0.08c0.051,0.053,0.074,0.109,0.074,0.17v6.126H354.627z
	 M359.777,95.615c0,0.061-0.021,0.113-0.068,0.158c-0.045,0.047-0.098,0.068-0.158,0.068h-0.863v3.053
	c0,0.174,0.019,0.287,0.053,0.344c0.033,0.059,0.124,0.086,0.267,0.086h0.522c0.066,0,0.123,0.021,0.17,0.063
	c0.046,0.043,0.066,0.096,0.066,0.154v1.066c0,0.061-0.021,0.107-0.066,0.146c-0.047,0.037-0.104,0.064-0.17,0.08
	c-0.098,0.014-0.188,0.029-0.268,0.045s-0.156,0.025-0.231,0.035c-0.076,0.006-0.153,0.012-0.232,0.016
	c-0.079,0.004-0.172,0.006-0.278,0.006c-0.303,0-0.576-0.029-0.822-0.086c-0.244-0.057-0.458-0.158-0.635-0.311
	c-0.179-0.152-0.313-0.361-0.408-0.629c-0.096-0.27-0.143-0.615-0.143-1.039v-3.029l-0.748-0.17
	c-0.063-0.016-0.115-0.045-0.164-0.09c-0.052-0.047-0.074-0.1-0.074-0.16v-0.953c0-0.061,0.021-0.115,0.067-0.164
	c0.046-0.049,0.103-0.074,0.171-0.074h0.748v-0.918c0-0.063,0.024-0.113,0.073-0.152c0.05-0.043,0.104-0.07,0.164-0.086l1.69-0.295
	h0.033c0.062,0,0.112,0.02,0.153,0.063c0.043,0.041,0.062,0.092,0.062,0.152v1.236h0.863c0.062,0,0.113,0.023,0.158,0.068
	c0.047,0.047,0.068,0.1,0.068,0.16V95.615L359.777,95.615z M364.439,96.908c0-0.34-0.066-0.607-0.203-0.801
	c-0.137-0.191-0.348-0.287-0.635-0.287c-0.272,0-0.479,0.096-0.625,0.287c-0.144,0.193-0.216,0.461-0.216,0.801v0.035h1.679V96.908
	L364.439,96.908z M366.527,97.896c0,0.074-0.022,0.135-0.067,0.182c-0.046,0.045-0.103,0.066-0.171,0.066h-3.527v0.023
	c0,0.301,0.076,0.541,0.228,0.713c0.151,0.176,0.436,0.264,0.852,0.264c0.15,0,0.328-0.004,0.533-0.006
	c0.203-0.004,0.408-0.012,0.612-0.023c0.203-0.011,0.396-0.021,0.578-0.029c0.181-0.008,0.324-0.018,0.431-0.033h0.045
	c0.137,0,0.205,0.064,0.205,0.191v1.023c0,0.09-0.015,0.156-0.045,0.203c-0.029,0.045-0.091,0.082-0.183,0.113
	c-0.363,0.121-0.744,0.209-1.146,0.266c-0.399,0.057-0.84,0.086-1.315,0.086c-0.386,0-0.756-0.053-1.111-0.16
	c-0.354-0.104-0.67-0.277-0.941-0.514c-0.271-0.238-0.488-0.547-0.652-0.92c-0.162-0.375-0.244-0.834-0.244-1.379v-0.748
	c0-0.998,0.271-1.764,0.813-2.293c0.541-0.529,1.275-0.793,2.207-0.793c0.499,0,0.93,0.074,1.292,0.227
	c0.364,0.152,0.664,0.363,0.901,0.635c0.238,0.273,0.418,0.598,0.533,0.977c0.119,0.379,0.176,0.793,0.176,1.248v0.681H366.527z
	 M376.67,94.423c0,0.016-0.002,0.025-0.004,0.027c-0.004,0.004-0.007,0.014-0.007,0.029l-1.431,5.15
	c-0.082,0.295-0.189,0.529-0.322,0.703s-0.281,0.307-0.449,0.398c-0.165,0.09-0.344,0.146-0.533,0.168
	c-0.188,0.023-0.378,0.035-0.566,0.035c-0.188,0-0.379-0.012-0.565-0.035c-0.188-0.021-0.364-0.078-0.528-0.168
	c-0.162-0.092-0.312-0.225-0.441-0.398c-0.133-0.174-0.24-0.408-0.323-0.703l-1.419-5.15c0-0.016-0.001-0.025-0.005-0.029
	c-0.003-0.002-0.005-0.012-0.005-0.027c0-0.061,0.018-0.107,0.057-0.143c0.037-0.033,0.082-0.051,0.135-0.051h1.861
	c0.061,0,0.113,0.023,0.158,0.068c0.046,0.047,0.076,0.104,0.092,0.17l0.85,4.143c0.023,0.135,0.068,0.203,0.137,0.203
	c0.076,0,0.125-0.068,0.147-0.203l0.851-4.143c0.017-0.066,0.045-0.123,0.093-0.17c0.045-0.045,0.098-0.068,0.157-0.068h1.86
	c0.054,0,0.101,0.018,0.142,0.051C376.648,94.316,376.67,94.363,376.67,94.423 M379.744,100.583c0,0.061-0.027,0.117-0.079,0.17
	c-0.052,0.053-0.108,0.08-0.17,0.08h-1.69c-0.059,0-0.115-0.027-0.17-0.08c-0.053-0.053-0.08-0.109-0.08-0.17v-6.115
	c0-0.061,0.027-0.115,0.08-0.164c0.055-0.049,0.111-0.074,0.17-0.074h1.69c0.062,0,0.118,0.025,0.17,0.074
	c0.052,0.049,0.079,0.104,0.079,0.164V100.583z M379.801,93.378c0,0.063-0.025,0.115-0.078,0.16s-0.109,0.068-0.171,0.068h-1.792
	c-0.061,0-0.119-0.023-0.176-0.068c-0.059-0.045-0.086-0.098-0.086-0.16v-1.111c0-0.059,0.027-0.113,0.086-0.158
	c0.057-0.045,0.115-0.068,0.176-0.068h1.792c0.062,0,0.118,0.023,0.171,0.068s0.078,0.1,0.078,0.158V93.378z M384.623,95.978
	c-0.113-0.016-0.237-0.027-0.369-0.035c-0.132-0.006-0.266-0.012-0.402-0.012c-0.317,0-0.533,0.109-0.646,0.324
	c-0.114,0.217-0.17,0.494-0.17,0.834v0.885c0,0.34,0.056,0.621,0.17,0.84c0.112,0.219,0.328,0.33,0.646,0.33
	c0.168,0,0.312-0.006,0.433-0.018c0.12-0.012,0.233-0.025,0.34-0.041L384.623,95.978L384.623,95.978z M386.79,100.289
	c0,0.098-0.022,0.174-0.069,0.227c-0.045,0.053-0.154,0.1-0.328,0.137c-0.295,0.061-0.664,0.123-1.104,0.188
	c-0.442,0.064-0.921,0.096-1.437,0.096c-0.938,0-1.668-0.252-2.194-0.754c-0.526-0.504-0.789-1.238-0.789-2.207v-0.885
	c0-0.455,0.062-0.863,0.182-1.227c0.121-0.361,0.308-0.672,0.558-0.928c0.25-0.258,0.561-0.457,0.936-0.596
	c0.374-0.143,0.811-0.211,1.311-0.211c0.09,0,0.211,0.01,0.362,0.027c0.152,0.02,0.288,0.037,0.409,0.051v-1.916
	c0-0.061,0.021-0.113,0.068-0.158c0.045-0.047,0.099-0.068,0.158-0.068h1.689c0.063,0,0.116,0.021,0.171,0.068
	c0.054,0.045,0.079,0.098,0.079,0.158L386.79,100.289L386.79,100.289z M391.702,96.908c0-0.34-0.067-0.607-0.204-0.801
	c-0.137-0.191-0.35-0.287-0.635-0.287c-0.273,0-0.481,0.096-0.625,0.287c-0.144,0.193-0.215,0.461-0.215,0.801v0.035h1.679V96.908
	L391.702,96.908z M393.79,97.896c0,0.074-0.022,0.135-0.069,0.182c-0.045,0.045-0.102,0.066-0.17,0.066h-3.527v0.023
	c0,0.301,0.076,0.541,0.228,0.713c0.151,0.176,0.437,0.264,0.853,0.264c0.15,0,0.328-0.004,0.532-0.006
	c0.203-0.004,0.407-0.012,0.611-0.023c0.205-0.012,0.397-0.021,0.579-0.029s0.326-0.018,0.432-0.033h0.045
	c0.137,0,0.204,0.064,0.204,0.191v1.023c0,0.09-0.015,0.156-0.046,0.203c-0.029,0.045-0.091,0.082-0.182,0.113
	c-0.362,0.121-0.744,0.209-1.146,0.266c-0.399,0.057-0.84,0.086-1.315,0.086c-0.385,0-0.756-0.053-1.111-0.16
	c-0.355-0.104-0.669-0.277-0.941-0.514c-0.271-0.238-0.488-0.547-0.652-0.92c-0.161-0.375-0.243-0.834-0.243-1.379v-0.748
	c0-0.998,0.271-1.764,0.812-2.293c0.541-0.529,1.276-0.793,2.207-0.793c0.5,0,0.93,0.074,1.293,0.227
	c0.362,0.152,0.664,0.363,0.901,0.635c0.237,0.273,0.418,0.598,0.533,0.977c0.118,0.379,0.177,0.793,0.177,1.248v0.681H393.79z
	 M398.486,97.203c0-0.453-0.068-0.775-0.204-0.963c-0.136-0.191-0.337-0.285-0.603-0.285c-0.265,0-0.467,0.094-0.605,0.285
	c-0.141,0.188-0.21,0.51-0.21,0.963v0.658c0,0.453,0.069,0.777,0.21,0.971c0.14,0.194,0.342,0.287,0.605,0.287
	c0.265,0,0.467-0.094,0.603-0.287s0.204-0.518,0.204-0.971V97.203z M400.653,97.861c0,1.006-0.257,1.77-0.771,2.291
	c-0.515,0.523-1.247,0.783-2.201,0.783c-0.952,0-1.688-0.26-2.206-0.783c-0.518-0.521-0.776-1.285-0.776-2.291v-0.658
	c0-1.006,0.26-1.77,0.776-2.291c0.519-0.523,1.254-0.783,2.206-0.783c0.954,0,1.688,0.26,2.201,0.783
	c0.516,0.521,0.771,1.285,0.771,2.291V97.861z"/>
<path fill="#333333" d="M222.456,87.89c-5.362,0-9.708,4.348-9.708,9.711c0,5.359,4.347,9.707,9.708,9.707s9.71-4.348,9.71-9.707
	C232.166,92.238,227.817,87.89,222.456,87.89"/>
<path fill="#B4B4B4" d="M232.727,103.345h-10.505c-3.16,0-5.743-2.586-5.743-5.744c0-3.16,2.583-5.746,5.743-5.746h10.505V103.345z"
	/>
<path fill="#FFFFFF" d="M222.456,94.99c-1.441,0-2.609,1.168-2.609,2.611c0,1.441,1.168,2.607,2.609,2.607
	c1.442,0,2.609-1.166,2.609-2.607C225.065,96.158,223.898,94.99,222.456,94.99"/>
<path fill="#333333" d="M436.451,87.89c5.36,0,9.708,4.348,9.708,9.711c0,5.359-4.347,9.707-9.708,9.707s-9.709-4.348-9.709-9.707
	C426.742,92.238,431.09,87.89,436.451,87.89"/>
<path fill="#B4B4B4" d="M426.181,103.345h10.505c3.16,0,5.744-2.586,5.744-5.744c0-3.16-2.584-5.746-5.744-5.746h-10.505V103.345z"
	/>
<path fill="#FFFFFF" d="M436.451,94.99c1.439,0,2.607,1.168,2.607,2.611c0,1.441-1.168,2.607-2.607,2.607
	c-1.441,0-2.609-1.166-2.609-2.607C433.842,96.158,435.01,94.99,436.451,94.99"/>
<rect x="86.807" y="112.612" transform="matrix(0.9357 -0.3527 0.3527 0.9357 -29.8923 61.9742)" fill="#333333" width="136.616" height="0.804"/>
<rect x="435.529" y="113.028" transform="matrix(-0.9349 -0.3548 0.3548 -0.9349 935.7921 398.4427)" fill="#333333" width="137.791" height="0.804"/>
</svg>
