<?xml version="1.0" encoding="utf-8"?>
<!-- Generator: Adobe Illustrator 16.0.0, SVG Export Plug-In . SVG Version: 6.00 Build 0)  -->
<!DOCTYPE svg PUBLIC "-//W3C//DTD SVG 1.1//EN" "http://www.w3.org/Graphics/SVG/1.1/DTD/svg11.dtd">
<svg version="1.1" id="Layer_1" xmlns="http://www.w3.org/2000/svg" xmlns:xlink="http://www.w3.org/1999/xlink" x="0px" y="0px"
	 width="198px" height="119px" viewBox="0 0 198 119" enable-background="new 0 0 198 119" xml:space="preserve">
<path fill-rule="evenodd" clip-rule="evenodd" fill="#D95429" d="M91.055,54.284c24.539-12.998,49.677-25.432,75.477-37.223
	c5.128-2.346,16.912-8.387,21.285-5.74c2.484,1.504,2.815,4.744-0.843,10.787c-11.541,19.057-36.379,37.932-64.857,53.254
	C88.059,93.69,47.003,107.933,16.12,109.989c-3.585,0.238-9.093,0.451-11.02-1.77c-3.228-3.719,3.383-7.082,7.493-9.473
	c1.759-1.023,3.92-2.281,6.409-3.773C42.504,80.876,66.504,67.286,91.055,54.284"/>
<path fill-rule="evenodd" clip-rule="evenodd" fill="#FFFFFF" d="M15.368,102.054c0.601,0.834,1.277,1.643,2.031,2.428
	c1.654,1.725,3.666,3.332,6.006,4.822c0.833-0.1,1.673-0.209,2.518-0.324c-2.968-1.709-5.447-3.57-7.387-5.594
	c-1.633-1.703-2.888-3.529-3.728-5.482h-0.767c-0.508,0.297-0.992,0.578-1.448,0.844c-0.13,0.076-0.265,0.152-0.401,0.232
	c0.813,2.264,1.94,4.33,3.391,6.197c1.281,1.65,2.813,3.145,4.605,4.477c0.797-0.078,1.598-0.164,2.405-0.256
	c-2.313-1.486-4.23-3.219-5.76-5.188C16.295,103.521,15.809,102.802,15.368,102.054"/>
<path fill-rule="evenodd" clip-rule="evenodd" fill="#FFFFFF" d="M170.996,27.7c-1.456-3.555-3.397-6.895-5.713-10.068
	c-0.547,0.25-1.092,0.5-1.639,0.752c1.875,4.275,3.235,8.52,4.037,12.73c0.809,4.254,1.05,8.473,0.683,12.658
	c0.508-0.461,1.01-0.922,1.507-1.385c0.207-3.816-0.074-7.662-0.811-11.529c-0.54-2.834-1.324-5.682-2.343-8.539
	c1.145,1.906,2.146,3.875,2.982,5.914c1.492,3.639,2.458,7.51,2.769,11.668c0.623-0.613,1.238-1.229,1.839-1.844
	c0.367-4.246,0.146-8.146-0.502-11.795c-0.696-3.926-1.89-7.559-3.37-11.02c-0.44,0.203-0.865,0.4-1.273,0.59
	c1.432,3.352,2.584,6.871,3.258,10.672c0.441,2.484,0.68,5.094,0.656,7.854C172.574,32.056,171.875,29.837,170.996,27.7"/>
</svg>
