<?xml version="1.0" encoding="utf-8"?>
<!-- Generator: Adobe Illustrator 16.0.0, SVG Export Plug-In . SVG Version: 6.00 Build 0)  -->
<!DOCTYPE svg PUBLIC "-//W3C//DTD SVG 1.1//EN" "http://www.w3.org/Graphics/SVG/1.1/DTD/svg11.dtd">
<svg version="1.1" id="Layer_1" xmlns="http://www.w3.org/2000/svg" xmlns:xlink="http://www.w3.org/1999/xlink" x="0px" y="0px"
	 width="54px" height="51.333px" viewBox="0 0 54 51.333" enable-background="new 0 0 54 51.333" xml:space="preserve">
<path fill="#65B5CC" d="M49.949,17.961l-8.574-8.332l-8.365,1.594l4.494,9.734c0.002,0.002,0.002,0.004,0.002,0.006
	c0,0.01,0.013,0.016,0.036,0.019c-0.024-0.003-0.036-0.009-0.036-0.019v0l-0.002-0.005c-0.279-0.295-21.142,0.005-21.172,0.006
	l0-0.001l0,0c0.021,0,20.895-0.301,21.172-0.006l-4.496-9.734l8.367-1.594l-8.576-2.828h-5.854h-5.856l-8.575,2.828L3.94,17.961
	l23.002,28.314l0.001,0.003l0-0.001l0,0.001l0-0.001l7.453-17.861l-7.452,17.862l23.003-28.316c0,0-1.709,0.454-3.858,1.01
	C48.239,18.416,49.949,17.961,49.949,17.961z"/>
<polygon fill="#76C4D5" points="12.513,9.629 3.94,17.961 16.331,20.963 20.67,11.223 "/>
<path fill="#9AD1DC" d="M33.008,11.223H20.67l-4.34,9.74c0,0,20.896-0.301,21.173-0.006L33.008,11.223z"/>
<path fill="#B8DDE1" d="M41.375,9.629l-8.366,1.594l4.494,9.734c0.003,0.002,0.003,0.004,0.003,0.006
	c0,0.307,12.442-3.002,12.442-3.002L41.375,9.629z"/>
<polygon fill="#D4EDED" points="26.944,6.801 21.088,6.801 12.513,9.629 20.67,11.223 33.008,11.223 41.375,9.629 32.799,6.801 "/>
<path fill="#76C4D5" d="M37.503,20.958c-0.278-0.295-21.173,0.006-21.173,0.006l10.613,25.314l10.562-25.314L37.503,20.958z"/>
<path fill="#9AD1DC" d="M37.505,20.963L26.944,46.278l23.003-28.316C49.947,17.961,37.505,21.27,37.505,20.963"/>
<polygon fill="#65B5CC" points="16.331,20.963 3.94,17.961 26.944,46.278 "/>
</svg>
