<?xml version="1.0" encoding="utf-8"?>
<!-- Generator: Adobe Illustrator 16.0.0, SVG Export Plug-In . SVG Version: 6.00 Build 0)  -->
<!DOCTYPE svg PUBLIC "-//W3C//DTD SVG 1.1//EN" "http://www.w3.org/Graphics/SVG/1.1/DTD/svg11.dtd">
<svg version="1.1" id="Layer_1" xmlns="http://www.w3.org/2000/svg" xmlns:xlink="http://www.w3.org/1999/xlink" x="0px" y="0px"
	 width="60.301px" height="130.35px" viewBox="0 0 60.301 130.35" enable-background="new 0 0 60.301 130.35" xml:space="preserve">
<rect fill-rule="evenodd" clip-rule="evenodd" fill="#EC7442" width="60.301" height="130.35"/>
<polygon fill-rule="evenodd" clip-rule="evenodd" fill="#EC7442" points="60.301,0 0,0 60.301,51.929 "/>
<path fill-rule="evenodd" clip-rule="evenodd" fill="#CDCCCC" d="M48.051,61.32c2.127,0,3.853,1.726,3.853,3.854
	c0,2.129-1.726,3.854-3.853,3.854c-2.129,0-3.854-1.725-3.854-3.854C44.197,63.046,45.922,61.32,48.051,61.32"/>
<path fill-rule="evenodd" clip-rule="evenodd" fill="#E6E6E5" d="M48.051,62.361c1.554,0,2.813,1.26,2.813,2.813
	c0,1.555-1.259,2.813-2.813,2.813c-1.555,0-2.813-1.259-2.813-2.813C45.237,63.621,46.496,62.361,48.051,62.361"/>
<path fill-rule="evenodd" clip-rule="evenodd" fill="#FFFFFF" d="M48.521,64.293c0.963,0,1.814,0.484,2.321,1.225
	c0.013-0.113,0.021-0.227,0.021-0.344c0-1.553-1.26-2.813-2.813-2.813c-1.553,0-2.813,1.26-2.813,2.813
	c0,0.59,0.183,1.138,0.492,1.59C45.896,65.371,47.084,64.293,48.521,64.293"/>
<path fill-rule="evenodd" clip-rule="evenodd" fill="#B4B4B4" d="M48.309,69.02c2.008-0.133,3.596-1.803,3.596-3.846
	c0-0.152-0.01-0.301-0.026-0.447l-1.838-1.541c0.509,0.509,0.823,1.211,0.823,1.988c0,0.116-0.008,0.231-0.02,0.344
	c-0.17,1.392-1.355,2.47-2.794,2.47c-0.534,0-1.036-0.149-1.462-0.409L48.309,69.02z"/>
<path fill-rule="evenodd" clip-rule="evenodd" fill="#EB642D" d="M51.904,65.174c0,2.043-1.588,3.713-3.597,3.846l11.993,10.13
	v-7.332l-8.423-7.091C51.895,64.873,51.904,65.022,51.904,65.174"/>
<path fill="#F29C7A" d="M19.646,11.191v0.024l-0.703,3.8c-0.049,0.261-0.129,0.445-0.24,0.552c-0.112,0.107-0.26,0.16-0.441,0.16
	h-0.729c-0.18,0-0.322-0.06-0.426-0.18c-0.104-0.12-0.188-0.289-0.252-0.508l-0.434-1.464c-0.005-0.037-0.023-0.056-0.055-0.056
	c-0.032,0-0.051,0.02-0.057,0.056l-0.433,1.464c-0.063,0.219-0.146,0.388-0.248,0.508c-0.101,0.12-0.245,0.18-0.433,0.18H14.47
	c-0.181,0-0.327-0.053-0.44-0.16c-0.11-0.107-0.19-0.291-0.238-0.552l-0.704-3.8v-0.024c0-0.032,0.012-0.06,0.036-0.084
	c0.023-0.024,0.051-0.036,0.084-0.036h1.279c0.074,0,0.121,0.045,0.137,0.136l0.391,2.744c0.006,0.042,0.025,0.064,0.057,0.064
	c0.026,0,0.047-0.022,0.064-0.064l0.463-1.64c0.027-0.096,0.07-0.174,0.129-0.236c0.059-0.061,0.165-0.092,0.32-0.092h0.641
	c0.153,0,0.26,0.031,0.318,0.092c0.061,0.062,0.102,0.14,0.128,0.236l0.465,1.64c0.015,0.042,0.037,0.064,0.064,0.064
	c0.032,0,0.05-0.022,0.055-0.064l0.392-2.744c0.018-0.091,0.063-0.136,0.138-0.136h1.278c0.032,0,0.062,0.012,0.084,0.036
	C19.634,11.131,19.646,11.159,19.646,11.191 M22.87,12.959c0-0.24-0.048-0.428-0.144-0.564c-0.097-0.136-0.246-0.204-0.449-0.204
	c-0.191,0-0.338,0.068-0.438,0.204c-0.103,0.136-0.151,0.324-0.151,0.564v0.024h1.183V12.959z M24.342,13.655
	c0,0.053-0.016,0.096-0.048,0.128c-0.032,0.032-0.072,0.048-0.12,0.048h-2.486v0.016c0,0.213,0.053,0.381,0.158,0.504
	c0.107,0.123,0.307,0.184,0.6,0.184c0.107,0,0.232-0.002,0.377-0.004c0.144-0.003,0.287-0.008,0.433-0.016
	c0.144-0.008,0.278-0.015,0.407-0.02c0.128-0.006,0.229-0.013,0.304-0.024h0.032c0.096,0,0.144,0.045,0.144,0.136v0.72
	c0,0.064-0.01,0.112-0.032,0.144c-0.021,0.032-0.063,0.058-0.127,0.08c-0.256,0.085-0.525,0.148-0.809,0.188
	c-0.282,0.04-0.591,0.06-0.927,0.06c-0.273,0-0.534-0.038-0.784-0.112c-0.251-0.075-0.473-0.196-0.664-0.364
	s-0.346-0.384-0.46-0.648c-0.115-0.264-0.172-0.588-0.172-0.972v-0.528c0-0.704,0.19-1.243,0.571-1.616
	C21.12,11.186,21.638,11,22.295,11c0.352,0,0.654,0.053,0.911,0.16s0.468,0.256,0.636,0.448s0.294,0.422,0.376,0.688
	c0.083,0.267,0.124,0.56,0.124,0.88V13.655z M26.646,15.551c0,0.043-0.017,0.083-0.048,0.12c-0.032,0.037-0.069,0.056-0.112,0.056
	h-1.209c-0.041,0-0.082-0.019-0.119-0.056s-0.055-0.077-0.055-0.12V9.703c0-0.043,0.018-0.08,0.055-0.112s0.078-0.048,0.119-0.048
	h1.209c0.043,0,0.08,0.016,0.112,0.048c0.031,0.032,0.048,0.069,0.048,0.112V15.551z M30.574,15.503
	c0,0.053-0.014,0.092-0.041,0.116c-0.025,0.024-0.066,0.041-0.119,0.052c-0.139,0.032-0.297,0.062-0.471,0.088
	c-0.178,0.027-0.385,0.04-0.625,0.04c-0.613,0-1.086-0.184-1.416-0.552c-0.33-0.368-0.496-0.883-0.496-1.544v-0.6
	c0-0.656,0.166-1.171,0.496-1.544S28.705,11,29.318,11c0.24,0,0.455,0.015,0.645,0.044c0.188,0.029,0.339,0.057,0.451,0.084
	c0.053,0.011,0.094,0.028,0.119,0.052c0.027,0.024,0.041,0.063,0.041,0.116v0.904c0,0.043-0.014,0.079-0.045,0.108
	c-0.028,0.03-0.064,0.044-0.107,0.044h-0.016c-0.139-0.01-0.277-0.023-0.416-0.036c-0.139-0.014-0.307-0.02-0.504-0.02
	c-0.17,0-0.305,0.06-0.399,0.18c-0.097,0.12-0.144,0.329-0.144,0.628v0.6c0,0.299,0.047,0.507,0.144,0.624
	c0.095,0.118,0.229,0.176,0.399,0.176c0.197,0,0.365-0.005,0.504-0.016s0.277-0.021,0.416-0.032h0.016
	c0.043,0,0.079,0.014,0.107,0.044c0.031,0.029,0.045,0.065,0.045,0.108V15.503z M33.87,13.167c0-0.32-0.048-0.547-0.145-0.68
	c-0.096-0.133-0.237-0.2-0.424-0.2s-0.329,0.067-0.428,0.2s-0.148,0.36-0.148,0.68v0.464c0,0.32,0.05,0.548,0.148,0.684
	c0.099,0.136,0.241,0.204,0.428,0.204s0.328-0.068,0.424-0.204c0.097-0.136,0.145-0.364,0.145-0.684V13.167z M35.398,13.631
	c0,0.709-0.182,1.248-0.545,1.616c-0.361,0.368-0.88,0.552-1.552,0.552s-1.19-0.184-1.556-0.552
	c-0.365-0.368-0.549-0.907-0.549-1.616v-0.464c0-0.709,0.184-1.248,0.549-1.616S32.63,11,33.302,11s1.19,0.184,1.552,0.552
	c0.363,0.368,0.545,0.907,0.545,1.616V13.631z M42.486,15.551c0,0.043-0.016,0.083-0.045,0.12c-0.028,0.037-0.067,0.056-0.115,0.056
	h-1.2c-0.048,0-0.089-0.019-0.124-0.056s-0.053-0.077-0.053-0.12v-2.728c0-0.203-0.029-0.335-0.09-0.396
	c-0.063-0.062-0.164-0.092-0.302-0.092c-0.059,0-0.132,0.006-0.22,0.02c-0.088,0.013-0.178,0.039-0.268,0.076
	c0.011,0.069,0.018,0.132,0.02,0.188c0.003,0.056,0.004,0.124,0.004,0.204v2.728c0,0.043-0.016,0.083-0.048,0.12
	s-0.072,0.056-0.12,0.056h-1.2c-0.048,0-0.088-0.019-0.12-0.056c-0.031-0.037-0.048-0.077-0.048-0.12v-2.728
	c0-0.203-0.028-0.335-0.088-0.396c-0.06-0.062-0.157-0.092-0.296-0.092c-0.064,0-0.139,0.009-0.225,0.028
	c-0.084,0.019-0.17,0.049-0.254,0.092v3.096c0,0.043-0.017,0.083-0.045,0.12c-0.029,0.037-0.068,0.056-0.117,0.056h-1.199
	c-0.049,0-0.089-0.019-0.124-0.056s-0.052-0.077-0.052-0.12v-4.32c0-0.042,0.016-0.08,0.048-0.112
	c0.032-0.032,0.069-0.048,0.112-0.048h1.111c0.043,0,0.08,0.016,0.112,0.048c0.032,0.032,0.048,0.07,0.048,0.112v0.184
	c0.102-0.074,0.197-0.138,0.288-0.192c0.091-0.053,0.185-0.096,0.28-0.128c0.096-0.032,0.199-0.055,0.308-0.068
	s0.229-0.02,0.356-0.02c0.197,0,0.375,0.032,0.535,0.096s0.293,0.168,0.4,0.312c0.208-0.171,0.417-0.281,0.628-0.332
	c0.211-0.05,0.438-0.076,0.685-0.076c0.506,0,0.869,0.157,1.088,0.472s0.328,0.763,0.328,1.344V15.551z M45.949,12.959
	c0-0.24-0.047-0.428-0.144-0.564c-0.096-0.136-0.245-0.204-0.448-0.204c-0.191,0-0.338,0.068-0.439,0.204
	c-0.102,0.136-0.152,0.324-0.152,0.564v0.024h1.184V12.959z M47.422,13.655c0,0.053-0.016,0.096-0.048,0.128
	c-0.032,0.032-0.072,0.048-0.12,0.048h-2.488v0.016c0,0.213,0.055,0.381,0.16,0.504c0.107,0.123,0.307,0.184,0.6,0.184
	c0.106,0,0.232-0.002,0.377-0.004c0.144-0.003,0.287-0.008,0.432-0.016c0.145-0.008,0.279-0.015,0.408-0.02
	c0.128-0.006,0.229-0.013,0.304-0.024h0.032c0.096,0,0.144,0.045,0.144,0.136v0.72c0,0.064-0.01,0.112-0.032,0.144
	c-0.021,0.032-0.063,0.058-0.127,0.08c-0.257,0.085-0.525,0.148-0.809,0.188s-0.592,0.06-0.928,0.06
	c-0.272,0-0.533-0.038-0.784-0.112c-0.25-0.075-0.472-0.196-0.664-0.364s-0.345-0.384-0.46-0.648s-0.172-0.588-0.172-0.972v-0.528
	c0-0.704,0.191-1.243,0.572-1.616S44.718,11,45.374,11c0.352,0,0.655,0.053,0.911,0.16c0.257,0.107,0.469,0.256,0.637,0.448
	s0.294,0.422,0.376,0.688c0.083,0.267,0.124,0.56,0.124,0.88V13.655z"/>
<path fill-rule="evenodd" clip-rule="evenodd" fill="#FFFFFF" d="M15.879,15.04l0.32-1.089l-0.855-0.737l-0.209,0.738
	c-0.016,0.042-0.037,0.064-0.064,0.064c-0.031,0-0.051-0.022-0.056-0.064l-0.166-1.165l-1.75-1.507l0.692,3.736
	c0.047,0.261,0.127,0.445,0.239,0.552c0.112,0.106,0.259,0.159,0.44,0.159h0.728c0.187,0,0.331-0.06,0.433-0.179
	C15.732,15.428,15.814,15.258,15.879,15.04 M16.854,15.04c0.063,0.218,0.147,0.388,0.252,0.508c0.104,0.119,0.247,0.179,0.429,0.179
	h0.728l-1.616-1.391L16.854,15.04z"/>
</svg>
