<?xml version="1.0" encoding="utf-8"?>
<!-- Generator: Adobe Illustrator 16.0.0, SVG Export Plug-In . SVG Version: 6.00 Build 0)  -->
<!DOCTYPE svg PUBLIC "-//W3C//DTD SVG 1.1//EN" "http://www.w3.org/Graphics/SVG/1.1/DTD/svg11.dtd">
<svg version="1.1" id="Layer_1" xmlns="http://www.w3.org/2000/svg" xmlns:xlink="http://www.w3.org/1999/xlink" x="0px" y="0px"
	 width="294.595px" height="179.594px" viewBox="0 0 294.595 179.594" enable-background="new 0 0 294.595 179.594"
	 xml:space="preserve">
<path fill-rule="evenodd" clip-rule="evenodd" fill="#FFF3D0" d="M64.637,104.644c-1.486-3.012-2.752-5.563-3.837-7.781
	c-5.176-10.6-5.062-19.559-8.16-25.863c-2.07-6.457,0.659-11.395,4.643-15.313c2.924-2.877,6.678-5.895,10.694-8.211
	c1.357-0.783,1.981-1.271,2.221-1.477c0.241-0.205,0.016-0.252-1.15-0.324c-1.164-0.07-3.268-0.164-4.749-0.143
	c-3.174,0.041-11.386,0.979-13.284,0.328c-1.519-0.521-4.023-1.172-5.639-1.592c-7.526-1.949-6.178-1.688-12.929-3.953
	c-2.973,1.877-4.709-1.27-6.499-2.168c-0.969-0.473-1.656-0.764-2.448-0.998c-0.794-0.232-1.707-0.408-3.122-0.645
	c-0.326-0.055-0.596-0.197-0.789-0.379h-0.001c-0.224-0.209-0.351-0.475-0.354-0.732c-0.007-0.646,0.487-0.771,0.989-0.779
	c0.134,0,0.256,0.004,0.368,0.012c0.078,0.002,0.153,0.006,0.184,0.006l2.393,0.049l0.071,0.002l-4.881-4.02l-2.721-1.434
	c-0.717-0.543-0.485-1.758,0.184-1.428l3.44,1.311l4.93,2.949c1.299,0.318,1.476,0.328,1.973,1.139
	c1.463,0.889,3.738,1.492,6.089,1.984l0.376,0.063c1.979,0.328,5.656,0.896,8.541,1.184c2.885,0.287,4.98,0.293,6.868,0.436
	c0.452,0.035,4.753,0.393,4.778,0.521c2.847-0.57,6.532-0.953,11.142-1.572c1.83-0.246,4.417-0.67,6.179-0.887
	c1.76-0.217,2.694-0.23,3.6-0.506c0.905-0.271,1.779-0.805,2.878-1.289c1.097-0.486,2.418-0.926,4.025-1.115
	c1.606-0.186,3.497-0.123,4.955,0.188c1.459,0.311,2.483,0.867,3.783,1.418c1.3,0.555,2.879,1.1,4.342,1.58
	c1.736,0.572,4.171,1.857,4.066-0.389c-0.044-0.955-0.086-1.91-0.474-2.893c-1.02-2.604-3.867-5.943-2.487-8.881
	c0.291-0.619,0.839-0.773,1.346-1.732c0.506-0.961,1.066-2.666,2.425-4.01c5.775-5.701,15.932-4.529,18.535,4.76
	c0.414,1.479,0.444,2.396,0.483,3.461c0.043,1.066,0.093,2.283,0.013,4.211c-0.137,3.225-0.7,9.041-3.441,11.107
	c-1.367,1.031-3.226,1.348-4.535,0.971c-1.543-0.445-1.939-0.689-3.039-0.426c-6.699,1.609-2.844,6.912-3.238,9.576
	c-0.06,0.402-1.02,13.521-1.136,15.111c-0.116,1.586-0.053,2.516,0.404,3.715c0.458,1.199,1.308,2.672,2.105,4.387
	c0.798,1.713,1.544,3.672,2.829,6.273c1.287,2.598,3.113,5.836,4.121,7.572l0.191,0.328c1.288,2.029,2.655,3.945,4.002,5
	c0.933,0.18,1.006,0.342,1.76,1.445l4.499,3.574l2.44,2.756c0.543,0.508-0.509,1.152-1.272,0.674l-2.3-2.039l-5.482-3.15
	l0.025,0.066l0.889,2.223c0.01,0.027,0.041,0.096,0.071,0.168c0.047,0.104,0.095,0.215,0.142,0.342
	c0.17,0.473,0.229,0.979-0.383,1.199c-0.238,0.086-0.533,0.063-0.808-0.072v-0.002c-0.239-0.117-0.467-0.318-0.633-0.604
	c-0.72-1.242-1.207-2.033-1.705-2.695c-0.498-0.656-1.014-1.197-1.796-1.939c-1.472-1.357-5.029-1.873-4.323-5.316
	c-4.498-5.518-3.779-4.352-8.256-10.705c-1.632-2.313-2.544-3.588-3.478-4.715c-3.853-4.658-2.309-3.268-2.577-8.945
	c-0.083-1.758-0.298-5.311-0.376-7.176c-5.084,4.857-7.275,2.533-11.02,6.285c-0.942,0.941-2.059,2.018-2.54,3.375
	c-1.169,3.32-0.676,4.334,1.241,6.83c4.972,6.473,16.106,20.945,16.254,21.137c2.913,3.799,3.959,5.4,4.357,6.82
	c0.396,1.42,0.142,2.654-0.21,5.58c-1.417,11.785-1.605,20.607-0.938,32.461c0.169,2.986,0.341,5.064,0.821,6.994
	c0.479,1.932,2.171,4.455,3.415,6.607c1.244,2.156,2.945,4.68,3.894,6.221c0.949,1.537,1.146,2.088,0.808,2.285
	c-0.341,0.197-1.219,0.037-2.121-0.031s-1.828-0.049-2.916-0.207c-1.089-0.154-2.341-0.49-3.295-1.438
	c-0.955-0.945-1.611-2.5-2.177-3.611c-0.565-1.109-1.943-2.514-2.691-3.076c-0.75-0.566-1.775-1.033-2.484-1.604
	c-0.709-0.576-1.104-1.256-1.043-2.199c0.061-0.941,0.576-2.145,0.932-4.119c1.678-9.309-1.507-15.566-2.859-24.307
	c-0.519-3.359-0.662-6.332-0.672-8.23c-0.008-1.9,0.118-2.729-0.004-3.74c-0.123-1.01-0.493-2.201-1.128-3.234
	c-0.579-0.943-1.38-1.756-3.192-3.305c-0.17-0.143-0.348-0.295-0.534-0.455c-2.567-2.164-4.75-3.994-6.632-5.594l-0.035-0.031
	c0.601,2.678,1.057,4.717,1.083,4.816c1.15,4.648,1.468,6.535,1.262,7.996c-0.205,1.457-0.932,2.49-2.424,5.029
	c-6.014,10.232-9.718,18.244-13.848,29.375c-1.042,2.805-1.716,4.777-2.048,6.738c-0.333,1.961,0.207,4.949,0.485,7.422
	s0.827,5.467,1.081,7.256c0.253,1.789,0.215,2.375-0.176,2.42c-0.39,0.043-1.132-0.455-1.93-0.877s-1.655-0.777-2.589-1.355
	c-0.935-0.58-1.948-1.389-2.445-2.637c-0.497-1.25-0.476-2.939-0.55-4.182c-0.074-1.242-0.774-3.08-1.235-3.898
	c-0.46-0.816-1.214-1.654-1.635-2.463c-0.42-0.811-0.508-1.592-0.075-2.43c0.432-0.84,1.383-1.738,2.501-3.404
	c5.264-7.857,4.847-14.869,7.108-23.418c0.867-3.287,1.925-6.068,2.677-7.813c0.753-1.746,1.2-2.455,1.492-3.43
	s0.428-2.215,0.261-3.414c-0.153-1.1-0.563-2.16-1.604-4.307C64.849,105.074,64.747,104.865,64.637,104.644"/>
<path fill-rule="evenodd" clip-rule="evenodd" fill="#F2E3BD" d="M77.558,97.849c-0.792-3.68-2.271-11.721-4.383-18.75
	c2.726,4.195,5.859,16.568,6.876,20.863c-0.872-0.738-1.691-1.43-2.459-2.082C77.581,97.869,77.569,97.859,77.558,97.849"/>
<path fill-rule="evenodd" clip-rule="evenodd" fill="#F2E3BD" d="M84.323,62.632c0.34-0.148,0.71-0.258,1.125-0.348
	c-0.07-0.014-0.143-0.029-0.215-0.045c-2.024-0.445-3.258-1.373-4.977-2.408c-0.513-0.311-0.479-0.217-0.253,0.047
	c1.043,1.229,2.35,2.281,3.769,3.047C83.947,62.816,84.131,62.718,84.323,62.632"/>
<g>
	<path fill-rule="evenodd" clip-rule="evenodd" fill="#7C2317" d="M97.519,16.798c8.547-8.439,16.303,2.061,28.215-1.592
		c-1.895,8.518-8.363,17.428-18.057,10.387c-0.425,1.109-1.704,3.025-3.276,4.395c-0.145-0.691-0.291-1.381-0.545-1.906
		c-0.844-1.74-2.767-1.313-3.359,0.34c-0.618,1.729-0.207,4.881,2.347,4.385c-1.391,2.717-3.542,3.688-5.037,2.732
		C94.715,28.601,91.108,23.126,97.519,16.798"/>
	<path fill-rule="evenodd" clip-rule="evenodd" fill="#F68A40" d="M120.256,22.603c-3.663,1.791-5.681,2.361-9.767,2.715
		C115.366,26.013,116.359,25.685,120.256,22.603"/>
	<path fill-rule="evenodd" clip-rule="evenodd" fill="#F68A40" d="M119.439,19.611c-3.16,2.58-4.996,3.594-8.893,4.867
		C115.453,24.044,116.345,23.5,119.439,19.611"/>
</g>
<path fill-rule="evenodd" clip-rule="evenodd" fill="#FFF3D0" d="M271.673,98.933l-4.83-3.111c-0.86-1.023-0.948-1.177-1.895-1.265
	c-1.445-0.915-2.996-2.687-4.478-4.577l-0.223-0.308c-1.175-1.627-3.313-4.669-4.852-7.127c-1.537-2.46-2.473-4.335-3.437-5.961
	c-0.963-1.628-1.954-3.009-2.53-4.156c-0.574-1.148-0.728-2.067-0.771-3.657c-0.036-1.391-1.171-14.459-1.226-17.297
	c-5.128,1.876-7.383,8.083-9.268,11.53c0.288,1.934,0.74,4.751,0.961,6.253c0.829,5.624-0.845,4.393,3.451,8.646
	c1.042,1.03,2.075,2.208,3.929,4.347c5.084,5.878,4.253,4.791,9.276,9.834c-0.361,3.496,3.229,3.657,4.83,4.862
	c0.851,0.661,1.419,1.147,1.979,1.751c0.561,0.609,1.124,1.348,1.963,2.513c0.193,0.268,0.441,0.445,0.69,0.538l0,0.003
	c0.287,0.106,0.583,0.1,0.811-0.009c0.586-0.281,0.479-0.778,0.262-1.231c-0.059-0.121-0.117-0.228-0.174-0.326
	c-0.038-0.068-0.076-0.133-0.088-0.16l-1.104-2.123l-0.033-0.063l5.768,2.591l2.491,1.801c0.807,0.401,1.791-0.344,1.2-0.796
	L271.673,98.933z"/>
<path fill-rule="evenodd" clip-rule="evenodd" fill="#FFF3D0" d="M221.887,33.545c-1.007,0.655-1.783,1.323-2.633,1.737
	c-0.848,0.418-1.768,0.582-3.47,1.081c-1.703,0.498-4.188,1.335-5.954,1.873c-4.45,1.356-8.024,2.329-10.742,3.353
	c-0.044-0.123-4.347,0.219-4.799,0.258c-1.886,0.164-3.954,0.497-6.848,0.68c-2.893,0.183-6.614,0.216-8.62,0.212l-0.382-0.001
	c-2.4-0.105-4.742-0.333-6.33-0.974c-0.622-0.72-0.797-0.701-2.131-0.805l-5.341-2.114l-3.607-0.737
	c-0.712-0.218-0.746,1.019,0.049,1.438l2.917,0.976l5.466,3.178l-0.07,0.009l-2.369,0.339c-0.031,0.005-0.105,0.014-0.183,0.024
	c-0.112,0.01-0.232,0.025-0.365,0.048c-0.494,0.089-0.961,0.292-0.849,0.929c0.045,0.254,0.213,0.495,0.467,0.665h0.002
	c0.22,0.148,0.509,0.245,0.84,0.246c1.434,0.005,2.362,0.031,3.184,0.132c0.819,0.104,1.544,0.28,2.577,0.59
	c1.912,0.597,4.134,3.422,6.764,1.089c7.028,1.145,5.656,1.104,13.398,1.812c1.662,0.153,4.238,0.391,5.822,0.66
	c1.977,0.335,9.93-1.917,13.056-2.471c1.458-0.261,3.548-0.508,4.708-0.627c0.143-0.014,0.268-0.025,0.382-0.036
	c3.681-3.54,6.898-8.464,8.833-15.308C224.115,32.247,222.888,32.891,221.887,33.545z"/>
<path fill-rule="evenodd" clip-rule="evenodd" fill="#FFF3D0" d="M247.969,154.525c-1.243-2.152-2.936-4.676-3.414-6.607
	c-0.48-1.93-0.652-4.008-0.821-6.994c-0.668-11.854-0.961-17.919,0.456-29.704c0.353-2.926,0.605-5.16,0.21-6.58
	c-0.397-1.42-0.962-4.778-3.876-8.577c-0.146-0.191-11.281-14.664-16.254-21.137c-1.917-2.496-2.41-3.51-1.24-6.83
	c0.48-1.357,1.598-2.434,2.539-3.375c3.746-3.752,5.937-1.428,11.021-6.285c0.011,0.256,0.024,0.548,0.039,0.857
	c2.217-3.244,5.654-6.253,10.944-7.61c0.033-0.412,0.055-0.671,0.063-0.722c0.395-2.664-3.461-7.967,3.238-9.576
	c1.1-0.264,1.495-0.02,3.039,0.426c1.309,0.377,3.168,0.061,4.533-0.971c2.742-2.066,3.305-7.883,3.441-11.107
	c0.08-1.928,0.029-3.145-0.014-4.211c-0.039-1.064-0.068-1.982-0.482-3.461c-2.604-9.289-12.76-10.461-18.535-4.76
	c-1.358,1.344-1.919,3.049-2.425,4.01c-0.507,0.959-1.055,1.113-1.346,1.732c-1.38,2.938,1.468,6.277,2.487,8.881
	c0.387,0.982,0.43,1.938,0.474,2.893c0.105,2.246-2.33,0.961-4.065,0.389c-1.463-0.48-3.043-1.025-4.343-1.58
	c-1.3-0.551-2.323-1.107-3.783-1.418c-1.458-0.311-3.349-0.373-4.954-0.188c-0.006,0.001-0.012,0.002-0.018,0.003
	c-3.016,6.441-6.986,10.78-11.191,13.679c0.83,0.061,0.979,0.118,0.768,0.299c-0.239,0.205-0.863,0.693-2.221,1.477
	c-4.016,2.316-7.77,5.334-10.693,8.211c-3.984,3.918-6.713,8.855-4.643,15.313c3.098,6.305,2.983,15.264,8.159,25.863
	c1.085,2.219,2.352,4.77,3.837,7.781c0.109,0.221,0.212,0.43,0.31,0.631c1.042,2.146,2.451,4.207,2.604,5.307
	c0.166,1.199,0.031,2.439-0.262,3.414c-0.291,0.975-0.738,1.684-1.492,3.43c-0.751,1.744-2.809,3.525-3.676,6.813
	c-2.262,8.549-1.845,15.561-7.108,23.418c-1.118,1.666-2.069,2.564-2.501,3.404c-0.434,0.838-0.346,1.619,0.074,2.43
	c0.422,0.809,1.175,1.646,1.635,2.463c0.461,0.818,1.162,2.656,1.236,3.898s0.053,2.932,0.55,4.182
	c0.497,1.248,1.511,2.057,2.444,2.637c0.936,0.578,1.791,0.934,2.59,1.355s1.54,0.92,1.93,0.877c0.393-0.045,0.43-0.631,0.177-2.42
	c-0.255-1.789-0.804-4.783-1.081-7.256s-0.818-5.461-0.484-7.422c0.332-1.961,1.005-3.934,2.047-6.738
	c4.13-11.131,8.834-18.143,14.848-28.375c1.492-2.539,2.22-3.572,2.424-5.029c0.206-1.461-1.111-4.348-2.262-8.996
	c-0.025-0.1-0.482-2.139-1.082-4.816l0.035,0.031c1.882,1.6,4.064,3.43,6.631,5.594c0.188,0.16,0.365,0.313,0.535,0.455
	c1.813,1.549,2.132,5.118,2.71,6.062c0.637,1.033,1.769,9.089,2.287,12.448c1.352,8.74,4.536,14.998,2.858,24.307
	c-0.355,1.975-0.871,3.178-0.932,4.119c-0.061,0.943,0.334,1.623,1.043,2.199c0.709,0.57,1.734,1.037,2.484,1.604
	c0.748,0.563,2.126,1.967,2.691,3.076c0.566,1.111,1.223,2.666,2.178,3.611c0.953,0.947,2.205,1.283,3.295,1.438
	c1.088,0.158,2.014,0.139,2.916,0.207c0.901,0.068,1.779,0.229,2.12,0.031c0.339-0.197,0.142-0.748-0.808-2.285
	C250.915,159.205,249.213,156.681,247.969,154.525z"/>
<g>
	<path fill-rule="evenodd" clip-rule="evenodd" fill="#7C2317" d="M241.725,16.798c8.547-8.439,16.303,2.061,28.215-1.592
		c-1.895,8.518-8.363,17.428-18.057,10.387c-0.425,1.109-1.704,3.025-3.276,4.395c-0.145-0.691-0.291-1.381-0.545-1.906
		c-0.844-1.74-2.767-1.313-3.359,0.34c-0.618,1.729-0.207,4.881,2.347,4.385c-1.391,2.717-3.542,3.688-5.037,2.732
		C238.921,28.601,235.313,23.126,241.725,16.798"/>
	<path fill-rule="evenodd" clip-rule="evenodd" fill="#F68A40" d="M264.461,22.603c-3.663,1.791-5.681,2.361-9.767,2.715
		C259.571,26.013,260.564,25.685,264.461,22.603"/>
	<path fill-rule="evenodd" clip-rule="evenodd" fill="#F68A40" d="M263.645,19.611c-3.16,2.58-4.996,3.594-8.893,4.867
		C259.659,24.044,260.551,23.5,263.645,19.611"/>
</g>
<path fill-rule="evenodd" clip-rule="evenodd" fill="#F2E3BD" d="M222.169,97.849c-0.792-3.68-2.271-11.721-4.383-18.75
	c2.726,4.195,5.859,16.568,6.876,20.863c-0.872-0.738-1.691-1.43-2.459-2.082C222.192,97.869,222.181,97.859,222.169,97.849"/>
<path fill-rule="evenodd" clip-rule="evenodd" fill="#FFF3D0" d="M233,50.275v11.005l6.515,12.638L244.5,65.5
	c0,0,6.271-9.079,3.135-14.54S233,42.551,233,50.275z"/>
</svg>
