<?xml version="1.0" encoding="utf-8"?>
<!-- Generator: Adobe Illustrator 16.0.0, SVG Export Plug-In . SVG Version: 6.00 Build 0)  -->
<!DOCTYPE svg PUBLIC "-//W3C//DTD SVG 1.1//EN" "http://www.w3.org/Graphics/SVG/1.1/DTD/svg11.dtd">
<svg version="1.1" id="Layer_1" xmlns="http://www.w3.org/2000/svg" xmlns:xlink="http://www.w3.org/1999/xlink" x="0px" y="0px"
	 width="72px" height="31.422px" viewBox="0 0 72 31.422" enable-background="new 0 0 72 31.422" xml:space="preserve">
<path fill-rule="evenodd" clip-rule="evenodd" fill="#FFF3D0" d="M64.346,7.922c-1.007,0.655-1.783,1.323-2.633,1.737
	c-0.848,0.418-1.769,0.582-3.47,1.081c-1.703,0.498-4.188,1.335-5.954,1.873c-4.45,1.356-8.024,2.329-10.741,3.353
	c-0.045-0.123-4.348,0.219-4.799,0.258c-1.887,0.164-3.955,0.497-6.848,0.68c-2.894,0.183-6.615,0.216-8.62,0.212l-0.382-0.001
	c-2.4-0.105-4.742-0.333-6.33-0.974c-0.622-0.72-0.797-0.701-2.131-0.805l-5.341-2.114L3.49,12.484
	c-0.712-0.218-0.746,1.019,0.049,1.438l2.917,0.976l5.466,3.178l-0.07,0.009l-2.369,0.339c-0.031,0.005-0.105,0.014-0.183,0.024
	c-0.112,0.01-0.232,0.025-0.365,0.048c-0.494,0.089-0.961,0.292-0.849,0.929C8.132,19.679,8.3,19.92,8.553,20.09h0.002
	c0.22,0.148,0.509,0.245,0.84,0.246c1.434,0.005,2.362,0.031,3.184,0.132c0.819,0.104,1.544,0.28,2.577,0.59
	c1.912,0.597,4.134,3.422,6.764,1.089c7.028,1.145,5.656,1.104,13.398,1.812c1.662,0.153,4.238,0.391,5.822,0.66
	c1.977,0.335,9.93-1.917,13.055-2.471c1.458-0.261,3.549-0.508,4.709-0.627c0.143-0.014,0.268-0.025,0.383-0.036
	c3.681-3.54,6.897-8.464,8.833-15.308C66.574,6.623,65.347,7.268,64.346,7.922z"/>
</svg>
