<?xml version="1.0" encoding="utf-8"?>
<!-- Generator: Adobe Illustrator 16.0.0, SVG Export Plug-In . SVG Version: 6.00 Build 0)  -->
<!DOCTYPE svg PUBLIC "-//W3C//DTD SVG 1.1//EN" "http://www.w3.org/Graphics/SVG/1.1/DTD/svg11.dtd">
<svg version="1.1" id="Layer_1" xmlns="http://www.w3.org/2000/svg" xmlns:xlink="http://www.w3.org/1999/xlink" x="0px" y="0px"
	 width="37px" height="47px" viewBox="0 0 37 47" enable-background="new 0 0 37 47" xml:space="preserve">
<path fill-rule="evenodd" clip-rule="evenodd" fill="#FFF3D0" d="M31.007,11.704c-0.348-0.515-0.803-0.343-1.2-0.076
	c-0.108,0.072-0.201,0.143-0.286,0.21c-0.059,0.045-0.115,0.088-0.141,0.106l-1.855,1.337l-0.056,0.04l1.658-5.817l1.359-2.604
	c0.269-0.822-0.573-1.648-0.919-1.027l-1.994,2.902l-2.277,5.002c-0.85,0.956-0.984,1.059-0.934,1.967
	c-0.67,1.495-2.131,3.207-3.717,4.87c-4.055,5.199-8.26,8.134-12.468,12.315c0,0-7.247,9.421,0.877,10.273
	c1.733-0.247,3.247-1.634,4.486-4.07l0.012,0.004c0.598-0.969,1.444-2.09,2.277-3.382c0.981-1.521,1.942-3.276,3.501-5.571
	c1.108-1.629,2.517-3.533,3.665-5.039v-0.001l0.293-0.384c3.354-0.143,3.011-3.561,3.929-5.238c0.509-0.898,0.89-1.502,1.386-2.116
	c0.5-0.615,1.121-1.249,2.107-2.204c0.228-0.221,0.361-0.479,0.414-0.728l0.001-0.001C31.188,12.185,31.144,11.907,31.007,11.704z"
	/>
</svg>
