<?xml version="1.0" encoding="utf-8"?>
<!-- Generator: Adobe Illustrator 16.0.0, SVG Export Plug-In . SVG Version: 6.00 Build 0)  -->
<!DOCTYPE svg PUBLIC "-//W3C//DTD SVG 1.1//EN" "http://www.w3.org/Graphics/SVG/1.1/DTD/svg11.dtd">
<svg version="1.1" id="Layer_1" xmlns="http://www.w3.org/2000/svg" xmlns:xlink="http://www.w3.org/1999/xlink" x="0px" y="0px"
	 width="39.5px" height="64.5px" viewBox="0 0 39.5 64.5" enable-background="new 0 0 39.5 64.5" xml:space="preserve">
<path fill-rule="evenodd" clip-rule="evenodd" fill="#FFF3D0" d="M34.269,10.841c-3.333-5.333-8.763-2.126-8.763-2.126
	c-4.775,4.044-11.907,11.174-13.896,14.619c-2.004,3.473-1.936,3.563-1.702,6.037c0.339,3.563,0.083,10.934-0.045,15.713
	c-0.028,3.979-2.667,7.471-0.575,11.268c0.32,0.582,1.297,0.95,2.09,0.569c0.296,0.587,1.167,0.852,2.133,0.241
	c0.422,0.941,2.184,0.534,2.361-0.447c0.318-0.36,1.209-0.402,1.461-0.868c0.934-1.735-0.564-2.357,0.373-4.244
	c0.89-1.784-2.773-4.907-2.826-6.238c0.047-0.421,0.131-0.921,0.236-1.529c0.73-4.245,0.825-5.387,1.49-11.631
	c0.163-1.53,0.213-2.069,0.336-3.021c0.28-1.991,7.232-6.788,9.604-7.855C26.546,21.327,37.602,16.174,34.269,10.841z"/>
</svg>
