<?xml version="1.0" encoding="utf-8"?>
<!-- Generator: Adobe Illustrator 16.0.0, SVG Export Plug-In . SVG Version: 6.00 Build 0)  -->
<!DOCTYPE svg PUBLIC "-//W3C//DTD SVG 1.1//EN" "http://www.w3.org/Graphics/SVG/1.1/DTD/svg11.dtd">
<svg version="1.1" id="Layer_1" xmlns="http://www.w3.org/2000/svg" xmlns:xlink="http://www.w3.org/1999/xlink" x="0px" y="0px"
	 width="69.5px" height="37.317px" viewBox="0 0 69.5 37.317" enable-background="new 0 0 69.5 37.317" xml:space="preserve">
<path fill-rule="evenodd" clip-rule="evenodd" fill="#FFF3D0" d="M65.703,30.329l-3.489-0.482l-5.491,0.204
	c-1.234-0.333-1.388-0.406-2.177,0.045c-1.636,0.071-3.821-0.47-6.018-1.141l-0.345-0.121c-1.811-0.635-5.332-1.407-7.884-2.496
	c-3.22-1.371-10.063-5.162-12.913-5.682c-0.977-0.568-2.537-2.25-3.793-3.809c-0.957-1.184-8.682-11.423-8.902-11.742
	c-0.354-0.511-0.873-0.902-1.402-1.229c0.079,0.055,0.402,0.313,0.736,1.041C13.8,4.57,13.561,4.223,13.289,3.877
	c0,0-7.572-2.203-7.572,5.797s8.133,9.798,8.133,9.798c1.167,1.145,1.806,1.718,2.961,2.842c1.604,1.56,4.797,4.066,7.727,5.963
	c2.033,1.315,6.186,1.589,8.806,2.255c7.206,1.829,5.956,1.428,12.657,2.636c1.63,2.943,4.533,1.104,6.447,1.175
	c1.031,0.051,1.741,0.122,2.513,0.291c0.774,0.171,1.618,0.442,2.915,0.897c0.299,0.102,0.59,0.107,0.834,0.045h0.002
	c0.285-0.074,0.514-0.238,0.635-0.451c0.305-0.54-0.053-0.87-0.471-1.107c-0.113-0.063-0.219-0.116-0.314-0.162
	c-0.066-0.032-0.131-0.064-0.156-0.077l-2.029-1.061l-0.061-0.031l5.943-1.123l2.939,0.05C66.052,31.483,66.413,30.36,65.703,30.329
	z"/>
</svg>
