<?xml version="1.0" encoding="utf-8"?>
<!-- Generator: Adobe Illustrator 16.0.0, SVG Export Plug-In . SVG Version: 6.00 Build 0)  -->
<!DOCTYPE svg PUBLIC "-//W3C//DTD SVG 1.1//EN" "http://www.w3.org/Graphics/SVG/1.1/DTD/svg11.dtd">
<svg version="1.1" id="Layer_1" xmlns="http://www.w3.org/2000/svg" xmlns:xlink="http://www.w3.org/1999/xlink" x="0px" y="0px"
	 width="34.5px" height="88.671px" viewBox="0 0 34.5 88.671" enable-background="new 0 0 34.5 88.671" xml:space="preserve">
<path fill-rule="evenodd" clip-rule="evenodd" fill="#FFF3D0" d="M28.094,80.792c1.75-1.043,0.484-3.025-2.307-4.58
	c-1.563-0.871-2.746-1.277-4.861-2.535c-2.113-1.26-4.947-2.789-6.137-4.057c-1.418-1.512,0.523-30.283,2.658-40.922
	c1.346-6.714,1.159-17.67,0.91-28.698C12.719,0.653,6.202,4.562,6.202,19.165c0.543,1.066,0.447,9.867,0.49,10.873
	c0.043,1.004-0.146,1.813-0.285,3.688c-0.137,1.875-0.227,4.816,0.023,8.17c0.791,10.529,1.453,16.613,1.303,25.74
	c-0.02,1.188-0.051,2.426-0.102,3.734c-0.057,1.541-0.219,2.025,0.254,3.51c0.369,1.15,0.533,1.791,0.848,2.451
	c0.402,0.842,1.07,1.24,1.959,1.393s2.002,0.061,2.922,0.186C17.483,79.44,24.417,82.981,28.094,80.792z"/>
</svg>
