<?xml version="1.0" encoding="utf-8"?>
<!-- Generator: Adobe Illustrator 16.0.0, SVG Export Plug-In . SVG Version: 6.00 Build 0)  -->
<!DOCTYPE svg PUBLIC "-//W3C//DTD SVG 1.1//EN" "http://www.w3.org/Graphics/SVG/1.1/DTD/svg11.dtd">
<svg version="1.1" id="Layer_1" xmlns="http://www.w3.org/2000/svg" xmlns:xlink="http://www.w3.org/1999/xlink" x="0px" y="0px"
	 width="92px" height="147.5px" viewBox="0 0 92 147.5" enable-background="new 0 0 92 147.5" xml:space="preserve">
<g>
	<path fill-rule="evenodd" clip-rule="evenodd" fill="#FFF3D0" d="M36.382,55.131c0.104-0.197,0.233-0.387,0.374-0.579
		C36.615,54.744,36.485,54.936,36.382,55.131z"/>
	<path fill-rule="evenodd" clip-rule="evenodd" fill="#FFF3D0" d="M81.914,140.668c-1.185-1.125-3.253-2.941-4.838-4.535
		c-1.584-1.598-3.642-3.414-4.507-4.988c-0.864-1.576-1.493-3.355-2.33-5.926c-3.315-10.205-5.185-17.963-6.662-28.592
		c-0.367-2.637-0.43-3.773-1.103-4.924c-0.675-1.15-1.958-2.309-5.38-4.959c-0.222-0.172-0.459-0.361-0.711-0.566
		c1.191-1.105,2.379-2.211,3.285-3.311c0.91-1.107,1.533-2.209,1.869-3.127c0.34-0.922,0.394-1.656,0.337-2.443
		c-0.056-0.787-0.221-1.625-0.551-2.338c-0.333-0.713-0.902-1.195-1.651-1.771c-4.15-3.189-9.421-4.379-17.068-6.598
		c-2.593-0.752-5.84-1.713-6.817-4.564c-0.423-1.232-0.233-2.621-0.095-3.816c0.138-1.197,0.226-2.201,0.689-3.078
		c-0.087,0.168-0.163,0.34-0.227,0.518c-1.437,0.252-2.953,0.236-4.381-0.045c-0.309-0.063-0.388-0.109,0.152-0.178
		c1.8-0.23,3.194-0.264,4.879-1.084c0.06-0.029,0.119-0.061,0.178-0.09c-0.039,0.048-0.07,0.094-0.107,0.142
		c0.484-0.617,1.149-1.271,2.003-2.233c1.014-1.139,2.284-2.711,3.104-4.447c0.088,0.102,0.192,0.222,0.292,0.337
		c0.423-2.924,1.077-5.791,1.644-8.05c0.323-1.289,1.035-2.394,1.987-3.348c-0.158-0.236-0.266-0.401-0.286-0.436
		c-0.755-1.309-2.6-1.971-2.969-2.574c-0.189-0.309,0.011-0.834,0.136-1.324c0.479,0.201,0.95,0.363,1.404,0.445
		c6.354,1.125,6.655-8.574,6.391-12.732c-0.11-1.74-0.274-2.83-0.412-3.785c-0.139-0.953-0.252-1.775-0.767-3.066
		c-3.228-8.102-12.468-8.182-17.115-2.508c-1.093,1.336-1.434,2.924-1.796,3.836c-0.364,0.91-0.842,1.102-1.044,1.686
		c-0.962,2.773,1.918,5.502,3.084,7.746c0.44,0.848,0.57,1.701,0.7,2.555c0.132,0.854,0.262,1.707-0.267,2.369
		c-0.531,0.658-1.721,1.123-3.027,1.602c-1.308,0.48-2.734,0.979-3.964,1.316c-1.231,0.338-2.27,0.52-3.478,1.117
		c-1.207,0.598-2.584,1.613-3.617,2.648c-1.033,1.033-1.725,2.084-2.229,3.047c-0.506,0.961-0.827,1.828-1.315,2.531
		c-0.488,0.699-1.143,1.232-2.269,2.375C9.984,46.627,2.892,51.373,4.99,54.818c1.172,1.92,2.966,4.572,3.412,5.252
		c1.039,1.58,2.313,3.246,3.848,5.705c1.009,1.619,2.131,3.586,3.053,5.246l0.271,0.611c-1.588,3.135,1.704,4.57,2.766,6.271
		c0.563,0.92,0.919,1.576,1.225,2.342c0.306,0.771,0.566,1.662,0.935,3.047c0.083,0.32,0.251,0.576,0.45,0.75v0.002
		c0.229,0.203,0.507,0.305,0.759,0.283c0.649-0.051,0.726-0.555,0.686-1.057c-0.01-0.135-0.027-0.254-0.044-0.367
		c-0.01-0.076-0.022-0.15-0.025-0.182l-0.271-2.377l-0.008-0.07l4.459,4.486l1.68,2.572c0.611,0.662,1.797,0.318,1.406-0.316
		l-1.199-2.432c4.27,3.076,8.64,6.057,12.803,8.051c2.015,0.967,4.343,2.063,7.086,3.363c0.2,0.096,0.391,0.188,0.574,0.273
		c1.941,0.938,2.826,1.461,3.551,2.152c0.792,0.756,1.39,1.713,1.73,2.568c0.341,0.854,0.421,1.609,0.867,3.268
		c0.445,1.658,1.256,4.223,2.484,7.039c3.195,7.328,7.423,12.064,8.1,20.586c0.143,1.809-0.027,2.98,0.138,3.816
		c0.163,0.838,0.663,1.344,1.415,1.682s1.756,0.508,2.541,0.828c0.785,0.322,2.312,1.23,3.063,2.07
		c0.749,0.84,1.683,2.049,2.735,2.656c1.053,0.605,2.225,0.611,3.212,0.498c0.987-0.115,1.793-0.346,2.597-0.494
		c0.803-0.146,1.607-0.211,1.859-0.461C83.397,142.23,83.1,141.797,81.914,140.668z M19.574,50.949
		c-0.788,2.463-1.735,6.109-2.371,9.814c-0.346-0.832-0.771-1.836-1.313-3.104c-0.37-0.867-0.852-2.004-1.297-3.1
		c1.407-1.172,3.244-2.701,3.907-3.164C19.432,50.748,19.634,50.646,19.574,50.949z"/>
</g>
<path fill-rule="evenodd" clip-rule="evenodd" fill="#F2E3BD" d="M34.711,114.623c-0.986-2.967-4.328-4.922-0.969-7.604
	c3.082-2.459,6.064-10.918,7.451-14.383c2.015,0.967,4.343,2.063,7.086,3.363l0.572,0.275c-2.031,2.336-4.064,4.674-5.656,7.381
	c-1.591,2.705-2.74,5.781-2.909,8.225c-0.169,2.441,1.039,5.248,1.693,6.824c0.657,1.576,1.066,2.947,1.434,3.865
	c0.665,1.648,0.185,2.229-0.876,1.854c-0.313-0.111-0.47-0.229-0.711-0.17c-0.244,0.057-0.817-0.393-1.272-0.379
	c-1.782,0.053-3.198-0.881-3.839-2.818C36.168,119.406,35.307,116.416,34.711,114.623"/>
<path fill-rule="evenodd" clip-rule="evenodd" fill="#F2E3BD" d="M56.384,86.176c-2.626-2.166-6.867-6.189-12.308-9.984
	c-0.471-0.328-0.951-0.656-1.438-0.98c-0.532-0.352-1.073-0.699-1.624-1.043c-0.431-0.27-0.867-0.533-1.31-0.793
	c-0.14-0.082-0.28-0.164-0.423-0.248c-0.294-0.168-0.539-0.309-0.838-0.477c-0.26-0.143-0.589-0.322-0.851-0.463
	c0.007-0.01,0.014-0.021,0.021-0.031c0.599,0.236,1.202,0.475,1.821,0.734c0.608,0.254,1.232,0.525,1.888,0.834
	c0.56,0.262,1.141,0.549,1.753,0.871c0.525,0.277,1.073,0.578,1.648,0.912c0.484,0.283,0.991,0.588,1.521,0.92
	c3.27,2.049,7.419,5.104,11.684,8.293C57.43,85.207,56.907,85.691,56.384,86.176"/>
<path fill-rule="evenodd" clip-rule="evenodd" fill="#58462F" d="M50.372,17.73c-4.31,0.857-6.331,0.832-9.129-0.471
	c-0.274,1.037-1.241,2.883-2.524,4.262c-0.197-0.607-0.393-1.213-0.672-1.66c-0.924-1.484-2.612-0.918-2.987,0.627
	c-0.391,1.611,0.202,5.6,2.637,4.68c-1.279,1.648-2.276,2.268-4.375,1.973c-3.436-5.045-5.273-8.854-3.499-12.924
	c1.59-3.645,5.602-7.186,9.643-7.633C45.305,5.938,50.891,10.756,50.372,17.73"/>
<path fill-rule="evenodd" clip-rule="evenodd" fill="#F2E3BD" d="M36.382,55.131c0.157-0.297,0.359-0.582,0.602-0.879
	c-0.059,0.029-0.118,0.061-0.178,0.09c-1.685,0.82-3.079,0.854-4.879,1.084c-0.54,0.068-0.461,0.115-0.152,0.178
	c1.428,0.281,2.944,0.297,4.381,0.045C36.219,55.471,36.295,55.299,36.382,55.131"/>
</svg>
