<?xml version="1.0" encoding="utf-8"?>
<!-- Generator: Adobe Illustrator 16.0.0, SVG Export Plug-In . SVG Version: 6.00 Build 0)  -->
<!DOCTYPE svg PUBLIC "-//W3C//DTD SVG 1.1//EN" "http://www.w3.org/Graphics/SVG/1.1/DTD/svg11.dtd">
<svg version="1.1" id="Layer_1" xmlns="http://www.w3.org/2000/svg" xmlns:xlink="http://www.w3.org/1999/xlink" x="0px" y="0px"
	 width="66px" height="88.5px" viewBox="0 0 66 88.5" enable-background="new 0 0 66 88.5" xml:space="preserve">
<path fill-rule="evenodd" clip-rule="evenodd" fill="#FFF3D0" d="M33.641,42.369c0.404,1.835,1.16,4.68,2.359,7.82
	c3.125,8.173,7.506,13.564,7.818,22.917c0.064,1.983-0.182,3.256-0.045,4.179c0.137,0.925,0.658,1.5,1.465,1.907
	c0.805,0.407,1.893,0.646,2.734,1.035c0.844,0.392,2.469,1.463,3.244,2.418c0.777,0.956,1.736,2.326,2.857,3.042
	c1.121,0.715,2.398,0.78,3.486,0.707c1.086-0.076,1.977-0.288,2.863-0.409c0.887-0.12,1.77-0.148,2.057-0.411
	c0.287-0.261-0.018-0.751-1.256-2.042c-1.236-1.292-3.408-3.381-5.059-5.206c-1.652-1.825-3.811-3.914-4.678-5.681
	c-0.865-1.767-1.463-3.742-2.248-6.596c-3.109-11.326-4.762-19.9-5.84-31.594c-0.268-2.901-0.279-4.149-0.957-5.44
	c-0.68-1.29-2.023-2.623-5.631-5.693c-0.076-0.063-4.07-3.057-8.809-6.975C11.446,6.327,6.134,7.564,4.438,9.619
	c-0.227,0.578-0.488,1.297-0.782,2.4c-1.06,3.967,0.018,8.676,4.636,10.616l2.339,1.113c-0.114,0.327,12.38,5.89,12.381,5.887
	l0.048,0.022c0.089,0.021,7.425,5.561,8.036,6.2c0.828,0.866,1.434,1.941,1.762,2.893C33.188,39.704,33.236,40.532,33.641,42.369z"
	/>
</svg>
