<?xml version="1.0" encoding="utf-8"?>
<!-- Generator: Adobe Illustrator 16.0.0, SVG Export Plug-In . SVG Version: 6.00 Build 0)  -->
<!DOCTYPE svg PUBLIC "-//W3C//DTD SVG 1.1//EN" "http://www.w3.org/Graphics/SVG/1.1/DTD/svg11.dtd">
<svg version="1.1" id="Layer_1" xmlns="http://www.w3.org/2000/svg" xmlns:xlink="http://www.w3.org/1999/xlink" x="0px" y="0px"
	 width="73px" height="88.5px" viewBox="0 0 73 88.5" enable-background="new 0 0 73 88.5" xml:space="preserve">
<path fill-rule="evenodd" clip-rule="evenodd" fill="#FFF3D0" d="M67.894,15.309c-0.351-3.082-1.815-5.59-5.243-6.564
	c-10.676-3.035-10.666,7.359-12.494,14.945l0.125,0.06c-0.307,0.878-0.605,1.73-0.893,2.548c-0.007,0.018-0.013,0.037-0.02,0.055
	c0,0.001,0,0.001-0.001,0.002c-1.341,3.809-2.421,6.793-2.783,7.46c-0.573,1.054-1.411,1.959-2.218,2.563
	c-0.805,0.603-1.578,0.904-3.203,1.85c-1.625,0.944-4.103,2.532-6.728,4.636c-6.828,5.472-10.624,11.291-19.435,14.441
	c-1.869,0.67-3.154,0.823-3.991,1.235c-0.838,0.413-1.228,1.087-1.37,1.978c-0.142,0.891-0.035,2.001-0.15,2.921
	c-0.115,0.922-0.639,2.795-1.313,3.827c-0.672,1.032-1.683,2.364-2.021,3.649c-0.342,1.284-0.012,2.523,0.392,3.535
	s0.876,1.794,1.263,2.603c0.385,0.807,0.684,1.638,1.02,1.832c0.336,0.195,0.711-0.246,1.563-1.819
	c0.851-1.573,2.178-4.277,3.412-6.407c1.231-2.129,2.561-4.823,3.98-6.188c1.418-1.363,3.115-2.536,5.594-4.155
	c9.836-6.421,17.494-10.611,28.301-15.212c2.681-1.141,3.866-1.533,4.888-2.572c1.021-1.039,1.879-2.729,3.7-7.101
	c0.025-0.062,2.582-5.706,2.582-5.706S67.818,15.652,67.894,15.309z"/>
</svg>
