<?xml version="1.0" encoding="utf-8"?>
<!-- Generator: Adobe Illustrator 16.0.0, SVG Export Plug-In . SVG Version: 6.00 Build 0)  -->
<!DOCTYPE svg PUBLIC "-//W3C//DTD SVG 1.1//EN" "http://www.w3.org/Graphics/SVG/1.1/DTD/svg11.dtd">
<svg version="1.1" id="Layer_1" xmlns="http://www.w3.org/2000/svg" xmlns:xlink="http://www.w3.org/1999/xlink" x="0px" y="0px"
	 width="99.652px" height="151px" viewBox="0 0 99.652 151" enable-background="new 0 0 99.652 151" xml:space="preserve">
<path fill-rule="evenodd" clip-rule="evenodd" fill="#FFF3D0" d="M46.333,93.349c8.942-6.406,14.866-14.797,21.479-19.566
	c7.434-5.361,9.545-8.563,1.998-22.15c-0.887-1.598-1.451-3.83-2.125-5.186c-0.674-1.357-1.112-1.988-1.225-2.271
	c-0.109-0.285,0.104-0.223,1.131,0.248c1.026,0.471,2.864,1.352,4.118,2.043c1.253,0.689,1.923,1.193,2.603,2.127
	c0.68,0.932,1.371,2.295,2.273,3.736c0.899,1.441,2.01,2.965,3.339,5.207c1.308,2.209,2.547,4.56,3.688,6.82
	c0.295,0.586,0.18,0.539-0.012,1.182c-0.729,2.467-1.273,4.102-0.183,5.262c0.657,0.717,1.085,1.232,1.487,1.854
	c0.404,0.627,0.79,1.367,1.356,2.527c0.132,0.268,0.321,0.463,0.528,0.582c0.238,0.141,0.5,0.182,0.721,0.119
	c0.562-0.158,0.541-0.617,0.418-1.053c-0.031-0.115-0.068-0.219-0.102-0.314c-0.023-0.066-0.045-0.129-0.054-0.156l-0.655-2.049
	c-0.115-0.455,0.582-0.6,1.131-0.068c0.019,0.041,0.037,0.086,0.053,0.133l0.686,2.445l-0.324,3.682
	c-0.072,0.664,0.745,1.053,0.89,0.434l0.626-2.318l0.419,4.172c0.075,0.914,1.278,1.229,1.313,0.355l0.121-1.602
	c0.38,0.375,1.002,0.361,1.027-0.266l0.393-5.209c-0.498-2.252-3.508-7.145-4.777-9.93c-0.104-1.031-0.445-1.93-1.176-2.636
	c-1.52-3.532-2.686-7.557-4.133-11.186c-0.945-2.365-1.459-3.676-1.852-4.932c-1.621-5.188-1.331-3.344-5.477-6.33
	c-1.347-0.971-3.221-2.4-4.523-3.32c-1.305-0.92-2.039-1.324-2.641-1.926c-0.603-0.6-1.07-1.395-1.736-2.244
	c-0.664-0.852-1.525-1.758-2.721-2.588c-1.192-0.83-2.721-1.58-4.008-1.951c-1.287-0.373-2.337-0.365-3.602-0.479
	c-1.266-0.115-2.747-0.348-4.113-0.586c-1.363-0.238-2.61-0.484-3.245-1.035c-0.636-0.553-0.659-1.412-0.683-2.271
	c-0.022-0.859-0.045-1.717,0.235-2.625c0.745-2.4,3.081-5.582,1.649-8.125c-0.303-0.537-0.805-0.641-1.32-1.467
	c-0.516-0.828-1.132-2.322-2.437-3.436c-5.554-4.732-14.585-3.018-16.308,5.482c-0.275,1.354-0.242,2.176-0.209,3.135
	s0.065,2.055,0.264,3.779c0.479,4.115,2.486,13.555,8.509,11.33c0.43-0.16,0.862-0.4,1.296-0.684
	c0.209,0.457,0.498,0.938,0.366,1.273c-0.253,0.654-1.944,1.629-2.449,3.043c-0.123,0.344-4.922,11.158-5.502,12.467
	c-0.582,1.307-1.026,2.016-1.896,2.775c-0.871,0.758-2.171,1.563-3.529,2.584s-2.779,2.26-4.9,3.775
	c-2.12,1.518-4.942,3.313-6.477,4.26l-0.293,0.182c-1.879,1.064-3.775,2.001-5.292,2.269c-0.816-0.256-0.941-0.156-2.008,0.4
	l-5.081,0.926l-3.104,1.152c-0.646,0.172-0.085,1.131,0.726,1.074l2.688-0.643l5.682-0.174l-0.049,0.039l-1.646,1.385
	c-0.021,0.02-0.074,0.061-0.13,0.104c-0.077,0.063-0.164,0.131-0.254,0.213c-0.338,0.303-0.598,0.678-0.207,1.111
	c0.154,0.172,0.396,0.275,0.672,0.285c0.24,0.008,0.506-0.055,0.76-0.211c1.096-0.68,1.818-1.102,2.493-1.414
	c0.671-0.311,1.312-0.521,2.246-0.777c1.744-0.453,4.781,0.646,5.681-2.385c5.906-2.468,4.84-1.848,11.084-4.989
	c2.274-1.143,3.537-1.766,4.755-2.266c5.03-2.063,3.216-1.615,5.834-6.002c0.81-1.357,2.487-4.086,3.339-5.531
	c1.109,1.557,2.632,2.867,3.826,3.805c1.405,1.104,2.36,1.689,2.969,2.465c0.608,0.777,0.872,1.744,1.22,2.891
	c0.346,1.146,0.776,2.473,0.581,3.754c-0.452,2.963-3.46,4.478-5.865,5.673c-7.092,3.523-12.041,5.621-15.539,9.477
	c-0.631,0.695-1.104,1.27-1.302,2.027c-0.2,0.754-0.213,1.604-0.128,2.385c0.085,0.779,0.268,1.49,0.76,2.33
	c0.494,0.84,1.299,1.809,2.386,2.73c1.081,0.918,2.439,1.787,3.8,2.658c-0.211,0.246-0.408,0.475-0.596,0.684
	c-2.879,3.197-3.932,4.561-4.387,5.803c-0.457,1.244-0.318,2.369-0.21,5.016c0.435,10.664-0.024,18.588-1.466,29.164
	c-0.362,2.666-0.664,4.516-1.231,6.211s-2.263,3.838-3.53,5.68c-1.27,1.842-2.972,3.984-3.932,5.297
	c-0.961,1.313-1.178,1.791-0.887,1.992c0.293,0.199,1.091,0.121,1.902,0.125c0.814,0,1.642,0.084,2.629,0.021
	c0.986-0.064,2.135-0.277,3.056-1.057c0.923-0.779,1.622-2.127,2.208-3.082s1.92-2.115,2.633-2.568
	c0.711-0.453,1.662-0.797,2.34-1.262c0.676-0.461,1.075-1.043,1.09-1.893c0.012-0.85-0.363-1.965-0.543-3.762
	c-0.842-8.461,2.457-13.844,4.287-21.582c0.704-2.975,1.045-5.627,1.188-7.33c0.145-1.701,0.09-2.453,0.271-3.352
	c0.18-0.896,0.598-1.938,1.239-2.818c0.587-0.805,1.361-1.475,3.098-2.734C45.982,93.599,46.154,93.478,46.333,93.349"/>
<path fill-rule="evenodd" clip-rule="evenodd" fill="#F2E3BD" d="M62.908,109.175c0.439-3.074,3.365-5.582-0.398-7.613
	c-3.451-1.861-8.137-10.039-10.104-13.186c-1.756,1.412-3.619,3.213-6.072,4.973l-0.512,0.369c2.401,1.928,4.806,3.855,6.841,6.225
	c2.036,2.367,3.707,5.174,4.303,7.535c0.597,2.361-0.088,5.32-0.451,6.98c-0.363,1.658-0.521,3.072-0.721,4.035
	c-0.357,1.732,0.214,2.215,1.187,1.66c0.286-0.162,0.419-0.305,0.665-0.291c0.248,0.012,0.732-0.529,1.181-0.598
	c1.753-0.264,2.974-1.426,3.259-3.438C62.326,114.116,62.64,111.036,62.908,109.175"/>
<path fill-rule="evenodd" clip-rule="evenodd" fill="#F2E3BD" d="M36.662,85.163c4.576-5.406,10.271-12.277,15.742-16.955
	c-2.387,1.314-12.412,10.01-16.898,16.213C35.886,84.667,36.274,84.915,36.662,85.163"/>
<path fill-rule="evenodd" clip-rule="evenodd" fill="#58462F" d="M50.652,11.904c-0.301-0.537-0.803-0.641-1.32-1.467
	c-0.516-0.828-1.131-2.322-2.437-3.436c-8.878-7.568-18.928,1.047-17.812,9.896c4.506,0.834,7.805,0.166,10.209-1.865
	c0.454,0.967,1.725,2.602,3.227,3.727c0.085-0.629,0.168-1.26,0.363-1.744c0.643-1.619,2.395-1.359,3.035,0.084
	c0.667,1.508,0.791,5.516-1.756,5.049c1.545,1.385,2.631,1.814,4.634,1.156C51.205,16.626,52.257,14.759,50.652,11.904"/>
</svg>
