<?xml version="1.0" encoding="utf-8"?>
<!-- Generator: Adobe Illustrator 16.0.0, SVG Export Plug-In . SVG Version: 6.00 Build 0)  -->
<!DOCTYPE svg PUBLIC "-//W3C//DTD SVG 1.1//EN" "http://www.w3.org/Graphics/SVG/1.1/DTD/svg11.dtd">
<svg version="1.1" id="Layer_1" xmlns="http://www.w3.org/2000/svg" xmlns:xlink="http://www.w3.org/1999/xlink" x="0px" y="0px"
	 width="37.327px" height="68.252px" viewBox="0 0 37.327 68.252" enable-background="new 0 0 37.327 68.252" xml:space="preserve">
<path fill-rule="evenodd" clip-rule="evenodd" fill="#FFF3D0" d="M27.397,59.855l-3.726-4.373c-0.527-1.229-0.567-1.4-1.449-1.758
	c-1.119-1.294-2.092-3.438-2.965-5.676l-0.125-0.359c-0.654-1.897-1.823-5.427-2.586-8.225c-0.761-2.799-1.115-4.864-1.568-6.699
	c-0.451-1.837-1.002-3.445-1.222-4.71c-0.218-1.265-0.101-2.189,0.317-3.724c0.367-1.342,3.055-14.181,3.822-16.914
	c-5.451,0.315-9.402,5.605-12.203,8.362c-0.282,1.935-0.664,4.763-0.885,6.265c-0.83,5.623-2.078,3.962,0.807,9.273
	c0.699,1.287,1.349,2.714,2.506,5.297c3.17,7.096,2.688,5.814,6.041,12.094c-1.355,3.243,2.035,4.434,3.219,6.05
	c0.623,0.878,1.027,1.508,1.389,2.248c0.361,0.745,0.687,1.615,1.154,2.973c0.107,0.313,0.293,0.554,0.505,0.714l-0.001,0.003
	c0.244,0.185,0.529,0.264,0.779,0.226c0.643-0.1,0.684-0.606,0.607-1.104c-0.021-0.133-0.047-0.252-0.073-0.362
	c-0.017-0.076-0.034-0.149-0.038-0.179l-0.443-2.352l-0.014-0.07l4.774,4.146l1.864,2.443c0.656,0.617,1.813,0.188,1.379-0.416
	L27.397,59.855z"/>
</svg>
