<?xml version="1.0" encoding="utf-8"?>
<!-- Generator: Adobe Illustrator 16.0.0, SVG Export Plug-In . SVG Version: 6.00 Build 0)  -->
<!DOCTYPE svg PUBLIC "-//W3C//DTD SVG 1.1//EN" "http://www.w3.org/Graphics/SVG/1.1/DTD/svg11.dtd">
<svg version="1.1" id="Layer_1" xmlns="http://www.w3.org/2000/svg" xmlns:xlink="http://www.w3.org/1999/xlink" x="0px" y="0px"
	 width="42.727px" height="114px" viewBox="0 0 42.727 114" enable-background="new 0 0 42.727 114" xml:space="preserve">
<path fill-rule="evenodd" clip-rule="evenodd" fill="#FFF3D0" d="M31.293,39.872l0.035,0.031c0.194,0.165-1.902-8.204-2.691-11.661
	c-0.563-2.465-1.267-7.311-1.376-7.12c0,0-3.085-13.38-13.584-13.38c-4.232,0-5.782,3.706-6.093,8.316
	c1.973,6.014,2.558,13.825,6.954,22.827c1.085,2.219,2.352,4.77,3.837,7.781c0.109,0.221,0.212,0.43,0.31,0.631
	c1.042,2.146,2.452,4.207,2.604,5.307c0.166,1.199,0.031,2.439-0.262,3.414c-0.291,0.975-0.738,1.684-1.492,3.43
	c-0.751,1.744-2.809,3.525-3.676,6.813c-2.262,8.549-1.845,15.561-7.108,23.418c-1.118,1.666-2.069,2.564-2.501,3.404
	c-0.434,0.838-0.346,1.619,0.074,2.43c0.422,0.809,1.175,1.646,1.635,2.463c0.461,0.818,1.162,2.656,1.236,3.898
	s0.053,2.932,0.55,4.182c0.497,1.248,1.511,2.057,2.444,2.637c0.936,0.578,1.791,0.934,2.59,1.355s1.54,0.92,1.93,0.877
	c0.393-0.045,0.43-0.631,0.177-2.42c-0.255-1.789-0.804-4.783-1.081-7.256s-0.818-5.461-0.484-7.422
	c0.332-1.961,1.005-3.934,2.047-6.738c4.13-11.131,8.833-18.143,14.847-28.375c1.492-2.539,2.221-3.572,2.424-5.029
	c0.207-1.461-1.111-4.348-2.262-8.996C32.35,44.589,31.893,42.55,31.293,39.872z"/>
</svg>
