<?xml version="1.0" encoding="utf-8"?>
<!-- Generator: Adobe Illustrator 16.0.0, SVG Export Plug-In . SVG Version: 6.00 Build 0)  -->
<!DOCTYPE svg PUBLIC "-//W3C//DTD SVG 1.1//EN" "http://www.w3.org/Graphics/SVG/1.1/DTD/svg11.dtd">
<svg version="1.1" id="Layer_1" xmlns="http://www.w3.org/2000/svg" xmlns:xlink="http://www.w3.org/1999/xlink" x="0px" y="0px"
	 width="47.787px" height="114px" viewBox="0 0 47.787 114" enable-background="new 0 0 47.787 114" xml:space="preserve">
<path fill-rule="evenodd" clip-rule="evenodd" fill="#FFF3D0" d="M43.265,102.769c-0.949-1.541-2.65-4.064-3.895-6.221
	c-1.242-2.152-2.936-4.676-3.414-6.607c-0.48-1.93-0.652-4.008-0.82-6.994c-0.668-11.854-0.961-17.919,0.455-29.704
	c0.354-2.926,0.605-5.16,0.211-6.58c-0.398-1.42-0.963-4.778-3.877-8.577c-0.109-0.144-6.397-8.315-11.633-15.125
	c0-0.001-0.004-0.006-0.004-0.006s-2.448-4.22-5.215-6.819c-0.265-0.374-4.294-2.549-5.557-1.063c0,0-17.753,14.434,8.145,28.552
	c0.711,0.599,1.442,1.215,2.225,1.874c0.188,0.16,0.365,0.313,0.535,0.455c1.813,1.549,2.133,5.118,2.711,6.062
	c0.637,1.033,1.768,9.089,2.287,12.448c1.352,8.74,4.535,14.998,2.857,24.307c-0.355,1.975-0.871,3.178-0.932,4.119
	c-0.061,0.943,0.334,1.623,1.043,2.199c0.709,0.57,1.734,1.037,2.484,1.604c0.748,0.563,2.127,1.967,2.691,3.076
	c0.566,1.111,1.223,2.666,2.178,3.611c0.953,0.947,2.205,1.283,3.295,1.438c1.088,0.158,2.014,0.139,2.916,0.207
	s1.779,0.229,2.121,0.031C44.411,104.856,44.214,104.306,43.265,102.769z"/>
</svg>
