<?xml version="1.0" encoding="utf-8"?>
<!-- Generator: Adobe Illustrator 16.0.0, SVG Export Plug-In . SVG Version: 6.00 Build 0)  -->
<!DOCTYPE svg PUBLIC "-//W3C//DTD SVG 1.1//EN" "http://www.w3.org/Graphics/SVG/1.1/DTD/svg11.dtd">
<svg version="1.1" id="Layer_1" xmlns="http://www.w3.org/2000/svg" xmlns:xlink="http://www.w3.org/1999/xlink" x="0px" y="0px"
	 width="160px" height="106px" viewBox="0 0 160 106" enable-background="new 0 0 160 106" xml:space="preserve">
<path fill-rule="evenodd" clip-rule="evenodd" fill="#333333" d="M40.496,43.843c2.746-11.961,21.464-16.945,32.613-4.32
	c3.145,3.563,3.492,7.158,9.376,6.961c10.601-0.355,16.825-20.543-1.575-26.119c6.318-21.113,63.662-21.547,63.14,26.629
	c0,2.752-0.336,5.422-0.966,7.979c6.936,4.084,11.665,12.371,11.665,20.957l0,0c0,12.889-10.548,23.438-23.437,23.438H5.572
	c10.757-17.426,15.09-25.18,27.803-25.342C54.465,73.759,57.111,42.542,40.496,43.843"/>
</svg>
