<?xml version="1.0" encoding="utf-8"?>
<!-- Generator: Adobe Illustrator 16.0.0, SVG Export Plug-In . SVG Version: 6.00 Build 0)  -->
<!DOCTYPE svg PUBLIC "-//W3C//DTD SVG 1.1//EN" "http://www.w3.org/Graphics/SVG/1.1/DTD/svg11.dtd">
<svg version="1.1" id="Layer_1" xmlns="http://www.w3.org/2000/svg" xmlns:xlink="http://www.w3.org/1999/xlink" x="0px" y="0px"
	 width="800px" height="500px" viewBox="0 0 800 500" enable-background="new 0 0 800 500" xml:space="preserve">
<path fill-rule="evenodd" clip-rule="evenodd" fill="#333333" d="M249.639,110.784c10.868,0,19.679,8.811,19.679,19.68
	c0,10.867-8.811,19.678-19.679,19.678c-10.869,0-19.678-8.811-19.678-19.678C229.961,119.595,238.77,110.784,249.639,110.784"/>
<rect x="366.983" y="168.011" fill-rule="evenodd" clip-rule="evenodd" fill="#FFFFFF" width="77.81" height="3.016"/>
<path fill-rule="evenodd" clip-rule="evenodd" fill="#333333" d="M193.976,120.331c0-5.361,4.347-9.709,9.708-9.709
	c5.362,0,9.708,4.348,9.708,9.709c0,5.363-4.346,9.709-9.708,9.709C198.322,130.04,193.976,125.694,193.976,120.331"/>
<path fill-rule="evenodd" clip-rule="evenodd" fill="#333333" d="M91.865,120.331c0-5.361,4.346-9.709,9.708-9.709
	c5.361,0,9.708,4.348,9.708,9.709c0,5.363-4.347,9.709-9.708,9.709C96.211,130.04,91.865,125.694,91.865,120.331"/>
<path fill-rule="evenodd" clip-rule="evenodd" fill="#E6E6E5" d="M197.939,130.603h-90.621v-10.506c0-3.16-2.585-5.744-5.745-5.744
	c-3.159,0-5.744,2.584-5.744,5.744v10.506v96.777h113.6v-96.777v-10.506c0-3.16-2.585-5.744-5.745-5.744
	c-3.159,0-5.744,2.584-5.744,5.744V130.603z"/>
<rect x="104.76" y="139.532" fill-rule="evenodd" clip-rule="evenodd" fill="#676767" width="95.097" height="77.639"/>
<polygon fill-rule="evenodd" clip-rule="evenodd" fill="#CDCCCC" points="199.856,217.171 104.76,217.171 95.83,227.38 
	209.43,227.38 "/>
<polygon fill-rule="evenodd" clip-rule="evenodd" fill="#FFFFFF" points="104.76,139.532 199.856,139.532 209.43,130.603 
	107.318,130.603 96.378,130.603 95.83,130.603 95.83,227.38 104.76,217.171 "/>
<polygon fill-rule="evenodd" clip-rule="evenodd" fill="#E6E6E5" points="177.857,268.224 126.757,268.224 126.757,410.828 
	177.857,410.986 "/>
<rect x="289.171" y="189.5" fill="#FFFFFF" width="2.01" height="214.506"/>
<path fill-rule="evenodd" clip-rule="evenodd" fill="#E6E6E5" d="M138.588,275.47c2.827,0,5.119,2.291,5.119,5.119
	c0,2.827-2.292,5.118-5.119,5.118c-2.828,0-5.119-2.291-5.119-5.118C133.469,277.761,135.76,275.47,138.588,275.47"/>
<path fill-rule="evenodd" clip-rule="evenodd" fill="#676767" d="M138.588,277.28c1.826,0,3.309,1.482,3.309,3.309
	s-1.482,3.306-3.309,3.306c-1.827,0-3.308-1.479-3.308-3.306S136.761,277.28,138.588,277.28"/>
<path fill-rule="evenodd" clip-rule="evenodd" fill="#6ABD45" d="M138.588,278.71c1.036,0,1.878,0.842,1.878,1.879
	s-0.842,1.877-1.878,1.877c-1.038,0-1.878-0.84-1.878-1.877S137.55,278.71,138.588,278.71"/>
<polygon fill-rule="evenodd" clip-rule="evenodd" fill="#CDCCCC" points="168.042,297.695 135.677,297.695 136.945,294.656 
	166.772,294.656 "/>
<polygon fill-rule="evenodd" clip-rule="evenodd" fill="#CDCCCC" points="168.042,303.777 135.677,303.777 136.945,300.736 
	166.772,300.736 "/>
<rect x="136.945" y="334.557" fill-rule="evenodd" clip-rule="evenodd" fill="#CDCCCC" width="29.828" height="65.316"/>
<rect x="143.767" y="227.38" fill="#FFFFFF" width="3.015" height="40.844"/>
<rect x="150.802" y="227.38" fill="#FFFFFF" width="3.015" height="40.844"/>
<rect x="157.835" y="227.38" fill="#FFFFFF" width="3.015" height="40.844"/>
<rect x="289.171" y="130.614" fill-rule="evenodd" clip-rule="evenodd" fill="#B4B4B4" width="77.813" height="77.809"/>
<rect x="302.938" y="144.38" fill-rule="evenodd" clip-rule="evenodd" fill="#676767" width="50.277" height="50.275"/>
<rect x="676.215" y="206.412" fill="#FFFFFF" width="2.011" height="195.041"/>
<polygon fill-rule="evenodd" clip-rule="evenodd" fill="#989898" points="289.172,208.423 366.983,208.423 353.216,194.657 
	302.939,194.657 "/>
<polygon fill-rule="evenodd" clip-rule="evenodd" fill="#FFFFFF" points="302.938,144.38 353.216,144.38 366.983,130.612 
	289.171,130.612 "/>
<rect x="444.793" y="130.614" fill-rule="evenodd" clip-rule="evenodd" fill="#B4B4B4" width="77.811" height="77.809"/>
<rect x="458.561" y="144.38" fill-rule="evenodd" clip-rule="evenodd" fill="#676767" width="50.276" height="50.275"/>
<polygon fill-rule="evenodd" clip-rule="evenodd" fill="#989898" points="444.793,208.423 522.604,208.423 508.837,194.657 
	458.561,194.657 "/>
<polygon fill-rule="evenodd" clip-rule="evenodd" fill="#FFFFFF" points="458.561,144.38 508.837,144.38 522.604,130.612 
	444.793,130.612 "/>
<rect x="600.414" y="130.614" fill-rule="evenodd" clip-rule="evenodd" fill="#B4B4B4" width="77.812" height="77.809"/>
<rect x="614.181" y="144.38" fill-rule="evenodd" clip-rule="evenodd" fill="#676767" width="50.278" height="50.275"/>
<polygon fill-rule="evenodd" clip-rule="evenodd" fill="#989898" points="600.414,208.423 678.226,208.423 664.459,194.657 
	614.181,194.657 "/>
<polygon fill-rule="evenodd" clip-rule="evenodd" fill="#FFFFFF" points="614.181,144.38 664.459,144.38 678.226,130.612 
	600.414,130.612 "/>
<rect x="289.171" y="208.421" fill="#FFFFFF" width="2.01" height="100.237"/>
<rect x="364.973" y="208.421" fill="#FFFFFF" width="2.011" height="187.079"/>
<rect x="444.793" y="208.423" fill="#FFFFFF" width="2.01" height="191.452"/>
<rect x="520.594" y="208.421" fill="#FFFFFF" width="2.01" height="184.948"/>
<rect x="600.414" y="208.423" fill="#FFFFFF" width="2.011" height="193.03"/>
<rect x="229.959" y="128.628" fill-rule="evenodd" clip-rule="evenodd" fill="#B4B4B4" width="39.357" height="39.357"/>
<polygon fill-rule="evenodd" clip-rule="evenodd" fill="#989898" points="229.959,167.985 269.317,167.985 262.353,161.022 
	236.924,161.022 "/>
<polygon fill-rule="evenodd" clip-rule="evenodd" fill="#FFFFFF" points="229.96,128.628 229.96,167.985 236.923,161.022 
	262.354,161.022 262.354,135.591 269.316,128.628 "/>
<path fill-rule="evenodd" clip-rule="evenodd" fill="#FFFFFF" d="M249.639,123.972c3.586,0,6.491,2.906,6.491,6.492
	c0,3.584-2.905,6.492-6.491,6.492c-3.585,0-6.493-2.908-6.493-6.492C243.146,126.878,246.054,123.972,249.639,123.972"/>
<path fill-rule="evenodd" clip-rule="evenodd" fill="#FFFFFF" d="M201.074,120.331c0-1.441,1.168-2.609,2.609-2.609
	c1.44,0,2.611,1.168,2.611,2.609s-1.171,2.609-2.611,2.609C202.242,122.94,201.074,121.772,201.074,120.331"/>
<path fill-rule="evenodd" clip-rule="evenodd" fill="#333333" d="M285.208,120.343c0-5.363,4.347-9.709,9.708-9.709
	c5.362,0,9.708,4.346,9.708,9.709c0,5.361-4.346,9.709-9.708,9.709C289.555,130.052,285.208,125.704,285.208,120.343"/>
<path fill-rule="evenodd" clip-rule="evenodd" fill="#B4B4B4" d="M300.661,130.612v-10.504c0-3.16-2.586-5.744-5.745-5.744
	c-3.16,0-5.745,2.584-5.745,5.744v10.504H300.661z"/>
<path fill-rule="evenodd" clip-rule="evenodd" fill="#FFFFFF" d="M292.307,120.343c0-1.441,1.169-2.609,2.609-2.609
	s2.609,1.168,2.609,2.609c0,1.443-1.169,2.609-2.609,2.609S292.307,121.786,292.307,120.343"/>
<rect x="272.843" y="393.369" fill-rule="evenodd" clip-rule="evenodd" fill="#B4B4B4" width="421.712" height="17.469"/>
<path fill-rule="evenodd" clip-rule="evenodd" fill="#FFFFFF" d="M329.057,183.864l-0.014-11.119h-3.739l0.012-4.313l3.742-0.023
	c-0.013-3.037-0.316-5.588,1.547-7.402c0.765-0.746,1.969-1.365,3.068-1.422l4.293,0.104l-0.017,3.861
	c-1.284,0.045-3.358-0.262-4.038,0.613l-0.371,4.268l4.266,0.012c-0.072,0.949-0.343,2.688-0.481,3.781
	c-0.045,0.354,0.015,0.18-0.15,0.521l-3.633,0.008l0.002,11.111h6.828c0.757,0,0.936,0.055,1.421-0.275
	c0.287-0.195,0.597-0.619,0.628-1.068v-3.502v-22.461c-0.028-0.475-0.318-0.879-0.599-1.078c-0.464-0.33-0.637-0.297-1.4-0.297
	h-24.136c-0.547,0-1.246-0.072-1.636,0.113c-0.41,0.195-0.648,0.443-0.831,0.867c-0.039,0.094-0.066,0.207-0.084,0.33v1.336v24.137
	c0,0.814,0.06,1.33,0.816,1.734c0.26,0.141,0.35,0.17,0.733,0.166C319.87,183.837,324.469,183.864,329.057,183.864"/>
<path fill-rule="evenodd" clip-rule="evenodd" fill="#FFFFFF" d="M483.28,162.794c0,0.371-0.004,0.814,0.049,1.164l0.095,0.596
	c-2.263-0.188-3.208-0.377-5.287-1.063c-0.311-0.104-0.637-0.225-0.921-0.35c-0.301-0.133-0.58-0.248-0.877-0.396
	c-0.149-0.074-0.278-0.139-0.421-0.211c-0.705-0.352-1.356-0.762-2.009-1.193c-0.142-0.096-0.24-0.166-0.376-0.262
	c-0.527-0.363-1.316-0.988-1.752-1.422l-1.869-1.971c-0.679,1.285-0.895,2.035-0.895,3.551c0,1.197,0.388,2.156,0.914,3.127
	c0.225,0.412,0.553,0.83,0.869,1.15c0.377,0.381,0.647,0.613,1.075,0.945c-0.802,0-1.573-0.215-2.261-0.512l-0.656-0.297
	c0,1.381,0.284,2.387,0.919,3.439c0.356,0.592,0.773,1.168,1.32,1.594c0.079,0.063,0.111,0.104,0.186,0.162
	c0.074,0.057,0.131,0.104,0.211,0.164c0.806,0.602,1.567,0.896,2.533,1.162c-0.032,0.021,0.017,0.002-0.06,0.027l-0.235,0.053
	c-0.129,0.025-0.218,0.047-0.343,0.064c-0.119,0.016-0.227,0.027-0.355,0.047c-0.278,0.039-0.855,0.039-1.142,0.01l-0.724-0.086
	c0.041,0.498,0.807,1.754,1.162,2.158c0.19,0.219,0.259,0.303,0.475,0.504c0.182,0.166,0.335,0.338,0.524,0.488
	c0.485,0.387,1.069,0.727,1.683,0.975c0.752,0.299,1.427,0.393,2.219,0.465c-0.054,0.08-0.27,0.223-0.367,0.297
	c-1.149,0.865-2.644,1.549-4.039,1.963c-0.342,0.102-0.701,0.195-1.066,0.262c-0.526,0.076-2.453,0.283-3.103,0.248l-1.067-0.086
	c0.1,0.148,0.762,0.506,0.953,0.605l1.299,0.664c1.18,0.598,3.382,1.273,4.524,1.422l2.896,0.279h1.246
	c1.269-0.049,2.682-0.238,3.715-0.494c1.187-0.297,2.365-0.682,3.459-1.188c1.032-0.479,1.978-1.068,2.908-1.711
	c0.284-0.195,0.563-0.396,0.818-0.625l0.466-0.4c0.523-0.422,1.028-0.945,1.469-1.445l1.056-1.256
	c0.415-0.557,0.809-1.119,1.166-1.719c0.594-1,1.107-2.033,1.527-3.121c0.275-0.715,0.688-1.934,0.809-2.654l0.474-4.172
	c0.013-0.25-0.137-0.664,0.052-0.816c0.258-0.207,0.537-0.379,0.778-0.605l0.968-0.908c0.086-0.09,0.123-0.152,0.216-0.246
	c0.086-0.086,0.126-0.152,0.218-0.244c0.057-0.061,0.057-0.07,0.103-0.129c0.044-0.055,0.08-0.08,0.124-0.135
	c0.28-0.346,0.578-0.699,0.776-1.102c-0.513,0.271-1.126,0.453-1.694,0.617c-0.626,0.18-1.295,0.287-1.945,0.395
	c0.033-0.029-0.01,0.004,0.048-0.041l0.634-0.463c0.09-0.07,0.128-0.123,0.214-0.189c0.639-0.488,1.364-1.557,1.663-2.322
	l0.214-0.592c-0.093,0.023-1.136,0.615-1.41,0.725c-0.978,0.391-1.719,0.629-2.747,0.861c-0.089-0.061-0.34-0.293-0.426-0.381
	c-0.272-0.279-0.601-0.482-0.925-0.691c-0.511-0.328-1.105-0.631-1.727-0.758l-1.427-0.219h-0.712
	c-0.875,0.059-1.815,0.313-2.425,0.617c-0.523,0.262-0.984,0.547-1.428,0.908l-0.788,0.799c-0.662,0.848-1.066,1.521-1.346,2.582
	C483.384,161.778,483.28,162.337,483.28,162.794"/>
<path fill-rule="evenodd" clip-rule="evenodd" fill="#FFFFFF" d="M652.224,155.272c0,0.029-0.006,0.053-0.02,0.08
	c-0.014,0.025-0.02,0.064-0.02,0.117l-5.287,24.15c-0.211,0.975-0.548,1.77-1.007,2.389c-0.461,0.619-1.021,1.098-1.678,1.439
	c-0.657,0.342-1.401,0.578-2.229,0.711c-0.828,0.131-1.717,0.195-2.663,0.195c-0.947,0-1.835-0.064-2.663-0.195
	c-0.831-0.133-1.573-0.369-2.229-0.711c-0.659-0.342-1.217-0.82-1.679-1.439c-0.46-0.619-0.796-1.414-1.005-2.389l-5.289-24.15
	c0-0.053-0.007-0.084-0.021-0.098c-0.013-0.012-0.019-0.047-0.019-0.1c0-0.395,0.224-0.592,0.671-0.592h6.827
	c0.21,0,0.388,0.072,0.533,0.217c0.144,0.146,0.242,0.322,0.295,0.533l4.144,21.822c0.053,0.184,0.1,0.322,0.139,0.414
	c0.038,0.092,0.138,0.139,0.296,0.139s0.262-0.047,0.316-0.139c0.051-0.092,0.104-0.23,0.157-0.414l4.144-21.824
	c0.053-0.209,0.145-0.385,0.275-0.531c0.132-0.145,0.303-0.217,0.513-0.217h6.867C652.013,154.681,652.224,154.878,652.224,155.272"
	/>
<rect x="203.684" y="110.626" fill="#333333" width="91.287" height="0.803"/>
<rect x="522.604" y="168.011" fill-rule="evenodd" clip-rule="evenodd" fill="#FFFFFF" width="77.811" height="3.016"/>
<path fill-rule="evenodd" clip-rule="evenodd" fill="#B4B4B4" d="M245.092,146.22c0.612,0,1.162,0.266,1.544,0.686l5.503-2.775
	c-0.025-0.133-0.04-0.27-0.04-0.41c0-1.152,0.935-2.086,2.088-2.086c1.151,0,2.085,0.934,2.085,2.086s-0.934,2.088-2.085,2.088
	c-0.613,0-1.165-0.264-1.547-0.684l-5.502,2.775c0.025,0.131,0.04,0.268,0.04,0.408c0,0.139-0.015,0.275-0.04,0.408l5.502,2.775
	c0.382-0.422,0.934-0.684,1.547-0.684c1.151,0,2.085,0.934,2.085,2.084c0,1.152-0.934,2.088-2.085,2.088
	c-1.153,0-2.088-0.936-2.088-2.088c0-0.137,0.015-0.275,0.04-0.408l-5.503-2.775c-0.382,0.422-0.932,0.686-1.544,0.686
	c-1.153,0-2.087-0.934-2.087-2.086C243.005,147.153,243.938,146.22,245.092,146.22"/>
<path fill="#FFFFFF" d="M128.504,189.634c0,0.074-0.028,0.141-0.085,0.197s-0.122,0.086-0.196,0.086h-1.972
	c-0.077,0-0.144-0.029-0.2-0.086s-0.085-0.123-0.085-0.197v-0.328c-0.253,0.189-0.559,0.361-0.915,0.512
	c-0.354,0.15-0.795,0.227-1.326,0.227c-0.528,0-0.961-0.09-1.297-0.27c-0.335-0.18-0.6-0.422-0.792-0.723
	c-0.195-0.303-0.329-0.65-0.406-1.043c-0.075-0.393-0.113-0.801-0.113-1.227v-4.807c0-0.076,0.026-0.148,0.079-0.213
	c0.051-0.066,0.121-0.1,0.206-0.1h2.127c0.085,0,0.157,0.033,0.218,0.1c0.063,0.064,0.093,0.137,0.093,0.213v4.807
	c0,0.379,0.058,0.641,0.17,0.787c0.115,0.146,0.351,0.219,0.709,0.219c0.162,0,0.34-0.029,0.532-0.092
	c0.194-0.061,0.372-0.133,0.531-0.219v-5.502c0-0.076,0.026-0.148,0.078-0.213c0.053-0.066,0.122-0.1,0.207-0.1h2.126
	c0.085,0,0.159,0.033,0.22,0.1c0.063,0.064,0.092,0.137,0.092,0.213V189.634z M134.76,185.237c0-0.426-0.069-0.773-0.207-1.043
	c-0.137-0.27-0.404-0.404-0.801-0.404c-0.207,0-0.388,0.004-0.538,0.014c-0.152,0.01-0.293,0.023-0.427,0.043v3.889
	c0.142,0.016,0.295,0.033,0.463,0.047c0.164,0.014,0.331,0.021,0.502,0.021c0.396,0,0.664-0.135,0.801-0.412
	c0.138-0.273,0.207-0.623,0.207-1.049V185.237z M137.481,186.343c0,0.568-0.075,1.078-0.228,1.531
	c-0.151,0.455-0.383,0.842-0.693,1.164c-0.313,0.32-0.703,0.568-1.172,0.744c-0.468,0.176-1.014,0.262-1.637,0.262
	c-0.114,0-0.265-0.01-0.455-0.029c-0.188-0.018-0.358-0.037-0.51-0.057v2.383c0,0.076-0.028,0.145-0.085,0.207
	c-0.058,0.061-0.122,0.092-0.198,0.092h-2.127c-0.076,0-0.146-0.031-0.214-0.092c-0.064-0.063-0.099-0.131-0.099-0.207v-9.998
	c0-0.121,0.031-0.217,0.092-0.281c0.063-0.066,0.201-0.123,0.418-0.172c0.371-0.076,0.83-0.152,1.383-0.232
	c0.555-0.082,1.152-0.121,1.795-0.121c1.173,0,2.087,0.314,2.744,0.943c0.656,0.629,0.985,1.547,0.985,2.758V186.343z
	 M141.537,189.604c0,0.076-0.029,0.146-0.086,0.213s-0.121,0.1-0.197,0.1h-2.143c-0.074,0-0.146-0.033-0.212-0.1
	c-0.065-0.066-0.098-0.137-0.098-0.213v-10.365c0-0.076,0.032-0.143,0.098-0.199c0.066-0.057,0.138-0.086,0.212-0.086h2.143
	c0.076,0,0.141,0.029,0.197,0.086s0.086,0.123,0.086,0.199V189.604z M147.62,185.378c0-0.566-0.085-0.969-0.253-1.205
	c-0.172-0.236-0.422-0.355-0.754-0.355c-0.33,0-0.583,0.119-0.758,0.355s-0.263,0.639-0.263,1.205v0.824
	c0,0.566,0.088,0.971,0.263,1.211s0.428,0.361,0.758,0.361c0.332,0,0.582-0.121,0.754-0.361c0.168-0.24,0.253-0.645,0.253-1.211
	V185.378z M150.329,186.202c0,1.256-0.322,2.211-0.965,2.863s-1.559,0.979-2.751,0.979c-1.189,0-2.109-0.326-2.756-0.979
	c-0.648-0.652-0.974-1.607-0.974-2.863v-0.824c0-1.256,0.325-2.213,0.974-2.865c0.646-0.652,1.566-0.977,2.756-0.977
	c1.192,0,2.108,0.324,2.751,0.977s0.965,1.609,0.965,2.865V186.202z M155.705,186.499h-0.696c-0.358,0-0.614,0.061-0.766,0.184
	c-0.15,0.123-0.227,0.334-0.227,0.639v0.143c0,0.246,0.07,0.41,0.212,0.496c0.143,0.084,0.313,0.129,0.511,0.129
	c0.17,0,0.344-0.023,0.518-0.064c0.177-0.043,0.325-0.094,0.448-0.15V186.499z M158.342,189.634c0,0.074-0.029,0.141-0.086,0.197
	s-0.123,0.086-0.198,0.086h-1.971c-0.075,0-0.143-0.029-0.199-0.086s-0.085-0.123-0.085-0.197v-0.299
	c-0.273,0.199-0.582,0.365-0.922,0.504c-0.34,0.137-0.709,0.205-1.105,0.205c-0.284,0-0.567-0.043-0.85-0.127
	c-0.285-0.086-0.545-0.227-0.781-0.426s-0.427-0.457-0.574-0.781c-0.146-0.32-0.22-0.723-0.22-1.203v-0.172
	c0-0.85,0.314-1.447,0.942-1.793c0.63-0.344,1.534-0.518,2.716-0.518h0.61v-0.412c0-0.17-0.026-0.309-0.079-0.418
	c-0.05-0.109-0.12-0.193-0.205-0.254c-0.085-0.063-0.185-0.104-0.298-0.123c-0.113-0.018-0.231-0.027-0.354-0.027
	c-0.454,0-0.895,0.008-1.326,0.021c-0.43,0.016-0.811,0.039-1.14,0.078h-0.044c-0.179,0-0.27-0.096-0.27-0.283v-1.375
	c0-0.16,0.095-0.275,0.283-0.342c0.114-0.037,0.272-0.076,0.477-0.113c0.203-0.037,0.421-0.072,0.658-0.105
	c0.236-0.033,0.481-0.063,0.737-0.086c0.257-0.023,0.496-0.035,0.724-0.035c0.511,0,0.982,0.049,1.418,0.15
	c0.435,0.098,0.811,0.268,1.127,0.508c0.318,0.242,0.564,0.561,0.745,0.951c0.18,0.393,0.27,0.877,0.27,1.453V189.634z
	 M164.298,183.847c-0.143-0.02-0.295-0.033-0.461-0.043c-0.167-0.01-0.333-0.014-0.504-0.014c-0.396,0-0.667,0.135-0.808,0.404
	c-0.143,0.27-0.214,0.617-0.214,1.043v1.105c0,0.426,0.071,0.775,0.214,1.049c0.141,0.277,0.411,0.412,0.808,0.412
	c0.208,0,0.387-0.008,0.539-0.021c0.151-0.014,0.293-0.031,0.426-0.047V183.847z M167.006,189.235c0,0.123-0.028,0.217-0.085,0.285
	c-0.057,0.066-0.194,0.123-0.411,0.17c-0.369,0.074-0.83,0.152-1.383,0.234c-0.553,0.08-1.15,0.119-1.794,0.119
	c-1.173,0-2.088-0.314-2.744-0.943s-0.985-1.547-0.985-2.758v-1.105c0-0.568,0.075-1.078,0.227-1.531
	c0.152-0.455,0.384-0.842,0.695-1.164c0.313-0.32,0.702-0.568,1.17-0.744c0.469-0.174,1.014-0.262,1.638-0.262
	c0.113,0,0.266,0.012,0.454,0.035c0.189,0.023,0.359,0.045,0.511,0.063v-2.395c0-0.076,0.028-0.143,0.085-0.199
	c0.056-0.057,0.123-0.086,0.198-0.086h2.113c0.074,0,0.147,0.029,0.212,0.086c0.067,0.057,0.1,0.123,0.1,0.199V189.235z
	 M173.146,185.011c0-0.428-0.085-0.76-0.255-0.998c-0.171-0.242-0.435-0.363-0.794-0.363c-0.341,0-0.601,0.121-0.781,0.363
	c-0.18,0.238-0.269,0.57-0.269,0.998v0.041h2.099V185.011z M175.756,186.243c0,0.096-0.028,0.17-0.085,0.227
	s-0.128,0.086-0.213,0.086h-4.41v0.027c0,0.379,0.095,0.678,0.283,0.895s0.543,0.326,1.063,0.326c0.188,0,0.412-0.002,0.667-0.008
	c0.255-0.004,0.511-0.014,0.766-0.027c0.255-0.016,0.496-0.027,0.724-0.033c0.227-0.012,0.406-0.025,0.538-0.045h0.058
	c0.17,0,0.255,0.08,0.255,0.24v1.277c0,0.111-0.02,0.197-0.057,0.254c-0.039,0.059-0.113,0.105-0.228,0.143
	c-0.453,0.15-0.932,0.264-1.432,0.334c-0.501,0.07-1.05,0.105-1.646,0.105c-0.481,0-0.945-0.066-1.39-0.199
	c-0.443-0.131-0.837-0.348-1.177-0.645c-0.341-0.299-0.613-0.68-0.815-1.148c-0.203-0.469-0.305-1.043-0.305-1.723v-0.936
	c0-1.248,0.337-2.205,1.014-2.865c0.676-0.662,1.595-0.992,2.759-0.992c0.624,0,1.162,0.094,1.616,0.283s0.83,0.453,1.128,0.793
	c0.298,0.342,0.519,0.748,0.666,1.223c0.146,0.471,0.22,0.992,0.22,1.559V186.243z M181.569,183.847
	c-0.141-0.02-0.295-0.033-0.46-0.043c-0.166-0.01-0.333-0.014-0.504-0.014c-0.397,0-0.666,0.135-0.809,0.404
	c-0.141,0.27-0.212,0.617-0.212,1.043v1.105c0,0.426,0.071,0.775,0.212,1.049c0.143,0.277,0.411,0.412,0.809,0.412
	c0.209,0,0.389-0.008,0.539-0.021s0.294-0.031,0.425-0.047V183.847z M184.278,189.235c0,0.123-0.028,0.217-0.085,0.285
	c-0.057,0.066-0.193,0.123-0.411,0.17c-0.368,0.074-0.83,0.152-1.383,0.234c-0.553,0.08-1.151,0.119-1.794,0.119
	c-1.173,0-2.087-0.314-2.744-0.943c-0.656-0.629-0.985-1.547-0.985-2.758v-1.105c0-0.568,0.075-1.078,0.227-1.531
	c0.152-0.455,0.383-0.842,0.695-1.164c0.312-0.32,0.701-0.568,1.17-0.744c0.468-0.174,1.015-0.262,1.638-0.262
	c0.114,0,0.266,0.012,0.454,0.035s0.358,0.045,0.51,0.063v-2.395c0-0.076,0.028-0.143,0.086-0.199
	c0.057-0.057,0.123-0.086,0.198-0.086h2.113c0.075,0,0.146,0.029,0.213,0.086c0.064,0.057,0.099,0.123,0.099,0.199V189.235z"/>
</svg>
