<?xml version="1.0" encoding="utf-8"?>
<!-- Generator: Adobe Illustrator 16.0.0, SVG Export Plug-In . SVG Version: 6.00 Build 0)  -->
<!DOCTYPE svg PUBLIC "-//W3C//DTD SVG 1.1//EN" "http://www.w3.org/Graphics/SVG/1.1/DTD/svg11.dtd">
<svg version="1.1" id="Layer_1" xmlns="http://www.w3.org/2000/svg" xmlns:xlink="http://www.w3.org/1999/xlink" x="0px" y="0px"
	 width="57.5px" height="32px" viewBox="0 0 57.5 32" enable-background="new 0 0 57.5 32" xml:space="preserve">
<path fill-rule="evenodd" clip-rule="evenodd" fill="#FFF3D0" d="M9.418,12c-0.567,2.259-1.22,5.126-1.644,8.05
	c1.155,1.327,3.039,3.437,4,4.538c1.154,1.324,1.694,2.184,2.119,2.783c1.881,2.66,4.358,2.305,7.012,0.494
	c4.551-3.117,7.989-5.197,13.461-8.08c3.484-1.922,7.821-1.328,10.109-5.01c0.352-0.564,0.195-1.596-0.524-2.102
	c0.366-0.547,0.171-1.434-0.835-1.977c0.616-0.83-0.603-2.166-1.543-1.842c-0.471-0.102-0.943-0.857-1.471-0.848
	c-1.377,0.021-1.728,0.676-2.522,1.135c-0.712,0.408-1.104,0.291-1.994,0.809c-1.571,0.908-2.421,4.701-3.429,5.322
	c-0.389,0.162-0.865,0.336-1.448,0.541c-4.06,1.438-5.103,1.916-10.874,4.391l-0.444,0.191c-0.191-0.246-0.388-0.518-0.601-0.832
	c-0.721-1.06-6.094-8.974-7.386-10.912C10.454,9.606,9.742,10.711,9.418,12z"/>
</svg>
