<?xml version="1.0" encoding="utf-8"?>
<!-- Generator: Adobe Illustrator 16.0.0, SVG Export Plug-In . SVG Version: 6.00 Build 0)  -->
<!DOCTYPE svg PUBLIC "-//W3C//DTD SVG 1.1//EN" "http://www.w3.org/Graphics/SVG/1.1/DTD/svg11.dtd">
<svg version="1.1" id="Layer_1" xmlns="http://www.w3.org/2000/svg" xmlns:xlink="http://www.w3.org/1999/xlink" x="0px" y="0px"
	 width="400px" height="183.666px" viewBox="0 0 400 183.666" enable-background="new 0 0 400 183.666" xml:space="preserve">
<path fill="#EB642D" d="M103.853,26.654H-9.26v175.679h441V19.666H301.124c0,0-8.598-2.656-12.824-0.328
	c0,0-3.227-14.005-16.56-0.005c0,0-7.105-3.779-13.386,0.61s-6.281,13.39-6.281,13.39l-0.292,3.245c0,0-5.041-2.912-9.374,0.088
	s-5.086,9.69-5.086,9.69l-7.671,3.113l-0.712,4.417l-3.648-0.533l-2.217-1.09h-6.642l-6.358,5.291l0.02,6.803l-4.791,6.938
	l-4.779-1.736l-4.117,3.774L195.74,76l-1.913,1.625L191.073,77l-4.667-2l0.584-1.813l-3.892-1.923c0,0,3.158-8.662-1.398-11.152
	s-6.291-2.252-9.959-0.182l-0.44-5.046l-3.587-3.65c0,0-1.558-11.356-12.933-10.962l-2.019-3.576c0,0-3.564-19.154-20.627-12.092
	c0,0-9.523-15.799-15.46-0.201C116.676,24.402,107.299,21.309,103.853,26.654z"/>
<path fill="#FFFFFF" d="M157.074,51.992c2.137-1.592,4.516-2.162,6.747-1.965c1.359,0.119,2.663,0.525,3.816,1.158
	c1.159,0.639,2.171,1.504,2.945,2.545c0.923,1.236,1.51,2.715,1.61,4.338c2.085-0.762,4.127-0.857,5.951-0.447
	c1.777,0.396,3.349,1.275,4.557,2.49c1.211,1.219,2.057,2.775,2.373,4.52c0.311,1.701,0.119,3.572-0.717,5.479
	c0.802,0.402,1.521,1.039,2.033,1.809c0.487,0.734,0.792,1.596,0.804,2.5c1.257,0.125,2.453,0.414,3.521,0.877
	c1.242,0.537,2.314,1.309,3.11,2.332l0.002-0.002c0.664,0.854,1.121,1.773,1.388,2.713c0.113,0.41,0.193,0.824,0.238,1.24
	c1.233-0.807,2.681-1.225,4.109-1.24c0.869-0.008,1.731,0.131,2.543,0.422c0.82,0.295,1.583,0.746,2.235,1.352
	c1.143,1.063,1.947,2.598,2.127,4.617c0.844,0.061,1.772,0.328,2.626,0.729c1.127,0.531,2.157,1.309,2.729,2.184
	c0.269,0.41,0.462,0.846,0.623,1.295c0.021,0.064,0.044,0.129,0.064,0.193h6.309V92.6h-7.486c-0.105-0.396-0.211-0.791-0.341-1.154
	c-0.119-0.34-0.265-0.666-0.457-0.961c-0.414-0.635-1.205-1.219-2.09-1.635c-0.904-0.424-1.878-0.66-2.624-0.58l-0.841,0.092
	l-0.01-0.852c-0.02-1.932-0.683-3.348-1.677-4.271c-0.499-0.465-1.081-0.807-1.705-1.031c-0.637-0.23-1.321-0.34-2.013-0.334
	c-1.59,0.018-3.2,0.656-4.344,1.885l-0.638,0.686l-0.548-0.758c-0.953-1.313-2.479-2.199-4.186-2.592
	c-1.155-0.268-2.392-0.307-3.584-0.102c-1.181,0.205-2.319,0.652-3.296,1.357c-1.313,0.951-2.34,2.385-2.793,4.348l-1.5-0.344
	c0.544-2.359,1.792-4.094,3.391-5.25c1.174-0.85,2.534-1.387,3.939-1.629c1.392-0.24,2.835-0.193,4.187,0.119
	c1.349,0.311,2.612,0.887,3.654,1.707c-0.033-0.184-0.076-0.365-0.127-0.549c-0.212-0.75-0.579-1.486-1.12-2.18V78.57
	c-0.629-0.811-1.493-1.43-2.504-1.867c-1.118-0.482-2.413-0.746-3.777-0.805l-0.893-0.041l0.17-0.873
	c0.151-0.783-0.067-1.564-0.501-2.217c-0.485-0.73-1.228-1.289-2.007-1.504l-0.927-0.252l0.45-0.848
	c0.979-1.848,1.231-3.656,0.939-5.262c-0.261-1.43-0.954-2.707-1.95-3.709c-1.001-1.006-2.312-1.738-3.802-2.07
	c-1.83-0.412-3.933-0.217-6.068,0.807l-1.219,0.584l0.119-1.346c0.151-1.709-0.359-3.266-1.293-4.52
	c-0.643-0.861-1.484-1.582-2.451-2.111c-0.971-0.533-2.065-0.875-3.209-0.977c-1.877-0.166-3.888,0.318-5.697,1.668L157.074,51.992z
	"/>
<path fill="#FFFFFF" d="M193.527,81.545c-0.302-1.775-0.192-3.574,0.294-5.229c0.466-1.58,1.276-3.031,2.401-4.207
	c1.132-1.182,2.576-2.08,4.302-2.551c1.677-0.455,3.611-0.502,5.769-0.006c0.258-0.787,0.599-1.521,1.012-2.197
	c0.299-0.492,0.637-0.953,1.005-1.379c-0.427-3.275,0.311-6.117,1.765-8.422c1.109-1.756,2.636-3.193,4.378-4.266
	c1.727-1.066,3.675-1.773,5.643-2.078c2.609-0.406,5.266-0.107,7.516,0.998c1.195-2.33,3.223-4.102,5.538-5.057
	c1.147-0.475,2.368-0.748,3.597-0.789c1.244-0.045,2.491,0.146,3.676,0.602c2.113,0.818,4.021,2.465,5.336,5.123
	c1.174-0.398,2.604-0.555,4.008-0.473c1.776,0.104,3.552,0.59,4.767,1.439c0.572,0.4,1.061,0.873,1.508,1.383
	c0.42,0.479,0.802,0.99,1.183,1.498l-1.527,1.133c-0.352-0.471-0.703-0.943-1.086-1.377c-0.354-0.402-0.733-0.773-1.169-1.078
	c-0.923-0.646-2.336-1.02-3.781-1.102c-1.477-0.088-2.949,0.125-3.938,0.652l-0.922,0.492l-0.402-0.971
	c-1.088-2.643-2.78-4.223-4.66-4.945c-0.942-0.365-1.935-0.518-2.922-0.482c-1.001,0.035-2.002,0.262-2.947,0.65
	c-2.171,0.896-4.033,2.658-4.929,4.979l-0.418,1.078l-0.977-0.617c-2.025-1.279-4.604-1.658-7.154-1.26
	c-1.721,0.268-3.427,0.887-4.943,1.822c-1.503,0.926-2.814,2.158-3.763,3.66c-1.023,1.623-1.626,3.568-1.59,5.787
	c0.593-0.424,1.229-0.779,1.904-1.064c2.186-0.924,6.589-0.797,8.881,2.561c-0.978-0.594-1.971-0.996-2.951-1.227
	c-1.835-0.426-3.631-0.246-5.197,0.416c-1.56,0.66-2.893,1.801-3.805,3.299c-0.469,0.77-0.828,1.637-1.048,2.584l-0.229,0.98
	l-0.964-0.285c-2.176-0.639-4.071-0.658-5.658-0.227c-1.38,0.375-2.532,1.092-3.434,2.035c-0.908,0.947-1.564,2.127-1.945,3.424
	c-0.383,1.295-0.486,2.701-0.289,4.1L193.527,81.545z M236.997,60.223c2.022,0.779,3.825,2.439,4.958,5.184l-1.756,0.721
	c-0.911-2.209-2.322-3.527-3.888-4.131c-0.783-0.303-1.608-0.43-2.429-0.4c-0.836,0.029-1.672,0.219-2.461,0.543
	c-1.814,0.748-3.369,2.221-4.115,4.156C227.215,61.566,232.64,58.543,236.997,60.223"/>
<path fill="#FFFFFF" d="M88.6,116.691c-0.062-0.107-0.151-0.182-0.273-0.227c-0.119-0.047-0.246-0.07-0.374-0.07h-0.985l-0.58,3.357
	h-1.021l1.351-7.883H90.3c0.599,0,1.073,0.148,1.424,0.447c0.352,0.299,0.527,0.723,0.527,1.266c0,0.387-0.06,0.744-0.182,1.072
	c-0.12,0.328-0.295,0.617-0.521,0.867c-0.227,0.25-0.501,0.451-0.822,0.602c-0.323,0.15-0.688,0.238-1.096,0.26l1.315,2.293
	c0.092,0.152,0.184,0.248,0.274,0.295c0.089,0.045,0.23,0.066,0.419,0.066l-0.114,0.715c-0.196,0.092-0.371,0.139-0.522,0.139
	c-0.226,0-0.415-0.076-0.566-0.229c-0.15-0.15-0.279-0.314-0.386-0.486L88.6,116.691z M87.125,115.477h2.383
	c0.567,0,0.994-0.162,1.282-0.488c0.286-0.324,0.432-0.756,0.432-1.293c0-0.311-0.099-0.537-0.291-0.682
	c-0.192-0.143-0.471-0.213-0.835-0.213h-2.518L87.125,115.477z M94.963,119.049c0.158,0,0.314-0.025,0.465-0.078
	c0.151-0.053,0.3-0.123,0.443-0.209c0.145-0.088,0.281-0.186,0.414-0.289c0.132-0.107,0.259-0.217,0.38-0.33l0.567-3.211
	c-0.159-0.076-0.313-0.127-0.458-0.154c-0.149-0.025-0.313-0.037-0.496-0.037c-0.468,0-0.855,0.096-1.162,0.289
	c-0.306,0.193-0.548,0.441-0.727,0.748c-0.178,0.305-0.302,0.648-0.374,1.025c-0.072,0.379-0.108,0.758-0.108,1.137
	c0,0.354,0.086,0.627,0.257,0.822C94.334,118.953,94.6,119.049,94.963,119.049 M97.561,118.551c-0.021,0.16-0.033,0.301-0.033,0.43
	s0.013,0.258,0.046,0.393c0.029,0.133,0.068,0.26,0.112,0.379h-1.043c-0.03-0.053-0.056-0.121-0.073-0.209
	c-0.02-0.086-0.03-0.182-0.03-0.289c0-0.076,0.005-0.131,0.013-0.17c-0.273,0.227-0.553,0.418-0.841,0.572
	c-0.287,0.156-0.578,0.234-0.873,0.234c-0.627,0-1.093-0.16-1.395-0.477c-0.303-0.318-0.454-0.785-0.454-1.396
	c0-0.545,0.06-1.064,0.182-1.559c0.12-0.496,0.321-0.934,0.601-1.311c0.28-0.381,0.643-0.682,1.09-0.908
	c0.446-0.229,0.995-0.342,1.645-0.342c0.355,0,0.67,0.035,0.941,0.104c0.271,0.066,0.56,0.17,0.864,0.305L97.561,118.551z
	 M102.078,114.74c-0.242,0-0.512,0.047-0.807,0.146c-0.295,0.098-0.544,0.238-0.749,0.42l-0.782,4.445h-0.975l0.76-4.309
	c0.014-0.076,0.027-0.15,0.033-0.221c0.007-0.074,0.012-0.146,0.012-0.223c0-0.121-0.01-0.238-0.028-0.352
	c-0.02-0.113-0.05-0.223-0.086-0.328l0.977-0.422c0.083,0.197,0.136,0.422,0.159,0.67h0.068c0.196-0.205,0.445-0.367,0.747-0.488
	c0.304-0.121,0.583-0.182,0.841-0.182c0.566,0,1.021,0.15,1.361,0.449c0.34,0.299,0.51,0.709,0.51,1.23
	c0,0.152-0.011,0.307-0.033,0.465l-0.659,3.709h-0.975l0.657-3.721c0.009-0.053,0.014-0.1,0.017-0.146
	c0.005-0.045,0.006-0.09,0.006-0.137c0-0.303-0.09-0.547-0.272-0.732C102.678,114.83,102.417,114.74,102.078,114.74
	 M107.352,111.732l-0.816,4.754h0.476l2.179-2.451h0.999l-2.417,2.779l1.19,1.939c0.062,0.107,0.154,0.184,0.277,0.227
	c0.126,0.047,0.254,0.068,0.381,0.068l-0.112,0.703c-0.098,0.055-0.18,0.09-0.245,0.109c-0.063,0.02-0.139,0.029-0.222,0.029
	c-0.203,0-0.376-0.082-0.521-0.238c-0.144-0.16-0.265-0.318-0.362-0.477l-1.271-2.043h-0.466l-0.441,2.619h-0.977l1.328-7.748
	L107.352,111.732z M110.449,119.752l1.011-5.717h0.976l-1.01,5.717H110.449z M112.197,111.732c0.15,0,0.279,0.051,0.385,0.152
	c0.106,0.104,0.159,0.229,0.159,0.381s-0.053,0.277-0.159,0.381c-0.105,0.102-0.234,0.154-0.385,0.154
	c-0.151,0-0.28-0.053-0.385-0.154c-0.107-0.104-0.16-0.229-0.16-0.381s0.053-0.277,0.16-0.381
	C111.917,111.783,112.045,111.732,112.197,111.732 M116.348,114.74c-0.241,0-0.509,0.047-0.805,0.146
	c-0.295,0.098-0.545,0.238-0.749,0.42l-0.782,4.445h-0.977l0.761-4.309c0.015-0.076,0.026-0.15,0.034-0.221
	c0.007-0.074,0.011-0.146,0.011-0.223c0-0.121-0.009-0.238-0.028-0.352c-0.019-0.113-0.048-0.223-0.085-0.328l0.977-0.422
	c0.082,0.197,0.136,0.422,0.158,0.67h0.067c0.196-0.205,0.446-0.367,0.749-0.488s0.582-0.182,0.84-0.182
	c0.567,0,1.021,0.15,1.361,0.449s0.511,0.709,0.511,1.23c0,0.152-0.011,0.307-0.034,0.465l-0.658,3.709h-0.975l0.657-3.721
	c0.007-0.053,0.013-0.1,0.017-0.146c0.004-0.045,0.006-0.09,0.006-0.137c0-0.303-0.09-0.547-0.271-0.732
	C116.95,114.83,116.689,114.74,116.348,114.74 M121.511,118.914c0.151,0,0.306-0.025,0.465-0.08c0.158-0.053,0.316-0.123,0.47-0.211
	c0.157-0.084,0.304-0.186,0.443-0.295s0.271-0.217,0.392-0.322l0.545-3.098c-0.159-0.059-0.33-0.104-0.512-0.131
	c-0.181-0.025-0.358-0.037-0.533-0.037c-0.461,0-0.845,0.09-1.15,0.275s-0.553,0.428-0.738,0.729
	c-0.184,0.297-0.317,0.637-0.397,1.014c-0.079,0.379-0.119,0.762-0.119,1.146c0,0.316,0.087,0.564,0.262,0.744
	C120.812,118.824,121.103,118.914,121.511,118.914 M121.103,122.09c-0.424,0-0.788-0.051-1.096-0.152s-0.622-0.26-0.947-0.471
	l0.601-0.805c0.258,0.172,0.506,0.299,0.744,0.379s0.527,0.119,0.868,0.119c0.49,0,0.881-0.148,1.168-0.441
	c0.287-0.295,0.473-0.678,0.557-1.148l0.103-0.566c-0.243,0.213-0.517,0.391-0.823,0.533c-0.306,0.143-0.61,0.215-0.914,0.215
	c-0.673,0-1.159-0.162-1.457-0.486c-0.299-0.326-0.448-0.775-0.448-1.352c0-0.551,0.063-1.07,0.192-1.559s0.331-0.912,0.608-1.277
	c0.275-0.361,0.633-0.65,1.071-0.859c0.439-0.213,0.964-0.32,1.576-0.32c0.355,0,0.702,0.033,1.039,0.098
	c0.336,0.063,0.654,0.168,0.957,0.311l-0.917,5.242c-0.069,0.363-0.185,0.699-0.347,1.01c-0.163,0.311-0.367,0.578-0.613,0.807
	c-0.245,0.225-0.53,0.404-0.855,0.533C121.843,122.027,121.488,122.09,121.103,122.09 M128.829,119.752l1.01-5.717h0.975
	l-1.011,5.717H128.829z M130.574,111.732c0.152,0,0.281,0.051,0.388,0.152c0.105,0.104,0.158,0.229,0.158,0.381
	s-0.053,0.277-0.158,0.381c-0.106,0.102-0.235,0.154-0.388,0.154c-0.149,0-0.278-0.053-0.384-0.154
	c-0.106-0.104-0.159-0.229-0.159-0.381s0.053-0.277,0.159-0.381C130.295,111.783,130.424,111.732,130.574,111.732 M134.466,113.898
	c0.361,0,0.711,0.07,1.045,0.211c0.332,0.141,0.597,0.348,0.793,0.617l-0.69,0.58c-0.152-0.205-0.341-0.35-0.568-0.438
	c-0.227-0.086-0.477-0.129-0.749-0.129c-0.136,0-0.282,0.012-0.441,0.037c-0.16,0.027-0.31,0.074-0.449,0.143
	s-0.256,0.158-0.351,0.271c-0.095,0.115-0.143,0.258-0.143,0.432c0,0.152,0.078,0.277,0.233,0.375
	c0.154,0.098,0.348,0.189,0.578,0.271c0.23,0.084,0.48,0.17,0.75,0.256c0.267,0.088,0.518,0.191,0.747,0.313
	c0.23,0.119,0.424,0.264,0.579,0.43s0.232,0.375,0.232,0.625c0,0.379-0.074,0.693-0.222,0.947s-0.342,0.457-0.584,0.611
	c-0.242,0.156-0.518,0.268-0.828,0.336s-0.623,0.104-0.941,0.104c-0.212,0-0.424-0.029-0.636-0.086s-0.414-0.141-0.607-0.25
	c-0.191-0.109-0.368-0.244-0.527-0.402c-0.157-0.16-0.282-0.338-0.374-0.533l0.783-0.443c0.371,0.582,0.892,0.873,1.565,0.873
	c0.158,0,0.322-0.014,0.488-0.045c0.166-0.029,0.318-0.08,0.459-0.152c0.139-0.072,0.254-0.168,0.34-0.289
	c0.087-0.121,0.132-0.271,0.132-0.453c0-0.189-0.075-0.34-0.228-0.449s-0.341-0.205-0.567-0.283
	c-0.229-0.08-0.473-0.156-0.737-0.229c-0.266-0.072-0.511-0.162-0.738-0.275c-0.229-0.115-0.415-0.258-0.566-0.434
	c-0.152-0.172-0.227-0.404-0.227-0.691c0-0.34,0.073-0.627,0.222-0.861c0.146-0.234,0.335-0.426,0.566-0.572
	c0.231-0.148,0.491-0.256,0.782-0.318C133.879,113.932,134.171,113.898,134.466,113.898 M141.751,116.135l-0.466,2.699
	c0.159,0.084,0.331,0.141,0.522,0.17c0.188,0.031,0.377,0.045,0.566,0.045c0.431,0,0.796-0.082,1.096-0.248
	c0.297-0.168,0.54-0.387,0.726-0.664c0.186-0.275,0.318-0.6,0.402-0.969c0.083-0.371,0.125-0.762,0.125-1.17
	c0-0.34-0.099-0.615-0.295-0.828c-0.196-0.211-0.466-0.318-0.806-0.318c-0.416,0-0.788,0.113-1.119,0.34
	C142.176,115.42,141.924,115.734,141.751,116.135 M142,114.783h0.067c0.25-0.248,0.514-0.439,0.795-0.572
	c0.28-0.133,0.582-0.199,0.907-0.199c0.271,0,0.522,0.047,0.749,0.143s0.419,0.225,0.578,0.391s0.283,0.367,0.374,0.596
	c0.091,0.232,0.137,0.486,0.137,0.766c0,0.531-0.057,1.035-0.17,1.516c-0.114,0.48-0.304,0.904-0.568,1.27
	c-0.265,0.367-0.613,0.66-1.048,0.875c-0.436,0.215-0.971,0.324-1.606,0.324c-0.363,0-0.715-0.035-1.056-0.104
	c-0.339-0.068-0.665-0.17-0.975-0.307l1.328-7.477l1.021-0.271L142,114.783z M148.398,119.049c0.16,0,0.314-0.025,0.466-0.078
	s0.299-0.123,0.441-0.209c0.145-0.088,0.283-0.186,0.413-0.289c0.135-0.107,0.261-0.217,0.382-0.33l0.566-3.211
	c-0.157-0.076-0.312-0.127-0.458-0.154c-0.148-0.025-0.313-0.037-0.494-0.037c-0.47,0-0.856,0.096-1.162,0.289
	c-0.308,0.193-0.549,0.441-0.726,0.748c-0.178,0.305-0.304,0.648-0.375,1.025c-0.072,0.379-0.108,0.758-0.108,1.137
	c0,0.354,0.086,0.627,0.256,0.822C147.768,118.953,148.036,119.049,148.398,119.049 M150.997,118.551
	c-0.022,0.16-0.034,0.301-0.034,0.43s0.015,0.258,0.045,0.393c0.031,0.133,0.066,0.26,0.113,0.379h-1.044
	c-0.028-0.053-0.054-0.121-0.073-0.209c-0.018-0.086-0.027-0.182-0.027-0.289c0-0.076,0.003-0.131,0.011-0.17
	c-0.272,0.227-0.553,0.418-0.839,0.572c-0.288,0.156-0.579,0.234-0.874,0.234c-0.628,0-1.093-0.16-1.396-0.477
	c-0.303-0.318-0.453-0.785-0.453-1.396c0-0.545,0.06-1.064,0.18-1.559c0.122-0.496,0.322-0.934,0.603-1.311
	c0.279-0.381,0.643-0.682,1.089-0.908c0.447-0.229,0.995-0.342,1.645-0.342c0.356,0,0.669,0.035,0.942,0.104
	c0.272,0.066,0.56,0.17,0.862,0.305L150.997,118.551z M155.478,113.898c0.363,0,0.71,0.07,1.043,0.211
	c0.334,0.141,0.598,0.348,0.795,0.617l-0.692,0.58c-0.151-0.205-0.341-0.35-0.568-0.438c-0.227-0.086-0.477-0.129-0.747-0.129
	c-0.137,0-0.284,0.012-0.443,0.037c-0.158,0.027-0.308,0.074-0.447,0.143c-0.141,0.068-0.258,0.158-0.352,0.271
	c-0.096,0.115-0.144,0.258-0.144,0.432c0,0.152,0.078,0.277,0.233,0.375c0.154,0.098,0.349,0.189,0.578,0.271
	c0.231,0.084,0.479,0.17,0.75,0.256c0.269,0.088,0.518,0.191,0.747,0.313c0.231,0.119,0.424,0.264,0.578,0.43
	c0.156,0.166,0.235,0.375,0.235,0.625c0,0.379-0.075,0.693-0.223,0.947s-0.343,0.457-0.585,0.611
	c-0.241,0.156-0.517,0.268-0.828,0.336c-0.309,0.068-0.623,0.104-0.94,0.104c-0.212,0-0.424-0.029-0.636-0.086
	s-0.414-0.141-0.606-0.25c-0.193-0.109-0.37-0.244-0.527-0.402c-0.159-0.16-0.284-0.338-0.375-0.533l0.782-0.443
	c0.371,0.582,0.893,0.873,1.566,0.873c0.159,0,0.321-0.014,0.487-0.045c0.166-0.029,0.319-0.08,0.459-0.152
	c0.141-0.072,0.254-0.168,0.341-0.289c0.088-0.121,0.131-0.271,0.131-0.453c0-0.189-0.076-0.34-0.229-0.449
	c-0.149-0.109-0.34-0.205-0.565-0.283c-0.227-0.08-0.474-0.156-0.739-0.229c-0.264-0.072-0.509-0.162-0.737-0.275
	c-0.226-0.115-0.415-0.258-0.566-0.434c-0.15-0.172-0.229-0.404-0.229-0.691c0-0.34,0.075-0.627,0.224-0.861
	c0.147-0.234,0.336-0.426,0.566-0.572c0.231-0.148,0.493-0.256,0.783-0.318C154.889,113.932,155.183,113.898,155.478,113.898
	 M163.351,115.568c0,0.385-0.08,0.695-0.238,0.934c-0.161,0.238-0.367,0.428-0.625,0.563c-0.256,0.137-0.541,0.232-0.855,0.289
	c-0.314,0.059-0.627,0.096-0.937,0.119l-1.76,0.113v0.16c0,0.24,0.046,0.445,0.132,0.611c0.087,0.166,0.199,0.301,0.335,0.404
	c0.136,0.1,0.294,0.176,0.471,0.219c0.179,0.047,0.356,0.068,0.539,0.068c0.31,0,0.595-0.063,0.856-0.188
	c0.261-0.123,0.498-0.295,0.709-0.516l0.794,0.352c-0.302,0.387-0.673,0.682-1.112,0.887c-0.438,0.203-0.904,0.307-1.395,0.307
	c-0.688,0-1.24-0.176-1.656-0.523c-0.417-0.348-0.624-0.893-0.624-1.633c0-0.492,0.07-0.969,0.21-1.43
	c0.141-0.461,0.348-0.869,0.622-1.227c0.277-0.354,0.626-0.641,1.046-0.855c0.419-0.215,0.909-0.324,1.469-0.324
	c0.674,0,1.178,0.16,1.514,0.477C163.182,114.693,163.351,115.092,163.351,115.568 M160.844,116.635
	c0.166-0.01,0.342-0.031,0.526-0.068c0.186-0.039,0.355-0.1,0.511-0.184c0.155-0.082,0.281-0.191,0.38-0.328
	c0.098-0.137,0.148-0.311,0.148-0.521c0-0.219-0.105-0.408-0.317-0.563s-0.52-0.23-0.92-0.23c-0.286,0-0.548,0.053-0.782,0.162
	c-0.234,0.111-0.443,0.256-0.626,0.438c-0.182,0.182-0.331,0.395-0.451,0.635c-0.122,0.242-0.21,0.5-0.262,0.771L160.844,116.635z
	 M168.523,114.863c-0.332-0.113-0.684-0.17-1.055-0.17c-0.469,0-0.86,0.09-1.173,0.266c-0.314,0.18-0.565,0.414-0.755,0.709
	s-0.325,0.633-0.408,1.01c-0.084,0.381-0.125,0.77-0.125,1.17c0,0.34,0.097,0.625,0.288,0.857c0.193,0.229,0.472,0.344,0.835,0.344
	c0.159,0,0.32-0.025,0.48-0.078c0.163-0.053,0.324-0.123,0.483-0.209c0.159-0.088,0.311-0.186,0.454-0.289
	c0.145-0.107,0.275-0.217,0.397-0.33L168.523,114.863z M168.694,114.047l0.034-0.283l0.307-1.76l1.021-0.271l-1.192,6.715
	c-0.014,0.107-0.025,0.203-0.032,0.285c-0.008,0.082-0.013,0.166-0.013,0.248c0,0.129,0.016,0.258,0.045,0.393
	c0.031,0.133,0.065,0.26,0.104,0.379h-1.044c-0.03-0.059-0.053-0.139-0.067-0.238c-0.016-0.098-0.022-0.191-0.022-0.281v-0.076
	c0-0.025,0.003-0.051,0.011-0.072c-0.272,0.227-0.567,0.418-0.885,0.572c-0.317,0.156-0.643,0.234-0.977,0.234
	c-0.611,0-1.081-0.176-1.406-0.523c-0.324-0.348-0.488-0.828-0.488-1.441c0-0.529,0.063-1.037,0.188-1.525
	c0.126-0.488,0.328-0.92,0.607-1.299c0.28-0.377,0.643-0.68,1.089-0.908c0.446-0.225,0.987-0.338,1.622-0.338
	c0.189,0,0.372,0.018,0.551,0.057c0.177,0.037,0.346,0.082,0.504,0.135H168.694z M178.507,116.168c0-0.453-0.145-0.805-0.431-1.055
	c-0.287-0.25-0.658-0.373-1.112-0.373c-0.408,0-0.756,0.086-1.043,0.26c-0.288,0.174-0.525,0.396-0.709,0.668
	c-0.186,0.273-0.322,0.58-0.408,0.92c-0.088,0.342-0.131,0.674-0.131,0.998c0,0.492,0.131,0.859,0.391,1.1
	c0.261,0.242,0.642,0.363,1.142,0.363c0.392,0,0.732-0.084,1.021-0.254c0.286-0.172,0.524-0.391,0.715-0.664
	c0.188-0.273,0.33-0.58,0.425-0.926C178.459,116.863,178.507,116.516,178.507,116.168 M176.046,119.891
	c-0.318,0-0.614-0.049-0.885-0.143c-0.274-0.094-0.512-0.234-0.71-0.414c-0.2-0.182-0.355-0.4-0.465-0.658s-0.165-0.545-0.165-0.861
	c0-0.477,0.063-0.951,0.188-1.42c0.124-0.469,0.321-0.887,0.59-1.254s0.609-0.664,1.021-0.896c0.412-0.229,0.904-0.346,1.479-0.346
	c0.334,0,0.638,0.051,0.914,0.154c0.276,0.102,0.514,0.25,0.713,0.441c0.202,0.193,0.358,0.424,0.473,0.693
	c0.113,0.268,0.17,0.564,0.17,0.891c0,0.49-0.076,0.965-0.229,1.422c-0.149,0.459-0.367,0.863-0.65,1.215
	c-0.284,0.352-0.632,0.637-1.045,0.852C177.035,119.781,176.568,119.891,176.046,119.891 M183.34,114.74
	c-0.241,0-0.51,0.047-0.805,0.146c-0.295,0.098-0.546,0.238-0.749,0.42l-0.783,4.445h-0.976l0.76-4.309
	c0.016-0.076,0.026-0.15,0.035-0.221c0.007-0.074,0.011-0.146,0.011-0.223c0-0.121-0.01-0.238-0.029-0.352
	c-0.018-0.113-0.047-0.223-0.084-0.328l0.977-0.422c0.081,0.197,0.135,0.422,0.157,0.67h0.068c0.196-0.205,0.445-0.367,0.749-0.488
	c0.302-0.121,0.582-0.182,0.839-0.182c0.568,0,1.021,0.15,1.361,0.449s0.511,0.709,0.511,1.23c0,0.152-0.012,0.307-0.034,0.465
	l-0.657,3.709h-0.976l0.658-3.721c0.007-0.053,0.013-0.1,0.017-0.146c0.004-0.045,0.005-0.09,0.005-0.137
	c0-0.303-0.09-0.547-0.271-0.732C183.941,114.83,183.681,114.74,183.34,114.74 M190.614,114.797h-0.648l0.126-0.762h0.646
	l0.217-1.225l1.031-0.273l-0.272,1.498h1.044l-0.363,0.762h-0.806l-0.634,3.572c-0.018,0.076-0.023,0.133-0.023,0.17
	c0,0.342,0.2,0.51,0.601,0.51h0.42l-0.125,0.717c-0.113,0.037-0.222,0.066-0.324,0.09c-0.101,0.021-0.213,0.035-0.334,0.035
	c-0.362,0-0.656-0.115-0.879-0.348c-0.224-0.23-0.335-0.527-0.335-0.891v-0.143c0-0.047,0.008-0.096,0.023-0.141L190.614,114.797z
	 M196.568,114.035c0.538,0,0.962,0.152,1.271,0.459c0.311,0.307,0.466,0.723,0.466,1.242c0,0.139-0.013,0.283-0.035,0.443
	l-0.636,3.572h-0.975l0.658-3.697c0.007-0.061,0.014-0.115,0.017-0.164c0.004-0.051,0.005-0.096,0.005-0.143
	c0-0.285-0.087-0.504-0.26-0.65c-0.175-0.148-0.404-0.223-0.692-0.223c-0.409,0-0.768,0.1-1.077,0.301
	c-0.311,0.201-0.553,0.504-0.728,0.912l-0.646,3.664h-0.977l1.373-7.748l1.021-0.271l-0.533,3.008
	c0.265-0.268,0.539-0.449,0.823-0.553C195.925,114.086,196.236,114.035,196.568,114.035 M204.553,115.568
	c0,0.385-0.077,0.695-0.237,0.934c-0.158,0.238-0.366,0.428-0.622,0.563c-0.258,0.137-0.543,0.232-0.857,0.289
	c-0.314,0.059-0.626,0.096-0.937,0.119l-1.759,0.113v0.16c0,0.24,0.045,0.445,0.132,0.611s0.198,0.301,0.334,0.404
	c0.137,0.1,0.293,0.176,0.471,0.219c0.179,0.047,0.357,0.068,0.539,0.068c0.312,0,0.597-0.063,0.856-0.188
	c0.261-0.123,0.497-0.295,0.71-0.516l0.793,0.352c-0.302,0.387-0.673,0.682-1.11,0.887c-0.439,0.203-0.904,0.307-1.396,0.307
	c-0.688,0-1.24-0.176-1.656-0.523c-0.417-0.348-0.624-0.893-0.624-1.633c0-0.492,0.07-0.969,0.21-1.43s0.348-0.869,0.623-1.227
	c0.277-0.354,0.624-0.641,1.045-0.855c0.419-0.215,0.909-0.324,1.469-0.324c0.673,0,1.179,0.16,1.516,0.477
	C204.387,114.693,204.553,115.092,204.553,115.568 M202.048,116.635c0.166-0.01,0.342-0.031,0.527-0.068
	c0.186-0.039,0.354-0.1,0.51-0.184c0.155-0.082,0.283-0.191,0.381-0.328c0.099-0.137,0.146-0.311,0.146-0.521
	c0-0.219-0.104-0.408-0.316-0.563s-0.519-0.23-0.92-0.23c-0.287,0-0.549,0.053-0.782,0.162c-0.234,0.111-0.442,0.256-0.623,0.438
	c-0.183,0.182-0.334,0.395-0.454,0.635c-0.121,0.242-0.209,0.5-0.261,0.771L202.048,116.635z M209.467,114.797h-0.647l0.127-0.762
	h0.645l0.217-1.225l1.033-0.273l-0.273,1.498h1.045l-0.365,0.762h-0.804l-0.636,3.572c-0.016,0.076-0.022,0.133-0.022,0.17
	c0,0.342,0.199,0.51,0.601,0.51h0.42l-0.125,0.717c-0.113,0.037-0.223,0.066-0.323,0.09c-0.102,0.021-0.214,0.035-0.334,0.035
	c-0.363,0-0.656-0.115-0.88-0.348c-0.223-0.23-0.336-0.527-0.336-0.891v-0.143c0-0.047,0.01-0.096,0.023-0.141L209.467,114.797z
	 M216.638,116.168c0-0.453-0.145-0.805-0.433-1.055s-0.659-0.373-1.111-0.373c-0.409,0-0.757,0.086-1.043,0.26
	c-0.288,0.174-0.526,0.396-0.709,0.668c-0.186,0.273-0.321,0.58-0.409,0.92c-0.087,0.342-0.13,0.674-0.13,0.998
	c0,0.492,0.13,0.859,0.391,1.1c0.262,0.242,0.642,0.363,1.142,0.363c0.392,0,0.73-0.084,1.021-0.254
	c0.286-0.172,0.524-0.391,0.714-0.664c0.188-0.273,0.331-0.58,0.426-0.926C216.589,116.863,216.638,116.516,216.638,116.168
	 M214.175,119.891c-0.318,0-0.611-0.049-0.885-0.143c-0.272-0.094-0.508-0.234-0.709-0.414c-0.201-0.182-0.355-0.4-0.467-0.658
	c-0.107-0.258-0.163-0.545-0.163-0.861c0-0.477,0.063-0.951,0.187-1.42c0.125-0.469,0.321-0.887,0.59-1.254
	c0.27-0.367,0.609-0.664,1.021-0.896c0.412-0.229,0.905-0.346,1.481-0.346c0.332,0,0.637,0.051,0.913,0.154
	c0.275,0.102,0.514,0.25,0.714,0.441c0.201,0.193,0.357,0.424,0.471,0.693c0.114,0.268,0.171,0.564,0.171,0.891
	c0,0.49-0.076,0.965-0.228,1.422c-0.15,0.459-0.368,0.863-0.652,1.215c-0.283,0.352-0.631,0.637-1.042,0.852
	C215.165,119.781,214.698,119.891,214.175,119.891 M219.077,114.797h-0.646l0.124-0.762h0.647l0.216-1.225l1.031-0.273l-0.272,1.498
	h1.043l-0.36,0.762h-0.808l-0.634,3.572c-0.016,0.076-0.023,0.133-0.023,0.17c0,0.342,0.2,0.51,0.601,0.51h0.42l-0.125,0.717
	c-0.113,0.037-0.22,0.066-0.322,0.09c-0.103,0.021-0.214,0.035-0.335,0.035c-0.363,0-0.655-0.115-0.88-0.348
	c-0.223-0.23-0.333-0.527-0.333-0.891v-0.143c0-0.047,0.006-0.096,0.021-0.141L219.077,114.797z M223.579,119.049
	c0.161,0,0.316-0.025,0.467-0.078c0.151-0.053,0.298-0.123,0.442-0.209c0.144-0.088,0.282-0.186,0.414-0.289
	c0.133-0.107,0.259-0.217,0.381-0.33l0.566-3.211c-0.158-0.076-0.313-0.127-0.459-0.154c-0.148-0.025-0.313-0.037-0.494-0.037
	c-0.468,0-0.855,0.096-1.162,0.289c-0.308,0.193-0.55,0.441-0.727,0.748c-0.178,0.305-0.303,0.648-0.376,1.025
	c-0.07,0.379-0.106,0.758-0.106,1.137c0,0.354,0.086,0.627,0.255,0.822C222.951,118.953,223.217,119.049,223.579,119.049
	 M226.177,118.551c-0.022,0.16-0.033,0.301-0.033,0.43s0.015,0.258,0.045,0.393c0.031,0.133,0.068,0.26,0.114,0.379h-1.044
	c-0.031-0.053-0.055-0.121-0.074-0.209c-0.02-0.086-0.027-0.182-0.027-0.289c0-0.076,0.003-0.131,0.011-0.17
	c-0.272,0.227-0.552,0.418-0.841,0.572c-0.286,0.156-0.577,0.234-0.872,0.234c-0.629,0-1.093-0.16-1.396-0.477
	c-0.303-0.318-0.453-0.785-0.453-1.396c0-0.545,0.06-1.064,0.18-1.559c0.122-0.496,0.323-0.934,0.602-1.311
	c0.281-0.381,0.644-0.682,1.09-0.908c0.447-0.229,0.994-0.342,1.645-0.342c0.356,0,0.67,0.035,0.94,0.104
	c0.273,0.066,0.562,0.17,0.864,0.305L226.177,118.551z M228.628,112.004l1.021-0.271l-1.169,6.637
	c-0.008,0.037-0.011,0.068-0.011,0.098v0.084c0,0.332,0.199,0.498,0.6,0.498h0.58l-0.126,0.703
	c-0.127,0.039-0.265,0.072-0.408,0.098c-0.143,0.025-0.28,0.041-0.408,0.041c-0.386,0-0.686-0.123-0.902-0.363
	c-0.214-0.242-0.323-0.541-0.323-0.898c0-0.043,0.002-0.09,0.007-0.135c0.004-0.047,0.009-0.09,0.017-0.137L228.628,112.004z"/>
<path fill="#FFFFFF" d="M234.687,112.006l1.021-0.273l-1.169,6.637c-0.007,0.037-0.011,0.068-0.011,0.098v0.084
	c0,0.332,0.2,0.498,0.6,0.498h0.58l-0.124,0.703c-0.129,0.039-0.265,0.072-0.409,0.098c-0.144,0.025-0.279,0.041-0.408,0.041
	c-0.386,0-0.688-0.123-0.901-0.363c-0.217-0.242-0.326-0.541-0.326-0.898c0-0.043,0.003-0.09,0.009-0.135
	c0.003-0.047,0.008-0.09,0.017-0.137L234.687,112.006z M236.275,119.752l1.01-5.717h0.976l-1.01,5.717H236.275z M238.022,111.732
	c0.15,0,0.279,0.051,0.386,0.154c0.105,0.102,0.158,0.227,0.158,0.379s-0.053,0.277-0.158,0.381
	c-0.106,0.102-0.235,0.152-0.386,0.152c-0.151,0-0.28-0.051-0.386-0.152c-0.106-0.104-0.159-0.229-0.159-0.381
	s0.053-0.277,0.159-0.379C237.742,111.783,237.871,111.732,238.022,111.732 M241.187,111.732l-0.816,4.754h0.477l2.178-2.451h0.999
	l-2.417,2.779l1.191,1.939c0.061,0.107,0.153,0.184,0.278,0.227c0.124,0.047,0.251,0.068,0.379,0.068l-0.112,0.703
	c-0.1,0.055-0.18,0.09-0.244,0.107c-0.064,0.021-0.139,0.031-0.224,0.031c-0.202,0-0.376-0.082-0.52-0.238
	c-0.144-0.16-0.264-0.318-0.364-0.477l-1.27-2.043h-0.465l-0.442,2.619h-0.977l1.327-7.746L241.187,111.732z M249.742,115.568
	c0,0.385-0.08,0.695-0.238,0.934c-0.159,0.238-0.368,0.428-0.624,0.563c-0.258,0.137-0.543,0.232-0.857,0.289
	c-0.313,0.057-0.626,0.096-0.935,0.119l-1.759,0.113v0.16c0,0.24,0.043,0.445,0.13,0.611s0.198,0.301,0.335,0.404
	c0.136,0.1,0.292,0.176,0.471,0.219c0.178,0.047,0.357,0.068,0.539,0.068c0.311,0,0.596-0.063,0.854-0.188
	c0.263-0.123,0.498-0.295,0.709-0.516l0.796,0.352c-0.303,0.387-0.673,0.682-1.111,0.887c-0.439,0.203-0.904,0.307-1.397,0.307
	c-0.688,0-1.238-0.176-1.655-0.523c-0.415-0.348-0.623-0.893-0.623-1.635c0-0.49,0.069-0.967,0.209-1.428s0.349-0.869,0.625-1.227
	c0.275-0.354,0.622-0.641,1.044-0.855c0.42-0.215,0.908-0.324,1.467-0.324c0.676,0,1.178,0.16,1.517,0.477
	C249.573,114.693,249.742,115.092,249.742,115.568 M247.234,116.635c0.166-0.01,0.342-0.031,0.527-0.068
	c0.186-0.039,0.356-0.1,0.512-0.184c0.153-0.082,0.281-0.191,0.379-0.328c0.099-0.137,0.148-0.311,0.148-0.521
	c0-0.219-0.106-0.408-0.318-0.563s-0.519-0.23-0.918-0.23c-0.289,0-0.551,0.053-0.785,0.162c-0.233,0.111-0.441,0.256-0.622,0.438
	c-0.182,0.182-0.333,0.395-0.454,0.635c-0.121,0.242-0.208,0.5-0.261,0.771L247.234,116.635z M253.382,113.898
	c0.361,0,0.711,0.07,1.045,0.211c0.332,0.141,0.597,0.346,0.793,0.617l-0.692,0.58c-0.15-0.205-0.339-0.348-0.566-0.438
	c-0.227-0.086-0.477-0.129-0.749-0.129c-0.136,0-0.284,0.012-0.441,0.039c-0.16,0.025-0.31,0.072-0.449,0.141
	s-0.258,0.158-0.352,0.273c-0.094,0.113-0.142,0.256-0.142,0.43c0,0.152,0.078,0.277,0.233,0.375
	c0.153,0.098,0.348,0.189,0.577,0.271c0.231,0.084,0.48,0.17,0.749,0.256c0.269,0.09,0.518,0.191,0.749,0.313
	c0.23,0.119,0.424,0.264,0.579,0.43s0.231,0.375,0.231,0.625c0,0.379-0.073,0.693-0.221,0.947c-0.149,0.254-0.342,0.457-0.584,0.611
	c-0.242,0.156-0.519,0.268-0.828,0.336c-0.311,0.068-0.625,0.104-0.941,0.104c-0.212,0-0.424-0.031-0.638-0.086
	c-0.21-0.057-0.412-0.141-0.605-0.25c-0.192-0.109-0.368-0.244-0.527-0.404c-0.159-0.158-0.285-0.336-0.374-0.531l0.783-0.443
	c0.368,0.582,0.892,0.873,1.565,0.873c0.158,0,0.32-0.014,0.488-0.045c0.166-0.031,0.318-0.08,0.458-0.152s0.253-0.168,0.339-0.289
	c0.089-0.121,0.134-0.271,0.134-0.453c0-0.189-0.076-0.34-0.228-0.449c-0.152-0.109-0.341-0.205-0.567-0.283
	c-0.228-0.08-0.473-0.156-0.737-0.229c-0.266-0.072-0.511-0.162-0.738-0.275c-0.226-0.115-0.415-0.258-0.567-0.434
	c-0.151-0.172-0.226-0.404-0.226-0.691c0-0.34,0.073-0.627,0.22-0.861c0.148-0.234,0.337-0.426,0.568-0.572
	c0.231-0.148,0.491-0.256,0.782-0.318C252.794,113.932,253.087,113.898,253.382,113.898 M261.325,119.049
	c0.158,0,0.313-0.025,0.466-0.078c0.15-0.051,0.298-0.123,0.441-0.209c0.143-0.088,0.281-0.186,0.414-0.291s0.258-0.215,0.38-0.328
	l0.567-3.211c-0.159-0.076-0.312-0.127-0.46-0.152c-0.146-0.027-0.312-0.039-0.493-0.039c-0.469,0-0.855,0.096-1.163,0.289
	c-0.306,0.191-0.548,0.441-0.726,0.748c-0.179,0.305-0.303,0.648-0.374,1.025c-0.071,0.379-0.107,0.758-0.107,1.137
	c0,0.354,0.084,0.627,0.255,0.822C260.695,118.953,260.959,119.049,261.325,119.049 M263.921,118.551
	c-0.021,0.158-0.033,0.301-0.033,0.43s0.016,0.26,0.046,0.393c0.03,0.131,0.067,0.26,0.113,0.379h-1.044
	c-0.03-0.053-0.056-0.121-0.073-0.209c-0.021-0.086-0.029-0.182-0.029-0.289c0-0.076,0.003-0.133,0.013-0.17
	c-0.273,0.227-0.553,0.418-0.842,0.572c-0.287,0.156-0.578,0.234-0.871,0.234c-0.629,0-1.095-0.16-1.396-0.477
	c-0.303-0.318-0.454-0.785-0.454-1.396c0-0.545,0.061-1.064,0.182-1.559c0.12-0.496,0.321-0.934,0.6-1.311
	c0.281-0.381,0.644-0.682,1.091-0.908c0.446-0.227,0.994-0.342,1.646-0.342c0.354,0,0.669,0.035,0.941,0.104
	c0.271,0.068,0.56,0.17,0.861,0.305L263.921,118.551z M270.105,119.752l-1.156-5.58l0.918-0.273l0.749,3.482l0.136,1.238
	l0.579-1.225l1.895-3.496l0.828,0.273l-3.04,5.58H270.105z M274.269,119.752l1.01-5.717h0.974l-1.008,5.717H274.269z
	 M276.015,111.732c0.151,0,0.28,0.051,0.387,0.154c0.105,0.102,0.159,0.227,0.159,0.379s-0.054,0.277-0.159,0.381
	c-0.106,0.102-0.235,0.152-0.387,0.152c-0.15,0-0.279-0.051-0.385-0.152c-0.106-0.104-0.159-0.229-0.159-0.381
	s0.053-0.277,0.159-0.379C275.736,111.783,275.865,111.732,276.015,111.732 M281.439,114.863c-0.332-0.113-0.685-0.17-1.056-0.17
	c-0.468,0-0.859,0.09-1.174,0.266c-0.313,0.18-0.565,0.414-0.754,0.709s-0.325,0.633-0.408,1.01c-0.085,0.381-0.125,0.77-0.125,1.17
	c0,0.34,0.096,0.625,0.287,0.857c0.195,0.229,0.474,0.344,0.836,0.344c0.158,0,0.319-0.025,0.482-0.078
	c0.16-0.051,0.322-0.123,0.481-0.209c0.159-0.088,0.311-0.186,0.453-0.291c0.145-0.105,0.277-0.215,0.397-0.328L281.439,114.863z
	 M281.609,114.047l0.035-0.283l0.306-1.758l1.021-0.273l-1.19,6.715c-0.016,0.107-0.028,0.201-0.035,0.285
	c-0.007,0.082-0.011,0.166-0.011,0.248c0,0.129,0.014,0.26,0.046,0.393c0.03,0.131,0.063,0.26,0.103,0.379h-1.045
	c-0.031-0.059-0.053-0.139-0.068-0.238c-0.015-0.098-0.022-0.191-0.022-0.281v-0.076c0-0.025,0.003-0.051,0.011-0.072
	c-0.271,0.227-0.566,0.418-0.884,0.572c-0.318,0.156-0.644,0.234-0.976,0.234c-0.612,0-1.082-0.176-1.407-0.523
	s-0.487-0.828-0.487-1.441c0-0.529,0.062-1.037,0.187-1.525s0.327-0.92,0.606-1.299c0.28-0.377,0.645-0.68,1.09-0.908
	c0.445-0.225,0.987-0.338,1.62-0.338c0.191,0,0.374,0.018,0.553,0.057c0.178,0.037,0.347,0.082,0.505,0.135H281.609z
	 M288.689,115.568c0,0.385-0.082,0.695-0.238,0.934c-0.159,0.238-0.367,0.428-0.625,0.563c-0.258,0.137-0.543,0.232-0.855,0.289
	c-0.314,0.057-0.626,0.096-0.937,0.119l-1.759,0.113v0.16c0,0.24,0.045,0.445,0.13,0.611c0.088,0.166,0.2,0.301,0.336,0.404
	c0.136,0.1,0.293,0.176,0.471,0.219c0.177,0.047,0.357,0.068,0.538,0.068c0.311,0,0.596-0.063,0.857-0.188
	c0.261-0.123,0.497-0.295,0.709-0.516l0.794,0.352c-0.302,0.387-0.673,0.682-1.112,0.887c-0.439,0.203-0.902,0.307-1.396,0.307
	c-0.688,0-1.239-0.176-1.656-0.523c-0.416-0.348-0.624-0.893-0.624-1.635c0-0.49,0.069-0.967,0.211-1.428
	c0.14-0.461,0.346-0.869,0.623-1.227c0.277-0.354,0.623-0.641,1.044-0.855c0.42-0.215,0.909-0.324,1.469-0.324
	c0.674,0,1.178,0.16,1.515,0.477C288.52,114.693,288.689,115.092,288.689,115.568 M286.179,116.635
	c0.169-0.01,0.345-0.031,0.529-0.068c0.184-0.039,0.355-0.1,0.511-0.184c0.155-0.082,0.281-0.191,0.378-0.328
	c0.1-0.137,0.149-0.311,0.149-0.521c0-0.219-0.106-0.408-0.319-0.563c-0.211-0.154-0.517-0.23-0.917-0.23
	c-0.288,0-0.549,0.053-0.782,0.162c-0.234,0.111-0.443,0.256-0.625,0.438s-0.332,0.395-0.454,0.635
	c-0.12,0.242-0.208,0.5-0.261,0.771L286.179,116.635z M294.02,116.168c0-0.453-0.144-0.805-0.431-1.055
	c-0.288-0.25-0.659-0.373-1.111-0.373c-0.409,0-0.757,0.086-1.045,0.26c-0.286,0.174-0.523,0.396-0.709,0.668
	c-0.186,0.273-0.321,0.58-0.408,0.92c-0.088,0.342-0.13,0.674-0.13,0.998c0,0.492,0.13,0.859,0.39,1.1
	c0.262,0.242,0.643,0.363,1.142,0.363c0.394,0,0.734-0.084,1.021-0.254c0.288-0.172,0.526-0.391,0.713-0.664
	c0.191-0.273,0.333-0.58,0.427-0.926C293.973,116.863,294.02,116.516,294.02,116.168 M291.558,119.891
	c-0.317,0-0.612-0.049-0.885-0.143c-0.271-0.096-0.509-0.234-0.709-0.414c-0.199-0.184-0.354-0.4-0.466-0.658
	c-0.109-0.258-0.163-0.545-0.163-0.861c0-0.477,0.063-0.951,0.187-1.42c0.125-0.469,0.321-0.887,0.59-1.254
	c0.268-0.367,0.608-0.664,1.021-0.896c0.412-0.229,0.905-0.346,1.479-0.346c0.333,0,0.638,0.051,0.913,0.154
	c0.275,0.102,0.516,0.25,0.716,0.441c0.199,0.193,0.357,0.424,0.47,0.693c0.113,0.268,0.172,0.564,0.172,0.891
	c0,0.49-0.076,0.965-0.228,1.422c-0.152,0.459-0.371,0.863-0.653,1.215s-0.632,0.637-1.043,0.852
	C292.546,119.781,292.08,119.891,291.558,119.891 M301.157,118.914c0.15,0,0.306-0.027,0.465-0.08
	c0.157-0.053,0.316-0.123,0.472-0.211c0.154-0.084,0.302-0.186,0.441-0.295s0.27-0.217,0.392-0.322l0.544-3.098
	c-0.159-0.059-0.328-0.104-0.511-0.129c-0.182-0.027-0.358-0.039-0.533-0.039c-0.461,0-0.845,0.09-1.15,0.275
	c-0.307,0.186-0.554,0.428-0.738,0.729c-0.185,0.297-0.317,0.637-0.397,1.014c-0.079,0.379-0.118,0.762-0.118,1.146
	c0,0.316,0.086,0.564,0.261,0.744C300.458,118.824,300.748,118.914,301.157,118.914 M300.748,122.09
	c-0.424,0-0.787-0.051-1.097-0.152c-0.305-0.102-0.62-0.26-0.945-0.471l0.601-0.805c0.258,0.172,0.506,0.299,0.744,0.379
	s0.527,0.119,0.868,0.119c0.491,0,0.881-0.146,1.169-0.441c0.285-0.295,0.472-0.678,0.555-1.148l0.103-0.566
	c-0.242,0.213-0.517,0.391-0.822,0.533s-0.61,0.215-0.914,0.215c-0.673,0-1.159-0.162-1.457-0.486
	c-0.299-0.326-0.448-0.775-0.448-1.352c0-0.551,0.064-1.07,0.192-1.559c0.127-0.488,0.331-0.912,0.607-1.277
	c0.276-0.361,0.634-0.65,1.072-0.861c0.439-0.211,0.964-0.318,1.574-0.318c0.357,0,0.704,0.033,1.04,0.098
	c0.337,0.063,0.657,0.168,0.959,0.311l-0.918,5.242c-0.069,0.363-0.185,0.699-0.347,1.01c-0.163,0.311-0.367,0.578-0.612,0.807
	c-0.246,0.225-0.531,0.404-0.857,0.533C301.489,122.027,301.134,122.09,300.748,122.09 M310.527,115.568
	c0,0.385-0.079,0.695-0.24,0.934c-0.156,0.238-0.364,0.428-0.621,0.563c-0.258,0.137-0.543,0.232-0.857,0.289
	c-0.313,0.057-0.626,0.096-0.935,0.119l-1.759,0.113v0.16c0,0.24,0.041,0.445,0.13,0.611s0.198,0.301,0.335,0.404
	c0.136,0.1,0.291,0.176,0.471,0.219c0.178,0.047,0.357,0.068,0.539,0.068c0.311,0,0.596-0.063,0.855-0.188
	c0.262-0.123,0.497-0.295,0.709-0.516l0.794,0.352c-0.302,0.387-0.672,0.682-1.11,0.887c-0.439,0.203-0.906,0.307-1.396,0.307
	c-0.689,0-1.239-0.176-1.656-0.523c-0.415-0.348-0.623-0.893-0.623-1.635c0-0.49,0.069-0.967,0.209-1.428s0.348-0.869,0.625-1.227
	c0.275-0.354,0.623-0.641,1.044-0.855c0.418-0.215,0.908-0.324,1.468-0.324c0.673,0,1.179,0.16,1.516,0.477
	C310.359,114.693,310.527,115.092,310.527,115.568 M308.02,116.635c0.166-0.01,0.342-0.031,0.527-0.068
	c0.186-0.039,0.356-0.1,0.511-0.184c0.155-0.082,0.281-0.191,0.38-0.328s0.146-0.311,0.146-0.521c0-0.219-0.104-0.408-0.316-0.563
	s-0.519-0.23-0.919-0.23c-0.287,0-0.548,0.053-0.783,0.162c-0.234,0.111-0.441,0.256-0.623,0.438s-0.333,0.395-0.455,0.635
	c-0.12,0.242-0.207,0.5-0.26,0.771L308.02,116.635z M312.037,114.797h-0.647l0.125-0.762h0.646l0.216-1.225l1.032-0.273
	l-0.272,1.498h1.044l-0.363,0.762h-0.806l-0.635,3.572c-0.017,0.076-0.023,0.135-0.023,0.17c0,0.342,0.201,0.51,0.6,0.51h0.421
	l-0.124,0.717c-0.113,0.037-0.222,0.066-0.323,0.09c-0.103,0.021-0.212,0.035-0.335,0.035c-0.362,0-0.655-0.117-0.879-0.348
	s-0.334-0.527-0.334-0.891v-0.143c0-0.047,0.007-0.096,0.021-0.141L312.037,114.797z M317.515,113.898
	c0.363,0,0.711,0.07,1.044,0.211c0.332,0.141,0.595,0.346,0.795,0.617l-0.692,0.58c-0.152-0.205-0.341-0.348-0.568-0.438
	c-0.227-0.086-0.477-0.129-0.748-0.129c-0.138,0-0.283,0.012-0.442,0.039c-0.158,0.025-0.308,0.072-0.449,0.141
	c-0.14,0.068-0.256,0.158-0.352,0.273c-0.094,0.113-0.143,0.256-0.143,0.43c0,0.152,0.079,0.277,0.234,0.375
	s0.348,0.189,0.578,0.271c0.23,0.084,0.481,0.17,0.75,0.256c0.267,0.09,0.517,0.191,0.746,0.313c0.232,0.119,0.425,0.264,0.58,0.43
	s0.232,0.375,0.232,0.625c0,0.379-0.073,0.693-0.223,0.947c-0.146,0.254-0.341,0.457-0.584,0.611
	c-0.241,0.156-0.517,0.268-0.828,0.336c-0.31,0.068-0.622,0.104-0.94,0.104c-0.212,0-0.423-0.031-0.636-0.086
	c-0.211-0.057-0.413-0.141-0.606-0.25s-0.369-0.244-0.528-0.404c-0.157-0.158-0.282-0.336-0.374-0.531l0.783-0.443
	c0.371,0.582,0.893,0.873,1.566,0.873c0.159,0,0.319-0.014,0.487-0.045c0.166-0.031,0.319-0.08,0.46-0.152
	c0.14-0.072,0.252-0.168,0.339-0.289s0.132-0.271,0.132-0.453c0-0.189-0.076-0.34-0.228-0.449c-0.15-0.109-0.342-0.205-0.567-0.283
	c-0.226-0.08-0.473-0.156-0.737-0.229s-0.511-0.162-0.737-0.275c-0.227-0.115-0.416-0.258-0.567-0.434
	c-0.15-0.172-0.227-0.404-0.227-0.691c0-0.34,0.073-0.627,0.222-0.861c0.146-0.234,0.336-0.426,0.566-0.572
	c0.229-0.148,0.491-0.256,0.782-0.318C316.927,113.932,317.221,113.898,317.515,113.898 M320.759,118.697
	c0.173,0,0.32,0.057,0.438,0.17c0.116,0.113,0.176,0.258,0.176,0.434c0,0.166-0.06,0.305-0.176,0.418
	c-0.117,0.113-0.265,0.172-0.438,0.172c-0.166,0-0.308-0.059-0.425-0.172c-0.118-0.113-0.175-0.252-0.175-0.418
	c0-0.176,0.057-0.32,0.175-0.434C320.452,118.754,320.593,118.697,320.759,118.697 M69.732,125.492
	c-0.885,1.029-1.564,2.098-2.041,3.205s-0.715,2.289-0.715,3.545c0,0.666,0.084,1.295,0.25,1.889s0.392,1.172,0.68,1.73h-0.84
	c-0.286-0.582-0.523-1.201-0.709-1.855s-0.276-1.326-0.276-2.014c0-0.598,0.069-1.178,0.209-1.746s0.335-1.121,0.585-1.662
	c0.249-0.541,0.547-1.068,0.89-1.582c0.344-0.516,0.721-1.018,1.129-1.51H69.732z M74.089,126.57l-1.226,6.953h-1.021l1.226-6.953
	h-2.633l0.159-0.93h6.273l-0.454,0.93H74.089z M80.079,127.807c0.537,0,0.961,0.152,1.271,0.459s0.465,0.721,0.465,1.242
	c0,0.137-0.011,0.283-0.034,0.443l-0.636,3.572H80.17l0.657-3.697c0.007-0.061,0.014-0.115,0.017-0.164
	c0.005-0.049,0.006-0.096,0.006-0.143c0-0.287-0.086-0.504-0.261-0.652c-0.174-0.148-0.404-0.221-0.692-0.221
	c-0.408,0-0.767,0.1-1.077,0.301s-0.553,0.504-0.726,0.912l-0.646,3.664h-0.977l1.372-7.748l1.022-0.271l-0.533,3.006
	c0.265-0.266,0.538-0.447,0.822-0.551C79.436,127.857,79.747,127.807,80.079,127.807 M88.064,129.338
	c0,0.387-0.078,0.697-0.238,0.936c-0.156,0.238-0.364,0.426-0.622,0.563c-0.257,0.137-0.543,0.232-0.858,0.289
	c-0.312,0.057-0.625,0.096-0.935,0.119l-1.758,0.113v0.16c0,0.24,0.043,0.445,0.13,0.611c0.088,0.166,0.198,0.301,0.336,0.404
	c0.136,0.1,0.292,0.176,0.471,0.219c0.177,0.047,0.357,0.068,0.539,0.068c0.31,0,0.595-0.063,0.855-0.188
	c0.26-0.123,0.497-0.295,0.709-0.516l0.793,0.352c-0.302,0.387-0.671,0.682-1.11,0.887c-0.438,0.203-0.904,0.305-1.396,0.305
	c-0.688,0-1.239-0.174-1.656-0.521c-0.416-0.348-0.623-0.893-0.623-1.635c0-0.49,0.068-0.967,0.209-1.428
	c0.14-0.461,0.348-0.871,0.624-1.227c0.276-0.354,0.623-0.641,1.042-0.855c0.422-0.215,0.911-0.324,1.471-0.324
	c0.673,0,1.178,0.16,1.515,0.477C87.898,128.465,88.064,128.863,88.064,129.338 M85.558,130.404
	c0.167-0.008,0.343-0.029,0.528-0.066c0.186-0.039,0.354-0.1,0.51-0.184c0.155-0.082,0.281-0.191,0.381-0.328
	c0.098-0.135,0.146-0.311,0.146-0.521c0-0.219-0.105-0.408-0.317-0.563s-0.518-0.232-0.919-0.232c-0.287,0-0.549,0.055-0.783,0.164
	c-0.233,0.111-0.441,0.256-0.623,0.438c-0.181,0.182-0.333,0.395-0.454,0.635c-0.12,0.242-0.208,0.5-0.26,0.771L85.558,130.404z
	 M94.135,132.82c0.159,0,0.314-0.025,0.465-0.078c0.151-0.053,0.3-0.125,0.442-0.209c0.144-0.088,0.282-0.186,0.414-0.291
	c0.133-0.105,0.26-0.215,0.381-0.328l0.566-3.211c-0.158-0.076-0.312-0.127-0.459-0.154c-0.147-0.025-0.313-0.039-0.494-0.039
	c-0.468,0-0.855,0.098-1.162,0.291c-0.306,0.191-0.55,0.441-0.727,0.746c-0.178,0.307-0.304,0.65-0.374,1.027
	c-0.072,0.379-0.108,0.758-0.108,1.135c0,0.355,0.086,0.629,0.257,0.824C93.505,132.725,93.772,132.82,94.135,132.82
	 M96.733,132.322c-0.022,0.158-0.033,0.301-0.033,0.43s0.014,0.26,0.045,0.393c0.03,0.133,0.067,0.26,0.113,0.379h-1.044
	c-0.031-0.053-0.055-0.121-0.074-0.209c-0.018-0.088-0.027-0.182-0.027-0.289c0-0.076,0.004-0.133,0.012-0.17
	c-0.273,0.227-0.553,0.42-0.84,0.572c-0.288,0.156-0.579,0.232-0.874,0.232c-0.629,0-1.093-0.158-1.396-0.477
	c-0.302-0.318-0.453-0.783-0.453-1.395c0-0.545,0.06-1.066,0.182-1.561c0.12-0.494,0.321-0.932,0.601-1.309
	c0.28-0.381,0.643-0.682,1.089-0.91c0.447-0.227,0.994-0.34,1.646-0.34c0.355,0,0.67,0.035,0.941,0.102
	c0.272,0.068,0.56,0.172,0.862,0.307L96.733,132.322z M100.045,128.34c0.092-0.092,0.197-0.176,0.317-0.256
	c0.122-0.078,0.251-0.148,0.387-0.209c0.134-0.061,0.271-0.109,0.407-0.148c0.137-0.037,0.26-0.057,0.374-0.057
	c0.356,0,0.66,0.057,0.915,0.17c0.253,0.113,0.458,0.318,0.617,0.613c0.243-0.211,0.524-0.395,0.845-0.551
	c0.322-0.154,0.668-0.232,1.039-0.232c0.543,0,0.963,0.139,1.259,0.414c0.294,0.277,0.443,0.66,0.443,1.152
	c0,0.166-0.016,0.32-0.046,0.465l-0.669,3.822h-0.977l0.669-3.832c0.023-0.123,0.035-0.24,0.035-0.354
	c0-0.551-0.311-0.828-0.931-0.828c-0.242,0-0.487,0.051-0.737,0.152c-0.25,0.104-0.474,0.242-0.67,0.414l-0.782,4.447h-0.976
	l0.715-4.084c0.007-0.037,0.013-0.072,0.017-0.102c0.005-0.029,0.005-0.064,0.005-0.102c0-0.25-0.091-0.434-0.271-0.551
	c-0.183-0.117-0.406-0.176-0.671-0.176c-0.256,0-0.511,0.049-0.76,0.143s-0.477,0.236-0.68,0.424l-0.784,4.447h-0.975l0.76-4.309
	c0.016-0.076,0.026-0.15,0.033-0.223c0.009-0.072,0.013-0.145,0.013-0.221c0-0.121-0.01-0.238-0.029-0.352
	c-0.018-0.115-0.047-0.225-0.084-0.328l0.975-0.422c0.039,0.107,0.07,0.213,0.097,0.318s0.043,0.223,0.052,0.352H100.045z
	 M112.286,129.939c0-0.453-0.144-0.807-0.43-1.055c-0.288-0.25-0.658-0.375-1.112-0.375c-0.41,0-0.758,0.086-1.044,0.262
	c-0.287,0.174-0.523,0.396-0.709,0.668c-0.185,0.273-0.321,0.58-0.408,0.92c-0.086,0.34-0.131,0.674-0.131,0.998
	c0,0.492,0.131,0.859,0.393,1.1c0.26,0.242,0.641,0.363,1.14,0.363c0.393,0,0.733-0.084,1.021-0.254
	c0.287-0.172,0.525-0.391,0.715-0.664c0.188-0.273,0.328-0.58,0.425-0.926C112.24,130.633,112.286,130.287,112.286,129.939
	 M109.826,133.66c-0.318,0-0.613-0.047-0.887-0.143c-0.271-0.094-0.508-0.232-0.709-0.414c-0.2-0.182-0.354-0.4-0.465-0.658
	c-0.109-0.256-0.164-0.543-0.164-0.859c0-0.477,0.063-0.951,0.188-1.42c0.123-0.469,0.321-0.887,0.59-1.254s0.609-0.664,1.021-0.895
	c0.413-0.23,0.906-0.348,1.48-0.348c0.334,0,0.638,0.051,0.914,0.154c0.275,0.1,0.514,0.25,0.715,0.441
	c0.2,0.193,0.357,0.424,0.471,0.691c0.113,0.27,0.171,0.566,0.171,0.891c0,0.492-0.076,0.967-0.228,1.424
	c-0.151,0.459-0.368,0.863-0.652,1.215s-0.633,0.637-1.046,0.85C110.814,133.553,110.346,133.66,109.826,133.66 M115.804,133.66
	c-0.272,0-0.517-0.023-0.732-0.074c-0.215-0.049-0.399-0.131-0.55-0.25c-0.151-0.115-0.267-0.27-0.347-0.459
	c-0.078-0.188-0.119-0.422-0.119-0.701c0-0.092,0.005-0.189,0.019-0.291c0.011-0.102,0.023-0.205,0.038-0.313l0.636-3.629
	l1.032-0.273l-0.691,3.902c-0.015,0.076-0.027,0.15-0.034,0.223c-0.009,0.07-0.011,0.137-0.011,0.197
	c0,0.295,0.074,0.508,0.227,0.635c0.149,0.129,0.378,0.193,0.68,0.193c0.151,0,0.309-0.025,0.47-0.078
	c0.165-0.053,0.321-0.125,0.473-0.209c0.15-0.088,0.299-0.188,0.442-0.297c0.143-0.109,0.276-0.217,0.397-0.322l0.691-3.971
	l1.032-0.273l-0.805,4.549c-0.016,0.092-0.026,0.176-0.035,0.256c-0.007,0.08-0.011,0.162-0.011,0.244
	c0,0.137,0.011,0.266,0.034,0.391c0.022,0.125,0.06,0.264,0.113,0.414h-1.044c-0.061-0.105-0.094-0.256-0.104-0.453v-0.102
	c0-0.037,0.006-0.076,0.013-0.113c-0.257,0.227-0.545,0.42-0.861,0.572C116.439,133.584,116.122,133.66,115.804,133.66"/>
<path fill="#FFFFFF" d="M123.428,128.51c-0.243,0-0.512,0.049-0.807,0.148c-0.295,0.098-0.544,0.238-0.749,0.418l-0.782,4.447
	h-0.977l0.761-4.309c0.014-0.076,0.027-0.15,0.034-0.223s0.011-0.145,0.011-0.221c0-0.121-0.01-0.238-0.027-0.352
	c-0.02-0.115-0.049-0.225-0.086-0.328l0.977-0.422c0.083,0.197,0.136,0.422,0.159,0.67h0.067c0.197-0.205,0.446-0.367,0.748-0.488
	c0.304-0.121,0.583-0.182,0.84-0.182c0.567,0,1.021,0.15,1.362,0.449c0.339,0.299,0.51,0.709,0.51,1.23
	c0,0.15-0.011,0.307-0.034,0.465l-0.658,3.709h-0.975l0.657-3.721c0.009-0.053,0.014-0.102,0.017-0.146
	c0.004-0.047,0.006-0.09,0.006-0.137c0-0.303-0.09-0.547-0.271-0.732C124.029,128.604,123.767,128.51,123.428,128.51
	 M127.296,128.566h-0.647l0.125-0.76h0.646l0.216-1.225l1.032-0.273l-0.271,1.498h1.044l-0.364,0.76h-0.806l-0.635,3.574
	c-0.015,0.076-0.023,0.131-0.023,0.17c0,0.34,0.201,0.51,0.602,0.51h0.421l-0.125,0.717c-0.113,0.037-0.222,0.066-0.324,0.09
	c-0.103,0.021-0.213,0.033-0.333,0.033c-0.365,0-0.657-0.115-0.88-0.346s-0.335-0.527-0.335-0.891v-0.143
	c0-0.049,0.008-0.096,0.021-0.141L127.296,128.566z M137.87,129.939c0-0.453-0.145-0.805-0.431-1.055
	c-0.288-0.25-0.659-0.375-1.112-0.375c-0.408,0-0.756,0.086-1.044,0.262c-0.287,0.174-0.523,0.396-0.709,0.668
	c-0.186,0.273-0.321,0.58-0.409,0.92c-0.086,0.34-0.13,0.674-0.13,0.998c0,0.492,0.13,0.859,0.392,1.1
	c0.261,0.242,0.64,0.363,1.14,0.363c0.394,0,0.734-0.084,1.021-0.254c0.287-0.172,0.525-0.391,0.716-0.664
	c0.187-0.273,0.331-0.58,0.425-0.926C137.822,130.633,137.87,130.287,137.87,129.939 M135.407,133.66
	c-0.317,0-0.612-0.047-0.885-0.143c-0.271-0.094-0.508-0.232-0.709-0.414c-0.199-0.182-0.354-0.4-0.464-0.656
	c-0.111-0.258-0.165-0.545-0.165-0.861c0-0.477,0.063-0.951,0.188-1.42c0.124-0.469,0.321-0.887,0.59-1.254s0.609-0.664,1.021-0.896
	c0.412-0.229,0.905-0.346,1.48-0.346c0.332,0,0.637,0.051,0.914,0.154c0.275,0.1,0.514,0.248,0.715,0.441
	c0.2,0.193,0.357,0.424,0.471,0.691c0.113,0.27,0.169,0.566,0.169,0.891c0,0.492-0.075,0.967-0.226,1.424
	c-0.151,0.461-0.37,0.863-0.652,1.215c-0.284,0.352-0.632,0.637-1.045,0.85C136.397,133.553,135.929,133.66,135.407,133.66
	 M140.831,127.035c0.038-0.205,0.11-0.398,0.216-0.584s0.235-0.35,0.392-0.488c0.155-0.141,0.328-0.252,0.521-0.334
	c0.194-0.084,0.396-0.125,0.608-0.125c0.127,0,0.256,0.012,0.385,0.039s0.258,0.059,0.387,0.098l-0.125,0.713h-0.579
	c-0.22,0-0.402,0.057-0.55,0.166s-0.24,0.281-0.279,0.516l-0.135,0.771h1.225l-0.374,0.76h-0.987l-1.021,5.766
	c-0.037,0.203-0.109,0.396-0.216,0.582c-0.105,0.186-0.235,0.348-0.391,0.488c-0.155,0.139-0.33,0.252-0.522,0.334
	c-0.193,0.084-0.396,0.125-0.606,0.125c-0.03,0-0.061-0.002-0.092-0.006c-0.03-0.004-0.074-0.01-0.13-0.018
	c-0.057-0.008-0.129-0.02-0.216-0.039s-0.199-0.045-0.334-0.072l0.125-0.717h0.464c0.22,0,0.422-0.055,0.609-0.168
	c0.183-0.115,0.293-0.285,0.332-0.51l1.022-5.766h-0.795l0.137-0.76h0.794L140.831,127.035z M149.917,127.67
	c0.28,0,0.542,0.047,0.784,0.137c0.241,0.09,0.453,0.219,0.634,0.379c0.182,0.162,0.324,0.363,0.426,0.596
	c0.103,0.234,0.153,0.492,0.153,0.771c0,0.447-0.046,0.912-0.136,1.396c-0.092,0.484-0.25,0.926-0.477,1.326
	c-0.227,0.402-0.53,0.732-0.908,0.994c-0.377,0.26-0.854,0.391-1.43,0.391c-0.295,0-0.58-0.076-0.855-0.227
	c-0.277-0.15-0.501-0.33-0.676-0.533l-0.498,2.826h-0.977l1.157-6.512c0.016-0.076,0.026-0.152,0.033-0.229
	c0.009-0.076,0.012-0.15,0.012-0.227c0-0.121-0.009-0.236-0.028-0.346c-0.018-0.109-0.047-0.219-0.084-0.322l0.975-0.422
	c0.037,0.107,0.069,0.213,0.098,0.318c0.025,0.105,0.043,0.223,0.05,0.352h0.069c0.233-0.221,0.501-0.387,0.799-0.5
	C149.337,127.727,149.629,127.67,149.917,127.67 M149.736,128.51c-0.295,0-0.581,0.057-0.862,0.17
	c-0.28,0.113-0.54,0.283-0.782,0.512l-0.488,2.732c0.167,0.229,0.38,0.434,0.642,0.619c0.261,0.186,0.55,0.277,0.867,0.277
	c0.38,0,0.689-0.102,0.931-0.307c0.242-0.203,0.432-0.459,0.567-0.766s0.23-0.635,0.282-0.986c0.055-0.352,0.081-0.68,0.081-0.98
	c0-0.4-0.109-0.715-0.33-0.938C150.424,128.621,150.123,128.51,149.736,128.51 M154.581,128.385
	c0.182-0.227,0.381-0.402,0.596-0.527c0.216-0.123,0.46-0.188,0.732-0.188c0.295,0,0.593,0.084,0.896,0.25l-0.5,0.908
	c-0.211-0.123-0.415-0.182-0.611-0.182c-0.244,0-0.45,0.066-0.625,0.197c-0.173,0.133-0.322,0.299-0.441,0.5
	c-0.121,0.201-0.218,0.414-0.29,0.643c-0.071,0.225-0.123,0.43-0.153,0.611l-0.51,2.926h-0.977l0.761-4.309
	c0.022-0.145,0.034-0.293,0.034-0.443c0-0.234-0.034-0.461-0.103-0.68l0.977-0.422c0.044,0.113,0.08,0.23,0.106,0.346
	c0.026,0.119,0.041,0.242,0.041,0.369H154.581z M156.77,133.523l1.01-5.717h0.977l-1.01,5.717H156.77z M158.518,125.504
	c0.15,0,0.279,0.051,0.385,0.152c0.106,0.104,0.159,0.229,0.159,0.381c0,0.15-0.053,0.277-0.159,0.379
	c-0.105,0.104-0.234,0.154-0.385,0.154c-0.151,0-0.28-0.051-0.387-0.154c-0.105-0.102-0.158-0.229-0.158-0.379
	c0-0.152,0.053-0.277,0.158-0.381C158.238,125.555,158.367,125.504,158.518,125.504 M160.083,127.807h4.687l-0.023,0.182
	c-0.046,0.348-0.208,0.643-0.489,0.885l-3.89,3.879l1.236-0.066h2.632l-0.386,0.838h-4.776l0.046-0.328
	c0.037-0.174,0.099-0.33,0.182-0.471s0.182-0.273,0.295-0.402l3.846-3.789l-1.136,0.068h-2.336L160.083,127.807z M170.712,129.338
	c0,0.387-0.078,0.697-0.237,0.936s-0.369,0.426-0.624,0.563c-0.257,0.135-0.543,0.232-0.856,0.289
	c-0.314,0.057-0.626,0.096-0.937,0.119l-1.759,0.113v0.16c0,0.24,0.044,0.445,0.132,0.611c0.086,0.166,0.197,0.301,0.335,0.404
	c0.136,0.1,0.292,0.176,0.47,0.219c0.179,0.047,0.357,0.068,0.538,0.068c0.311,0,0.596-0.063,0.856-0.188
	c0.262-0.125,0.498-0.295,0.709-0.516l0.795,0.352c-0.302,0.387-0.674,0.682-1.111,0.887c-0.438,0.203-0.904,0.305-1.396,0.305
	c-0.688,0-1.241-0.174-1.656-0.521s-0.625-0.893-0.625-1.635c0-0.49,0.071-0.967,0.21-1.428c0.141-0.461,0.349-0.871,0.624-1.227
	c0.277-0.354,0.625-0.641,1.044-0.855c0.42-0.217,0.91-0.324,1.47-0.324c0.673,0,1.177,0.16,1.515,0.477
	C170.544,128.465,170.712,128.863,170.712,129.338 M168.207,130.404c0.166-0.008,0.342-0.027,0.527-0.066
	c0.185-0.039,0.354-0.1,0.51-0.184c0.153-0.082,0.282-0.191,0.381-0.328c0.098-0.135,0.146-0.311,0.146-0.521
	c0-0.219-0.105-0.408-0.318-0.563c-0.211-0.154-0.517-0.232-0.918-0.232c-0.287,0-0.549,0.055-0.782,0.164
	c-0.234,0.111-0.443,0.256-0.624,0.438c-0.183,0.182-0.335,0.395-0.454,0.635c-0.122,0.242-0.207,0.5-0.26,0.771L168.207,130.404z
	 M174.355,127.67c0.363,0,0.711,0.07,1.043,0.211c0.334,0.139,0.599,0.346,0.793,0.617l-0.69,0.578
	c-0.151-0.203-0.341-0.348-0.566-0.436c-0.229-0.088-0.478-0.131-0.751-0.131c-0.134,0-0.282,0.014-0.441,0.039
	c-0.158,0.027-0.308,0.074-0.449,0.143c-0.138,0.068-0.256,0.158-0.352,0.271c-0.093,0.113-0.141,0.258-0.141,0.432
	c0,0.152,0.077,0.277,0.232,0.375s0.348,0.189,0.579,0.271c0.23,0.084,0.48,0.168,0.747,0.256c0.271,0.088,0.52,0.191,0.75,0.313
	s0.424,0.264,0.578,0.43c0.155,0.166,0.233,0.375,0.233,0.625c0,0.379-0.074,0.693-0.222,0.947s-0.343,0.457-0.585,0.611
	c-0.241,0.156-0.518,0.268-0.828,0.336c-0.31,0.068-0.623,0.102-0.941,0.102c-0.211,0-0.423-0.027-0.635-0.086
	c-0.212-0.057-0.415-0.139-0.606-0.246c-0.193-0.111-0.369-0.246-0.528-0.406c-0.158-0.158-0.283-0.336-0.374-0.533l0.783-0.441
	c0.369,0.582,0.893,0.873,1.565,0.873c0.157,0,0.321-0.014,0.487-0.045c0.166-0.029,0.32-0.082,0.46-0.152
	c0.14-0.072,0.253-0.168,0.341-0.291c0.086-0.119,0.13-0.271,0.13-0.451c0-0.191-0.076-0.34-0.228-0.449
	c-0.15-0.109-0.34-0.205-0.567-0.285c-0.225-0.078-0.473-0.154-0.737-0.227c-0.264-0.072-0.509-0.162-0.736-0.277
	c-0.227-0.113-0.417-0.258-0.567-0.432c-0.151-0.172-0.228-0.404-0.228-0.691c0-0.34,0.073-0.629,0.222-0.861
	c0.146-0.234,0.337-0.426,0.566-0.574c0.231-0.146,0.491-0.252,0.782-0.316C173.765,127.701,174.06,127.67,174.355,127.67
	 M182.431,132.686c0.152,0,0.308-0.027,0.466-0.08c0.159-0.053,0.315-0.123,0.471-0.211c0.155-0.086,0.304-0.186,0.443-0.295
	s0.271-0.217,0.391-0.322l0.546-3.098c-0.16-0.061-0.33-0.104-0.512-0.131c-0.182-0.025-0.358-0.039-0.533-0.039
	c-0.461,0-0.845,0.094-1.152,0.277c-0.306,0.186-0.551,0.428-0.736,0.727c-0.187,0.299-0.317,0.639-0.397,1.016
	c-0.079,0.379-0.119,0.76-0.119,1.146c0,0.316,0.087,0.564,0.262,0.742C181.732,132.596,182.023,132.686,182.431,132.686
	 M182.023,135.861c-0.422,0-0.788-0.051-1.094-0.154c-0.307-0.1-0.622-0.258-0.947-0.471l0.601-0.805
	c0.258,0.174,0.506,0.301,0.744,0.381s0.527,0.119,0.867,0.119c0.491,0,0.88-0.148,1.169-0.443c0.287-0.295,0.472-0.676,0.557-1.146
	l0.101-0.566c-0.242,0.213-0.517,0.391-0.822,0.533c-0.307,0.143-0.611,0.215-0.913,0.215c-0.673,0-1.159-0.162-1.458-0.486
	c-0.298-0.326-0.447-0.775-0.447-1.352c0-0.551,0.063-1.072,0.192-1.559c0.129-0.488,0.331-0.912,0.606-1.277
	c0.275-0.363,0.633-0.65,1.072-0.861c0.438-0.211,0.965-0.318,1.577-0.318c0.355,0,0.702,0.031,1.039,0.098
	c0.336,0.064,0.654,0.168,0.958,0.311l-0.92,5.242c-0.067,0.363-0.183,0.699-0.346,1.012c-0.162,0.309-0.367,0.576-0.612,0.805
	c-0.246,0.225-0.532,0.404-0.855,0.533C182.765,135.797,182.41,135.861,182.023,135.861 M186.347,133.523l1.009-5.717h0.976
	l-1.01,5.717H186.347z M188.093,125.504c0.149,0,0.279,0.051,0.385,0.152c0.106,0.104,0.16,0.229,0.16,0.381
	c0,0.15-0.054,0.277-0.16,0.379c-0.105,0.104-0.235,0.154-0.385,0.154c-0.151,0-0.28-0.051-0.385-0.154
	c-0.107-0.102-0.16-0.229-0.16-0.379c0-0.152,0.053-0.277,0.16-0.381C187.813,125.555,187.942,125.504,188.093,125.504
	 M190.283,133.523l-1.156-5.58l0.918-0.273l0.749,3.482l0.136,1.236l0.579-1.223l1.895-3.496l0.828,0.273l-3.04,5.58H190.283z
	 M199.903,129.338c0,0.387-0.08,0.697-0.237,0.936c-0.158,0.238-0.369,0.426-0.624,0.563c-0.257,0.135-0.543,0.232-0.856,0.289
	c-0.314,0.057-0.627,0.096-0.937,0.119l-1.758,0.113v0.16c0,0.24,0.043,0.445,0.131,0.611c0.085,0.166,0.197,0.301,0.335,0.404
	c0.136,0.1,0.292,0.176,0.469,0.219c0.179,0.047,0.359,0.068,0.539,0.068c0.311,0,0.597-0.063,0.855-0.188
	c0.262-0.125,0.499-0.295,0.71-0.516l0.795,0.352c-0.302,0.387-0.674,0.682-1.111,0.887c-0.438,0.203-0.904,0.305-1.396,0.305
	c-0.688,0-1.241-0.174-1.656-0.521c-0.417-0.348-0.623-0.893-0.623-1.635c0-0.49,0.068-0.967,0.207-1.428
	c0.142-0.461,0.35-0.871,0.626-1.227c0.276-0.354,0.624-0.641,1.043-0.855c0.42-0.217,0.91-0.324,1.47-0.324
	c0.673,0,1.177,0.16,1.515,0.477C199.736,128.465,199.903,128.863,199.903,129.338 M197.397,130.404
	c0.166-0.008,0.342-0.027,0.527-0.066c0.185-0.039,0.354-0.1,0.51-0.184c0.153-0.082,0.282-0.191,0.381-0.328
	c0.098-0.135,0.146-0.311,0.146-0.521c0-0.219-0.105-0.408-0.317-0.563s-0.518-0.232-0.919-0.232c-0.287,0-0.549,0.055-0.782,0.164
	c-0.234,0.111-0.442,0.256-0.624,0.438c-0.183,0.182-0.333,0.395-0.454,0.635c-0.12,0.242-0.207,0.5-0.26,0.771L197.397,130.404z
	 M203.806,128.51c-0.243,0-0.51,0.049-0.807,0.148c-0.295,0.098-0.544,0.238-0.748,0.418l-0.782,4.447h-0.976l0.76-4.309
	c0.016-0.076,0.026-0.15,0.033-0.223c0.008-0.072,0.013-0.145,0.013-0.221c0-0.121-0.01-0.238-0.029-0.352
	c-0.018-0.115-0.047-0.225-0.085-0.328l0.976-0.422c0.083,0.197,0.136,0.422,0.159,0.67h0.068c0.196-0.205,0.445-0.367,0.747-0.488
	c0.304-0.121,0.583-0.182,0.841-0.182c0.566,0,1.021,0.15,1.361,0.449s0.511,0.709,0.511,1.23c0,0.15-0.013,0.307-0.034,0.465
	l-0.658,3.709h-0.977l0.66-3.721c0.007-0.053,0.011-0.102,0.016-0.146c0.005-0.047,0.006-0.09,0.006-0.137
	c0-0.303-0.091-0.547-0.272-0.732C204.407,128.604,204.146,128.51,203.806,128.51 M214.902,129.939c0-0.453-0.145-0.805-0.432-1.055
	s-0.657-0.375-1.113-0.375c-0.408,0-0.755,0.086-1.043,0.262c-0.286,0.174-0.523,0.396-0.709,0.668
	c-0.186,0.273-0.321,0.58-0.408,0.92c-0.086,0.34-0.13,0.674-0.13,0.998c0,0.492,0.13,0.859,0.392,1.1
	c0.261,0.242,0.642,0.363,1.14,0.363c0.394,0,0.734-0.084,1.021-0.254c0.288-0.172,0.526-0.391,0.717-0.664
	c0.188-0.273,0.328-0.58,0.425-0.926C214.854,130.633,214.902,130.287,214.902,129.939 M212.439,133.66
	c-0.318,0-0.612-0.047-0.885-0.143c-0.271-0.094-0.508-0.232-0.709-0.414s-0.354-0.4-0.464-0.656
	c-0.111-0.258-0.165-0.545-0.165-0.861c0-0.477,0.063-0.951,0.188-1.42c0.124-0.469,0.32-0.887,0.59-1.254
	c0.269-0.367,0.609-0.664,1.021-0.896c0.412-0.229,0.905-0.346,1.48-0.346c0.333,0,0.637,0.051,0.914,0.154
	c0.275,0.1,0.514,0.248,0.714,0.441c0.201,0.193,0.357,0.424,0.471,0.691c0.114,0.27,0.171,0.566,0.171,0.891
	c0,0.492-0.076,0.967-0.228,1.424c-0.15,0.461-0.368,0.863-0.652,1.215c-0.285,0.352-0.631,0.637-1.044,0.85
	C213.429,133.553,212.961,133.66,212.439,133.66 M218.419,133.66c-0.274,0-0.518-0.023-0.733-0.074
	c-0.214-0.049-0.398-0.131-0.551-0.25c-0.149-0.115-0.265-0.27-0.345-0.459c-0.079-0.188-0.119-0.422-0.119-0.701
	c0-0.092,0.006-0.189,0.017-0.291s0.024-0.205,0.038-0.313l0.638-3.629l1.031-0.273l-0.69,3.902
	c-0.016,0.076-0.028,0.15-0.035,0.223c-0.008,0.07-0.011,0.137-0.011,0.197c0,0.295,0.073,0.508,0.228,0.635
	c0.15,0.129,0.378,0.193,0.68,0.193c0.15,0,0.309-0.025,0.471-0.078c0.163-0.053,0.32-0.125,0.471-0.209
	c0.151-0.088,0.299-0.188,0.443-0.297c0.143-0.109,0.275-0.217,0.396-0.322l0.691-3.971l1.032-0.273l-0.805,4.549
	c-0.015,0.092-0.026,0.176-0.034,0.256s-0.013,0.162-0.013,0.244c0,0.137,0.013,0.266,0.034,0.391
	c0.023,0.125,0.062,0.264,0.115,0.414h-1.044c-0.062-0.105-0.095-0.256-0.103-0.453v-0.102c0-0.037,0.004-0.076,0.011-0.113
	c-0.258,0.227-0.544,0.418-0.861,0.572C219.053,133.584,218.735,133.66,218.419,133.66 M223.648,128.566h-0.646l0.125-0.76h0.646
	l0.216-1.225l1.032-0.273l-0.273,1.498h1.045l-0.363,0.76h-0.805l-0.636,3.574c-0.015,0.076-0.023,0.131-0.023,0.17
	c0,0.34,0.201,0.51,0.603,0.51h0.42l-0.125,0.717c-0.115,0.037-0.222,0.066-0.324,0.09c-0.103,0.021-0.213,0.033-0.335,0.033
	c-0.363,0-0.655-0.115-0.878-0.346s-0.337-0.527-0.337-0.891v-0.143c0-0.049,0.009-0.096,0.023-0.141L223.648,128.566z
	 M230.83,133.523l-1.157-5.58l0.92-0.273l0.747,3.482l0.136,1.236l0.579-1.223l1.895-3.496l0.828,0.273l-3.041,5.58H230.83z
	 M237.115,132.82c0.159,0,0.313-0.025,0.465-0.078c0.151-0.053,0.3-0.125,0.442-0.209c0.144-0.088,0.282-0.186,0.414-0.291
	c0.133-0.105,0.259-0.215,0.381-0.328l0.566-3.211c-0.158-0.076-0.312-0.127-0.46-0.154c-0.146-0.025-0.312-0.039-0.493-0.039
	c-0.468,0-0.855,0.096-1.162,0.291c-0.306,0.191-0.55,0.441-0.727,0.746c-0.178,0.307-0.302,0.652-0.374,1.027
	c-0.072,0.379-0.108,0.758-0.108,1.135c0,0.355,0.086,0.629,0.255,0.824C236.485,132.725,236.751,132.82,237.115,132.82
	 M239.712,132.322c-0.021,0.158-0.034,0.301-0.034,0.43s0.015,0.26,0.046,0.393c0.03,0.133,0.067,0.26,0.113,0.379h-1.044
	c-0.032-0.053-0.055-0.121-0.073-0.209s-0.029-0.182-0.029-0.289c0-0.076,0.004-0.133,0.012-0.17
	c-0.272,0.227-0.552,0.418-0.84,0.572c-0.287,0.156-0.578,0.232-0.874,0.232c-0.628,0-1.093-0.158-1.395-0.477
	s-0.454-0.783-0.454-1.395c0-0.545,0.061-1.066,0.182-1.561s0.322-0.932,0.602-1.309c0.28-0.379,0.643-0.682,1.089-0.91
	c0.446-0.227,0.994-0.34,1.646-0.34c0.355,0,0.669,0.035,0.941,0.102c0.271,0.068,0.56,0.172,0.861,0.307L239.712,132.322z
	 M242.98,128.385c0.181-0.227,0.379-0.402,0.595-0.527c0.215-0.123,0.46-0.188,0.733-0.188c0.295,0,0.592,0.084,0.895,0.25
	l-0.499,0.908c-0.212-0.123-0.415-0.182-0.612-0.182c-0.243,0-0.45,0.066-0.624,0.197c-0.173,0.133-0.323,0.299-0.442,0.5
	c-0.121,0.201-0.217,0.414-0.289,0.643c-0.072,0.225-0.123,0.43-0.153,0.611l-0.51,2.926h-0.977l0.761-4.309
	c0.021-0.145,0.034-0.293,0.034-0.443c0-0.234-0.034-0.461-0.103-0.68l0.977-0.422c0.044,0.113,0.08,0.23,0.106,0.346
	c0.026,0.119,0.04,0.242,0.04,0.369H242.98z M247.54,134.738c-0.188,0.34-0.399,0.611-0.636,0.816
	c-0.24,0.205-0.521,0.307-0.839,0.307c-0.09,0-0.192-0.012-0.306-0.035l-0.442-0.1l0.102-0.717h0.477
	c0.183,0,0.329-0.025,0.442-0.078c0.121-0.039,0.23-0.148,0.329-0.328l0.534-1.113c-0.212-0.053-0.387-0.154-0.522-0.307
	c-0.061-0.076-0.117-0.158-0.166-0.25c-0.048-0.09-0.083-0.188-0.106-0.295l-1.146-4.695l0.976-0.273l1.134,4.629
	c0.009,0.061,0.034,0.121,0.08,0.182c0.03,0.045,0.09,0.068,0.182,0.068h0.046l2.428-4.879l0.907,0.273L247.54,134.738z
	 M255.958,129.904l-0.467,2.701c0.161,0.084,0.334,0.141,0.523,0.17c0.188,0.031,0.378,0.045,0.566,0.045
	c0.433,0,0.797-0.084,1.096-0.25s0.54-0.387,0.726-0.662s0.32-0.6,0.403-0.971s0.124-0.76,0.124-1.168
	c0-0.34-0.098-0.617-0.295-0.828c-0.198-0.213-0.465-0.318-0.806-0.318c-0.416,0-0.788,0.113-1.116,0.34
	C256.383,129.191,256.131,129.506,255.958,129.904 M256.208,128.555h0.068c0.249-0.25,0.515-0.439,0.795-0.572
	c0.279-0.133,0.581-0.199,0.905-0.199c0.274,0,0.523,0.049,0.751,0.141c0.226,0.096,0.419,0.227,0.577,0.393
	c0.159,0.166,0.284,0.365,0.374,0.596c0.092,0.23,0.138,0.486,0.138,0.766c0,0.531-0.058,1.035-0.171,1.516s-0.302,0.904-0.566,1.27
	c-0.266,0.367-0.615,0.66-1.05,0.873c-0.435,0.217-0.971,0.324-1.605,0.324c-0.362,0-0.714-0.033-1.055-0.102
	s-0.666-0.17-0.977-0.307l1.328-7.477l1.021-0.271L256.208,128.555z M265.942,129.338c0,0.387-0.08,0.697-0.238,0.936
	c-0.159,0.238-0.366,0.426-0.624,0.563c-0.258,0.135-0.545,0.232-0.856,0.289c-0.314,0.057-0.626,0.096-0.935,0.119l-1.76,0.113
	v0.16c0,0.24,0.043,0.445,0.13,0.611s0.199,0.301,0.334,0.404c0.137,0.1,0.293,0.176,0.471,0.219
	c0.177,0.047,0.357,0.068,0.54,0.068c0.311,0,0.596-0.063,0.855-0.188c0.261-0.125,0.499-0.295,0.709-0.516l0.795,0.352
	c-0.302,0.387-0.673,0.682-1.111,0.887c-0.439,0.203-0.906,0.305-1.396,0.305c-0.688,0-1.239-0.174-1.654-0.521
	c-0.417-0.348-0.626-0.893-0.626-1.635c0-0.49,0.071-0.967,0.21-1.428c0.142-0.461,0.35-0.871,0.625-1.227
	c0.275-0.354,0.624-0.641,1.044-0.855c0.42-0.217,0.908-0.324,1.468-0.324c0.675,0,1.179,0.16,1.516,0.477
	C265.773,128.465,265.942,128.863,265.942,129.338 M263.434,130.404c0.168-0.008,0.342-0.027,0.527-0.066s0.356-0.1,0.51-0.184
	c0.156-0.082,0.282-0.191,0.381-0.328c0.099-0.135,0.148-0.311,0.148-0.521c0-0.219-0.106-0.408-0.318-0.563
	c-0.214-0.154-0.519-0.232-0.92-0.232c-0.286,0-0.547,0.055-0.781,0.164c-0.235,0.111-0.442,0.256-0.624,0.438
	s-0.333,0.395-0.454,0.635c-0.121,0.242-0.21,0.5-0.261,0.771L263.434,130.404z M267.451,128.566h-0.647l0.125-0.76h0.646
	l0.216-1.225l1.032-0.273l-0.271,1.498h1.043l-0.363,0.76h-0.805l-0.636,3.574c-0.015,0.076-0.023,0.131-0.023,0.17
	c0,0.34,0.201,0.51,0.602,0.51h0.421l-0.126,0.717c-0.112,0.037-0.221,0.066-0.323,0.09c-0.103,0.021-0.213,0.033-0.335,0.033
	c-0.362,0-0.655-0.115-0.878-0.346s-0.335-0.527-0.335-0.891v-0.143c0-0.049,0.008-0.096,0.022-0.141L267.451,128.566z
	 M274.257,128.59l0.611,3.504l2.133-4.424l0.817,0.273l-2.666,5.58h-0.964l-0.601-3.242l-1.735,3.242h-0.966l-0.714-5.58l0.93-0.273
	l0.566,4.424l1.84-3.504H274.257z M283.492,129.338c0,0.387-0.079,0.697-0.238,0.936c-0.158,0.238-0.366,0.426-0.624,0.563
	c-0.257,0.135-0.542,0.232-0.856,0.289c-0.313,0.057-0.626,0.096-0.936,0.119l-1.759,0.113v0.16c0,0.24,0.043,0.445,0.131,0.611
	c0.087,0.166,0.198,0.301,0.335,0.404c0.136,0.1,0.291,0.176,0.471,0.219c0.178,0.047,0.357,0.068,0.539,0.068
	c0.31,0,0.595-0.063,0.855-0.188c0.262-0.125,0.497-0.295,0.709-0.516l0.794,0.352c-0.302,0.387-0.672,0.682-1.111,0.887
	c-0.438,0.203-0.905,0.305-1.396,0.305c-0.689,0-1.239-0.174-1.656-0.521c-0.416-0.348-0.623-0.893-0.623-1.635
	c0-0.49,0.069-0.967,0.209-1.428s0.348-0.871,0.624-1.227c0.276-0.354,0.624-0.641,1.045-0.855c0.418-0.217,0.908-0.324,1.468-0.324
	c0.673,0,1.179,0.16,1.515,0.477C283.322,128.465,283.492,128.863,283.492,129.338 M280.985,130.404
	c0.166-0.008,0.342-0.027,0.527-0.066s0.355-0.1,0.511-0.184c0.155-0.082,0.281-0.191,0.38-0.328
	c0.099-0.135,0.146-0.311,0.146-0.521c0-0.219-0.105-0.408-0.317-0.563s-0.518-0.232-0.918-0.232c-0.288,0-0.548,0.055-0.783,0.164
	c-0.234,0.111-0.442,0.256-0.624,0.438c-0.181,0.182-0.332,0.395-0.454,0.635c-0.12,0.242-0.207,0.5-0.26,0.771L280.985,130.404z"/>
<path fill="#FFFFFF" d="M289.494,129.338c0,0.387-0.081,0.697-0.238,0.936c-0.16,0.238-0.367,0.426-0.625,0.563
	c-0.256,0.135-0.541,0.232-0.857,0.289c-0.313,0.057-0.624,0.096-0.935,0.119l-1.759,0.113v0.16c0,0.24,0.044,0.445,0.13,0.611
	c0.088,0.166,0.198,0.301,0.335,0.404c0.137,0.1,0.294,0.176,0.472,0.219c0.177,0.047,0.356,0.068,0.538,0.068
	c0.311,0,0.596-0.063,0.857-0.188c0.261-0.125,0.497-0.295,0.709-0.516l0.794,0.352c-0.302,0.387-0.673,0.682-1.112,0.887
	c-0.439,0.203-0.904,0.305-1.395,0.305c-0.688,0-1.241-0.174-1.656-0.521c-0.417-0.348-0.625-0.893-0.625-1.635
	c0-0.49,0.071-0.967,0.211-1.428s0.348-0.871,0.623-1.227c0.275-0.354,0.625-0.641,1.043-0.855c0.421-0.217,0.911-0.324,1.471-0.324
	c0.673,0,1.177,0.16,1.514,0.477C289.324,128.465,289.494,128.863,289.494,129.338 M286.987,130.404
	c0.166-0.008,0.342-0.029,0.526-0.066c0.186-0.039,0.355-0.1,0.511-0.184c0.155-0.082,0.281-0.191,0.38-0.328
	c0.098-0.135,0.147-0.311,0.147-0.521c0-0.219-0.105-0.408-0.318-0.563c-0.21-0.154-0.518-0.232-0.918-0.232
	c-0.287,0-0.549,0.055-0.782,0.164c-0.236,0.111-0.443,0.256-0.625,0.438s-0.332,0.395-0.453,0.635
	c-0.121,0.242-0.209,0.5-0.262,0.771L286.987,130.404z M293.396,128.51c-0.244,0-0.512,0.049-0.807,0.148
	c-0.295,0.098-0.544,0.238-0.749,0.418l-0.782,4.447h-0.975l0.76-4.309c0.014-0.076,0.026-0.15,0.033-0.223
	c0.009-0.072,0.013-0.145,0.013-0.221c0-0.121-0.011-0.238-0.029-0.352c-0.02-0.115-0.047-0.225-0.086-0.328l0.977-0.422
	c0.083,0.197,0.136,0.422,0.158,0.67h0.069c0.196-0.205,0.445-0.367,0.749-0.488c0.3-0.121,0.581-0.182,0.838-0.182
	c0.567,0,1.021,0.15,1.362,0.449c0.34,0.301,0.51,0.709,0.51,1.23c0,0.15-0.011,0.307-0.033,0.465l-0.659,3.709h-0.975l0.657-3.721
	c0.009-0.053,0.014-0.102,0.019-0.146c0.003-0.047,0.005-0.09,0.005-0.137c0-0.303-0.091-0.547-0.272-0.732
	S293.737,128.51,293.396,128.51 M301.167,129.904l-0.465,2.701c0.157,0.084,0.332,0.141,0.521,0.17
	c0.189,0.031,0.377,0.045,0.567,0.045c0.431,0,0.797-0.084,1.095-0.25c0.299-0.166,0.541-0.387,0.726-0.662
	c0.186-0.275,0.321-0.6,0.404-0.971s0.124-0.76,0.124-1.168c0-0.34-0.098-0.617-0.296-0.828c-0.195-0.213-0.465-0.318-0.805-0.318
	c-0.415,0-0.788,0.113-1.117,0.34C301.593,129.191,301.34,129.506,301.167,129.904 M301.417,128.555h0.067
	c0.25-0.25,0.515-0.439,0.795-0.572c0.279-0.133,0.582-0.199,0.908-0.199c0.271,0,0.521,0.047,0.748,0.141
	c0.227,0.096,0.419,0.227,0.578,0.393c0.158,0.166,0.283,0.365,0.374,0.596c0.092,0.23,0.138,0.486,0.138,0.766
	c0,0.531-0.057,1.035-0.171,1.518c-0.113,0.479-0.305,0.902-0.567,1.268c-0.266,0.367-0.615,0.66-1.05,0.873
	c-0.435,0.217-0.97,0.324-1.604,0.324c-0.364,0-0.716-0.033-1.056-0.102c-0.341-0.068-0.666-0.17-0.977-0.307l1.328-7.477
	l1.021-0.271L301.417,128.555z M307.577,128.385c0.182-0.227,0.38-0.402,0.596-0.527c0.216-0.123,0.46-0.188,0.731-0.188
	c0.296,0,0.594,0.084,0.896,0.25l-0.498,0.908c-0.212-0.123-0.416-0.182-0.611-0.182c-0.243,0-0.451,0.068-0.626,0.197
	c-0.173,0.133-0.321,0.299-0.441,0.5c-0.122,0.201-0.218,0.414-0.289,0.643c-0.072,0.225-0.125,0.43-0.154,0.611l-0.511,2.926
	h-0.976l0.761-4.309c0.022-0.143,0.034-0.293,0.034-0.443c0-0.234-0.034-0.461-0.102-0.68l0.975-0.422
	c0.046,0.113,0.082,0.23,0.107,0.346c0.027,0.119,0.039,0.242,0.039,0.369H307.577z M311.886,132.82
	c0.161,0,0.316-0.025,0.466-0.078c0.152-0.053,0.299-0.125,0.443-0.209c0.144-0.088,0.282-0.186,0.414-0.291
	c0.133-0.105,0.259-0.215,0.381-0.328l0.566-3.211c-0.158-0.076-0.312-0.127-0.459-0.154c-0.147-0.025-0.313-0.039-0.494-0.039
	c-0.468,0-0.856,0.096-1.162,0.291c-0.308,0.191-0.55,0.441-0.727,0.746c-0.178,0.307-0.302,0.65-0.376,1.027
	c-0.07,0.379-0.106,0.758-0.106,1.135c0,0.355,0.086,0.629,0.255,0.824C311.257,132.725,311.527,132.82,311.886,132.82
	 M314.485,132.322c-0.022,0.158-0.033,0.301-0.033,0.43s0.015,0.26,0.046,0.395c0.03,0.131,0.067,0.258,0.113,0.377h-1.045
	c-0.031-0.053-0.054-0.121-0.073-0.209c-0.019-0.088-0.027-0.182-0.027-0.287c0-0.078,0.003-0.135,0.011-0.172
	c-0.272,0.227-0.553,0.418-0.839,0.572c-0.288,0.156-0.579,0.232-0.875,0.232c-0.628,0-1.092-0.156-1.395-0.477
	c-0.302-0.318-0.453-0.783-0.453-1.395c0-0.545,0.06-1.064,0.18-1.561c0.122-0.494,0.323-0.932,0.603-1.309
	c0.28-0.381,0.643-0.682,1.089-0.91c0.447-0.227,0.995-0.34,1.646-0.34c0.355,0,0.668,0.035,0.941,0.102
	c0.271,0.068,0.56,0.172,0.862,0.307L314.485,132.322z M319,128.51c-0.241,0-0.51,0.049-0.805,0.148
	c-0.295,0.098-0.546,0.238-0.749,0.418l-0.782,4.447h-0.977l0.761-4.309c0.015-0.076,0.025-0.15,0.033-0.223
	s0.011-0.145,0.011-0.221c0-0.121-0.009-0.238-0.027-0.352c-0.019-0.115-0.048-0.225-0.085-0.328l0.977-0.422
	c0.08,0.197,0.136,0.422,0.158,0.67h0.067c0.196-0.205,0.447-0.367,0.749-0.488s0.582-0.182,0.84-0.182
	c0.566,0,1.021,0.15,1.361,0.449c0.34,0.301,0.511,0.709,0.511,1.23c0,0.15-0.011,0.307-0.035,0.465l-0.657,3.709h-0.976
	l0.659-3.721c0.006-0.053,0.012-0.102,0.016-0.146c0.004-0.047,0.006-0.09,0.006-0.137c0-0.303-0.09-0.547-0.273-0.732
	C319.602,128.602,319.341,128.51,319,128.51 M326.533,128.635c-0.331-0.113-0.684-0.17-1.054-0.17c-0.47,0-0.86,0.088-1.175,0.266
	c-0.313,0.18-0.564,0.414-0.754,0.709c-0.188,0.295-0.324,0.633-0.409,1.01c-0.083,0.379-0.124,0.77-0.124,1.17
	c0,0.34,0.096,0.625,0.289,0.855c0.192,0.23,0.471,0.346,0.834,0.346c0.159,0,0.319-0.025,0.481-0.078
	c0.163-0.053,0.324-0.125,0.483-0.209c0.158-0.088,0.309-0.186,0.453-0.291c0.144-0.105,0.277-0.215,0.397-0.328L326.533,128.635z
	 M326.705,127.818l0.033-0.283l0.308-1.76l1.021-0.271l-1.192,6.715c-0.014,0.107-0.026,0.201-0.033,0.285
	c-0.009,0.082-0.011,0.166-0.011,0.248c0,0.129,0.015,0.26,0.044,0.395c0.03,0.131,0.065,0.258,0.103,0.377h-1.043
	c-0.03-0.059-0.054-0.139-0.069-0.238c-0.015-0.098-0.021-0.191-0.021-0.281v-0.076c0-0.025,0.004-0.051,0.011-0.072
	c-0.271,0.227-0.566,0.418-0.885,0.572c-0.318,0.156-0.643,0.232-0.977,0.232c-0.61,0-1.08-0.174-1.405-0.521
	c-0.326-0.348-0.488-0.828-0.488-1.441c0-0.529,0.064-1.037,0.187-1.525c0.125-0.488,0.328-0.92,0.607-1.299
	c0.278-0.377,0.644-0.682,1.09-0.908s0.986-0.34,1.622-0.34c0.189,0,0.372,0.02,0.55,0.057c0.177,0.039,0.346,0.086,0.504,0.137
	H326.705z M331.424,127.67c0.362,0,0.71,0.07,1.043,0.211c0.333,0.139,0.598,0.346,0.795,0.617l-0.692,0.578
	c-0.151-0.203-0.341-0.348-0.566-0.436c-0.228-0.088-0.477-0.131-0.75-0.131c-0.137,0-0.283,0.014-0.442,0.039
	c-0.158,0.027-0.308,0.074-0.447,0.143s-0.258,0.158-0.353,0.271c-0.094,0.113-0.143,0.258-0.143,0.432
	c0,0.152,0.078,0.277,0.233,0.375c0.153,0.098,0.348,0.188,0.579,0.271c0.23,0.084,0.48,0.168,0.749,0.256s0.518,0.193,0.747,0.313
	c0.231,0.119,0.424,0.264,0.579,0.43s0.232,0.375,0.232,0.625c0,0.379-0.074,0.693-0.222,0.949
	c-0.146,0.252-0.342,0.455-0.584,0.609c-0.241,0.156-0.518,0.268-0.828,0.336c-0.309,0.068-0.623,0.102-0.94,0.102
	c-0.212,0-0.424-0.027-0.636-0.086c-0.212-0.057-0.414-0.139-0.606-0.248c-0.193-0.109-0.37-0.244-0.527-0.404
	c-0.159-0.158-0.284-0.336-0.376-0.533l0.784-0.441c0.37,0.582,0.892,0.873,1.565,0.873c0.159,0,0.321-0.014,0.487-0.045
	c0.166-0.029,0.319-0.082,0.46-0.152c0.14-0.072,0.253-0.168,0.34-0.291c0.086-0.119,0.131-0.271,0.131-0.451
	c0-0.191-0.076-0.34-0.228-0.449c-0.15-0.109-0.341-0.205-0.567-0.285c-0.226-0.078-0.473-0.154-0.737-0.227
	s-0.509-0.162-0.736-0.277c-0.228-0.113-0.417-0.258-0.567-0.432c-0.151-0.172-0.228-0.404-0.228-0.691
	c0-0.34,0.073-0.629,0.222-0.861c0.146-0.234,0.336-0.426,0.567-0.574c0.23-0.146,0.49-0.254,0.781-0.316
	C330.835,127.701,331.129,127.67,331.424,127.67 M336.313,125.492c0.279,0.582,0.513,1.201,0.698,1.855
	c0.186,0.652,0.276,1.324,0.276,2.014c0,0.59-0.066,1.17-0.203,1.74c-0.136,0.572-0.33,1.127-0.578,1.668
	c-0.25,0.541-0.547,1.072-0.89,1.588c-0.346,0.52-0.725,1.021-1.142,1.506h-0.839c0.893-1.037,1.574-2.109,2.048-3.217
	c0.473-1.109,0.709-2.295,0.709-3.559c0-0.664-0.083-1.293-0.249-1.883c-0.168-0.59-0.391-1.16-0.67-1.713H336.313z"/>
<path fill="#FFFFFF" d="M237.429,47.201c-0.302-1.779-0.191-3.578,0.295-5.23c0.465-1.58,1.276-3.031,2.401-4.207
	c1.132-1.182,2.575-2.08,4.302-2.551c1.677-0.455,3.611-0.5,5.769-0.006c0.258-0.785,0.599-1.523,1.011-2.199
	c0.3-0.49,0.638-0.951,1.006-1.377c-0.427-3.275,0.311-6.117,1.765-8.42c1.109-1.758,2.635-3.195,4.377-4.268
	c1.728-1.066,3.676-1.773,5.644-2.08c2.609-0.406,5.266-0.105,7.516,1c1.195-2.33,3.223-4.102,5.538-5.057
	c1.147-0.475,2.368-0.748,3.597-0.789c1.244-0.045,2.491,0.146,3.676,0.604c2.113,0.814,4.02,2.463,5.336,5.121
	c1.174-0.398,2.604-0.555,4.008-0.473c1.776,0.104,3.552,0.588,4.767,1.439c0.57,0.4,1.061,0.875,1.508,1.381
	c0.42,0.48,0.802,0.99,1.182,1.502l-1.526,1.131c-0.352-0.473-0.703-0.943-1.086-1.377c-0.354-0.402-0.733-0.775-1.169-1.078
	c-0.923-0.646-2.336-1.02-3.782-1.104c-1.476-0.086-2.948,0.129-3.939,0.656l-0.92,0.488l-0.401-0.971
	c-1.089-2.641-2.78-4.221-4.66-4.945c-0.942-0.361-1.935-0.514-2.922-0.479c-1.001,0.033-2.003,0.26-2.947,0.648
	c-2.171,0.896-4.034,2.662-4.929,4.979l-0.418,1.078l-0.977-0.615c-2.025-1.281-4.604-1.656-7.154-1.262
	c-1.721,0.268-3.429,0.889-4.945,1.822c-1.501,0.926-2.813,2.158-3.761,3.662c-1.025,1.623-1.628,3.564-1.59,5.783
	c0.593-0.422,1.229-0.777,1.903-1.063c2.186-0.924,6.59-0.797,8.882,2.561c-0.978-0.594-1.971-0.998-2.951-1.225
	c-1.835-0.428-3.631-0.246-5.197,0.416c-1.562,0.658-2.894,1.799-3.805,3.295c-0.47,0.771-0.828,1.639-1.048,2.584l-0.229,0.98
	l-0.964-0.283c-2.176-0.641-4.072-0.658-5.659-0.227c-1.379,0.375-2.533,1.094-3.435,2.035c-0.907,0.945-1.563,2.129-1.945,3.422
	c-0.381,1.297-0.484,2.701-0.287,4.102L237.429,47.201z M280.9,25.877c2.022,0.779,3.825,2.439,4.958,5.184l-1.756,0.719
	c-0.911-2.205-2.322-3.527-3.888-4.129c-0.783-0.303-1.609-0.43-2.431-0.4c-0.835,0.029-1.67,0.217-2.459,0.543
	c-1.814,0.748-3.369,2.221-4.117,4.156C271.121,27.221,276.543,24.197,280.9,25.877"/>
<path fill="#FFFFFF" d="M167.547,52.264c0.302-1.777,0.19-3.576-0.295-5.229c-0.466-1.58-1.275-3.031-2.4-4.207
	c-1.132-1.184-2.576-2.082-4.303-2.551c-1.676-0.457-3.61-0.502-5.768-0.006c-0.26-0.787-0.6-1.523-1.015-2.199
	c-0.297-0.49-0.634-0.951-1.004-1.377c0.429-3.277-0.31-6.119-1.764-8.422c-1.109-1.756-2.635-3.195-4.378-4.268
	c-1.727-1.064-3.674-1.771-5.642-2.076c-2.61-0.408-5.267-0.107-7.518,0.996c-1.193-2.328-3.221-4.1-5.536-5.055
	c-1.148-0.475-2.37-0.748-3.599-0.791c-1.242-0.045-2.491,0.146-3.675,0.604c-2.112,0.814-4.021,2.463-5.335,5.123
	c-1.176-0.398-2.604-0.557-4.009-0.473c-1.777,0.102-3.553,0.588-4.767,1.439c-0.571,0.4-1.06,0.873-1.507,1.381
	c-0.421,0.48-0.802,0.99-1.183,1.5l1.524,1.133c0.354-0.473,0.706-0.943,1.087-1.379c0.354-0.402,0.735-0.773,1.169-1.076
	c0.924-0.646,2.337-1.02,3.782-1.104c1.477-0.086,2.95,0.129,3.938,0.654l0.923,0.49l0.399-0.971
	c1.091-2.641,2.782-4.221,4.662-4.945c0.941-0.361,1.935-0.516,2.921-0.48c1.002,0.035,2.002,0.26,2.946,0.65
	c2.172,0.896,4.036,2.658,4.931,4.977l0.415,1.08l0.978-0.617c2.027-1.279,4.605-1.656,7.156-1.26
	c1.721,0.268,3.428,0.887,4.943,1.822c1.503,0.924,2.813,2.158,3.762,3.66c1.024,1.623,1.627,3.566,1.591,5.785
	c-0.594-0.422-1.232-0.779-1.904-1.063c-2.187-0.924-6.589-0.799-8.882,2.561c0.978-0.596,1.971-0.998,2.952-1.225
	c1.834-0.43,3.631-0.248,5.197,0.414c1.56,0.658,2.892,1.801,3.803,3.297c0.472,0.771,0.83,1.639,1.05,2.584l0.229,0.98l0.963-0.283
	c2.176-0.641,4.072-0.66,5.658-0.229c1.38,0.375,2.533,1.094,3.435,2.035c0.907,0.947,1.565,2.131,1.946,3.424
	c0.381,1.297,0.485,2.701,0.287,4.102L167.547,52.264z M124.078,30.941c-2.022,0.779-3.826,2.438-4.958,5.184l1.755,0.719
	c0.911-2.205,2.322-3.525,3.887-4.131c0.785-0.301,1.609-0.428,2.431-0.4c0.837,0.029,1.672,0.219,2.46,0.543
	c1.813,0.75,3.37,2.223,4.117,4.158C133.856,32.283,128.434,29.262,124.078,30.941"/>
</svg>
