<?xml version="1.0" encoding="utf-8"?>
<!-- Generator: Adobe Illustrator 16.0.0, SVG Export Plug-In . SVG Version: 6.00 Build 0)  -->
<!DOCTYPE svg PUBLIC "-//W3C//DTD SVG 1.1//EN" "http://www.w3.org/Graphics/SVG/1.1/DTD/svg11.dtd">
<svg version="1.1" id="Layer_1" xmlns="http://www.w3.org/2000/svg" xmlns:xlink="http://www.w3.org/1999/xlink" x="0px" y="0px"
	 width="42.667px" height="90.319px" viewBox="0 0 42.667 90.319" enable-background="new 0 0 42.667 90.319" xml:space="preserve">
<path fill-rule="evenodd" clip-rule="evenodd" fill="#FFF3D0" d="M26.769,33.592c1.618-3.215,1.712-6.928-0.442-9.965
	c-1.217-0.629-1.249-0.885-1.838-2.719l-4.748-6.785l-2.239-4.809c-0.542-0.928,1.177-1.385,2.035-0.41l2.341,3.76l8.457,8.896
	c4.92,3.051,9.995,5.613,6.869,10.371c-2.058,3.131-1.578,1.705-2.601,5.961C30.207,56.16,23.757,85.997,12.557,81.156
	c-3.986-2.466-3.835-3.648-1.839-10.455C14.193,58.859,19.728,47.564,26.769,33.592z"/>
</svg>
