<?xml version="1.0" encoding="utf-8"?>
<!-- Generator: Adobe Illustrator 16.0.0, SVG Export Plug-In . SVG Version: 6.00 Build 0)  -->
<!DOCTYPE svg PUBLIC "-//W3C//DTD SVG 1.1//EN" "http://www.w3.org/Graphics/SVG/1.1/DTD/svg11.dtd">
<svg version="1.1" id="Layer_1" xmlns="http://www.w3.org/2000/svg" xmlns:xlink="http://www.w3.org/1999/xlink" x="0px" y="0px"
	 width="42.667px" height="90.318px" viewBox="0 0 42.667 90.318" enable-background="new 0 0 42.667 90.318" xml:space="preserve">
<path fill="#FFF3D0" d="M36.796,70.701c1.996,6.807,2.147,7.988-1.839,10.455c-11.2,4.841-17.649-24.996-22.046-43.265
	c-1.023-4.256-0.543-2.83-2.602-5.961c-3.125-4.758,1.949-7.32,6.869-10.371l8.457-8.896l2.342-3.761
	c0.857-0.975,2.576-0.518,2.035,0.41l-2.24,4.81l-4.747,6.785c-0.589,1.834-0.621,2.09-1.839,2.719
	c-2.153,3.037-2.06,6.75-0.441,9.965C27.787,47.564,33.322,58.859,36.796,70.701z"/>
</svg>
