<?xml version="1.0" encoding="utf-8"?>
<!-- Generator: Adobe Illustrator 16.0.0, SVG Export Plug-In . SVG Version: 6.00 Build 0)  -->
<!DOCTYPE svg PUBLIC "-//W3C//DTD SVG 1.1//EN" "http://www.w3.org/Graphics/SVG/1.1/DTD/svg11.dtd">
<svg version="1.1" id="Layer_1" xmlns="http://www.w3.org/2000/svg" xmlns:xlink="http://www.w3.org/1999/xlink" x="0px" y="0px"
	 width="217.333px" height="211.268px" viewBox="0 0 217.333 211.268" enable-background="new 0 0 217.333 211.268"
	 xml:space="preserve">
<polygon fill-rule="evenodd" clip-rule="evenodd" fill="#F18C66" points="108.92,0 111.624,92.023 153.988,10.287 116.497,94.371 
	190.13,39.109 119.869,98.6 210.188,80.758 121.073,103.871 210.188,126.984 119.869,109.145 190.13,168.635 116.497,113.373 
	153.988,197.457 111.624,115.719 108.92,207.742 106.215,115.719 63.851,197.457 101.343,113.373 27.71,168.635 97.971,109.145 
	7.653,126.984 96.768,103.871 7.653,80.758 97.971,98.6 27.71,39.109 101.343,94.371 63.851,10.287 106.215,92.023 "/>
</svg>
