<?xml version="1.0" encoding="utf-8"?>
<!-- Generator: Adobe Illustrator 16.0.0, SVG Export Plug-In . SVG Version: 6.00 Build 0)  -->
<!DOCTYPE svg PUBLIC "-//W3C//DTD SVG 1.1//EN" "http://www.w3.org/Graphics/SVG/1.1/DTD/svg11.dtd">
<svg version="1.1" id="Layer_1" xmlns="http://www.w3.org/2000/svg" xmlns:xlink="http://www.w3.org/1999/xlink" x="0px" y="0px"
	 width="133.912px" height="25.333px" viewBox="0 0 133.912 25.333" enable-background="new 0 0 133.912 25.333"
	 xml:space="preserve">
<g>
	<rect x="10.132" y="10.198" fill-rule="evenodd" clip-rule="evenodd" fill="#E6E6E5" width="9.34" height="9.34"/>
	<polygon fill-rule="evenodd" clip-rule="evenodd" fill="#CDCCCC" points="10.132,14.179 16.246,14.179 16.246,14.864 
		17.098,14.864 17.098,16.345 16.246,16.345 16.246,17.029 10.132,17.029 	"/>
	<path fill-rule="evenodd" clip-rule="evenodd" fill="#E6E6E5" d="M8.331,13.443h7.915v0.684h0.852v1.482h-0.852v0.684H8.331
		c-0.784,0-1.425-0.642-1.425-1.425C6.906,14.084,7.547,13.443,8.331,13.443"/>
	<path fill-rule="evenodd" clip-rule="evenodd" fill="#FFFFFF" d="M10.132,14.868h3.18h2.98h0.806v-0.741h-0.806h-0.046v-0.684
		h-2.934h-3.18H8.331c-0.784,0-1.425,0.641-1.425,1.425H10.132z"/>
	<rect x="117.087" y="10.198" fill-rule="evenodd" clip-rule="evenodd" fill="#E6E6E5" width="9.34" height="9.34"/>
	<polygon fill-rule="evenodd" clip-rule="evenodd" fill="#CDCCCC" points="126.426,14.179 120.313,14.179 120.313,14.864 
		119.46,14.864 119.46,16.345 120.313,16.345 120.313,17.029 126.426,17.029 	"/>
	<path fill-rule="evenodd" clip-rule="evenodd" fill="#E6E6E5" d="M128.227,13.443h-7.915v0.684h-0.852v1.482h0.852v0.684h7.915
		c0.784,0,1.425-0.642,1.425-1.425C129.652,14.084,129.011,13.443,128.227,13.443"/>
	<path fill-rule="evenodd" clip-rule="evenodd" fill="#FFFFFF" d="M126.426,14.868h-3.18h-2.98h-0.806v-0.741h0.806h0.046v-0.684
		h2.934h3.18h1.801c0.784,0,1.425,0.641,1.425,1.425H126.426z"/>
	<rect x="17.098" y="14.4" fill="#FFFFFF" width="102.363" height="0.935"/>
</g>
</svg>
