<?xml version="1.0" encoding="utf-8"?>
<!-- Generator: Adobe Illustrator 16.0.0, SVG Export Plug-In . SVG Version: 6.00 Build 0)  -->
<!DOCTYPE svg PUBLIC "-//W3C//DTD SVG 1.1//EN" "http://www.w3.org/Graphics/SVG/1.1/DTD/svg11.dtd">
<svg version="1.1" id="Layer_1" xmlns="http://www.w3.org/2000/svg" xmlns:xlink="http://www.w3.org/1999/xlink" x="0px" y="0px"
	 width="413px" height="198.045px" viewBox="42.12 0 413 198.045" enable-background="new 42.12 0 413 198.045"
	 xml:space="preserve">
<path fill="#FFFFFF" d="M215.156,40.738h-20.648c-5.384,0-8.859,1.173-10.945,3.562c-2.108,2.413-2.908,6.164-2.908,11.273
	l-0.012,4.735l-2.094-0.009l-0.02-4.726c0-5.615,0.946-9.814,3.439-12.668c2.515-2.879,6.499-4.293,12.54-4.293h20.648V40.738z"/>
<path fill="none" stroke="#FFFFFF" stroke-width="2.126" stroke-miterlimit="22.926" d="M285.028,47.248h35.709
	c11.425,0,14.916,5.173,14.916,15.898v74.666"/>
<path fill="#676767" d="M314.76,58.993L314.76,58.993c-0.819,0-1.489,0.671-1.489,1.491v130.067c0,0.819,0.67,1.489,1.489,1.489
	c0.82,0,1.49-0.67,1.49-1.489V60.484C316.25,59.664,315.58,58.993,314.76,58.993"/>
<path fill="#676767" d="M207.806,59.068L207.806,59.068c0.82,0,1.49,0.671,1.49,1.49V190.55c0,0.82-0.67,1.491-1.49,1.491
	c-0.82,0-1.49-0.671-1.49-1.491V60.559C206.315,59.739,206.986,59.068,207.806,59.068"/>
<rect x="87.807" y="22.588" fill="#E6E6E5" width="105.151" height="5.4"/>
<rect x="184.437" y="6.354" fill="#676767" width="0.992" height="16.234"/>
<rect x="95.337" y="6.354" fill="#676767" width="0.992" height="16.234"/>
<rect x="329.608" y="22.588" fill="#E6E6E5" width="105.15" height="5.4"/>
<rect x="426.238" y="6.354" fill="#676767" width="0.99" height="16.234"/>
<rect x="337.138" y="6.354" fill="#676767" width="0.991" height="16.234"/>
<polygon fill="#E6E6E5" points="321.368,62.448 321.368,55.782 261.234,55.782 201.199,55.782 201.199,62.448 "/>
<polygon fill="#E6E6E5" points="207.806,187.435 211.522,187.435 214.674,195.01 207.806,195.01 200.938,195.01 204.089,187.435 "/>
<polygon fill="#E6E6E5" points="314.76,187.435 318.478,187.435 321.628,195.01 314.76,195.01 307.892,195.01 311.043,187.435 "/>
<polygon fill="#E6E6E5" points="285.172,22.644 302.498,22.644 302.498,49.059 275.295,49.059 275.295,22.644 275.295,17.334 
	282.847,17.334 "/>
<polygon fill="#FFFFFF" points="302.497,22.644 285.172,22.644 275.295,22.644 275.295,26.282 302.497,26.282 "/>
<rect x="275.295" y="45.297" fill="#CDCCCC" width="27.202" height="3.763"/>
<rect x="333.365" y="80.733" fill="#E6E6E5" width="67.199" height="12"/>
<rect x="333.365" y="96.034" fill="#E6E6E5" width="67.199" height="12"/>
<rect x="333.365" y="111.333" fill="#E6E6E5" width="67.199" height="12"/>
<rect x="337.787" y="80.733" fill="#676767" width="58.354" height="12"/>
<path fill="#FFFFFF" d="M361.401,89.156c0,0.252-0.027,0.461-0.086,0.626c-0.06,0.166-0.141,0.299-0.241,0.399
	c-0.104,0.101-0.229,0.171-0.375,0.21c-0.147,0.04-0.308,0.06-0.479,0.06c-0.107,0-0.214-0.005-0.316-0.014
	c-0.105-0.009-0.221-0.026-0.34-0.049c-0.094-0.014-0.142-0.063-0.142-0.147V89.59c0-0.037,0.015-0.07,0.042-0.098
	c0.028-0.028,0.063-0.042,0.104-0.042h0.302c0.084,0,0.136-0.026,0.153-0.077c0.021-0.052,0.028-0.124,0.028-0.217v-4.074
	c0-0.037,0.017-0.071,0.05-0.102c0.032-0.03,0.067-0.045,0.104-0.045h1.044c0.036,0,0.071,0.015,0.104,0.045
	c0.033,0.031,0.049,0.065,0.049,0.102V89.156L361.401,89.156z M361.431,84.41c0,0.037-0.016,0.07-0.049,0.098
	c-0.033,0.028-0.066,0.042-0.104,0.042h-1.101c-0.038,0-0.071-0.014-0.104-0.042c-0.032-0.028-0.049-0.061-0.049-0.098v-0.686
	c0-0.037,0.017-0.07,0.049-0.098c0.033-0.028,0.066-0.042,0.104-0.042h1.101c0.037,0,0.07,0.014,0.104,0.042
	s0.049,0.061,0.049,0.098V84.41z M364.435,86.769c0-0.28-0.043-0.478-0.127-0.595c-0.084-0.117-0.207-0.175-0.369-0.175
	c-0.164,0-0.289,0.058-0.375,0.175c-0.088,0.117-0.131,0.315-0.131,0.595v0.406c0,0.28,0.043,0.479,0.131,0.599
	c0.086,0.118,0.211,0.178,0.375,0.178c0.162,0,0.285-0.06,0.369-0.178c0.084-0.12,0.127-0.319,0.127-0.599V86.769z M365.771,87.175
	c0,0.62-0.16,1.092-0.477,1.414c-0.316,0.322-0.77,0.483-1.357,0.483s-1.043-0.161-1.362-0.483
	c-0.318-0.322-0.479-0.794-0.479-1.414v-0.406c0-0.621,0.16-1.092,0.479-1.414s0.774-0.483,1.362-0.483s1.041,0.161,1.357,0.483
	s0.477,0.793,0.477,1.414V87.175z M370.097,88.869c0,0.037-0.014,0.07-0.041,0.098c-0.027,0.028-0.062,0.042-0.099,0.042h-1.063
	c-0.037,0-0.07-0.014-0.099-0.042c-0.028-0.028-0.042-0.061-0.042-0.098v-2.415c0-0.187-0.038-0.31-0.111-0.371
	c-0.074-0.061-0.185-0.091-0.328-0.091c-0.164,0-0.342,0.051-0.533,0.154v2.709c0,0.037-0.014,0.072-0.039,0.105
	c-0.024,0.032-0.059,0.049-0.102,0.049h-1.05c-0.042,0-0.077-0.017-0.106-0.049c-0.031-0.033-0.047-0.068-0.047-0.105v-5.117
	c0-0.037,0.014-0.07,0.041-0.098c0.028-0.028,0.063-0.042,0.1-0.042h1.063c0.037,0,0.07,0.014,0.1,0.042
	c0.027,0.028,0.041,0.061,0.041,0.098v1.407c0.148-0.107,0.307-0.179,0.47-0.213c0.163-0.035,0.353-0.053,0.567-0.053
	c0.252,0,0.461,0.041,0.627,0.122c0.164,0.082,0.295,0.195,0.392,0.34c0.095,0.144,0.163,0.313,0.202,0.504
	c0.039,0.191,0.061,0.395,0.061,0.609v2.415H370.097z M374.507,88.855c0,0.037-0.013,0.072-0.039,0.105
	c-0.023,0.032-0.06,0.049-0.101,0.049h-1.052c-0.041,0-0.078-0.017-0.106-0.049c-0.031-0.033-0.047-0.068-0.047-0.105v-2.374
	c0-0.186-0.032-0.314-0.099-0.384c-0.063-0.07-0.176-0.105-0.336-0.105c-0.078,0-0.166,0.014-0.262,0.042
	c-0.096,0.028-0.184,0.063-0.264,0.105v2.716c0,0.037-0.012,0.072-0.037,0.105c-0.025,0.032-0.061,0.049-0.102,0.049h-1.051
	c-0.043,0-0.078-0.017-0.109-0.049c-0.029-0.033-0.045-0.068-0.045-0.105v-3.78c0-0.037,0.015-0.07,0.043-0.098
	c0.027-0.028,0.061-0.042,0.098-0.042h0.973c0.037,0,0.07,0.014,0.098,0.042c0.029,0.028,0.043,0.061,0.043,0.098v0.161
	c0.093-0.07,0.183-0.128,0.267-0.175s0.17-0.083,0.259-0.109c0.09-0.025,0.184-0.044,0.284-0.055
	c0.101-0.012,0.215-0.018,0.347-0.018c0.258,0,0.467,0.044,0.631,0.133c0.164,0.089,0.289,0.208,0.377,0.357
	c0.09,0.149,0.148,0.319,0.183,0.511c0.032,0.191,0.049,0.392,0.049,0.601L374.507,88.855L374.507,88.855z"/>
<rect x="337.787" y="96.034" fill="#676767" width="58.354" height="12"/>
<rect x="337.787" y="111.333" fill="#676767" width="58.354" height="12"/>
<path fill="#FFFFFF" d="M364.692,104.554c0,0.037-0.014,0.072-0.039,0.105c-0.024,0.031-0.06,0.049-0.102,0.049h-1.05
	c-0.042,0-0.078-0.018-0.108-0.049c-0.028-0.033-0.045-0.068-0.045-0.105v-2.387c0-0.178-0.026-0.293-0.08-0.348
	c-0.055-0.053-0.142-0.079-0.263-0.079c-0.052,0-0.116,0.005-0.192,0.017c-0.078,0.012-0.155,0.034-0.235,0.067
	c0.011,0.061,0.017,0.114,0.019,0.163c0.002,0.05,0.004,0.109,0.004,0.18v2.387c0,0.037-0.015,0.072-0.043,0.105
	c-0.025,0.031-0.063,0.049-0.104,0.049h-1.049c-0.043,0-0.078-0.018-0.105-0.049c-0.029-0.033-0.043-0.068-0.043-0.105v-2.387
	c0-0.178-0.025-0.293-0.076-0.348c-0.052-0.053-0.139-0.079-0.26-0.079c-0.055,0-0.121,0.008-0.195,0.024s-0.149,0.043-0.225,0.08
	v2.709c0,0.037-0.012,0.072-0.038,0.105c-0.026,0.031-0.06,0.049-0.101,0.049h-1.053c-0.041,0-0.078-0.018-0.107-0.049
	c-0.029-0.033-0.045-0.068-0.045-0.105v-3.779c0-0.039,0.015-0.07,0.041-0.099c0.027-0.028,0.062-0.042,0.1-0.042h0.973
	c0.037,0,0.069,0.014,0.099,0.042c0.026,0.028,0.041,0.06,0.041,0.099v0.16c0.09-0.064,0.174-0.121,0.252-0.168
	c0.08-0.047,0.162-0.084,0.246-0.111c0.084-0.028,0.174-0.049,0.27-0.061c0.097-0.011,0.199-0.017,0.313-0.017
	c0.172,0,0.328,0.028,0.467,0.084c0.141,0.056,0.258,0.147,0.352,0.272c0.183-0.148,0.365-0.246,0.549-0.289
	c0.185-0.045,0.386-0.067,0.599-0.067c0.444,0,0.762,0.138,0.953,0.413c0.19,0.275,0.286,0.667,0.286,1.176v2.387H364.692z
	 M367.451,103.021h-0.345c-0.176,0-0.303,0.03-0.377,0.092c-0.073,0.061-0.112,0.164-0.112,0.314v0.07
	c0,0.121,0.034,0.203,0.104,0.245s0.154,0.063,0.252,0.063c0.084,0,0.17-0.012,0.256-0.033c0.086-0.021,0.16-0.045,0.222-0.072
	V103.021L367.451,103.021z M368.753,104.567c0,0.037-0.016,0.07-0.042,0.099c-0.028,0.028-0.062,0.042-0.099,0.042h-0.973
	c-0.037,0-0.07-0.014-0.1-0.042c-0.027-0.028-0.041-0.062-0.041-0.099v-0.146c-0.135,0.098-0.287,0.18-0.455,0.248
	s-0.35,0.102-0.547,0.102c-0.139,0-0.279-0.021-0.42-0.063s-0.268-0.111-0.385-0.21c-0.115-0.099-0.211-0.228-0.283-0.386
	c-0.071-0.158-0.108-0.356-0.108-0.594v-0.084c0-0.42,0.155-0.716,0.466-0.887c0.312-0.17,0.758-0.255,1.34-0.255h0.302v-0.203
	c0-0.084-0.013-0.153-0.037-0.207c-0.026-0.053-0.062-0.095-0.103-0.126c-0.043-0.029-0.092-0.049-0.147-0.059
	s-0.113-0.014-0.174-0.014c-0.226,0-0.442,0.002-0.654,0.01c-0.213,0.008-0.399,0.02-0.563,0.039h-0.021
	c-0.088,0-0.133-0.047-0.133-0.141v-0.679c0-0.08,0.047-0.136,0.141-0.168c0.057-0.019,0.135-0.038,0.234-0.056
	c0.102-0.021,0.209-0.037,0.326-0.053c0.115-0.017,0.236-0.031,0.363-0.043c0.125-0.011,0.244-0.017,0.356-0.017
	c0.252,0,0.485,0.024,0.701,0.073c0.213,0.05,0.397,0.134,0.556,0.252c0.155,0.119,0.278,0.275,0.366,0.469
	c0.09,0.193,0.134,0.434,0.134,0.718V104.567L368.753,104.567z M370.839,104.554c0,0.037-0.015,0.072-0.042,0.105
	c-0.028,0.031-0.062,0.049-0.098,0.049h-1.058c-0.037,0-0.072-0.018-0.104-0.049c-0.032-0.033-0.05-0.068-0.05-0.105v-5.117
	c0-0.037,0.018-0.07,0.05-0.098c0.032-0.028,0.067-0.042,0.104-0.042h1.058c0.036,0,0.069,0.014,0.098,0.042
	c0.027,0.028,0.042,0.061,0.042,0.098V104.554z M373.869,102.286c0-0.21-0.041-0.374-0.125-0.494
	c-0.084-0.119-0.216-0.178-0.394-0.178c-0.168,0-0.295,0.059-0.385,0.178c-0.089,0.12-0.133,0.284-0.133,0.494v0.021h1.035
	L373.869,102.286L373.869,102.286z M375.158,102.896c0,0.045-0.015,0.084-0.043,0.111c-0.027,0.028-0.063,0.042-0.104,0.042h-2.177
	v0.015c0,0.186,0.047,0.332,0.14,0.44c0.096,0.106,0.27,0.161,0.524,0.161c0.095,0,0.203-0.002,0.33-0.004
	c0.125-0.002,0.252-0.008,0.377-0.014c0.127-0.006,0.246-0.013,0.356-0.018c0.112-0.005,0.201-0.012,0.267-0.021h0.028
	c0.084,0,0.125,0.039,0.125,0.119v0.631c0,0.056-0.008,0.098-0.026,0.125c-0.021,0.029-0.058,0.052-0.112,0.07
	c-0.224,0.074-0.46,0.131-0.707,0.164c-0.248,0.035-0.519,0.053-0.812,0.053c-0.238,0-0.468-0.033-0.688-0.098
	c-0.219-0.066-0.413-0.172-0.581-0.318c-0.168-0.147-0.302-0.336-0.402-0.566s-0.149-0.516-0.149-0.852v-0.461
	c0-0.617,0.167-1.088,0.501-1.414c0.333-0.328,0.786-0.49,1.359-0.49c0.31,0,0.574,0.047,0.8,0.14
	c0.224,0.093,0.407,0.224,0.556,0.392s0.258,0.369,0.33,0.603c0.071,0.233,0.108,0.489,0.108,0.771V102.896L375.158,102.896z"/>
<path fill="#FFFFFF" d="M367.245,116.084c0,0.276-0.063,0.519-0.188,0.731c-0.127,0.213-0.311,0.396-0.548,0.55l-0.567,0.378
	c-0.135,0.089-0.264,0.173-0.387,0.252c-0.125,0.08-0.233,0.158-0.33,0.238s-0.17,0.162-0.229,0.244
	c-0.057,0.084-0.083,0.176-0.083,0.273v0.021h2.112c0.037,0,0.07,0.015,0.099,0.041c0.028,0.028,0.042,0.062,0.042,0.099v0.917
	c0,0.038-0.014,0.07-0.042,0.098c-0.026,0.029-0.062,0.042-0.099,0.042h-3.262c-0.037,0-0.07-0.013-0.099-0.042
	c-0.028-0.027-0.042-0.06-0.042-0.098v-0.742c0-0.387,0.078-0.725,0.23-1.015c0.153-0.289,0.354-0.525,0.603-0.707l0.603-0.448
	c0.188-0.141,0.332-0.249,0.438-0.329c0.104-0.079,0.185-0.144,0.233-0.192c0.053-0.049,0.082-0.09,0.096-0.125
	c0.011-0.035,0.02-0.08,0.02-0.131c0-0.056-0.011-0.103-0.025-0.143c-0.016-0.04-0.049-0.072-0.098-0.098
	c-0.051-0.026-0.117-0.045-0.201-0.057s-0.194-0.018-0.336-0.018c-0.224,0-0.451,0.01-0.687,0.027
	c-0.231,0.02-0.459,0.039-0.679,0.057h-0.016c-0.037,0-0.065-0.014-0.091-0.042c-0.022-0.028-0.034-0.06-0.034-0.097v-0.681
	c0-0.036,0.014-0.065,0.039-0.084c0.025-0.018,0.058-0.034,0.094-0.048c0.209-0.075,0.451-0.137,0.726-0.186
	c0.272-0.049,0.558-0.074,0.851-0.074c0.336,0,0.623,0.029,0.857,0.088s0.428,0.145,0.574,0.259s0.254,0.259,0.32,0.435
	C367.21,115.653,367.245,115.854,367.245,116.084 M370.828,119.829c0,0.038-0.015,0.07-0.038,0.098
	c-0.025,0.029-0.059,0.042-0.096,0.042h-1.141c-0.037,0-0.07-0.013-0.099-0.042c-0.028-0.027-0.042-0.06-0.042-0.098v-3.646
	l-0.749,0.295c-0.037,0.013-0.065,0.021-0.084,0.021c-0.046,0-0.069-0.029-0.069-0.085v-0.994c0-0.057,0.027-0.095,0.084-0.119
	l1.133-0.504c0.043-0.018,0.098-0.027,0.162-0.027h0.805c0.09,0,0.134,0.045,0.134,0.133V119.829z"/>
<path fill="#E6E6E5" d="M408.691,98.424c1.993,0,3.608,1.616,3.608,3.61s-1.615,3.609-3.608,3.609c-1.994,0-3.609-1.615-3.609-3.609
	S406.697,98.424,408.691,98.424"/>
<path fill="#676767" d="M408.691,99.702c1.287,0,2.332,1.044,2.332,2.333c0,1.288-1.045,2.331-2.332,2.331
	c-1.288,0-2.333-1.043-2.333-2.331C406.358,100.746,407.403,99.702,408.691,99.702"/>
<path fill="#6ABD45" d="M408.691,100.71c0.729,0,1.323,0.594,1.323,1.324s-0.594,1.324-1.323,1.324c-0.73,0-1.324-0.594-1.324-1.324
	S407.961,100.71,408.691,100.71"/>
<path fill="#E6E6E5" d="M408.691,113.724c1.993,0,3.608,1.616,3.608,3.61s-1.615,3.61-3.608,3.61c-1.994,0-3.609-1.616-3.609-3.61
	S406.697,113.724,408.691,113.724"/>
<path fill="#676767" d="M408.691,115.001c1.287,0,2.332,1.044,2.332,2.333c0,1.288-1.045,2.332-2.332,2.332
	c-1.288,0-2.333-1.044-2.333-2.332C406.358,116.045,407.403,115.001,408.691,115.001"/>
<path fill="#6ABD45" d="M408.691,116.01c0.729,0,1.323,0.593,1.323,1.324s-0.594,1.324-1.323,1.324c-0.73,0-1.324-0.593-1.324-1.324
	S407.961,116.01,408.691,116.01"/>
<rect x="333.365" y="126.785" fill="#E6E6E5" width="28.129" height="24.75"/>
<rect x="337.789" y="130.478" fill="#676767" width="19.278" height="17.361"/>
<polygon fill="#FFFFFF" points="337.79,130.479 357.067,130.479 361.495,126.785 335.651,126.785 333.362,126.785 335.651,128.694 
	"/>
<polygon fill="#CDCCCC" points="357.067,147.839 337.79,147.839 333.365,151.535 361.494,151.535 "/>
<path fill="#FFFFFF" d="M351.524,134.638c0,0.008-0.002,0.018-0.006,0.024c-0.006,0.009-0.008,0.021-0.008,0.037l-1.678,7.666
	c-0.066,0.31-0.173,0.562-0.318,0.758c-0.146,0.196-0.324,0.349-0.533,0.457s-0.442,0.185-0.707,0.226
	c-0.264,0.041-0.545,0.063-0.846,0.063s-0.582-0.021-0.846-0.063c-0.264-0.041-0.498-0.117-0.707-0.226s-0.387-0.261-0.533-0.457
	s-0.252-0.448-0.318-0.758l-1.68-7.666c0-0.017-0.002-0.026-0.006-0.03c-0.004-0.005-0.006-0.016-0.006-0.031
	c0-0.125,0.07-0.188,0.213-0.188h2.166c0.066,0,0.123,0.021,0.17,0.068c0.045,0.045,0.078,0.103,0.094,0.168l1.316,6.929
	c0.016,0.059,0.029,0.102,0.043,0.131c0.014,0.03,0.043,0.044,0.094,0.044s0.082-0.014,0.1-0.044
	c0.019-0.029,0.035-0.072,0.052-0.131l1.315-6.929c0.016-0.065,0.045-0.123,0.086-0.168c0.043-0.047,0.097-0.068,0.164-0.068h2.179
	C351.459,134.45,351.524,134.513,351.524,134.638"/>
<rect x="212.454" y="30.291" fill="#B4B4B4" width="55.217" height="18.768"/>
<path fill="#E6E6E5" d="M408.691,83.124c1.993,0,3.608,1.616,3.608,3.61c0,1.994-1.615,3.61-3.608,3.61
	c-1.994,0-3.609-1.616-3.609-3.61C405.082,84.74,406.697,83.124,408.691,83.124"/>
<path fill="#676767" d="M408.691,84.401c1.287,0,2.332,1.044,2.332,2.333c0,1.288-1.045,2.332-2.332,2.332
	c-1.288,0-2.333-1.044-2.333-2.332C406.358,85.445,407.403,84.401,408.691,84.401"/>
<path fill="#6ABD45" d="M408.691,85.41c0.729,0,1.323,0.592,1.323,1.324c0,0.731-0.594,1.324-1.323,1.324
	c-0.73,0-1.324-0.593-1.324-1.324C407.367,86.002,407.961,85.41,408.691,85.41"/>
<rect x="217.779" y="30.291" fill="#E6E6E5" width="44.567" height="18.768"/>
<path fill="#B4B4B4" d="M219.64,36.064c1.994,0,3.61,1.617,3.61,3.61c0,1.994-1.616,3.611-3.61,3.611
	c-1.994,0-3.61-1.617-3.61-3.611C216.03,37.682,217.646,36.064,219.64,36.064"/>
<path fill="#676767" d="M219.64,37.343c1.288,0,2.333,1.044,2.333,2.332c0,1.288-1.045,2.333-2.333,2.333s-2.332-1.045-2.332-2.333
	C217.308,38.387,218.352,37.343,219.64,37.343"/>
<path fill="#6ABD45" d="M219.64,38.351c0.731,0,1.324,0.593,1.324,1.324c0,0.732-0.593,1.324-1.324,1.324s-1.324-0.592-1.324-1.324
	C218.315,38.944,218.909,38.351,219.64,38.351"/>
<rect x="59.447" y="55.782" fill="#E6E6E5" width="124.651" height="15.114"/>
<rect x="68.579" y="55.782" fill="#676767" width="106.388" height="15.114"/>
<path fill="#FFFFFF" d="M95.553,61.995c0,0.043-0.012,0.08-0.036,0.112c-0.024,0.032-0.057,0.048-0.1,0.048h-0.112
	c-0.171,0-0.336,0.013-0.496,0.04c-0.16,0.026-0.301,0.075-0.424,0.144v3.104c0,0.042-0.015,0.083-0.044,0.12
	c-0.029,0.037-0.068,0.056-0.116,0.056h-1.2c-0.048,0-0.089-0.019-0.124-0.056c-0.035-0.037-0.052-0.078-0.052-0.12v-4.32
	c0-0.043,0.016-0.08,0.048-0.112c0.032-0.032,0.069-0.048,0.112-0.048h1.152c0.042,0,0.08,0.016,0.112,0.048
	c0.032,0.032,0.048,0.069,0.048,0.112v0.192c0.09-0.096,0.177-0.171,0.26-0.224c0.082-0.054,0.164-0.095,0.244-0.124
	c0.08-0.029,0.159-0.048,0.236-0.056c0.077-0.008,0.159-0.012,0.244-0.012h0.088c0.042,0,0.08,0.016,0.112,0.048
	c0.032,0.032,0.048,0.069,0.048,0.112V61.995z M98.769,62.851c0-0.24-0.048-0.428-0.144-0.564c-0.096-0.136-0.245-0.204-0.448-0.204
	c-0.192,0-0.339,0.068-0.44,0.204c-0.101,0.136-0.152,0.324-0.152,0.564v0.024h1.184V62.851z M100.241,63.547
	c0,0.053-0.016,0.096-0.048,0.128c-0.032,0.032-0.072,0.048-0.12,0.048h-2.488v0.016c0,0.213,0.053,0.381,0.16,0.504
	c0.107,0.122,0.307,0.184,0.6,0.184c0.106,0,0.232-0.002,0.376-0.004c0.144-0.003,0.288-0.008,0.432-0.016
	c0.144-0.008,0.28-0.015,0.408-0.021c0.128-0.006,0.229-0.013,0.304-0.024h0.032c0.096,0,0.144,0.045,0.144,0.136v0.72
	c0,0.064-0.01,0.112-0.032,0.144c-0.021,0.032-0.064,0.059-0.128,0.08c-0.256,0.085-0.525,0.148-0.808,0.188
	c-0.283,0.039-0.592,0.06-0.928,0.06c-0.272,0-0.533-0.037-0.784-0.112c-0.25-0.075-0.472-0.196-0.664-0.364
	c-0.192-0.168-0.345-0.384-0.46-0.648c-0.115-0.264-0.172-0.588-0.172-0.972v-0.529c0-0.703,0.191-1.242,0.572-1.615
	c0.381-0.374,0.9-0.56,1.556-0.56c0.352,0,0.656,0.054,0.912,0.16c0.256,0.107,0.468,0.256,0.636,0.448s0.294,0.421,0.376,0.688
	c0.082,0.266,0.124,0.56,0.124,0.879V63.547z M103.601,65.851c0-0.037-0.006-0.071-0.02-0.1c-0.013-0.03-0.044-0.058-0.092-0.088
	c-0.048-0.03-0.118-0.059-0.208-0.088c-0.09-0.03-0.213-0.06-0.368-0.092l-0.48-0.105c-0.037,0.049-0.067,0.115-0.088,0.201
	c-0.022,0.085-0.032,0.176-0.032,0.272v0.056c0,0.105,0.05,0.192,0.148,0.256c0.099,0.064,0.268,0.096,0.508,0.096
	c0.133,0,0.243-0.009,0.328-0.028c0.086-0.019,0.15-0.044,0.192-0.076c0.043-0.032,0.072-0.069,0.088-0.112
	c0.016-0.043,0.024-0.088,0.024-0.136V65.851L103.601,65.851z M103.617,62.491c0-0.139-0.04-0.252-0.12-0.34
	c-0.08-0.088-0.232-0.132-0.456-0.132s-0.376,0.044-0.456,0.132c-0.08,0.088-0.12,0.201-0.12,0.34v0.088
	c0,0.064,0.008,0.124,0.024,0.18c0.016,0.056,0.044,0.105,0.084,0.148c0.04,0.042,0.097,0.076,0.172,0.1
	c0.075,0.024,0.173,0.036,0.296,0.036c0.224,0,0.376-0.043,0.456-0.128s0.12-0.198,0.12-0.336V62.491z M105.345,61.723
	c0,0.091-0.053,0.149-0.16,0.176l-0.224,0.064c0.043,0.075,0.077,0.163,0.104,0.264s0.04,0.189,0.04,0.264v0.088
	c0,0.538-0.182,0.928-0.548,1.168c-0.365,0.24-0.871,0.36-1.516,0.36c-0.16,0-0.311-0.01-0.452-0.028
	c-0.141-0.019-0.252-0.042-0.332-0.068c-0.069,0.048-0.104,0.104-0.104,0.168c0,0.043,0.012,0.079,0.036,0.108
	c0.024,0.029,0.074,0.052,0.148,0.068l0.896,0.184c0.256,0.053,0.503,0.109,0.74,0.168c0.237,0.059,0.447,0.134,0.628,0.228
	c0.181,0.093,0.327,0.213,0.436,0.36c0.109,0.146,0.164,0.332,0.164,0.556v0.056c0,0.469-0.188,0.812-0.564,1.028
	c-0.376,0.216-0.932,0.324-1.668,0.324c-0.683,0-1.2-0.122-1.552-0.364c-0.352-0.243-0.528-0.572-0.528-0.988v-0.056
	c0-0.117,0.036-0.259,0.108-0.424c0.072-0.166,0.185-0.31,0.34-0.432c-0.101-0.075-0.189-0.163-0.264-0.264
	c-0.075-0.101-0.112-0.248-0.112-0.44c0-0.187,0.039-0.332,0.116-0.436c0.078-0.104,0.164-0.201,0.26-0.292
	c-0.091-0.08-0.161-0.164-0.212-0.252s-0.088-0.176-0.112-0.264c-0.024-0.088-0.04-0.172-0.048-0.252
	c-0.008-0.08-0.012-0.152-0.012-0.216v-0.088c0-0.502,0.171-0.881,0.512-1.14c0.341-0.259,0.866-0.388,1.576-0.388h2.12
	c0.054,0,0.098,0.019,0.132,0.056c0.035,0.037,0.052,0.083,0.052,0.136V61.723z M107.497,65.443c0,0.042-0.019,0.083-0.056,0.12
	s-0.077,0.056-0.12,0.056h-1.192c-0.043,0-0.083-0.019-0.12-0.056c-0.037-0.037-0.056-0.078-0.056-0.12v-4.312
	c0-0.043,0.019-0.082,0.056-0.116c0.037-0.035,0.077-0.052,0.12-0.052h1.192c0.043,0,0.083,0.017,0.12,0.052
	c0.037,0.034,0.056,0.073,0.056,0.116V65.443z M107.537,60.363c0,0.042-0.019,0.08-0.056,0.112c-0.037,0.032-0.077,0.048-0.12,0.048
	h-1.264c-0.043,0-0.084-0.016-0.124-0.048c-0.04-0.032-0.06-0.07-0.06-0.112v-0.784c0-0.043,0.02-0.08,0.06-0.112
	c0.04-0.032,0.081-0.048,0.124-0.048h1.264c0.043,0,0.083,0.016,0.12,0.048c0.037,0.032,0.056,0.069,0.056,0.112V60.363z
	 M111.801,64.259c0,0.203-0.036,0.39-0.108,0.564c-0.072,0.173-0.184,0.324-0.336,0.451c-0.152,0.129-0.344,0.23-0.576,0.305
	c-0.232,0.075-0.511,0.112-0.836,0.112c-0.288,0-0.56-0.019-0.816-0.056c-0.256-0.037-0.477-0.083-0.664-0.136
	c-0.101-0.027-0.152-0.085-0.152-0.176v-0.824c0-0.048,0.013-0.088,0.04-0.12c0.027-0.032,0.069-0.048,0.128-0.048h0.032
	c0.117,0.016,0.243,0.032,0.375,0.048c0.134,0.016,0.264,0.029,0.389,0.04c0.125,0.01,0.242,0.02,0.352,0.028
	c0.109,0.008,0.195,0.012,0.26,0.012c0.155,0,0.256-0.02,0.304-0.06c0.048-0.04,0.072-0.098,0.072-0.172
	c0-0.043-0.016-0.084-0.048-0.124c-0.032-0.04-0.097-0.087-0.192-0.14l-0.976-0.528c-0.507-0.272-0.76-0.694-0.76-1.264
	c0-0.411,0.144-0.726,0.432-0.948c0.288-0.221,0.73-0.332,1.328-0.332c0.304,0,0.577,0.02,0.82,0.06
	c0.243,0.04,0.46,0.086,0.652,0.14c0.107,0.026,0.16,0.085,0.16,0.176v0.848c0,0.104-0.045,0.159-0.136,0.159h-0.024
	c-0.059-0.004-0.147-0.015-0.264-0.031c-0.117-0.016-0.243-0.031-0.376-0.044c-0.134-0.013-0.267-0.025-0.4-0.036
	c-0.134-0.011-0.245-0.016-0.336-0.016c-0.197,0-0.296,0.059-0.296,0.176c0,0.058,0.058,0.12,0.176,0.184l0.936,0.504
	c0.325,0.176,0.546,0.372,0.664,0.588C111.742,63.815,111.801,64.035,111.801,64.259 M115.305,61.939
	c0,0.043-0.016,0.08-0.048,0.112c-0.032,0.032-0.069,0.048-0.112,0.048h-0.608v2.152c0,0.123,0.012,0.204,0.036,0.244
	c0.024,0.04,0.087,0.06,0.188,0.06h0.368c0.048,0,0.088,0.015,0.12,0.044c0.032,0.029,0.048,0.065,0.048,0.108v0.752
	c0,0.043-0.016,0.077-0.048,0.104c-0.032,0.026-0.072,0.045-0.12,0.056c-0.07,0.011-0.132,0.021-0.188,0.032
	c-0.056,0.011-0.111,0.019-0.164,0.024c-0.054,0.005-0.108,0.009-0.164,0.012c-0.056,0.003-0.122,0.004-0.196,0.004
	c-0.214,0-0.407-0.021-0.58-0.06c-0.174-0.04-0.322-0.113-0.449-0.22c-0.125-0.107-0.22-0.255-0.287-0.444
	c-0.067-0.19-0.1-0.434-0.1-0.732v-2.136l-0.528-0.12c-0.043-0.011-0.082-0.032-0.116-0.064c-0.035-0.032-0.053-0.069-0.053-0.112
	v-0.672c0-0.043,0.017-0.082,0.049-0.116c0.032-0.035,0.072-0.052,0.12-0.052H113v-0.648c0-0.043,0.017-0.079,0.052-0.108
	c0.034-0.03,0.073-0.05,0.116-0.06l1.192-0.208h0.024c0.042,0,0.079,0.014,0.108,0.044c0.029,0.029,0.044,0.065,0.044,0.108v0.872
	h0.608c0.043,0,0.08,0.016,0.112,0.048c0.032,0.032,0.048,0.069,0.048,0.112L115.305,61.939L115.305,61.939z M118.593,62.851
	c0-0.24-0.048-0.428-0.144-0.564c-0.096-0.136-0.246-0.204-0.448-0.204c-0.192,0-0.339,0.068-0.44,0.204
	c-0.101,0.136-0.152,0.324-0.152,0.564v0.024h1.184V62.851z M120.064,63.547c0,0.053-0.016,0.096-0.048,0.128
	c-0.032,0.032-0.072,0.048-0.12,0.048h-2.488v0.016c0,0.213,0.053,0.381,0.16,0.504c0.107,0.122,0.306,0.184,0.6,0.184
	c0.106,0,0.232-0.002,0.376-0.004c0.144-0.003,0.288-0.008,0.432-0.016c0.144-0.008,0.28-0.015,0.408-0.021
	c0.128-0.006,0.229-0.013,0.304-0.024h0.032c0.096,0,0.144,0.045,0.144,0.136v0.72c0,0.064-0.011,0.112-0.032,0.144
	c-0.022,0.032-0.064,0.059-0.128,0.08c-0.256,0.085-0.526,0.148-0.808,0.188c-0.283,0.039-0.592,0.06-0.928,0.06
	c-0.272,0-0.534-0.037-0.784-0.112c-0.251-0.075-0.472-0.196-0.664-0.364s-0.345-0.384-0.46-0.648
	c-0.115-0.264-0.172-0.588-0.172-0.972v-0.529c0-0.703,0.19-1.242,0.572-1.615c0.381-0.374,0.9-0.56,1.556-0.56
	c0.352,0,0.656,0.054,0.912,0.16c0.256,0.107,0.468,0.256,0.636,0.448s0.293,0.421,0.376,0.688c0.083,0.266,0.124,0.56,0.124,0.879
	V63.547z M123.529,61.995c0,0.043-0.012,0.08-0.036,0.112c-0.024,0.032-0.058,0.048-0.1,0.048h-0.112
	c-0.171,0-0.336,0.013-0.496,0.04c-0.16,0.026-0.301,0.075-0.424,0.144v3.104c0,0.042-0.015,0.083-0.044,0.12
	c-0.03,0.037-0.068,0.056-0.116,0.056H121c-0.048,0-0.09-0.019-0.124-0.056c-0.035-0.037-0.052-0.078-0.052-0.12v-4.32
	c0-0.043,0.016-0.08,0.048-0.112c0.032-0.032,0.069-0.048,0.112-0.048h1.152c0.042,0,0.08,0.016,0.112,0.048
	c0.032,0.032,0.048,0.069,0.048,0.112v0.192c0.091-0.096,0.177-0.171,0.26-0.224c0.083-0.054,0.164-0.095,0.244-0.124
	c0.08-0.029,0.159-0.048,0.236-0.056c0.077-0.008,0.159-0.012,0.244-0.012h0.088c0.042,0,0.08,0.016,0.112,0.048
	c0.032,0.032,0.048,0.069,0.048,0.112L123.529,61.995L123.529,61.995z M128.825,62.979c0-0.24-0.039-0.436-0.116-0.588
	s-0.228-0.228-0.452-0.228c-0.117,0-0.219,0.003-0.304,0.008c-0.086,0.005-0.166,0.013-0.24,0.024v2.192
	c0.08,0.011,0.167,0.021,0.26,0.028c0.093,0.008,0.188,0.012,0.284,0.012c0.224,0,0.375-0.077,0.452-0.232
	c0.077-0.155,0.116-0.352,0.116-0.592V62.979z M130.361,63.603c0,0.32-0.043,0.608-0.128,0.864
	c-0.085,0.256-0.216,0.474-0.392,0.656c-0.176,0.181-0.396,0.322-0.66,0.42c-0.264,0.099-0.572,0.148-0.924,0.148
	c-0.064,0-0.149-0.005-0.256-0.016c-0.107-0.011-0.203-0.021-0.288-0.032v1.344c0,0.042-0.016,0.081-0.048,0.116
	c-0.032,0.034-0.07,0.052-0.112,0.052h-1.2c-0.043,0-0.083-0.018-0.12-0.052c-0.037-0.035-0.056-0.074-0.056-0.116v-5.64
	c0-0.07,0.017-0.123,0.052-0.16c0.034-0.038,0.113-0.07,0.236-0.096c0.208-0.043,0.468-0.087,0.78-0.132s0.649-0.068,1.012-0.068
	c0.661,0,1.177,0.177,1.548,0.532c0.371,0.354,0.556,0.873,0.556,1.556V63.603z M132.649,65.443c0,0.042-0.016,0.083-0.048,0.12
	c-0.032,0.037-0.069,0.056-0.112,0.056h-1.208c-0.042,0-0.083-0.019-0.12-0.056s-0.056-0.078-0.056-0.12v-5.848
	c0-0.043,0.019-0.08,0.056-0.112c0.037-0.032,0.078-0.048,0.12-0.048h1.208c0.043,0,0.08,0.016,0.112,0.048
	c0.032,0.032,0.048,0.069,0.048,0.112V65.443z M136.113,62.851c0-0.24-0.048-0.428-0.144-0.564
	c-0.096-0.136-0.246-0.204-0.448-0.204c-0.192,0-0.339,0.068-0.44,0.204c-0.101,0.136-0.152,0.324-0.152,0.564v0.024h1.184V62.851
	L136.113,62.851z M137.584,63.547c0,0.053-0.016,0.096-0.048,0.128c-0.032,0.032-0.072,0.048-0.12,0.048h-2.488v0.016
	c0,0.213,0.053,0.381,0.16,0.504c0.107,0.122,0.306,0.184,0.6,0.184c0.106,0,0.232-0.002,0.376-0.004
	c0.144-0.003,0.288-0.008,0.432-0.016c0.144-0.008,0.28-0.015,0.408-0.021c0.127-0.006,0.229-0.013,0.304-0.024h0.032
	c0.096,0,0.144,0.045,0.144,0.136v0.72c0,0.064-0.011,0.112-0.032,0.144c-0.022,0.032-0.064,0.059-0.128,0.08
	c-0.256,0.085-0.526,0.148-0.808,0.188c-0.283,0.039-0.592,0.06-0.928,0.06c-0.272,0-0.534-0.037-0.784-0.112
	c-0.251-0.075-0.472-0.196-0.664-0.364s-0.345-0.384-0.46-0.648c-0.115-0.264-0.172-0.588-0.172-0.972v-0.529
	c0-0.703,0.191-1.242,0.572-1.615c0.381-0.374,0.9-0.56,1.556-0.56c0.352,0,0.656,0.054,0.912,0.16
	c0.256,0.107,0.468,0.256,0.636,0.448s0.293,0.421,0.376,0.688c0.083,0.266,0.124,0.56,0.124,0.879V63.547L137.584,63.547z
	 M140.617,63.691h-0.392c-0.203,0-0.347,0.035-0.432,0.104c-0.086,0.069-0.128,0.189-0.128,0.36v0.08c0,0.139,0.04,0.232,0.12,0.28
	c0.08,0.048,0.176,0.072,0.288,0.072c0.096,0,0.193-0.012,0.292-0.036c0.099-0.024,0.183-0.052,0.252-0.084V63.691L140.617,63.691z
	 M142.104,65.459c0,0.043-0.016,0.08-0.048,0.112c-0.032,0.032-0.069,0.048-0.112,0.048h-1.112c-0.043,0-0.08-0.016-0.112-0.048
	c-0.032-0.032-0.048-0.069-0.048-0.112v-0.168c-0.155,0.112-0.328,0.207-0.52,0.284c-0.192,0.077-0.4,0.116-0.624,0.116
	c-0.16,0-0.32-0.024-0.48-0.072c-0.16-0.048-0.307-0.128-0.44-0.241c-0.134-0.111-0.242-0.258-0.324-0.439
	c-0.083-0.181-0.124-0.408-0.124-0.68v-0.096c0-0.48,0.177-0.818,0.532-1.012c0.355-0.195,0.865-0.292,1.532-0.292h0.344v-0.232
	c0-0.096-0.015-0.175-0.044-0.236c-0.03-0.061-0.068-0.11-0.116-0.144c-0.048-0.035-0.104-0.057-0.168-0.068
	c-0.064-0.011-0.131-0.016-0.2-0.016c-0.256,0-0.505,0.004-0.748,0.012c-0.243,0.008-0.457,0.022-0.644,0.044h-0.024
	c-0.101,0-0.152-0.053-0.152-0.16v-0.776c0-0.09,0.053-0.155,0.16-0.192c0.064-0.021,0.153-0.043,0.268-0.064
	c0.114-0.022,0.239-0.042,0.372-0.06c0.133-0.019,0.272-0.035,0.416-0.048c0.144-0.014,0.28-0.02,0.408-0.02
	c0.288,0,0.555,0.028,0.8,0.084s0.457,0.152,0.636,0.288c0.179,0.136,0.319,0.315,0.42,0.536c0.101,0.222,0.152,0.494,0.152,0.82
	V65.459z M146.329,64.259c0,0.203-0.036,0.39-0.108,0.564c-0.072,0.173-0.184,0.324-0.336,0.451
	c-0.152,0.129-0.344,0.23-0.576,0.305c-0.232,0.075-0.511,0.112-0.836,0.112c-0.288,0-0.56-0.019-0.816-0.056
	c-0.256-0.037-0.478-0.083-0.664-0.136c-0.101-0.027-0.152-0.085-0.152-0.176v-0.824c0-0.048,0.013-0.088,0.04-0.12
	c0.027-0.032,0.07-0.048,0.128-0.048h0.032c0.117,0.016,0.242,0.032,0.376,0.048s0.263,0.029,0.388,0.04
	c0.126,0.01,0.243,0.02,0.352,0.028c0.109,0.008,0.196,0.012,0.26,0.012c0.155,0,0.256-0.02,0.304-0.06
	c0.048-0.04,0.072-0.098,0.072-0.172c0-0.043-0.016-0.084-0.048-0.124c-0.032-0.04-0.096-0.087-0.192-0.14l-0.976-0.528
	c-0.507-0.272-0.76-0.694-0.76-1.264c0-0.411,0.144-0.726,0.432-0.948c0.288-0.221,0.731-0.332,1.328-0.332
	c0.304,0,0.577,0.02,0.82,0.06s0.46,0.086,0.652,0.14c0.107,0.026,0.16,0.085,0.16,0.176v0.848c0,0.104-0.045,0.159-0.136,0.159
	h-0.024c-0.059-0.004-0.147-0.015-0.264-0.031c-0.117-0.016-0.243-0.031-0.376-0.044c-0.133-0.013-0.267-0.025-0.4-0.036
	c-0.133-0.011-0.245-0.016-0.336-0.016c-0.197,0-0.296,0.059-0.296,0.176c0,0.058,0.059,0.12,0.176,0.184l0.936,0.504
	c0.326,0.176,0.546,0.372,0.664,0.588C146.27,63.815,146.329,64.035,146.329,64.259 M149.665,62.851c0-0.24-0.048-0.428-0.144-0.564
	c-0.096-0.136-0.245-0.204-0.448-0.204c-0.192,0-0.338,0.068-0.44,0.204c-0.101,0.136-0.152,0.324-0.152,0.564v0.024h1.184V62.851
	L149.665,62.851z M151.137,63.547c0,0.053-0.016,0.096-0.048,0.128c-0.032,0.032-0.072,0.048-0.12,0.048h-2.488v0.016
	c0,0.213,0.054,0.381,0.16,0.504c0.107,0.122,0.307,0.184,0.6,0.184c0.106,0,0.232-0.002,0.376-0.004
	c0.144-0.003,0.288-0.008,0.432-0.016c0.144-0.008,0.28-0.015,0.408-0.021c0.128-0.006,0.229-0.013,0.304-0.024h0.032
	c0.096,0,0.144,0.045,0.144,0.136v0.72c0,0.064-0.01,0.112-0.032,0.144c-0.021,0.032-0.064,0.059-0.128,0.08
	c-0.256,0.085-0.525,0.148-0.808,0.188c-0.283,0.039-0.592,0.06-0.928,0.06c-0.272,0-0.533-0.037-0.784-0.112
	c-0.25-0.075-0.472-0.196-0.664-0.364c-0.192-0.168-0.345-0.384-0.46-0.648c-0.115-0.264-0.172-0.588-0.172-0.972v-0.529
	c0-0.703,0.191-1.242,0.572-1.615c0.381-0.374,0.9-0.56,1.556-0.56c0.352,0,0.656,0.054,0.912,0.16
	c0.256,0.107,0.468,0.256,0.636,0.448s0.294,0.421,0.376,0.688c0.082,0.266,0.124,0.56,0.124,0.879V63.547L151.137,63.547z"/>
</svg>
