<?xml version="1.0" encoding="utf-8"?>
<!-- Generator: Adobe Illustrator 16.0.0, SVG Export Plug-In . SVG Version: 6.00 Build 0)  -->
<!DOCTYPE svg PUBLIC "-//W3C//DTD SVG 1.1//EN" "http://www.w3.org/Graphics/SVG/1.1/DTD/svg11.dtd">
<svg version="1.1" id="Layer_1" xmlns="http://www.w3.org/2000/svg" xmlns:xlink="http://www.w3.org/1999/xlink" x="0px" y="0px"
	 width="338.831px" height="276.373px" viewBox="0 0 338.831 276.373" enable-background="new 0 0 338.831 276.373"
	 xml:space="preserve">
<path fill="#FFF3D0" d="M221.93,184.918c-0.035-1.021-0.226-2.477-0.486-4.138c-0.354-5.33-1.047-11.752-2.392-13.346
	c-0.844-0.996-4.062-3.209-4.354-3.647c-0.151-0.226,0.229-1.464,0.308-1.832c1.453,0.541,3.241,0.012,4.055-1.361
	c1.181-1.991,1.363-5.03,1.138-7.194c-0.136-1.295-0.29-2.102-0.422-2.81c-0.134-0.707-1.243-1.315-1.665-2.262
	c-1.416-3.175-3.041-4.563-5.683-4.524c-2.494-0.071-5.023,1.16-6.594,3.438c-0.729,1.06-0.886,2.262-1.1,2.961
	c-0.216,0.699,1.44,0.871,1.327,1.318c-0.545,2.12-0.236,3.975,0.769,5.57c0.38,0.602,0.529,1.23,0.679,1.857
	c0.15,0.627,0.301,1.254-0.054,1.775c-0.354,0.523-1.21,0.941-2.151,1.379c-0.943,0.438-1.973,0.895-2.867,1.223
	c-0.896,0.328-1.656,0.524-2.519,1.045c-2.512,1.513-10.383,9-12.194,12.137c-1.414,2.449-1.365,2.512-1.201,4.257
	c0.24,2.513,2.059,7.71,1.969,11.08c-0.02,2.808,0.119,5.269,1.595,7.946c0.226,0.41,2.654,1.019,3.064,0.86
	c-0.763,3.392,1.076,10.124,1.076,10.124c0.437,5.033,1.491,10.19,1.616,13.115c0.029,0.709-0.104,1.279-0.201,2.602
	c-0.098,1.32-0.16,3.395,0.018,5.76c0.679,9.047,1.368,10.73,0.775,19.002c-0.076,1.086-0.203,1.424,0.096,2.48
	c0.23,0.818,0.332,1.275,0.538,1.748c0.264,0.604,0.725,0.9,1.348,1.029s1.409,0.09,2.054,0.201
	c2.715,0.465,7.517,3.127,10.16,1.672c1.298-0.433,1.529-1.049,1.183-1.707c0.528-0.178,0.993-0.379,1.449-0.542
	c0.546-0.199,1.102-0.338,1.247-0.544c3.662-1.19-7.313-3.573-8.147-4.524l0.242,0.061c0.001-1.104,0.82-3.448,2.386-5.418
	c5.381-7.557,7.777-16.121,6.436-20.858c0.008-0.043-2.149-14.305-2.149-14.305l-0.026-0.005c0.007-0.689,0.008-1.417,0.003-2.188
	c0.495-0.839,0.679-1.447,0.911-1.634c2.395-1.9,1.629-4.891,2.693-7.486c1.218-3.145,3.057-8.008,4.246-10.234
	c0.08-0.15,0.603-1.059,0.645-2.102c-0.009-0.259-0.02-0.549-0.031-0.859C221.823,185.709,221.913,185.325,221.93,184.918z
	 M216.157,187.041c-1.199,4.017-1.488,4.921-2.091,7.519c-0.624-4.156-0.132-6.488,0.014-10.947
	c0.034-1.049,0.246-1.775,0.532-2.401v-1.555c0.541-0.898,1.055-2.014,1.256-4.054c0.6,3.666,0.488,8.095,0.641,10.261
	C216.419,186.167,216.313,186.519,216.157,187.041z M192.246,184.762c0.115-1.079,0.149-1.459,0.237-2.131
	c0.164-1.176,2.935-5.736,4.809-6.981v0.281c0.041-0.049,0.081-0.106,0.123-0.154c0.562-0.634,0.82-0.593,0.785-0.366
	c-1.19,4.588-0.808,10.783-1.174,17.006v0.002c-0.074,1.27-0.355,2.313-0.728,3.35c-0.043-0.034-0.081-0.065-0.122-0.099v0.394
	l-1.117-0.46c-0.334-1.241-2.001-2.808-2.031-3.562C193.062,191.744,191.777,189.164,192.246,184.762z M208.161,233.059
	c-0.668,3.104-4.615,8.813-6.775,13.892c0.008-0.694,0.022-1.375,0.034-1.898c0.2-7.984,0.822-14.014,2.412-21.939
	c0.12-0.595,0.762-7.79,0.833-8.363C206.183,221.384,208.95,230.982,208.161,233.059z"/>
<path fill-rule="evenodd" clip-rule="evenodd" fill="#FFF3D0" d="M268.218,177.41c0.035-0.227-0.225-0.268-0.785,0.366
	c-1.303,1.466-2.359,3.615-4.289,6.513c0.344,0.672,0.512,2.119,0.584,2.525c0.817,4.625,0.987,5.467,1.342,8.67
	c0.052,0.459,0.097,0.836,0.147,1.148c0.108,0.322,0.56,0.709,1.099,1.135c0.373-1.037,0.653-2.08,0.729-3.35v-0.002
	C267.409,188.193,267.026,181.998,268.218,177.41 M286.805,186.734c0.001,0.092-0.008,0.176-0.026,0.248
	c-0.18,0.654-0.293,1.018-0.604,2.059c-1.268,4.242-1.518,5.01-2.195,7.971c-0.099,0.426-0.181,0.773-0.263,1.059
	c-0.089,0.191-0.319,0.391-0.624,0.602c-0.122-5.473-0.21-10.814,0.102-14.989c0.266-3.563,2.41-3.339,2.873-8.06
	C286.762,179.869,286.503,185.145,286.805,186.734 M283.255,208.707c0.67-1.021,0.844-1.756,1.107-1.967
	c2.396-1.9,1.629-4.891,2.693-7.486c1.219-3.145,3.057-8.008,4.246-10.234c0.081-0.15,0.604-1.059,0.645-2.102
	c-0.153-4.457-0.727-17.131-2.695-19.463c-0.844-0.996-4.061-3.209-4.354-3.647c-0.151-0.226,0.229-1.464,0.308-1.832
	c1.452,0.541,3.241,0.012,4.055-1.361c1.181-1.991,1.363-5.03,1.138-7.194c-0.137-1.295-0.291-2.102-0.422-2.81
	c-0.134-0.707-0.244-1.315-0.666-2.262c-2.65-5.942-9.543-5.724-12.834-1.351c-0.775,1.027-0.98,2.223-1.225,2.914
	c-0.243,0.689-0.594,0.847-0.727,1.287c-0.631,2.098,1.597,4.045,2.533,5.682c0.354,0.617,0.479,1.25,0.602,1.883
	s0.246,1.266-0.129,1.773s-1.248,0.891-2.207,1.287c-0.961,0.398-2.008,0.813-2.916,1.103c-0.907,0.288-1.676,0.454-2.559,0.938
	c-0.882,0.482-1.877,1.282-2.615,2.085c-0.74,0.801-1.223,1.606-1.57,2.338s-0.561,1.389-0.904,1.926
	c-0.342,0.537-0.814,0.955-1.619,1.842c-3.113,3.427-5.22,10.126-5.305,10.206c-0.411,1.2,0.043,2.772,0.49,3.907
	c0.982,2.49,2.328,7.842,3.228,11.305c0.806,2.867-0.366,5.924,1.927,8.219c0.119,0.121,0.287,0.207,0.477,0.25
	c-0.184,6.242,1.626,14.068,1.791,17.955c0.029,0.709-0.104,1.279-0.201,2.602c-0.098,1.32-0.16,3.395,0.018,5.76
	c0.68,9.047,1.369,10.73,0.776,19.002c-0.077,1.086-0.203,1.424,0.095,2.48c0.231,0.818,0.332,1.275,0.539,1.748
	c0.264,0.604,0.725,0.9,1.348,1.029s1.408,0.09,2.053,0.201c2.716,0.465,7.518,3.127,10.16,1.672
	c0.57-0.313,0.709-0.777,0.511-1.299c2.794,0.725,6.733,2.396,8.97,1.066c1.235-0.734,0.342-2.133-1.626-3.23
	c-1.102-0.613-1.937-0.9-3.428-1.787c-1.49-0.889-3.489-1.967-4.328-2.861c-1-1.064,0.369-21.354,1.874-28.855
	C283.226,217.846,283.325,214.432,283.255,208.707 M275.565,253.146c-0.067-0.502-0.006-0.896,0.021-1.633
	c0.035-0.922,0.058-1.795,0.071-2.633c0.106-6.438-0.36-10.727-0.918-18.15c-0.176-2.367-0.114-4.439-0.016-5.762
	c0.096-1.322,0.23-1.891,0.199-2.602c-0.029-0.709,0.038-6.914-0.346-7.666c-0.02-0.041-0.715,7.797-0.84,8.418
	c-1.59,7.926-2.213,13.955-2.412,21.939c-0.037,1.662-0.104,4.906,0.101,5.141C272.218,251.102,274.116,252.221,275.565,253.146"/>
<path fill-rule="evenodd" clip-rule="evenodd" fill="#58462F" d="M275.708,146.768c4.674-6.04,14.266-3.966,14.311,3.928
	c-1.23,0.858-5.572,1.514-6.668,0.941c-0.172,0.781-0.836,2.188-1.752,3.255c-0.166-0.447-0.33-0.894-0.552-1.219
	c-0.733-1.079-1.976-0.604-2.208,0.558c-0.242,1.214,0.342,3.277,1.997,2.694c-0.66,1.95-2,2.809-3.091,2.319
	C274.998,154.918,272.054,151.621,275.708,146.768"/>
<path fill-rule="evenodd" clip-rule="evenodd" fill="#58462F" d="M205.083,146.768c4.674-6.04,15.266-3.966,15.312,3.928
	c-1.231,0.858-6.573,1.514-7.668,0.941c-0.173,0.781-0.837,2.188-1.753,3.255c-0.165-0.447-0.329-0.894-0.551-1.219
	c-0.734-1.079-1.976-0.604-2.209,0.558c-0.241,1.214,0.343,3.277,1.998,2.694c-0.66,1.95-2,2.809-3.092,2.319
	C204.374,154.918,201.429,151.621,205.083,146.768"/>
<path fill="#FFF3D0" d="M243.407,49.546l-2.461-0.341l-3.871,0.144c-0.871-0.235-0.979-0.286-1.535,0.032
	c-1.154,0.05-2.695-0.331-4.244-0.805l-0.243-0.085c-1.276-0.447-3.76-0.992-5.56-1.76c-2.27-0.967-7.096-3.64-9.105-4.007
	c-0.689-0.4-1.789-1.586-2.675-2.685c-0.675-0.835-6.122-8.055-6.277-8.28c-0.641-0.926-2.054-1.305-2.366-1.732
	c-0.16-0.218,0.168-1.472,0.231-1.843c1.476,0.48,3.239-0.123,3.995-1.529c1.096-2.039,1.152-5.082,0.836-7.236
	c-0.189-1.288-0.378-2.087-0.54-2.789c-0.162-0.701-0.297-1.304-0.758-2.232c-2.897-5.827-9.774-5.32-12.882-0.814
	c-0.729,1.06-0.885,2.262-1.1,2.962c-0.215,0.699-0.559,0.871-0.673,1.318c-0.544,2.12,1.765,3.974,2.769,5.57
	c0.381,0.602,0.529,1.23,0.68,1.857s0.3,1.254-0.055,1.776c-0.354,0.523-1.209,0.942-2.151,1.379
	c-0.942,0.438-1.972,0.895-2.867,1.222c-0.896,0.328-1.655,0.525-2.519,1.045c-2.512,1.513-10.383,9-12.194,12.137
	c-1.413,2.449-1.365,2.512-1.2,4.257c0.239,2.512,0.059,7.71-0.031,11.08c-0.021,2.807-1.881,5.268-0.406,7.946
	c0.227,0.41,0.914,0.67,1.474,0.402c0.209,0.414,0.823,0.6,1.504,0.17c0.298,0.664,1.54,0.377,1.665-0.316
	c0.225-0.254,0.854-0.283,1.03-0.611c0.659-1.225-0.397-1.662,0.264-2.992c0.627-1.26-1.956-3.461-1.993-4.401
	c0.033-0.297,0.092-0.648,0.166-1.078c0.516-2.993,0.582-3.799,1.051-8.201c0.115-1.079,0.15-1.459,0.237-2.131
	c0.198-1.411,5.153-4.824,6.802-5.553c0.914,4.496,0.201,15.034,0.104,20.085c-0.038,2.016-0.2,2.678-0.47,3.382h16.877
	c-0.093-1.021-0.295-2.072-0.617-3.222c-0.814-4.668-0.253-6.977-0.1-11.71c0.117-3.572,2.269-3.437,2.535-8.173
	c0.896,0.883,1.346,1.282,2.196,2.11c1.131,1.1,3.382,2.868,5.448,4.205c1.434,0.928,4.361,1.121,6.21,1.59
	c5.081,1.29,4.2,1.007,8.926,1.859c1.149,2.076,3.196,0.778,4.546,0.828c0.727,0.036,1.229,0.086,1.771,0.205
	c0.547,0.121,1.142,0.313,2.056,0.633c0.211,0.072,0.416,0.076,0.589,0.033h0.001c0.201-0.053,0.362-0.168,0.447-0.318
	c0.215-0.381-0.037-0.614-0.332-0.781c-0.079-0.045-0.153-0.082-0.222-0.115c-0.047-0.022-0.092-0.045-0.11-0.054l-1.431-0.748
	l-0.043-0.022l4.191-0.792l2.073,0.035C243.653,50.36,243.907,49.568,243.407,49.546z"/>
<g>
	<path fill-rule="evenodd" clip-rule="evenodd" fill="#FFF3D0" d="M275.72,41.421c-1.647,0.729-6.603,4.142-6.801,5.553
		c-0.087,0.672-0.121,1.052-0.236,2.131c-0.469,4.402-0.535,5.208-1.051,8.201c-0.074,0.43-0.134,0.781-0.168,1.078
		c0.038,0.939,2.621,3.141,1.994,4.401c-0.662,1.33,0.395,1.768-0.264,2.992c-0.178,0.328-0.805,0.357-1.03,0.611
		c-0.125,0.693-1.368,0.98-1.665,0.316c-0.681,0.43-1.295,0.244-1.504-0.17c-0.559,0.268-1.247,0.008-1.473-0.402
		c-1.477-2.678,0.385-5.139,0.404-7.946c0.09-3.37,0.271-8.568,0.032-11.08c-0.165-1.745-0.213-1.808,1.2-4.257
		c1.813-3.137,9.684-10.624,12.195-12.137c0.861-0.52,1.623-0.717,2.518-1.045c0.895-0.327,1.924-0.784,2.867-1.222
		c0.941-0.437,1.798-0.856,2.152-1.379c0.354-0.522,0.203-1.149,0.054-1.776s-0.3-1.255-0.679-1.857
		c-1.006-1.596-3.313-3.45-2.77-5.57c0.114-0.447,0.458-0.619,0.674-1.318c0.213-0.7,0.369-1.902,1.1-2.962
		c3.106-4.506,9.984-5.013,12.881,0.814c0.461,0.928,0.596,1.531,0.758,2.232c0.162,0.702,0.35,1.501,0.54,2.789
		c0.315,2.154,0.26,5.197-0.836,7.236c-0.757,1.406-2.521,2.009-3.995,1.529c-0.063,0.371-0.391,1.625-0.23,1.843
		c0.312,0.427,1.725,0.806,2.365,1.732c0.155,0.225,5.604,7.445,6.277,8.28c0.886,1.099,1.986,2.285,2.675,2.685
		c2.011,0.367,6.836,3.04,9.106,4.007c1.799,0.768,4.281,1.313,5.559,1.76l0.243,0.085c1.549,0.474,3.09,0.855,4.243,0.805
		c0.557-0.318,0.664-0.267,1.535-0.032l3.873-0.144l2.459,0.341c0.502,0.022,0.246,0.814-0.355,0.904l-2.072-0.035l-4.191,0.792
		l0.043,0.022l1.43,0.748c0.018,0.009,0.064,0.032,0.111,0.054c0.066,0.033,0.142,0.07,0.221,0.115
		c0.295,0.167,0.547,0.4,0.332,0.781c-0.085,0.15-0.246,0.266-0.447,0.318h-0.001c-0.173,0.043-0.378,0.039-0.589-0.033
		c-0.914-0.32-1.509-0.512-2.055-0.633c-0.545-0.119-1.045-0.168-1.772-0.205c-1.35-0.05-3.397,1.248-4.546-0.828
		c-4.727-0.852-3.845-0.569-8.926-1.859c-1.848-0.469-4.775-0.662-6.21-1.59c-2.065-1.337-4.317-3.105-5.448-4.205
		c-0.852-0.828-1.3-1.227-2.197-2.11c-0.266,4.736-2.416,4.601-2.533,8.173c-0.154,4.733-0.717,7.042,0.099,11.71
		c0.88,3.145,0.892,5.568,0.114,8.584c3.342,2.762,6.158,4.873,6.211,4.918c2.544,2.164,3.492,3.104,3.972,4.014
		c0.478,0.91,0.485,1.791,0.674,3.836c0.761,8.246,1.927,14.293,4.119,22.279c0.554,2.012,0.976,3.406,1.585,4.65
		c0.611,1.246,2.133,2.721,3.299,4.008c1.163,1.287,2.694,2.76,3.567,3.67s1.088,1.256,0.885,1.439
		c-0.202,0.186-0.825,0.205-1.45,0.291c-0.625,0.084-1.254,0.234-2.019,0.287c-0.767,0.053-1.669,0.006-2.459-0.498
		s-1.466-1.471-2.015-2.145c-0.547-0.674-1.692-1.43-2.287-1.705c-0.594-0.275-1.361-0.443-1.93-0.73s-0.936-0.691-1.033-1.344
		c-0.096-0.652,0.078-1.549,0.033-2.947c-0.221-6.596-3.311-10.396-5.514-16.16c-0.846-2.215-1.379-4.221-1.664-5.516
		s-0.32-1.879-0.552-2.551c-0.231-0.67-0.659-1.428-1.243-2.039c-0.432-0.451-2.758-2.23-5.561-4.348l-0.008,0.021l-0.132-0.063
		c-0.952,2.402-1.671,4.043-1.688,4.086c-1.284,3.084-1.889,4.273-2.609,5.008c-0.721,0.732-1.557,1.008-3.447,1.813
		c-7.619,3.244-13.021,6.199-19.955,10.729c-1.748,1.141-2.945,1.967-3.945,2.93c-1.002,0.961-1.938,2.861-2.807,4.363
		c-0.871,1.502-1.807,3.408-2.406,4.518c-0.601,1.109-0.865,1.42-1.103,1.283s-0.446-0.723-0.719-1.293s-0.606-1.121-0.89-1.834
		c-0.285-0.713-0.518-1.588-0.276-2.494c0.239-0.906,0.952-1.844,1.426-2.572c0.476-0.729,0.845-2.049,0.925-2.699
		c0.082-0.648,0.006-1.432,0.106-2.061c0.101-0.627,0.375-1.102,0.966-1.393c0.59-0.291,1.497-0.4,2.814-0.871
		c6.213-2.223,8.89-6.326,13.705-10.186c1.851-1.482,3.598-2.602,4.744-3.268c1.146-0.666,1.69-0.879,2.258-1.305
		c0.569-0.426,1.16-1.064,1.564-1.809c0.313-0.572,1.374-3.572,2.607-7.096l-1.65-0.785c-3.257-1.369-4.016-4.689-3.27-7.486
		c0.746-2.793,1.199-2.137,1.266-5.691C275.921,56.455,276.636,45.917,275.72,41.421"/>
	<path fill-rule="evenodd" clip-rule="evenodd" fill="#58462F" d="M282.495,13.386c4.418-6.231,14.086-4.558,14.461,3.327
		c-1.193,0.908-5.504,1.745-6.621,1.219c-0.141,0.788-0.745,2.219-1.616,3.325c-0.183-0.439-0.366-0.879-0.601-1.195
		c-0.779-1.047-2-0.521-2.184,0.651c-0.191,1.222,0.479,3.259,2.107,2.608c-0.577,1.975-1.881,2.89-2.991,2.446
		C282.126,21.56,279.046,18.388,282.495,13.386"/>
</g>
<path fill-rule="evenodd" clip-rule="evenodd" fill="#58462F" d="M195.177,13.386c4.418-6.231,14.088-4.558,14.463,3.327
	c-1.194,0.908-5.504,1.745-6.623,1.219c-0.141,0.788-0.744,2.219-1.615,3.325c-0.184-0.439-0.366-0.879-0.602-1.195
	c-0.778-1.047-1.998-0.521-2.183,0.651c-0.192,1.222,0.479,3.259,2.108,2.608c-0.578,1.975-1.881,2.89-2.992,2.446
	C194.81,21.56,191.729,18.388,195.177,13.386"/>
<path fill="#FFF3D0" d="M191.456,80.995c-0.232,0.814-0.67,1.566-1.133,2.105c-0.461,0.539-0.947,0.866-1.92,1.766
	c-0.974,0.899-2.436,2.372-3.92,4.222c-3.858,4.815-5.577,9.403-11.157,12.925c-1.184,0.746-3.045,1.051-3.558,1.463
	c-0.513,0.413-0.678,0.937-0.64,1.569c0.04,0.636,0.283,1.384,0.345,2.034c0.063,0.653-0.01,2.021-0.315,2.836
	c-0.304,0.814,0.548,4.562,0.981,5.195s0.878,1.1,1.268,1.597s0.722,1.023,0.983,1.105c0.261,0.082,0.452-0.279,0.796-1.492
	c0.344-1.214,0.843-3.278,1.365-4.934c0.521-1.655,1.021-3.714,1.789-4.869c0.767-1.158,1.756-2.225,3.213-3.719
	c5.783-5.931,10.41-9.99,17.143-14.815c1.67-1.197,2.426-1.648,2.969-2.52c0.543-0.874,0.875-2.167,1.456-5.456
	c0.009-0.046,0.353-1.804,0.759-4.355l0.143,0.032l-9.566-2.183C192.02,77.209,191.636,80.368,191.456,80.995z"/>
<path fill="#FFF3D0" d="M214.138,121.962c-0.615-1.1-1.728-2.91-2.53-4.448c-0.804-1.538-1.907-3.348-2.185-4.708
	c-0.277-1.357-0.336-2.813-0.365-4.899c-0.115-8.281,0.276-14.427,1.612-22.6c0.332-2.026,0.545-2.882,0.312-3.882
	c-0.234-1.002-0.916-2.149-2.834-4.883c-0.041-0.057-2.236-2.809-4.775-6.321c0.957-1.729,1.546-3.308,1.834-5.063l-16.335-4.243
	c-0.335,0.47-0.735,0.947-1.351,2.036c-1.427,2.52-1.526,5.924,1.282,8.068l1.399,1.174l7.519,6.306l0.013-0.02
	c2.182,2.754,3.986,5.061,4.289,5.605c0.412,0.739,0.635,1.58,0.691,2.286c0.055,0.709-0.059,1.283-0.107,2.608
	c-0.049,1.324-0.038,3.399,0.225,5.756c0.684,6.133,2.719,10.588,1.274,17.027c-0.308,1.365-0.701,2.189-0.772,2.845
	c-0.069,0.656,0.185,1.14,0.662,1.561c0.479,0.42,1.178,0.775,1.684,1.191c0.508,0.416,1.425,1.436,1.786,2.226
	c0.36,0.79,0.772,1.896,1.411,2.582c0.638,0.687,1.498,0.959,2.254,1.101c0.754,0.141,1.4,0.152,2.027,0.229
	c0.625,0.074,1.233,0.211,1.476,0.082C214.876,123.452,214.755,123.063,214.138,121.962z"/>
<path fill="#FFF3D0" d="M204.776,63.826c0,0,2.184,4.06,0,9.676S201.294,64.534,204.776,63.826z"/>
<path fill="#FFF3D0" d="M161.803,49.546l-2.46-0.341l-3.872,0.144c-0.871-0.235-0.979-0.286-1.535,0.032
	c-1.154,0.05-2.695-0.331-4.244-0.805l-0.243-0.085c-1.277-0.447-3.76-0.992-5.559-1.76c-2.27-0.967-7.096-3.64-9.106-4.007
	c-0.689-0.4-1.789-1.586-2.675-2.685c-0.674-0.835-6.122-8.055-6.277-8.28c-0.641-0.926-2.054-1.305-2.366-1.732
	c-0.16-0.218,0.168-1.472,0.231-1.843c1.475,0.48,3.239-0.123,3.995-1.529c1.096-2.039,1.152-5.082,0.836-7.236
	c-0.19-1.288-0.378-2.087-0.54-2.789c-0.162-0.701-0.297-1.304-0.758-2.232c-2.897-5.827-9.774-5.32-12.881-0.814
	c-0.73,1.06-0.886,2.262-1.1,2.962c-0.215,0.699-0.559,0.871-0.673,1.318c-0.544,2.12,1.764,3.974,2.769,5.57
	c0.38,0.602,0.529,1.23,0.679,1.857s0.3,1.254-0.054,1.776c-0.354,0.523-1.21,0.942-2.152,1.379
	c-0.943,0.438-1.972,0.895-2.867,1.222c-0.895,0.328-1.656,0.525-2.518,1.045c-2.512,1.513-10.383,9-12.195,12.137
	c-1.413,2.449-1.365,2.512-1.2,4.257c0.239,2.512,0.058,7.71-0.032,11.08c-0.02,2.807-1.881,5.268-0.405,7.946
	c0.226,0.41,0.914,0.67,1.473,0.402c0.209,0.414,0.823,0.6,1.504,0.17c0.297,0.664,1.54,0.377,1.665-0.316
	c0.225-0.254,0.853-0.283,1.03-0.611c0.659-1.225-0.398-1.662,0.264-2.992c0.627-1.26-1.956-3.461-1.994-4.401
	c0.034-0.297,0.093-0.648,0.167-1.078c0.516-2.993,0.582-3.799,1.051-8.201c0.115-1.079,0.15-1.459,0.237-2.131
	c0.198-1.411,5.153-4.824,6.801-5.553c0.915,4.496,0.201,15.034,0.105,20.085c-0.038,2.016-0.2,2.678-0.469,3.382h16.877
	c-0.093-1.021-0.296-2.072-0.618-3.222c-0.815-4.668-0.253-6.977-0.099-11.71c0.117-3.572,2.268-3.437,2.534-8.173
	c0.897,0.883,1.346,1.282,2.197,2.11c1.131,1.1,3.382,2.868,5.448,4.205c1.434,0.928,4.362,1.121,6.21,1.59
	c5.081,1.29,4.2,1.007,8.926,1.859c1.149,2.076,3.196,0.778,4.546,0.828c0.727,0.036,1.228,0.086,1.772,0.205
	c0.546,0.121,1.141,0.313,2.055,0.633c0.211,0.072,0.416,0.076,0.589,0.033h0.001c0.201-0.053,0.362-0.168,0.447-0.318
	c0.215-0.381-0.037-0.614-0.332-0.781c-0.079-0.045-0.154-0.082-0.221-0.115c-0.047-0.022-0.093-0.045-0.111-0.054l-1.43-0.748
	l-0.043-0.022l4.191-0.792l2.073,0.035C162.049,50.36,162.304,49.568,161.803,49.546z"/>
<path fill-rule="evenodd" clip-rule="evenodd" fill="#58462F" d="M113.574,13.386c4.418-6.231,14.087-4.558,14.462,3.327
	c-1.194,0.908-5.504,1.745-6.622,1.219c-0.141,0.788-0.745,2.219-1.616,3.325c-0.183-0.439-0.366-0.879-0.601-1.195
	c-0.779-1.047-1.999-0.521-2.183,0.651c-0.192,1.222,0.479,3.259,2.108,2.608c-0.578,1.975-1.881,2.89-2.992,2.446
	C113.206,21.56,110.125,18.388,113.574,13.386"/>
<path fill="#FFF3D0" d="M114.771,119.17c-0.616-1.1-1.728-2.91-2.531-4.448c-0.804-1.538-1.907-3.348-2.185-4.708
	c-0.277-1.357,21.057-15.894,21.057-21.561c0.332-2.026-2.65-9.178-4.568-11.911c-0.041-0.057-2.235-2.809-4.775-6.321
	c0.958-1.729,1.546-3.308,1.834-5.063l-16.335-4.243c-0.334,0.47-0.735,0.947-1.351,2.036c-1.426,2.52-1.526,5.924,1.283,8.068
	l1.399,1.174l7.519,6.306l0.013-0.02c2.181,2.754,3.985,5.061,4.289,5.605c0.412,0.739,0.634,1.58,0.69,2.286
	c0,10.75-15.927,16.16-17.372,22.6c-0.307,1.365,1.068,5.181,1.573,5.597c0.507,0.416,3.559,4.121,4.197,4.808
	s1.499,0.959,2.255,1.101c0.754,0.141,1.399,0.152,2.026,0.229c0.626,0.074,1.234,0.211,1.476,0.082
	C115.509,120.66,115.388,120.271,114.771,119.17z"/>
<path fill="#FFF3D0" d="M123.173,63.826c0,0,2.184,4.06,0,9.676S119.69,64.534,123.173,63.826z"/>
<path fill="#FFF3D0" d="M91.954,49.546l-2.46-0.341l-3.872,0.144c-0.871-0.235-0.979-0.286-1.535,0.032
	c-1.154,0.05-2.695-0.331-4.244-0.805L79.6,48.491c-1.277-0.447-3.76-0.992-5.559-1.76c-2.27-0.967-7.096-3.64-9.106-4.007
	c-0.689-0.4-1.789-1.586-2.675-2.685c-0.674-0.835-6.122-8.055-6.277-8.28c-0.641-0.926-2.054-1.305-2.366-1.732
	c-0.16-0.218,0.168-1.472,0.231-1.843c1.475,0.48,3.239-0.123,3.995-1.529c1.096-2.039,1.152-5.082,0.836-7.236
	c-0.19-1.288-0.378-2.087-0.54-2.789c-0.162-0.701-0.297-1.304-0.758-2.232c-2.897-5.827-9.774-5.32-12.881-0.814
	c-0.73,1.06-0.886,2.262-1.1,2.962c-0.215,0.699-0.559,0.871-0.673,1.318c-0.544,2.12,1.764,3.974,2.769,5.57
	c0.38,0.602,0.529,1.23,0.679,1.857s0.3,1.254-0.054,1.776c-0.354,0.523-1.21,0.942-2.152,1.379
	c-0.943,0.438-1.972,0.895-2.867,1.222c-0.895,0.328-1.656,0.525-2.518,1.045c-2.512,1.513-10.383,9-12.195,12.137
	c-1.413,2.449-1.365,2.512-1.2,4.257c0.239,2.512,0.058,7.71-0.032,11.08c-0.02,2.807-1.881,5.268-0.405,7.946
	c0.226,0.41,0.914,0.67,1.473,0.402c0.209,0.414,0.823,0.6,1.504,0.17c0.297,0.664,1.54,0.377,1.665-0.316
	c0.225-0.254,0.853-0.283,1.03-0.611c0.659-1.225-0.398-1.662,0.264-2.992c0.627-1.26-1.956-3.461-1.994-4.401
	c0.034-0.297,0.093-0.648,0.167-1.078c0.516-2.993,0.582-3.799,1.051-8.201c0.115-1.079,0.15-1.459,0.237-2.131
	c0.198-1.411,5.153-4.824,6.801-5.553c0.915,4.496,0.201,15.034,0.105,20.085c-0.038,2.016-0.2,2.678-0.469,3.382h16.877
	c-0.093-1.021-0.296-2.072-0.618-3.222c-0.815-4.668-0.253-6.977-0.099-11.71c0.117-3.572,2.268-3.437,2.534-8.173
	c0.897,0.883,1.346,1.282,2.197,2.11c1.131,1.1,3.382,2.868,5.448,4.205c1.434,0.928,4.362,1.121,6.21,1.59
	c5.081,1.29,4.2,1.007,8.926,1.859c1.149,2.076,3.196,0.778,4.546,0.828c0.727,0.036,1.228,0.086,1.772,0.205
	c0.546,0.121,1.141,0.313,2.055,0.633c0.211,0.072,0.416,0.076,0.589,0.033h0.001c0.201-0.053,0.362-0.168,0.447-0.318
	c0.215-0.381-0.037-0.614-0.332-0.781c-0.079-0.045-0.154-0.082-0.221-0.115c-0.047-0.022-0.093-0.045-0.111-0.054l-1.43-0.748
	l-0.043-0.022l4.191-0.792l2.073,0.035C92.2,50.36,92.455,49.568,91.954,49.546z"/>
<path fill-rule="evenodd" clip-rule="evenodd" fill="#58462F" d="M43.724,13.386c4.418-6.231,14.087-4.558,14.462,3.327
	c-1.194,0.908-5.504,1.745-6.622,1.219c-0.141,0.788-0.745,2.219-1.616,3.325c-0.183-0.439-0.366-0.879-0.601-1.195
	c-0.779-1.047-1.999-0.521-2.183,0.651c-0.192,1.222,0.479,3.259,2.108,2.608c-0.578,1.975-1.881,2.89-2.992,2.446
	C43.356,21.56,40.275,18.388,43.724,13.386"/>
<path fill="#FFF3D0" d="M27.294,117.817c-0.217-1.241-0.667-3.318-0.915-5.035c-0.249-1.718-0.69-3.791-0.502-5.166
	c0.188-1.373,25.133-8.021,27.011-13.367c0.984-1.803,0.54-9.538-0.365-12.752c-0.02-0.067-1.179-3.391-2.412-7.547
	c1.477-1.313,2.555-2.608,3.409-4.17l-14.007-9.415c-0.471,0.333-1.007,0.65-1.95,1.474c-2.18,1.905-3.402,5.084-1.462,8.038
	l0.932,1.57l5.005,8.44l0.019-0.014c1.145,3.321,2.083,6.095,2.189,6.71c0.144,0.834,0.075,1.701-0.105,2.386
	C40.58,99.112,23.76,98.94,20.264,104.538c-0.742,1.187-0.708,5.242-0.37,5.802c0.341,0.561,1.993,5.067,2.367,5.927
	s1.097,1.401,1.763,1.785c0.665,0.383,1.27,0.607,1.836,0.888c0.566,0.277,1.095,0.608,1.366,0.566
	C27.497,119.468,27.512,119.061,27.294,117.817z"/>
<path fill="#FFF3D0" d="M161.738,198.473l-1.941-1.548c0,0-4.098-2.6-4.739-2.61c-1.018-0.546-7.451-6.564-8.875-7.172
	c-2.27-0.967-3.895-12.593-4.781-13.691c-0.674-0.836-6.122-8.056-6.277-8.281c-0.641-0.926-2.054-1.305-2.366-1.731
	c-0.16-0.218,0.168-1.472,0.231-1.843c1.475,0.48,3.239-0.123,3.995-1.529c1.096-2.039,1.152-5.082,0.836-7.236
	c-0.19-1.287-0.378-2.086-0.54-2.789c-0.162-0.7-0.297-1.303-0.758-2.231c-2.897-5.827-9.774-5.319-12.881-0.813
	c-0.73,1.06-0.886,2.262-1.1,2.961c-0.215,0.699-0.559,0.871-0.673,1.318c-0.544,2.12,1.764,3.975,2.769,5.57
	c0.38,0.602,0.529,1.23,0.679,1.857s0.3,1.254-0.054,1.775c-0.354,0.523-1.21,0.941-2.152,1.379
	c-0.943,0.438-1.972,0.895-2.867,1.223s-1.656,0.524-2.518,1.045c-2.512,1.513-10.383,9-12.195,12.137
	c-1.413,2.449-1.365,2.512-1.2,4.257c0.239,2.513,3.058,7.71,2.968,11.08c-0.02,2.808-1.881,5.269-0.405,7.946
	c0.226,0.41,0.914,0.67,1.473,0.402c0.209,0.414,0.823,0.6,1.504,0.17c0.297,0.664,1.54,0.377,1.665-0.316
	c0.225-0.254,0.853-0.283,1.03-0.611c0.659-1.225-0.398-1.662,0.264-2.992c0.627-1.26-1.956-3.462-1.994-4.401
	c0.034-0.297-1.251-4.877-0.782-9.279c0.115-1.079,0.15-1.459,0.237-2.131c0.198-1.411,4.153-4.824,5.801-5.554
	c0.915,4.496,0.201,15.034,0.105,20.086c-0.038,2.016-0.2,2.678-0.469,3.381h16.877c-0.093-1.02-0.296-2.072-0.618-3.221
	c-0.815-4.669-0.253-6.978-0.099-11.711c0.117-3.572,2.268-3.437,2.534-8.172c0.897,0.883,5.007,14.436,6.855,14.904
	c3.224,2.484,6.83,3.985,9.541,4.818c0.646,0.612,1.162,1.036,1.438,1.215c0.607,0.401,1.012,0.701,1.419,1.081
	c0.408,0.383,0.822,0.851,1.444,1.593c0.145,0.17,0.319,0.278,0.489,0.33h0.001c0.2,0.058,0.397,0.041,0.547-0.045
	c0.379-0.218,0.282-0.548,0.113-0.842c-0.045-0.079-0.09-0.148-0.132-0.211c-0.028-0.044-0.056-0.087-0.067-0.104l-0.848-1.374
	l-0.026-0.04l4.009,1.458l1.764,1.089C161.534,199.299,162.157,198.748,161.738,198.473z"/>
<path fill="#FFF3D0" d="M53.323,63.826c0-0.001,2.184,4.06,0,9.676S42.2,64.888,53.323,63.826z"/>
<path fill="#FFF3D0" d="M56.932,109.04h0.271c-0.289-1.164-0.042-3.852,1.092-6.339c3.688-9.381,3.963-19.041,1.303-23.683
	c-0.002-0.047-6.025-14.517-6.025-14.517l-10.492,0.65c0.404,3.711,10.535,21.268,10.13,24.648
	c0.121,3.761-2.173,11.591-2.821,17.783c0,0,0.531,4.115,0.905,4.658c0.375,0.543,0.883,0.743,1.52,0.75
	c0.636,0.007,7.681,1.259,8.612,1.362c0.932,0.104,1.762-0.251,2.427-0.637c0.663-0.386,1.16-0.798,1.685-1.148
	c0.523-0.353,1.073-0.646,1.172-0.901C70.259,109.452,58.062,109.823,56.932,109.04z"/>
<path fill="#FFF3D0" d="M109.797,108.872l0.264,0.066c0.001-1.2,0.891-3.747,2.592-5.887c5.847-8.211,8.451-17.518,6.992-22.665
	c0.01-0.046-2.335-15.542-2.335-15.542l-10.338-1.907c-0.505,3.699,5.079,23.185,3.868,26.367
	c-0.792,3.678-4.912,10.721-7.039,16.572c0,0-0.479,4.122-0.248,4.739c0.232,0.617,0.677,0.935,1.293,1.096
	c0.616,0.16,7.149,3.079,8.027,3.404c0.878,0.327,1.77,0.183,2.509-0.03c0.737-0.215,1.318-0.494,1.913-0.707
	c0.593-0.216,1.197-0.367,1.355-0.592C122.628,112.495,110.704,109.905,109.797,108.872z"/>
<path fill="#FFF3D0" d="M84.828,182.957l-2.46-0.34l-3.872,0.144c-0.871-0.235-0.979-0.286-1.535,0.032
	c-1.154,0.05-2.695-0.332-4.244-0.805l-0.243-0.086c-1.277-0.447-3.76-0.992-5.559-1.76c-2.27-0.967-7.096-3.641-9.106-4.007
	c-0.689-0.399-1.789-1.586-2.675-2.685c-0.674-0.836-6.122-8.056-6.277-8.281c-0.641-0.926-2.054-1.305-2.366-1.731
	c-0.16-0.218,0.168-1.472,0.231-1.843c1.475,0.48,3.239-0.123,3.995-1.529c1.096-2.039,1.152-5.082,0.836-7.236
	c-0.19-1.287-0.378-2.086-0.54-2.789c-0.162-0.7-0.297-1.303-0.758-2.231c-2.897-5.827-9.774-5.319-12.881-0.813
	c-0.73,1.06-0.886,2.262-1.1,2.961c-0.215,0.699-0.559,0.871-0.673,1.318c-0.544,2.12,1.764,3.975,2.769,5.57
	c0.38,0.602,0.529,1.23,0.679,1.857s0.3,1.254-0.054,1.775c-0.354,0.523-1.21,0.941-2.152,1.379
	c-0.943,0.438-1.972,0.895-2.867,1.223s-1.656,0.524-2.518,1.045c-2.512,1.513-10.383,9-12.195,12.137
	c-1.413,2.449-1.365,2.512-1.2,4.257c0.239,2.513,0.058,7.71-0.032,11.08c-0.02,2.808-1.881,5.269-0.405,7.946
	c0.226,0.41,0.914,0.67,1.473,0.402c0.209,0.414,0.823,0.6,1.504,0.17c0.297,0.664,1.54,0.377,1.665-0.316
	c0.225-0.254,0.853-0.283,1.03-0.611c0.659-1.225-0.398-1.662,0.264-2.992c0.627-1.26-1.956-3.462-1.994-4.401
	c0.034-0.297,0.093-0.648,0.167-1.078c0.516-2.993,0.582-3.799,1.051-8.201c0.115-1.079,0.15-1.459,0.237-2.131
	c0.198-1.411,5.153-4.824,6.801-5.554c0.915,4.496,0.201,15.034,0.105,20.086c-0.038,2.016-0.2,2.678-0.469,3.381h16.877
	c-0.093-1.02-0.296-2.072-0.618-3.221c-0.815-4.669-0.253-6.978-0.099-11.711c0.117-3.572,2.268-3.437,2.534-8.172
	c0.897,0.883,1.346,1.281,2.197,2.109c1.131,1.1,3.382,2.867,5.448,4.205c1.434,0.928,4.362,1.121,6.21,1.59
	c5.081,1.29,4.2,1.007,8.926,1.859c1.149,2.075,3.196,0.777,4.546,0.828c0.727,0.035,1.228,0.086,1.772,0.204
	c0.546,0.121,1.141,0.313,2.055,0.633c0.211,0.072,0.416,0.076,0.589,0.033h0.001c0.201-0.053,0.362-0.168,0.447-0.318
	c0.215-0.381-0.037-0.614-0.332-0.781c-0.079-0.045-0.154-0.082-0.221-0.114c-0.047-0.023-0.093-0.046-0.111-0.055l-1.43-0.748
	l-0.043-0.021l4.191-0.793l2.073,0.035C85.074,183.771,85.329,182.979,84.828,182.957z"/>
<path fill-rule="evenodd" clip-rule="evenodd" fill="#58462F" d="M36.598,146.797c4.418-6.23,14.087-4.558,14.462,3.328
	c-1.194,0.908-5.504,1.744-6.622,1.219c-0.141,0.787-0.745,2.219-1.616,3.324c-0.183-0.438-0.366-0.879-0.601-1.194
	c-0.779-1.048-1.999-0.521-2.183,0.651c-0.192,1.221,0.479,3.258,2.108,2.607c-0.578,1.975-1.881,2.891-2.992,2.445
	C36.23,154.971,33.149,151.799,36.598,146.797"/>
<path fill="#FFF3D0" d="M37.795,252.582c-0.616-1.1-1.728-2.91-2.531-4.449c-0.804-1.537-1.907-3.348-2.185-4.707
	c-0.277-1.357,21.057-15.895,21.057-21.561c0.332-2.027-2.65-9.178-4.568-11.912c-0.041-0.057-2.235-2.809-4.775-6.32
	c0.958-1.729,1.546-3.309,1.834-5.064l-16.335-4.242c-0.334,0.469-0.735,0.947-1.351,2.035c-1.426,2.52-1.526,5.924,1.283,8.068
	l1.399,1.174l7.519,6.307l0.013-0.02c2.181,2.754,3.985,5.061,4.289,5.605c0.412,0.738,0.634,1.58,0.69,2.285
	c0,10.75-15.927,16.16-17.372,22.6c-0.307,1.365,1.068,5.182,1.573,5.598c0.507,0.416,3.559,4.121,4.197,4.807
	c0.638,0.688,1.499,0.959,2.255,1.102c0.754,0.141,1.399,0.152,2.026,0.229c0.626,0.074,1.234,0.211,1.476,0.082
	C38.533,254.072,38.412,253.682,37.795,252.582z"/>
<path fill="#FFF3D0" d="M46.197,197.238c0,0,2.184,4.059,0,9.676C44.013,212.529,42.715,197.945,46.197,197.238z"/>
<path fill="#FFF3D0" d="M32.821,242.283l0.264,0.066c0.001-1.199,0.891-3.746,2.592-5.887c5.847-8.211,8.451-17.518,6.992-22.664
	c0.01-0.047-2.335-15.543-2.335-15.543l-10.338-1.906c-0.505,3.699,5.079,23.184,3.868,26.367
	c-0.792,3.678-4.912,10.721-7.039,16.572c0,0-0.479,4.121-0.248,4.738c0.232,0.617,0.677,0.936,1.293,1.096
	c0.616,0.16,7.149,3.08,8.027,3.404c0.878,0.328,1.77,0.184,2.509-0.029c0.737-0.215,1.318-0.494,1.913-0.707
	c0.593-0.217,1.197-0.367,1.355-0.592C45.653,245.906,33.729,243.316,32.821,242.283z"/>
<path fill-rule="evenodd" clip-rule="evenodd" fill="#58462F" d="M123.03,146.797c4.418-6.23,14.087-4.558,14.462,3.328
	c-1.194,0.908-5.504,1.744-6.622,1.219c-0.141,0.787-0.745,2.219-1.616,3.324c-0.183-0.438-0.366-0.879-0.601-1.194
	c-0.779-1.048-1.999-0.521-2.183,0.651c-0.192,1.221,0.479,3.258,2.108,2.607c-0.578,1.975-1.881,2.891-2.992,2.445
	C122.662,154.971,119.582,151.799,123.03,146.797"/>
<path fill="#FFF3D0" d="M124.228,252.582c-0.616-1.1-1.728-2.91-2.531-4.449c-0.804-1.537-1.907-3.348-2.185-4.707
	c-0.277-1.357,10.088-10.311,10.088-15.977c0.332-2.027,7.892-31.1,1.625-23.816c0.958-1.729,1.546-3.309,1.834-5.064l-16.335-4.242
	c-0.334,0.469-0.735,0.947-1.351,2.035c-1.426,2.52-1.526,5.924,1.283,8.068l1.399,1.174c0,0,1.965,7.729,1.965,15.179
	c0,10.75-5.381,15.159-6.826,21.599c-0.307,1.365,1.068,5.182,1.573,5.598c0.507,0.416,3.559,4.121,4.197,4.807
	c0.638,0.688,1.499,0.959,2.255,1.102c0.754,0.141,1.399,0.152,2.026,0.229c0.626,0.074,1.234,0.211,1.476,0.082
	C124.965,254.072,124.844,253.682,124.228,252.582z"/>
<path fill="#FFF3D0" d="M132.629,197.238c0,0,2.184,4.059,0,9.676C130.445,212.529,129.147,197.945,132.629,197.238z"/>
<path fill="#FFF3D0" d="M122.174,242.283l0.264,0.066c0.001-1.199,0.891-3.746,2.592-5.887c5.847-8.211,8.451-17.518,6.992-22.664
	c0.01-0.047-2.335-15.543-2.335-15.543l-10.338-1.906c-0.505,3.699,5.079,23.184,3.868,26.367
	c-0.792,3.678-4.912,10.721-7.039,16.572c0,0-0.479,4.121-0.248,4.738c0.232,0.617,0.677,0.936,1.293,1.096
	c0.616,0.16,7.149,3.08,8.027,3.404c0.878,0.328,1.77,0.184,2.509-0.029c0.737-0.215,1.318-0.494,1.913-0.707
	c0.593-0.217,1.197-0.367,1.355-0.592C135.006,245.906,123.082,243.316,122.174,242.283z"/>
</svg>
