<?xml version="1.0" encoding="utf-8"?>
<!-- Generator: Adobe Illustrator 16.0.0, SVG Export Plug-In . SVG Version: 6.00 Build 0)  -->
<!DOCTYPE svg PUBLIC "-//W3C//DTD SVG 1.1//EN" "http://www.w3.org/Graphics/SVG/1.1/DTD/svg11.dtd">
<svg version="1.1" id="Layer_1" xmlns="http://www.w3.org/2000/svg" xmlns:xlink="http://www.w3.org/1999/xlink" x="0px" y="0px"
	 width="338.832px" height="276.373px" viewBox="0 0 338.832 276.373" enable-background="new 0 0 338.832 276.373"
	 xml:space="preserve">
<path fill="#FFF3D0" d="M221.93,189.47c-0.035-1.021-0.226-2.478-0.486-4.138c-0.354-5.33-1.047-11.752-2.392-13.346
	c-0.844-0.996-4.063-3.209-4.354-3.647c-0.152-0.226,0.229-1.464,0.307-1.832c1.453,0.541,3.242,0.012,4.056-1.361
	c1.181-1.991,1.362-5.03,1.138-7.194c-0.136-1.295-0.289-2.102-0.422-2.81c-0.134-0.707-1.242-1.315-1.665-2.262
	c-1.416-3.175-3.041-4.563-5.683-4.524c-2.494-0.07-5.023,1.16-6.594,3.438c-0.729,1.06-0.887,2.262-1.101,2.961
	c-0.216,0.698,1.44,0.871,1.327,1.317c-0.545,2.121-0.236,3.976,0.77,5.57c0.379,0.602,0.528,1.23,0.678,1.857
	c0.15,0.627,0.302,1.254-0.053,1.775c-0.354,0.522-1.211,0.94-2.151,1.379c-0.943,0.438-1.974,0.895-2.867,1.223
	c-0.896,0.328-1.655,0.523-2.519,1.045c-2.512,1.513-10.383,9-12.194,12.137c-1.414,2.449-1.365,2.512-1.201,4.258
	c0.24,2.512,2.06,7.709,1.97,11.079c-0.021,2.808,0.118,5.269,1.594,7.946c0.227,0.41,2.654,1.02,3.064,0.859
	c-0.763,3.393,1.076,10.125,1.076,10.125c0.438,5.033,1.49,10.189,1.615,13.115c0.029,0.709-0.104,1.278-0.2,2.602
	c-0.099,1.32-0.16,3.395,0.019,5.76c0.678,9.047,1.367,10.73,0.774,19.002c-0.076,1.086-0.203,1.424,0.096,2.48
	c0.229,0.817,0.332,1.274,0.538,1.748c0.264,0.604,0.725,0.899,1.348,1.028c0.623,0.13,1.41,0.091,2.055,0.201
	c2.715,0.465,7.517,3.127,10.16,1.672c1.298-0.433,1.529-1.049,1.183-1.707c0.528-0.178,0.993-0.379,1.449-0.542
	c0.546-0.199,1.103-0.338,1.247-0.544c3.662-1.19-7.313-3.573-8.147-4.524l0.242,0.062c0.001-1.104,0.819-3.448,2.386-5.418
	c5.381-7.558,7.777-16.121,6.436-20.858c0.009-0.043-2.148-14.305-2.148-14.305l-0.025-0.005c0.006-0.688,0.008-1.417,0.002-2.188
	c0.496-0.838,0.68-1.447,0.912-1.634c2.395-1.899,1.629-4.891,2.692-7.485c1.218-3.146,3.058-8.008,4.246-10.234
	c0.08-0.15,0.603-1.059,0.646-2.102c-0.01-0.26-0.021-0.549-0.031-0.859C221.824,190.261,221.914,189.877,221.93,189.47z
	 M216.158,191.593c-1.199,4.017-1.488,4.921-2.092,7.519c-0.624-4.156-0.132-6.488,0.014-10.947c0.034-1.049,0.246-1.774,0.532-2.4
	v-1.555c0.541-0.898,1.056-2.014,1.257-4.055c0.6,3.666,0.487,8.096,0.641,10.262C216.419,190.719,216.313,191.07,216.158,191.593z
	 M192.246,189.314c0.115-1.08,0.149-1.46,0.237-2.132c0.164-1.176,2.935-5.735,4.81-6.981v0.281c0.041-0.049,0.08-0.105,0.123-0.154
	c0.562-0.633,0.819-0.592,0.785-0.365c-1.191,4.588-0.809,10.783-1.175,17.006v0.002c-0.073,1.27-0.354,2.313-0.728,3.35
	c-0.043-0.033-0.082-0.064-0.123-0.099v0.394l-1.116-0.459c-0.334-1.242-2.001-2.809-2.031-3.563
	C193.062,196.296,191.777,193.716,192.246,189.314z M208.162,237.611c-0.668,3.104-4.615,8.813-6.775,13.892
	c0.008-0.694,0.021-1.375,0.033-1.897c0.201-7.984,0.822-14.015,2.412-21.939c0.121-0.596,0.762-7.79,0.834-8.363
	C206.183,225.936,208.951,235.533,208.162,237.611z"/>
<path fill="#FFF3D0" d="M268.218,181.962c0.035-0.228-0.225-0.269-0.785,0.366c-1.303,1.466-2.359,3.615-4.289,6.513
	c0.344,0.672,0.512,2.119,0.584,2.524c0.816,4.625,0.986,5.468,1.342,8.67c0.053,0.459,0.098,0.836,0.146,1.148
	c0.109,0.322,0.561,0.709,1.1,1.135c0.373-1.037,0.653-2.08,0.729-3.35v-0.002C267.41,192.744,267.026,186.55,268.218,181.962
	 M286.805,191.285c0.001,0.093-0.009,0.177-0.026,0.248c-0.18,0.654-0.293,1.019-0.604,2.06c-1.268,4.242-1.518,5.01-2.195,7.972
	c-0.1,0.426-0.182,0.772-0.264,1.059c-0.088,0.191-0.318,0.391-0.623,0.602c-0.122-5.473-0.211-10.814,0.102-14.988
	c0.266-3.563,2.41-3.34,2.873-8.061C286.762,184.421,286.503,189.697,286.805,191.285 M283.255,213.259
	c0.67-1.021,0.844-1.756,1.106-1.967c2.396-1.9,1.63-4.892,2.693-7.486c1.219-3.146,3.057-8.008,4.245-10.233
	c0.082-0.15,0.604-1.06,0.646-2.103c-0.153-4.457-0.728-17.131-2.694-19.463c-0.844-0.996-4.062-3.209-4.354-3.647
	c-0.151-0.226,0.229-1.464,0.308-1.832c1.453,0.541,3.241,0.012,4.055-1.36c1.182-1.991,1.363-5.03,1.139-7.194
	c-0.137-1.295-0.291-2.102-0.422-2.811c-0.135-0.707-0.244-1.314-0.666-2.262c-2.65-5.941-9.543-5.724-12.834-1.351
	c-0.775,1.026-0.98,2.224-1.225,2.914c-0.244,0.688-0.594,0.847-0.728,1.287c-0.631,2.098,1.597,4.045,2.533,5.682
	c0.354,0.617,0.479,1.25,0.603,1.884c0.123,0.633,0.245,1.266-0.13,1.772s-1.247,0.892-2.206,1.287
	c-0.962,0.397-2.009,0.813-2.916,1.103c-0.908,0.288-1.677,0.454-2.56,0.938c-0.882,0.481-1.877,1.282-2.615,2.085
	c-0.739,0.801-1.223,1.605-1.569,2.338c-0.348,0.732-0.562,1.389-0.904,1.926c-0.342,0.537-0.814,0.955-1.619,1.842
	c-3.113,3.428-5.221,10.127-5.305,10.207c-0.412,1.199,0.043,2.771,0.49,3.906c0.981,2.49,2.327,7.842,3.228,11.305
	c0.806,2.867-0.366,5.924,1.927,8.219c0.119,0.121,0.287,0.207,0.477,0.25c-0.184,6.242,1.627,14.068,1.791,17.955
	c0.029,0.709-0.104,1.279-0.201,2.603c-0.098,1.319-0.159,3.396,0.019,5.76c0.681,9.048,1.369,10.73,0.776,19.003
	c-0.077,1.086-0.203,1.424,0.095,2.479c0.231,0.817,0.332,1.274,0.539,1.748c0.265,0.604,0.726,0.899,1.349,1.028
	c0.622,0.129,1.407,0.09,2.053,0.201c2.715,0.465,7.518,3.127,10.16,1.672c0.569-0.313,0.709-0.777,0.51-1.299
	c2.795,0.725,6.734,2.396,8.971,1.066c1.234-0.734,0.342-2.133-1.626-3.23c-1.103-0.613-1.937-0.9-3.429-1.787
	c-1.489-0.889-3.488-1.967-4.328-2.861c-1-1.063,0.369-21.354,1.875-28.854C283.226,222.398,283.326,218.984,283.255,213.259
	 M275.565,257.697c-0.067-0.502-0.006-0.896,0.021-1.633c0.035-0.922,0.059-1.795,0.072-2.633c0.105-6.438-0.361-10.727-0.918-18.15
	c-0.177-2.367-0.115-4.438-0.017-5.762c0.096-1.322,0.229-1.891,0.198-2.602c-0.028-0.709,0.039-6.914-0.346-7.666
	c-0.02-0.041-0.715,7.797-0.84,8.418c-1.59,7.926-2.213,13.955-2.412,21.939c-0.037,1.661-0.104,4.905,0.102,5.141
	C272.218,255.654,274.117,256.773,275.565,257.697"/>
<path fill="#FFF3D0" d="M82.196,69.611l-1.941-1.549c0,0-4.098-2.6-4.739-2.609c-1.018-0.547-7.451-6.564-8.875-7.172
	c-2.27-0.968-3.895-12.594-4.781-13.691c-0.674-0.836-6.122-8.057-6.277-8.281c-0.641-0.926-2.054-1.305-2.366-1.73
	c-0.16-0.219,0.168-1.473,0.231-1.844c1.475,0.48,3.239-0.123,3.995-1.529c1.096-2.039,1.152-5.082,0.836-7.235
	c-0.19-1.287-0.378-2.086-0.54-2.789c-0.162-0.7-0.297-1.303-0.758-2.231c-2.897-5.826-9.774-5.318-12.881-0.813
	c-0.73,1.061-0.886,2.262-1.1,2.961c-0.215,0.699,0.441,0.871,0.327,1.318c-0.544,2.119,0.764,3.975,1.769,5.57
	c0.38,0.602,0.529,1.229,0.679,1.856s0.3,1.254-0.054,1.774c-0.354,0.523-1.21,0.941-2.152,1.379
	c-0.943,0.438-1.972,0.896-2.867,1.224s-1.656,0.524-2.518,1.045c-2.512,1.513-10.383,9-12.195,12.138
	c-1.413,2.448-1.365,2.512-1.2,4.256c0.239,2.514,3.058,7.711,2.968,11.08c-0.02,2.809-1.881,5.27-0.405,7.946
	c0.226,0.41,0.914,0.67,1.473,0.402c0.209,0.413,0.823,0.6,1.504,0.17c0.297,0.664,1.54,0.377,1.665-0.316
	c0.225-0.254,0.853-0.282,1.03-0.61c0.659-1.226-0.398-1.662,0.264-2.992c0.627-1.26-1.956-3.463-1.994-4.401
	c0.034-0.297-1.251-4.877-0.782-9.278c0.115-1.08,0.15-1.459,0.237-2.131c0.198-1.412,4.153-4.824,5.801-5.555
	c0.915,4.496,0.201,15.034,0.105,20.086c-0.038,2.016-0.2,2.678-0.469,3.381h16.877c-0.093-1.02-0.296-2.072-0.618-3.221
	c-0.815-4.669-0.253-6.979-0.099-11.711c0.117-3.572,2.268-3.438,2.534-8.172c0.897,0.883,5.007,14.436,6.855,14.904
	c3.224,2.483,6.83,3.984,9.541,4.817c0.646,0.612,1.162,1.036,1.438,1.215c0.607,0.401,1.012,0.701,1.419,1.081
	c0.408,0.383,0.822,0.852,1.444,1.594c0.145,0.17,0.319,0.277,0.489,0.33h0.001c0.2,0.057,0.397,0.041,0.547-0.046
	c0.379-0.218,0.282-0.548,0.113-0.842c-0.045-0.079-0.09-0.147-0.132-0.211c-0.028-0.044-0.056-0.087-0.067-0.104l-0.848-1.373
	l-0.026-0.041l4.009,1.459l1.764,1.088C81.992,70.437,82.615,69.886,82.196,69.611z"/>
<path fill="#FFF3D0" d="M234.423,69.611l-1.941-1.549c0,0-4.098-2.6-4.738-2.609c-1.019-0.547-7.451-6.564-8.875-7.172
	c-2.271-0.968-3.896-12.594-4.781-13.691c-0.674-0.836-6.123-8.057-6.277-8.281c-0.641-0.926-2.055-1.305-2.366-1.73
	c-0.159-0.219,0.169-1.473,0.231-1.844c1.475,0.48,3.238-0.123,3.994-1.529c1.097-2.039,1.152-5.082,0.836-7.235
	c-0.189-1.287-0.377-2.086-0.539-2.789c-0.162-0.7-1.297-1.303-1.758-2.231c-2.897-5.826-8.774-5.318-11.881-0.813
	c-0.73,1.061-0.887,2.262-1.101,2.961c-0.215,0.699,0.44,0.871,0.327,1.318c-0.544,2.119,0.764,3.975,1.77,5.57
	c0.379,0.602,0.528,1.229,0.678,1.856c0.15,0.627,0.301,1.254-0.053,1.774c-0.354,0.523-1.211,0.941-2.152,1.379
	c-0.943,0.438-1.973,0.896-2.867,1.224s-1.656,0.524-2.518,1.045c-2.513,1.513-10.383,9-12.195,12.138
	c-1.413,2.448-1.365,2.512-1.2,4.256c0.239,2.514,3.058,7.711,2.968,11.08c-0.02,2.809,0.119,5.27,1.596,7.946
	c0.226,0.41,0.914,0.67,1.473,0.402c0.209,0.413,0.822,0.6,1.504,0.17c0.297,0.664,1.54,0.377,1.665-0.316
	c0.226-0.254,0.853-0.282,1.03-0.61c0.658-1.226-0.398-1.662,0.264-2.992c0.627-1.26-1.956-3.463-1.994-4.401
	c0.034-0.297-3.251-4.877-2.781-9.278c0.114-1.08,0.149-1.459,0.236-2.131c0.198-1.412,4.152-4.824,5.801-5.555
	c0.915,4.496,0.201,15.034,0.105,20.086c-0.038,2.016-0.2,2.678-0.469,3.381h16.877c-0.094-1.02-0.297-2.072-0.619-3.221
	c-0.814-4.669-0.252-6.979-0.098-11.711c0.116-3.572,2.268-3.438,2.533-8.172c0.896,0.883,5.008,14.436,6.855,14.904
	c3.224,2.483,6.83,3.984,9.541,4.817c0.646,0.612,1.162,1.036,1.438,1.215c0.607,0.401,1.012,0.701,1.419,1.081
	c0.408,0.383,0.822,0.852,1.444,1.594c0.145,0.17,0.318,0.277,0.488,0.33h0.002c0.199,0.057,0.396,0.041,0.547-0.046
	c0.379-0.218,0.281-0.548,0.113-0.842c-0.045-0.079-0.09-0.147-0.133-0.211c-0.027-0.044-0.056-0.087-0.066-0.104l-0.848-1.373
	l-0.026-0.041l4.009,1.459l1.764,1.088C234.219,70.437,234.842,69.886,234.423,69.611z"/>
<path fill="#FFF3D0" d="M150.602,73.611l-1.941-1.549c0,0-4.098-2.6-4.739-2.609c-1.018-0.547-6.451-8.564-7.875-9.172
	c-1.605-3.422-2.895-14.594-3.781-15.691c-0.674-0.836-6.122-8.057-6.277-8.281c-0.641-0.926-2.054-1.305-2.366-1.73
	c-0.16-0.219,0.168-1.473,0.231-1.844c1.475,0.48,3.239-0.123,3.995-1.529c1.096-2.039,1.152-5.082,0.836-7.235
	c-0.19-1.287-0.378-2.086-0.54-2.789c-0.162-0.7-0.297-1.303-0.758-2.231c-2.897-5.826-9.774-5.318-12.881-0.813
	c-0.73,1.061-0.886,2.262-1.1,2.961c-0.215,0.699,0.441,0.871,0.327,1.318c-0.544,2.119,0.764,3.975,1.769,5.57
	c0.38,0.602,0.529,1.229,0.679,1.856s0.3,1.254-0.054,1.774c-0.354,0.523-1.21,0.941-2.152,1.379
	c-0.943,0.438-1.972,0.896-2.867,1.224s-1.656,0.524-2.518,1.045c-2.512,1.513-10.383,9-12.195,12.138
	c-1.413,2.448-1.365,2.512-1.2,4.256c0.239,2.514,4.058,7.711,3.968,11.08c-0.02,2.809-1.881,5.27-0.405,7.946
	c0.226,0.41,0.914,0.67,1.473,0.402c0.209,0.413,0.823,0.6,1.504,0.17c0.297,0.664,1.54,0.377,1.665-0.316
	c0.225-0.254,0.853-0.282,1.03-0.61c0.659-1.226-0.398-1.662,0.264-2.992c0.627-1.26-1.956-3.463-1.994-4.401
	c0.034-0.297-2.251-4.877-1.782-9.278c0.115-1.08,0.15-1.459,0.237-2.131c0.198-1.412,4.153-4.824,5.801-5.555
	c0.915,4.496,0.201,15.034,0.105,20.086c-0.038,2.016-0.2,2.678-0.469,3.381h16.877c-0.093-1.02-0.296-2.072-0.618-3.221
	c-0.815-4.669-0.253-6.979-0.099-11.711c0.117-3.572,2.268-3.438,2.534-8.172c0.897,0.883,3.188,15.112,5.036,15.581
	c3.224,2.483,11.811,10.057,12.217,10.437c0.408,0.383,0.822,0.852,1.444,1.594c0.145,0.17,0.319,0.277,0.489,0.33h0.001
	c0.2,0.057,0.397,0.041,0.547-0.046c0.379-0.218,0.282-0.548,0.113-0.842c-0.045-0.079-0.09-0.147-0.132-0.211
	c-0.028-0.044-0.056-0.087-0.067-0.104l-0.848-1.373l-0.026-0.041l4.009,1.459l1.764,1.088
	C150.398,74.437,151.021,73.886,150.602,73.611z"/>
<path fill="#58462F" d="M275.708,151.32c4.674-6.041,14.266-3.967,14.311,3.928c-1.23,0.857-5.572,1.514-6.668,0.941
	c-0.172,0.78-0.836,2.188-1.752,3.254c-0.166-0.447-0.33-0.894-0.553-1.219c-0.732-1.079-1.976-0.604-2.207,0.559
	c-0.242,1.213,0.342,3.276,1.996,2.693c-0.66,1.95-2,2.809-3.09,2.319C274.998,159.47,272.054,156.173,275.708,151.32"/>
<path fill="#58462F" d="M205.083,151.32c4.674-6.041,15.266-3.967,15.312,3.928c-1.231,0.857-6.573,1.514-7.668,0.941
	c-0.173,0.78-0.837,2.188-1.753,3.254c-0.165-0.447-0.329-0.894-0.551-1.219c-0.734-1.079-1.977-0.604-2.209,0.559
	c-0.241,1.213,0.343,3.276,1.998,2.693c-0.66,1.95-2,2.809-3.092,2.319C204.375,159.47,201.429,156.173,205.083,151.32"/>
<g>
	<path fill="#FFF3D0" d="M275.72,45.973c-1.646,0.729-6.604,4.143-6.801,5.553c-0.088,0.672-0.121,1.053-0.236,2.131
		c-0.469,4.402-0.535,5.209-1.051,8.201c-0.074,0.43-0.135,0.781-0.168,1.078c0.037,0.939,2.621,3.141,1.994,4.401
		c-0.662,1.33,0.395,1.768-0.265,2.991c-0.178,0.328-0.805,0.357-1.03,0.611c-0.125,0.693-1.367,0.98-1.664,0.316
		c-0.682,0.43-1.295,0.244-1.504-0.17c-0.56,0.268-1.248,0.008-1.474-0.402c-1.478-2.678,0.386-5.139,0.403-7.945
		c0.091-3.371,0.271-8.568,0.033-11.08c-0.166-1.746-0.213-1.809,1.199-4.258c1.813-3.137,9.684-10.623,12.195-12.137
		c0.861-0.52,1.623-0.717,2.518-1.045c0.896-0.327,1.924-0.784,2.867-1.223c0.941-0.437,1.799-0.855,2.152-1.379
		c0.354-0.521,0.203-1.148,0.054-1.775s-0.3-1.255-0.679-1.857c-1.006-1.596-3.313-3.449-2.77-5.57
		c0.113-0.446,0.457-0.618,0.674-1.317c0.213-0.7,0.369-1.901,1.1-2.962c3.105-4.506,9.984-5.014,12.881,0.814
		c0.461,0.928,0.596,1.53,0.758,2.231c0.162,0.702,0.351,1.501,0.541,2.789c0.314,2.154,0.26,5.197-0.836,7.235
		c-0.758,1.406-2.521,2.01-3.996,1.529c-0.063,0.371-0.391,1.625-0.229,1.844c0.312,0.427,1.726,0.806,2.364,1.731
		c0.156,0.226,5.604,7.445,6.277,8.28c0.887,1.1,1.986,2.285,2.676,2.686c2.01,0.366,6.836,3.039,9.105,4.006
		c1.799,0.769,4.281,1.313,5.559,1.761l0.244,0.085c1.549,0.474,3.09,0.855,4.242,0.805c0.557-0.318,0.664-0.268,1.535-0.031
		l3.873-0.145l2.459,0.341c0.502,0.022,0.246,0.813-0.355,0.904l-2.072-0.035l-4.19,0.792l0.043,0.021l1.431,0.748
		c0.018,0.01,0.063,0.032,0.11,0.055c0.065,0.033,0.142,0.07,0.222,0.115c0.295,0.166,0.547,0.399,0.332,0.78
		c-0.086,0.15-0.246,0.267-0.447,0.318h-0.002c-0.172,0.043-0.377,0.039-0.588-0.033c-0.914-0.319-1.51-0.512-2.056-0.633
		c-0.545-0.119-1.045-0.168-1.772-0.205c-1.35-0.05-3.396,1.248-4.545-0.828c-4.728-0.853-3.846-0.569-8.926-1.858
		c-1.849-0.47-4.775-0.662-6.211-1.59c-2.064-1.338-4.316-3.105-5.447-4.205c-0.853-0.828-1.301-1.228-2.197-2.11
		c-0.266,4.735-2.416,4.601-2.533,8.173c-0.154,4.732-0.717,7.042,0.1,11.71c0.879,3.146,0.892,5.567,0.113,8.584
		c3.342,2.762,6.158,4.873,6.211,4.918c2.545,2.164,3.492,3.104,3.973,4.015c0.478,0.909,0.484,1.791,0.674,3.836
		c0.761,8.245,1.927,14.293,4.119,22.278c0.554,2.013,0.976,3.406,1.584,4.649c0.611,1.246,2.134,2.722,3.3,4.009
		c1.163,1.287,2.694,2.76,3.567,3.67s1.088,1.256,0.885,1.438c-0.202,0.187-0.825,0.205-1.45,0.291
		c-0.625,0.084-1.255,0.234-2.019,0.287c-0.768,0.053-1.67,0.006-2.459-0.498c-0.791-0.504-1.467-1.471-2.016-2.145
		c-0.547-0.674-1.691-1.43-2.287-1.705c-0.594-0.275-1.361-0.443-1.93-0.73c-0.569-0.287-0.936-0.69-1.033-1.344
		c-0.096-0.652,0.078-1.549,0.033-2.947c-0.221-6.596-3.311-10.396-5.514-16.16c-0.847-2.215-1.379-4.221-1.664-5.516
		s-0.32-1.879-0.553-2.551c-0.23-0.67-0.658-1.428-1.242-2.039c-0.433-0.451-2.759-2.23-5.562-4.348l-0.009,0.021l-0.131-0.063
		c-0.953,2.401-1.672,4.043-1.688,4.086c-1.284,3.084-1.89,4.272-2.608,5.008c-0.722,0.731-1.558,1.008-3.447,1.813
		c-7.619,3.244-13.021,6.199-19.955,10.729c-1.748,1.141-2.945,1.967-3.945,2.93c-1.002,0.961-1.938,2.861-2.807,4.363
		c-0.871,1.502-1.807,3.408-2.406,4.518c-0.602,1.109-0.865,1.42-1.104,1.283c-0.237-0.137-0.445-0.723-0.719-1.293
		s-0.605-1.121-0.89-1.834c-0.285-0.713-0.519-1.588-0.276-2.494c0.239-0.906,0.952-1.844,1.426-2.572
		c0.477-0.729,0.846-2.049,0.926-2.698c0.082-0.647,0.006-1.433,0.105-2.062c0.102-0.627,0.375-1.102,0.967-1.393
		c0.59-0.291,1.496-0.4,2.813-0.871c6.213-2.223,8.89-6.326,13.705-10.186c1.851-1.482,3.599-2.603,4.743-3.269
		c1.146-0.666,1.691-0.879,2.259-1.305c0.569-0.427,1.16-1.063,1.563-1.81c0.313-0.572,1.375-3.572,2.607-7.096l-1.65-0.785
		c-3.256-1.369-4.016-4.688-3.27-7.486c0.746-2.793,1.199-2.137,1.266-5.69C275.921,61.007,276.636,50.469,275.72,45.973"/>
	<path fill="#58462F" d="M282.496,17.938c4.418-6.23,14.086-4.558,14.461,3.327c-1.193,0.908-5.504,1.745-6.621,1.22
		c-0.142,0.787-0.746,2.219-1.617,3.324c-0.182-0.439-0.365-0.879-0.6-1.195c-0.779-1.047-2-0.521-2.185,0.651
		c-0.19,1.222,0.479,3.259,2.106,2.608c-0.576,1.975-1.881,2.89-2.99,2.445C282.126,26.111,279.046,22.939,282.496,17.938"/>
</g>
<path fill="#FFF3D0" d="M191.457,85.547c-0.232,0.814-0.67,1.566-1.133,2.105c-0.462,0.539-0.947,0.865-1.921,1.766
	c-0.974,0.898-2.437,2.372-3.92,4.222c-3.858,4.815-5.577,9.403-11.157,12.925c-1.184,0.746-3.045,1.051-3.558,1.463
	c-0.513,0.414-0.678,0.938-0.64,1.569c0.04,0.636,0.283,1.384,0.345,2.034c0.063,0.652-0.01,2.021-0.315,2.836
	c-0.304,0.814,0.548,4.563,0.981,5.195c0.433,0.633,0.878,1.1,1.269,1.597c0.389,0.497,0.721,1.022,0.982,1.104
	c0.261,0.082,0.451-0.278,0.796-1.492c0.344-1.213,0.843-3.277,1.364-4.934c0.521-1.654,1.021-3.714,1.789-4.869
	c0.768-1.158,1.757-2.225,3.214-3.719c5.782-5.931,10.409-9.99,17.143-14.814c1.671-1.197,2.427-1.648,2.97-2.521
	c0.543-0.874,0.875-2.167,1.455-5.456c0.01-0.046,0.354-1.804,0.76-4.355l0.143,0.033l-9.566-2.184
	C192.02,81.761,191.636,84.92,191.457,85.547z"/>
<path fill="#FFF3D0" d="M214.138,126.514c-0.615-1.1-1.729-2.91-2.53-4.447c-0.804-1.539-1.907-3.349-2.185-4.709
	c-0.277-1.356-0.336-2.813-0.365-4.898c-0.115-8.281,0.275-14.428,1.611-22.6c0.332-2.026,0.545-2.883,0.313-3.883
	c-0.234-1.002-0.916-2.148-2.834-4.883c-0.041-0.057-2.236-2.809-4.775-6.32c0.957-1.729,1.547-3.309,1.834-5.063l-16.334-4.243
	c-0.336,0.47-0.735,0.947-1.352,2.036c-1.427,2.521-1.525,5.924,1.282,8.067l1.399,1.174l7.519,6.307l0.013-0.02
	c2.182,2.754,3.986,5.061,4.289,5.604c0.412,0.739,0.635,1.58,0.691,2.286c0.055,0.709-0.06,1.283-0.107,2.607
	c-0.049,1.324-0.038,3.399,0.225,5.756c0.685,6.134,2.719,10.589,1.274,17.027c-0.308,1.365-0.701,2.189-0.772,2.846
	c-0.068,0.656,0.186,1.14,0.662,1.561c0.479,0.42,1.178,0.775,1.685,1.191c0.508,0.416,1.425,1.436,1.786,2.226
	c0.359,0.79,0.771,1.896,1.41,2.582s1.498,0.959,2.254,1.101c0.754,0.142,1.4,0.152,2.027,0.229
	c0.625,0.073,1.233,0.211,1.477,0.082C214.876,128.004,214.755,127.615,214.138,126.514z"/>
<path fill="#FFF3D0" d="M204.776,68.378c0,0,2.185,4.06,0,9.676S201.294,69.086,204.776,68.378z"/>
<path fill="#58462F" d="M113.574,17.938c4.418-6.23,14.087-4.558,14.462,3.327c-1.194,0.908-5.504,1.745-6.622,1.22
	c-0.141,0.787-0.745,2.219-1.616,3.324c-0.183-0.439-0.366-0.879-0.601-1.195c-0.779-1.047-1.999-0.521-2.183,0.651
	c-0.192,1.222,0.479,3.259,2.108,2.608c-0.578,1.975-1.881,2.89-2.992,2.445C113.206,26.111,110.125,22.939,113.574,17.938"/>
<path fill="#FFF3D0" d="M114.771,123.722c-0.616-1.101-1.728-2.91-2.531-4.448c-0.804-1.537-1.907-3.348-2.185-4.707
	c-0.277-1.357,21.057-15.895,21.057-21.562c0.332-2.026-2.65-9.179-4.568-11.911c-0.041-0.057-2.235-2.809-4.775-6.32
	c0.958-1.729,1.546-3.309,1.834-5.063l-16.335-4.243c-0.334,0.47-0.735,0.947-1.351,2.036c-1.426,2.521-1.526,5.924,1.283,8.067
	l1.399,1.174l7.519,6.307l0.013-0.02c2.181,2.754,3.985,5.061,4.289,5.604c0.412,0.739,0.634,1.58,0.69,2.286
	c0,10.75-15.927,16.16-17.372,22.6c-0.307,1.365,1.068,5.182,1.573,5.598c0.507,0.416,3.559,4.121,4.197,4.808
	c0.638,0.687,1.499,0.959,2.255,1.101c0.754,0.142,1.399,0.152,2.026,0.229c0.626,0.073,1.234,0.211,1.476,0.082
	C115.509,125.212,115.388,124.822,114.771,123.722z"/>
<path fill="#FFF3D0" d="M123.173,68.378c0,0,2.184,4.06,0,9.676S119.69,69.086,123.173,68.378z"/>
<path fill="#58462F" d="M43.724,17.938c4.418-6.23,14.087-4.558,14.462,3.327c-1.194,0.908-5.504,1.745-6.622,1.22
	c-0.141,0.787-0.745,2.219-1.616,3.324c-0.183-0.439-0.366-0.879-0.601-1.195c-0.779-1.047-1.999-0.521-2.183,0.651
	c-0.192,1.222,0.479,3.259,2.108,2.608c-0.578,1.975-1.881,2.89-2.992,2.445C43.356,26.111,40.275,22.939,43.724,17.938"/>
<path fill="#FFF3D0" d="M27.294,122.369c-0.217-1.241-0.667-3.318-0.915-5.035c-0.249-1.719-0.69-3.791-0.502-5.166
	c0.188-1.373,25.133-8.021,27.011-13.367c0.984-1.803,0.54-9.538-0.365-12.752c-0.02-0.066-1.179-3.391-2.412-7.547
	c1.477-1.313,2.555-2.608,3.409-4.17l-14.007-9.415c-0.471,0.333-1.007,0.649-1.95,1.474c-2.18,1.905-3.402,5.084-1.462,8.038
	l0.932,1.57l5.005,8.44l0.019-0.015c1.145,3.321,2.083,6.095,2.189,6.71c0.144,0.834,0.075,1.701-0.105,2.386
	c-3.561,10.144-20.381,9.972-23.877,15.569c-0.742,1.188-0.708,5.242-0.37,5.802c0.341,0.562,1.993,5.067,2.367,5.927
	c0.374,0.86,1.097,1.401,1.763,1.785c0.665,0.383,1.27,0.607,1.836,0.889c0.566,0.276,1.095,0.607,1.366,0.565
	C27.497,124.02,27.512,123.613,27.294,122.369z"/>
<path fill="#FFF3D0" d="M161.738,203.025l-1.941-1.549c0,0-4.098-2.6-4.739-2.609c-1.018-0.547-7.451-6.564-8.875-7.172
	c-2.27-0.968-3.895-12.594-4.781-13.691c-0.674-0.836-6.122-8.057-6.277-8.281c-0.641-0.926-2.054-1.305-2.366-1.73
	c-0.16-0.219,0.168-1.473,0.231-1.844c1.475,0.48,3.239-0.123,3.995-1.529c1.096-2.039,1.152-5.082,0.836-7.235
	c-0.19-1.287-0.378-2.086-0.54-2.789c-0.162-0.7-0.297-1.303-0.758-2.231c-2.897-5.826-9.774-5.318-12.881-0.813
	c-0.73,1.061-0.886,2.262-1.1,2.961c-0.215,0.699-0.559,0.871-0.673,1.318c-0.544,2.119,1.764,3.975,2.769,5.57
	c0.38,0.602,0.529,1.229,0.679,1.856s0.3,1.254-0.054,1.774c-0.354,0.523-1.21,0.941-2.152,1.379
	c-0.943,0.438-1.972,0.896-2.867,1.224s-1.656,0.524-2.518,1.045c-2.512,1.513-10.383,9-12.195,12.138
	c-1.413,2.448-1.365,2.512-1.2,4.256c0.239,2.514,3.058,7.711,2.968,11.08c-0.02,2.809-1.881,5.27-0.405,7.946
	c0.226,0.41,0.914,0.67,1.473,0.402c0.209,0.413,0.823,0.6,1.504,0.17c0.297,0.664,1.54,0.377,1.665-0.316
	c0.225-0.254,0.853-0.282,1.03-0.61c0.659-1.226-0.398-1.662,0.264-2.992c0.627-1.26-1.956-3.463-1.994-4.401
	c0.034-0.297-1.251-4.877-0.782-9.278c0.115-1.08,0.15-1.459,0.237-2.131c0.198-1.412,4.153-4.824,5.801-5.555
	c0.915,4.496,0.201,15.034,0.105,20.086c-0.038,2.016-0.2,2.678-0.469,3.381h16.877c-0.093-1.02-0.296-2.072-0.618-3.221
	c-0.815-4.669-0.253-6.979-0.099-11.711c0.117-3.572,2.268-3.438,2.534-8.172c0.897,0.883,5.007,14.436,6.855,14.904
	c3.224,2.483,6.83,3.984,9.541,4.817c0.646,0.612,1.162,1.036,1.438,1.215c0.607,0.401,1.012,0.701,1.419,1.081
	c0.408,0.383,0.822,0.852,1.444,1.594c0.145,0.17,0.319,0.277,0.489,0.33h0.001c0.2,0.057,0.397,0.041,0.547-0.046
	c0.379-0.218,0.282-0.548,0.113-0.842c-0.045-0.079-0.09-0.147-0.132-0.211c-0.028-0.044-0.056-0.087-0.067-0.104l-0.848-1.373
	l-0.026-0.041l4.009,1.459l1.764,1.088C161.534,203.851,162.157,203.3,161.738,203.025z"/>
<path fill="#FFF3D0" d="M52.323,68.378c0-0.001,3.184,4.06,1,9.676C51.139,83.67,41.2,69.439,52.323,68.378z"/>
<path fill="#FFF3D0" d="M56.932,113.592h0.271c-0.289-1.164-0.042-3.852,1.092-6.339c3.688-9.382,3.963-19.041,1.303-23.683
	c-0.002-0.047-7.025-15.518-7.025-15.518l-9.492,1.65c0.404,3.711,10.535,21.268,10.13,24.647
	c0.121,3.761-2.173,11.591-2.821,17.783c0,0,0.531,4.115,0.905,4.658c0.375,0.543,0.883,0.743,1.52,0.75
	c0.636,0.007,7.681,1.259,8.612,1.362c0.932,0.104,1.762-0.252,2.427-0.638c0.663-0.386,1.16-0.798,1.685-1.147
	c0.523-0.354,1.073-0.646,1.172-0.901C70.259,114.004,58.062,114.375,56.932,113.592z"/>
<path fill="#FFF3D0" d="M109.797,113.424l0.264,0.066c0.001-1.201,0.891-3.748,2.592-5.888c5.847-8.211,8.451-17.518,6.992-22.665
	c0.01-0.046-2.335-15.542-2.335-15.542l-10.338-1.907c-0.505,3.699,5.079,23.186,3.868,26.367
	c-0.792,3.678-4.912,10.721-7.039,16.572c0,0-0.479,4.122-0.248,4.739c0.232,0.616,0.677,0.935,1.293,1.096
	c0.616,0.16,7.149,3.079,8.027,3.404c0.878,0.327,1.77,0.183,2.509-0.03c0.737-0.215,1.318-0.494,1.913-0.707
	c0.593-0.216,1.197-0.367,1.355-0.592C122.628,117.047,110.704,114.457,109.797,113.424z"/>
<path fill="#FFF3D0" d="M84.828,187.509l-2.46-0.34l-3.872,0.144c-0.871-0.234-0.979-0.285-1.535,0.032
	c-1.154,0.05-2.695-0.332-4.244-0.806l-0.243-0.086c-1.277-0.446-3.76-0.991-5.559-1.76c-2.27-0.967-7.096-3.641-9.106-4.007
	c-0.689-0.399-1.789-1.586-2.675-2.685c-0.674-0.836-6.122-8.057-6.277-8.281c-0.641-0.926-2.054-1.305-2.366-1.73
	c-0.16-0.219,0.168-1.473,0.231-1.844c1.475,0.48,3.239-0.123,3.995-1.529c1.096-2.039,1.152-5.082,0.836-7.235
	c-0.19-1.287-0.378-2.086-0.54-2.789c-0.162-0.7-0.297-1.304-0.758-2.231c-2.897-5.826-9.774-5.318-12.881-0.813
	c-0.73,1.061-0.886,2.262-1.1,2.961c-0.215,0.699-0.559,0.871-0.673,1.318c-0.544,2.119,1.764,3.975,2.769,5.57
	c0.38,0.602,0.529,1.229,0.679,1.856c0.15,0.627,0.3,1.254-0.054,1.774c-0.354,0.523-1.21,0.941-2.152,1.379
	c-0.943,0.438-1.972,0.896-2.867,1.224s-1.656,0.524-2.518,1.045c-2.512,1.513-10.383,9-12.195,12.137
	c-1.413,2.449-1.365,2.513-1.2,4.257c0.239,2.514,0.058,7.711-0.032,11.08c-0.02,2.809-1.881,5.27-0.405,7.946
	c0.226,0.41,0.914,0.67,1.473,0.401c0.209,0.414,0.823,0.601,1.504,0.171c0.297,0.663,1.54,0.377,1.665-0.316
	c0.225-0.254,0.853-0.282,1.03-0.61c0.659-1.226-0.398-1.662,0.264-2.992c0.627-1.26-1.956-3.463-1.994-4.401
	c0.034-0.297,0.093-0.647,0.167-1.078c0.516-2.993,0.582-3.799,1.051-8.2c0.115-1.08,0.15-1.459,0.237-2.132
	c0.198-1.411,5.153-4.823,6.801-5.554c0.915,4.496,0.201,15.034,0.105,20.086c-0.038,2.016-0.2,2.678-0.469,3.381h16.877
	c-0.093-1.02-0.296-2.072-0.618-3.221c-0.815-4.669-0.253-6.979-0.099-11.711c0.117-3.572,2.268-3.438,2.534-8.172
	c0.897,0.883,1.346,1.281,2.197,2.109c1.131,1.1,3.382,2.866,5.448,4.204c1.434,0.929,4.362,1.121,6.21,1.591
	c5.081,1.289,4.2,1.006,8.926,1.858c1.149,2.075,3.196,0.776,4.546,0.828c0.727,0.034,1.228,0.086,1.772,0.204
	c0.546,0.121,1.141,0.313,2.055,0.633c0.211,0.072,0.416,0.076,0.589,0.033h0.001c0.201-0.053,0.362-0.168,0.447-0.318
	c0.215-0.381-0.037-0.613-0.332-0.781c-0.079-0.045-0.154-0.082-0.221-0.113c-0.047-0.023-0.093-0.047-0.111-0.055l-1.43-0.748
	l-0.043-0.021l4.191-0.793l2.073,0.035C85.074,188.322,85.329,187.531,84.828,187.509z"/>
<path fill="#58462F" d="M36.598,151.349c4.418-6.229,14.087-4.558,14.462,3.328c-1.194,0.908-5.504,1.744-6.622,1.219
	c-0.141,0.787-0.745,2.22-1.616,3.324c-0.183-0.438-0.366-0.879-0.601-1.194c-0.779-1.048-1.999-0.521-2.183,0.651
	c-0.192,1.222,0.479,3.258,2.108,2.606c-0.578,1.976-1.881,2.892-2.992,2.445C36.23,159.523,33.149,156.351,36.598,151.349"/>
<path fill="#FFF3D0" d="M37.795,257.134c-0.616-1.101-1.728-2.91-2.531-4.449c-0.804-1.536-1.907-3.348-2.185-4.707
	c-0.277-1.356,21.057-15.895,21.057-21.561c0.332-2.027-2.65-9.179-4.568-11.912c-0.041-0.058-2.235-2.81-4.775-6.32
	c0.958-1.729,1.546-3.309,1.834-5.063l-16.335-4.242c-0.334,0.469-0.735,0.947-1.351,2.035c-1.426,2.52-1.526,5.924,1.283,8.068
	l1.399,1.174l7.519,6.307l0.013-0.02c2.181,2.754,3.985,5.061,4.289,5.604c0.412,0.737,0.634,1.58,0.69,2.284
	c0,10.75-15.927,16.16-17.372,22.601c-0.307,1.365,1.068,5.183,1.573,5.599c0.507,0.416,3.559,4.121,4.197,4.807
	c0.638,0.688,1.499,0.959,2.255,1.102c0.754,0.141,1.399,0.152,2.026,0.229c0.626,0.073,1.234,0.211,1.476,0.082
	C38.533,258.624,38.412,258.234,37.795,257.134z"/>
<path fill="#FFF3D0" d="M46.197,201.789c0,0,2.184,4.06,0,9.677C44.013,217.08,42.715,202.496,46.197,201.789z"/>
<path fill="#FFF3D0" d="M32.821,246.835l0.264,0.065c0.001-1.199,0.891-3.746,2.592-5.887c5.847-8.211,8.451-17.518,6.992-22.664
	c0.01-0.047-2.335-15.543-2.335-15.543L29.996,200.9c-0.505,3.699,5.079,23.185,3.868,26.367
	c-0.792,3.678-4.912,10.721-7.039,16.572c0,0-0.479,4.121-0.248,4.738c0.232,0.617,0.677,0.936,1.293,1.096
	c0.616,0.16,7.149,3.08,8.027,3.404c0.878,0.328,1.77,0.184,2.509-0.029c0.737-0.215,1.318-0.494,1.913-0.707
	c0.593-0.217,1.197-0.367,1.355-0.592C45.653,250.458,33.729,247.867,32.821,246.835z"/>
<path fill="#58462F" d="M123.03,151.349c4.418-6.229,14.087-4.558,14.462,3.328c-1.194,0.908-5.504,1.744-6.622,1.219
	c-0.141,0.787-0.745,2.22-1.616,3.324c-0.183-0.438-0.366-0.879-0.601-1.194c-0.779-1.048-1.999-0.521-2.183,0.651
	c-0.192,1.222,0.479,3.258,2.108,2.606c-0.578,1.976-1.881,2.892-2.992,2.445C122.662,159.523,119.582,156.351,123.03,151.349"/>
<path fill="#FFF3D0" d="M124.228,257.134c-0.616-1.101-1.728-2.91-2.531-4.449c-0.804-1.536-1.907-3.348-2.185-4.707
	c-0.277-1.356,10.088-10.311,10.088-15.977c0.332-2.027,7.892-31.101,1.625-23.816c0.958-1.729,1.546-3.309,1.834-5.063
	l-16.335-4.242c-0.334,0.469-0.735,0.947-1.351,2.035c-1.426,2.52-1.526,5.924,1.283,8.068l1.399,1.174
	c0,0,1.965,7.729,1.965,15.179c0,10.75-5.381,15.159-6.826,21.599c-0.307,1.365,1.068,5.182,1.573,5.598
	c0.507,0.416,3.559,4.121,4.197,4.808c0.638,0.688,1.499,0.959,2.255,1.103c0.754,0.141,1.399,0.151,2.026,0.229
	c0.626,0.074,1.234,0.211,1.476,0.082C124.965,258.624,124.844,258.234,124.228,257.134z"/>
<path fill="#FFF3D0" d="M132.629,201.789c0,0,2.184,4.06,0,9.677C130.445,217.08,129.147,202.496,132.629,201.789z"/>
<path fill="#FFF3D0" d="M122.174,246.835l0.264,0.065c0.001-1.199,0.891-3.746,2.592-5.887c5.847-8.211,8.451-17.518,6.992-22.664
	c0.01-0.047-2.335-15.543-2.335-15.543l-10.338-1.906c-0.505,3.699,5.079,23.185,3.868,26.367
	c-0.792,3.678-4.912,10.721-7.039,16.572c0,0-0.479,4.121-0.248,4.738c0.232,0.617,0.677,0.936,1.293,1.096
	c0.616,0.16,7.149,3.08,8.027,3.404c0.878,0.328,1.77,0.184,2.509-0.029c0.737-0.215,1.318-0.494,1.913-0.707
	c0.593-0.217,1.197-0.367,1.355-0.592C135.006,250.458,123.082,247.867,122.174,246.835z"/>
<path fill="#58462F" d="M195.177,17.938c4.418-6.23,14.088-4.558,14.463,3.327c-1.194,0.908-5.504,1.745-6.623,1.22
	c-0.141,0.787-0.744,2.219-1.615,3.324c-0.184-0.439-0.365-0.879-0.602-1.195c-0.778-1.047-1.998-0.521-2.184,0.651
	c-0.191,1.222,0.479,3.259,2.108,2.608c-0.578,1.975-1.882,2.89-2.992,2.445C194.81,26.111,191.729,22.939,195.177,17.938"/>
</svg>
